<svg fill="none" xmlns="http://www.w3.org/2000/svg" viewBox="0 0 673 702"><path d="M364.5 701.6c201.3 0 364.5-94.2 364.5-210.4S565.8 280.8 364.5 280.8 0 375 0 491.2s163.2 210.4 364.5 210.4Z" fill="#FAFAFA"/><path d="M180.9 586.9 361.2 691a16.7 16.7 0 0 0 15 0L652 532c4.2-2.4 4.2-6.3 0-8.7L471.5 419a16.7 16.7 0 0 0-15 0L180.9 578c-4.2 2.5-4.2 6.4 0 8.8ZM223.8 487.8 131.7 541a8.9 8.9 0 0 1-8 0l-92-53.1c-2.2-1.3-2.2-3.4 0-4.7l92-53.1a8.8 8.8 0 0 1 8 0l92 53.1c2.2 1.3 2.2 3.4 0 4.6ZM378.8 398.4l-93.4 53.8a9 9 0 0 1-8 0l-93.2-53.8c-2.3-1.3-2.3-3.4 0-4.7l93.3-53.8a9 9 0 0 1 8.1 0l93.2 53.8c2.3 1.3 2.3 3.4 0 4.7Z" fill="#E0E0E0"/><path d="m483 434.3-9.7-5.6s-5.7-24-3.4-45.5c3.2-30.2 23.1-41.6 30.7-39 7.6 2.6 9.8 11.4-2.8 29.4a100.4 100.4 0 0 0-14.8 60.7Z" fill="#7FE389"/><path opacity=".3" d="m483 434.3-9.7-5.6s-5.7-24-3.4-45.5c3.2-30.2 23.1-41.6 30.7-39 7.6 2.6 9.8 11.4-2.8 29.4a100.4 100.4 0 0 0-14.8 60.7Z" fill="#fff"/><path d="M479 422.5h.3a.7.7 0 0 0 .3-.7c-5.3-28 4.5-59.3 16.5-72.3a.7.7 0 0 0-.2-1.1.7.7 0 0 0-.5 0l-.2.1c-12.3 13.3-22.3 45.2-16.9 73.5 0 .2.1.3.3.4l.4.1Z" fill="#fff"/><path d="M508.8 449.5c1.5.7 5.3-2.6 6.4-3.4a12.5 12.5 0 0 0 5-12.9l-1.3-4-1.3-3.8a10 10 0 0 1-.8-3.9c.3-2.6 2.5-4.6 4.6-6.3 2-1.8 4.6-4.4 4.5-7.6-.3-2.5-1.4-4.8-3.2-6.6-1.6-1.8-3.5-3.4-5-5.4a7.9 7.9 0 0 1-1.9-5c.1-1 .4-2.1 1-3 1.2-2.1 2.2-4.3 3-6.5a6.3 6.3 0 0 0-1.4-6.6 7.3 7.3 0 0 0-5.6-1c-1.8.2-3.5 1-5 2-5 3-7.5 9.3-12.8 11.7-2.1.8-4.3 1.4-6.5 2a8 8 0 0 0-5.2 3.9c-1.8 4 2.1 8.7 1 13-1 3.8-4.6 5.4-6.5 8.9a8 8 0 0 0-.7 4.9c.3 2.8 1.2 5.6 2.5 8.1 1.4 2.6 3 5.1 4.9 7.5l24.3 14Z" fill="#7FE389"/><path opacity=".6" d="M508.8 449.5c1.5.7 5.3-2.6 6.4-3.4a12.5 12.5 0 0 0 5-12.9l-1.3-4-1.3-3.8a10 10 0 0 1-.8-3.9c.3-2.6 2.5-4.6 4.6-6.3 2-1.8 4.6-4.4 4.5-7.6-.3-2.5-1.4-4.8-3.2-6.6-1.6-1.8-3.5-3.4-5-5.4a7.9 7.9 0 0 1-1.9-5c.1-1 .4-2.1 1-3 1.2-2.1 2.2-4.3 3-6.5a6.3 6.3 0 0 0-1.4-6.6 7.3 7.3 0 0 0-5.6-1c-1.8.2-3.5 1-5 2-5 3-7.5 9.3-12.8 11.7-2.1.8-4.3 1.4-6.5 2a8 8 0 0 0-5.2 3.9c-1.8 4 2.1 8.7 1 13-1 3.8-4.6 5.4-6.5 8.9a8 8 0 0 0-.7 4.9c.3 2.8 1.2 5.6 2.5 8.1 1.4 2.6 3 5.1 4.9 7.5l24.3 14Z" fill="#fff"/><path d="M494.8 442.2a.6.6 0 0 0 .6-.7c-2.3-25.1 8.1-53.5 16.3-62a.6.6 0 0 0 0-.9.6.6 0 0 0-.4-.2.6.6 0 0 0-.5.2c-8.4 8.7-19 37.5-16.7 63a.6.6 0 0 0 .7.6Z" fill="#fff"/><path d="M497.3 411.2h.2a85.9 85.9 0 0 1 18.5-4l.1-.3v-.3a.6.6 0 0 0-.7-.5 87.4 87.4 0 0 0-18.7 4.2.6.6 0 0 0 0 .5.6.6 0 0 0 .6.4Z" fill="#fff"/><path d="m290.1 116 75 43.3a5.5 5.5 0 0 1 2.5 4.3v227.7a5.5 5.5 0 0 1-2.5 4.3l-81 46.8a5.6 5.6 0 0 1-5 0l-75-43.2a5.6 5.6 0 0 1-2.5-4.4V167.2a5.5 5.5 0 0 1 2.5-4.4l81-46.8a5.5 5.5 0 0 1 5 0Z" fill="#F0F0F0"/><path d="M201.6 167.2v227.6a5.6 5.6 0 0 0 2.5 4.4l75 43.2a5 5 0 0 0 2.4.6V209.6c-.9 0-1.7-.2-2.5-.6l-75-43.3-.6-.5-1-.8c-.5.8-.8 1.8-.8 2.8Z" fill="#E0E0E0"/><path d="m204 162.8 81.1-46.8a5.5 5.5 0 0 1 5 0l75 43.3a1.5 1.5 0 0 1 .8 2.3c-.2.3-.5.5-.8.6l-81 46.8a5.5 5.5 0 0 1-5 0l-75-43.3a1.5 1.5 0 0 1 0-2.9Z" fill="#FAFAFA"/><path d="M287.7 115.4a5 5 0 0 1 2.5.6l75 43.3a1.5 1.5 0 0 1 0 2.9L284 209a5.5 5.5 0 0 1-5 0l-75-43.3a1.5 1.5 0 0 1-.8-2.3c.2-.3.5-.5.8-.6l81-46.8a5 5 0 0 1 2.6-.6Zm0-1.4c-1.1 0-2.2.3-3.2.8l-81.1 46.9a3 3 0 0 0 0 5.3l75 43.3a7 7 0 0 0 6.3 0l81.1-46.8a3 3 0 0 0 0-5.3l-75-43.4c-1-.5-2-.8-3.2-.8ZM269.8 213.6c-2.6-1.5-4.7-.2-4.7 3v115a10.8 10.8 0 0 0 4.7 8.5c2.6 1.5 4.7.1 4.7-3V222a10.8 10.8 0 0 0-4.7-8.5Z" fill="#F0F0F0"/><path d="M269.8 337.3a5.4 5.4 0 0 1-2.4-4.2V217.8c0-1.6 1-2.3 2.4-1.5a5.4 5.4 0 0 1 2.3 4.2v115.3c0 1.6-1 2.3-2.3 1.5Z" fill="#E0E0E0"/><path opacity=".1" d="M269.8 337.3a5.4 5.4 0 0 1-2.4-4.2V217.8c0-1.6 1-2.3 2.4-1.5a5.4 5.4 0 0 1 2.3 4.2v115.3c0 1.6-1 2.3-2.3 1.5Z" fill="#000"/><path d="M269.8 337.3a5.4 5.4 0 0 1-2.4-4.2v-56.3l4.7 2.7v56.3c0 1.6-1 2.3-2.3 1.5Z" fill="#E0E0E0"/><path d="M255.6 205.4c-2.5-1.5-4.7-.2-4.7 3v115a10.8 10.8 0 0 0 4.7 8.4c2.7 1.6 4.8.2 4.8-3V214a10.8 10.8 0 0 0-4.8-8.5Z" fill="#F0F0F0"/><path d="M255.6 329.2a5.4 5.4 0 0 1-2.3-4.3V209.6c0-1.6 1-2.2 2.3-1.5a5.3 5.3 0 0 1 2.4 4.3v115.3c0 1.6-1 2.2-2.4 1.5Z" fill="#E0E0E0"/><path d="M241.5 197.3c-2.6-1.5-4.7-.2-4.7 3v115a10.8 10.8 0 0 0 4.7 8.5c2.6 1.5 4.7.2 4.7-3v-115a10.8 10.8 0 0 0-4.7-8.5Z" fill="#F0F0F0"/><path d="M241.5 321a5.4 5.4 0 0 1-2.3-4.2V201.5c0-1.6 1-2.3 2.3-1.5a5.3 5.3 0 0 1 2.4 4.2v115.3c0 1.6-1 2.3-2.4 1.5Z" fill="#E0E0E0"/><path opacity=".1" d="M241.5 321a5.4 5.4 0 0 1-2.3-4.2V201.5c0-1.6 1-2.3 2.3-1.5a5.3 5.3 0 0 1 2.4 4.2v115.3c0 1.6-1 2.3-2.4 1.5Z" fill="#000"/><path d="M241.5 321a5.4 5.4 0 0 1-2.3-4.2V233l4.7 2.7v83.7c0 1.6-1 2.3-2.4 1.5Z" fill="#E0E0E0"/><path d="M227.5 189.1c-2.6-1.5-4.7-.1-4.7 3v115a10.8 10.8 0 0 0 4.7 8.5c2.6 1.5 4.7.1 4.7-3v-115a10.8 10.8 0 0 0-4.7-8.5Z" fill="#F0F0F0"/><path d="M227.5 312.9a5.4 5.4 0 0 1-2.4-4.3V193.3c0-1.6 1-2.3 2.4-1.5a5.3 5.3 0 0 1 2.3 4.3v115.3c0 1.6-1 2.3-2.3 1.5Z" fill="#E0E0E0"/><path opacity=".1" d="M227.5 312.9a5.4 5.4 0 0 1-2.4-4.3V193.3c0-1.6 1-2.3 2.4-1.5a5.3 5.3 0 0 1 2.3 4.3v115.3c0 1.6-1 2.3-2.3 1.5Z" fill="#000"/><path d="M227.5 312.9a5.4 5.4 0 0 1-2.4-4.3v-21l4.7 2.7v21c0 1.7-1 2.4-2.3 1.6Z" fill="#E0E0E0"/><path d="M213.3 181c-2.6-1.5-4.7-.2-4.7 3v115a10.8 10.8 0 0 0 4.7 8.4c2.6 1.6 4.7.2 4.7-3v-115a10.8 10.8 0 0 0-4.7-8.4Z" fill="#F0F0F0"/><path d="M213.3 304.8a5.4 5.4 0 0 1-2.3-4.3V185.2c0-1.6 1-2.3 2.3-1.5a5.4 5.4 0 0 1 2.4 4.2v115.4c0 1.5-1 2.2-2.4 1.5Z" fill="#E0E0E0"/><path opacity=".1" d="M213.3 304.8a5.4 5.4 0 0 1-2.3-4.3V185.2c0-1.6 1-2.3 2.3-1.5a5.4 5.4 0 0 1 2.4 4.2v115.4c0 1.5-1 2.2-2.4 1.5Z" fill="#000"/><path d="M213.3 304.8a5.4 5.4 0 0 1-2.3-4.3v-61.7l4.7 2.7v61.7c0 1.6-1 2.3-2.4 1.6Z" fill="#E0E0E0"/><g opacity=".1" fill="#000"><path opacity=".1" d="M219 399.4a2.4 2.4 0 0 1 1 2c0 .7-.4 1-1 .6a2.5 2.5 0 0 1-1.2-2c0-.6.6-1 1.1-.6ZM228.2 404.8a2.4 2.4 0 0 1 1.1 1.9c0 .7-.5 1-1.1.6a2.4 2.4 0 0 1-1.1-1.9c0-.7.5-1 1-.6ZM237.3 410a2.4 2.4 0 0 1 1 2c0 .6-.4 1-1 .6a2.4 2.4 0 0 1-1.1-2c0-.6.5-1 1-.6ZM246.4 415.3a2.4 2.4 0 0 1 1.1 2c0 .6-.4.9-1 .6a2.4 2.4 0 0 1-1.1-2c0-.7.4-1 1-.6Z"/></g><path d="M310.8 252c-.4 0-.8 0-1.1-.2a2.7 2.7 0 0 1-1.2-2.6v-6a7.2 7.2 0 0 1 3.3-5.6l43.5-25.2a2.8 2.8 0 0 1 2.8-.2 2.7 2.7 0 0 1 1.3 2.6v5.9a7.2 7.2 0 0 1-3.3 5.7l-43.6 25.2c-.5.3-1 .4-1.7.5Zm45.2-38.3-43.5 25.1a5.7 5.7 0 0 0-2.5 4.4v6c0 .6.1 1 .4 1.2a1.4 1.4 0 0 0 1.4-.2l43.5-25.2a5.7 5.7 0 0 0 2.5-4.4v-5.9c0-.6-.1-1-.4-1.2a1.4 1.4 0 0 0-1.3.2Z" fill="#E0E0E0"/><path d="M355.5 218v2.9a1.3 1.3 0 0 1-.6 1l-.7.4c-.3.2-.6 0-.6-.3v-3a1.4 1.4 0 0 1 .6-1l.7-.3c.4-.2.6 0 .6.3ZM352.6 219.7v2.9a1.3 1.3 0 0 1-.6 1l-.7.4c-.3.2-.6 0-.6-.3v-3a1.2 1.2 0 0 1 .6-1l.7-.3c.3-.2.6 0 .6.3ZM349.6 221.4v2.9a1.3 1.3 0 0 1-.6 1l-.6.4c-.4.2-.6 0-.6-.3v-3a1.3 1.3 0 0 1 .6-1l.6-.3c.3-.2.6 0 .6.3ZM346.7 223.1v3a1.3 1.3 0 0 1-.6 1l-.7.3c-.3.2-.6 0-.6-.3v-3a1.3 1.3 0 0 1 .6-1l.7-.3c.3-.2.6 0 .6.3Z" fill="#FAFAFA"/><path d="M343.7 224.8v3a1.3 1.3 0 0 1-.6 1l-.6.3c-.4.2-.6 0-.6-.3v-2.9a1.3 1.3 0 0 1 .6-1l.6-.4c.3-.2.6 0 .6.3ZM340.7 226.5v3a1.2 1.2 0 0 1-.6 1l-.6.4c-.3.1-.6 0-.6-.4v-2.9a1.3 1.3 0 0 1 .6-1l.6-.3c.4-.3.6-.1.6.2Z" fill="#E0E0E0"/><path d="M337.8 228.2v3a1.2 1.2 0 0 1-.6 1l-.7.3c-.3.2-.5 0-.5-.3v-2.9a1.3 1.3 0 0 1 .5-1l.7-.4c.3-.2.6 0 .6.3ZM334.8 230v2.8a1.3 1.3 0 0 1-.6 1l-.6.4c-.3.2-.6 0-.6-.3v-3a1.3 1.3 0 0 1 .6-1l.6-.3c.4-.1.6 0 .6.4ZM331.9 231.7v2.8a1.3 1.3 0 0 1-.6 1l-.7.4c-.3.2-.6 0-.6-.3v-2.9a1.3 1.3 0 0 1 .6-1l.7-.4c.3-.2.6 0 .6.4Z" fill="#FAFAFA"/><path d="M329 233.4v2.8a1.3 1.3 0 0 1-.7 1l-.6.4c-.4.2-.6 0-.6-.3v-2.9a1.3 1.3 0 0 1 .6-1l.6-.4c.4-.2.6 0 .6.4Z" fill="#E0E0E0"/><path d="M326 235v3a1.3 1.3 0 0 1-.6 1l-.7.3c-.3.2-.6 0-.6-.3v-2.9a1.3 1.3 0 0 1 .6-1l.7-.4c.3-.2.6 0 .6.4ZM323 236.8v2.8a1.3 1.3 0 0 1-.6 1l-.6.4c-.4.2-.6 0-.6-.3v-2.9a1.3 1.3 0 0 1 .6-1l.6-.4c.3-.1.6 0 .6.4Z" fill="#FAFAFA"/><path d="M320 238.5v2.9a1.2 1.2 0 0 1-.5 1l-.7.4c-.3.2-.6 0-.6-.4v-2.8a1.3 1.3 0 0 1 .6-1l.7-.4c.3-.2.5 0 .5.3Z" fill="#E0E0E0"/><path d="M317 240.2v2.8a1.3 1.3 0 0 1-.5 1l-.7.4c-.3.2-.5 0-.5-.3v-2.9a1.3 1.3 0 0 1 .5-1l.7-.4c.3-.1.6 0 .6.4Z" fill="#FAFAFA"/><path d="M314.1 241.9v2.9a1.3 1.3 0 0 1-.5 1l-.7.4c-.3.1-.6 0-.6-.4V243a1.3 1.3 0 0 1 .6-1l.7-.4c.3-.2.5 0 .5.3ZM304.8 247.6l-1.2-.7a1.6 1.6 0 0 0-1.6.2 5.1 5.1 0 0 0-2.3 4 1.6 1.6 0 0 0 .6 1.5l1.2.7.2-.4.6-.2a5.1 5.1 0 0 0 2.4-4.6l.1-.5Z" fill="#E0E0E0"/><path d="M303.1 247.8a5 5 0 0 0-2.3 4c0 1.5 1 2 2.3 1.3a5.1 5.1 0 0 0 2.3-4c0-1.5-1-2-2.3-1.3Z" fill="#FAFAFA"/><path opacity=".8" d="M303.1 247.8a5 5 0 0 0-2.3 4c0 1.5 1 2 2.3 1.3a5.1 5.1 0 0 0 2.3-4c0-1.5-1-2-2.3-1.3Z" fill="#FAFAFA"/><path d="m294.8 253.4-1.2-.7a1.6 1.6 0 0 0-1.7.2 5.1 5.1 0 0 0-2.3 4 1.6 1.6 0 0 0 .7 1.5l1.1.7.2-.4.7-.2a5.1 5.1 0 0 0 2.3-4v-.7l.2-.4Z" fill="#E0E0E0"/><path d="M293 253.6a5.1 5.1 0 0 0-2.2 4c0 1.5 1 2 2.3 1.3a5.1 5.1 0 0 0 2.3-4c0-1.5-1-2-2.3-1.3Z" fill="#FAFAFA"/><path opacity=".8" d="M293 253.6a5.1 5.1 0 0 0-2.2 4c0 1.5 1 2 2.3 1.3a5.1 5.1 0 0 0 2.3-4c0-1.5-1-2-2.3-1.3Z" fill="#FAFAFA"/><path d="M292.7 298a2 2 0 0 1-1-.3 2.5 2.5 0 0 1-1.1-2.3v-21.3a6.2 6.2 0 0 1 2.9-5l62.3-36a2.3 2.3 0 0 1 3.6 2.1v21.4a6.3 6.3 0 0 1-3 5l-62.2 35.9a3 3 0 0 1-1.5.5Zm63.8-63.6-62.3 36a4.8 4.8 0 0 0-2.1 3.7v21.3a1.1 1.1 0 0 0 .3 1 1 1 0 0 0 1-.2l62.3-35.9a4.8 4.8 0 0 0 2.2-3.7v-21.4a1 1 0 0 0-.4-1 1.1 1.1 0 0 0-1 .2Z" fill="#FAFAFA"/><path d="M354 243.2a5.4 5.4 0 0 1-2.5 4.2l-52.9 30.5c-1.4.8-2.5.2-2.5-1.3a5.4 5.4 0 0 1 2.5-4.2l52.9-30.5c1.3-.8 2.5-.2 2.5 1.3Z" fill="#FAFAFA"/><path d="M354 254a5.4 5.4 0 0 1-2.5 4.2l-52.9 30.5c-1.4.8-2.5.3-2.5-1.2a5.4 5.4 0 0 1 2.5-4.2l52.9-30.5c1.3-.7 2.5-.2 2.5 1.3Z" fill="#E0E0E0"/><path d="m351.4 252.8-22.4 13v5.4l22.4-13a5.4 5.4 0 0 0 2.5-4.1c0-1.5-1.1-2-2.5-1.3Z" fill="#FAFAFA"/><path d="M310.8 307c-.4 0-.8-.2-1.1-.4a2.8 2.8 0 0 1-1.2-2.5v-6a7.2 7.2 0 0 1 3.3-5.7l43.5-25.1a2.8 2.8 0 0 1 2.8-.2 2.7 2.7 0 0 1 1.3 2.5v6a7.2 7.2 0 0 1-3.3 5.7l-43.6 25.1c-.5.3-1 .5-1.7.5Zm45.2-38.4-43.5 25.1a5.7 5.7 0 0 0-2.6 4.5v5.9c0 .6.2 1 .5 1.2a1.4 1.4 0 0 0 1.3-.2l43.6-25.1a5.7 5.7 0 0 0 2.5-4.4v-6c0-.6-.2-1-.5-1.2a1.4 1.4 0 0 0-1.3.2Z" fill="#E0E0E0"/><path d="M355.5 273v2.8a1.3 1.3 0 0 1-.6 1l-.7.4c-.3.2-.6 0-.6-.3V274a1.4 1.4 0 0 1 .6-1l.7-.4c.4-.2.6 0 .6.4ZM352.6 274.6v3a1.3 1.3 0 0 1-.6 1l-.7.3c-.3.2-.6 0-.6-.3v-2.9a1.2 1.2 0 0 1 .6-1l.7-.4c.3-.2.6 0 .6.3ZM349.6 276.4v2.9a1.3 1.3 0 0 1-.6 1l-.6.3c-.4.2-.6 0-.6-.3v-2.9a1.3 1.3 0 0 1 .6-1l.6-.4c.3-.1.6 0 .6.4ZM346.7 278v3a1.3 1.3 0 0 1-.6 1l-.7.3c-.3.2-.6 0-.6-.3v-2.8a1.3 1.3 0 0 1 .6-1l.7-.4c.3-.2.6-.1.6.3Z" fill="#FAFAFA"/><path d="M343.7 279.8v2.9a1.3 1.3 0 0 1-.6 1l-.6.3c-.4.2-.6 0-.6-.3v-2.9a1.3 1.3 0 0 1 .6-1l.6-.4c.3-.1.6 0 .6.4ZM340.7 281.5v2.9a1.2 1.2 0 0 1-.6 1l-.6.4c-.3.1-.6 0-.6-.4v-2.9a1.3 1.3 0 0 1 .6-1l.6-.3c.4-.2.6 0 .6.3Z" fill="#E0E0E0"/><path d="M337.8 283.2v2.9a1.2 1.2 0 0 1-.6 1l-.7.4c-.3.1-.5 0-.5-.4v-2.8a1.3 1.3 0 0 1 .5-1l.7-.4c.3-.2.6 0 .6.3ZM334.8 284.9v2.9a1.3 1.3 0 0 1-.6 1l-.6.4c-.3.1-.6 0-.6-.4V286a1.3 1.3 0 0 1 .6-1l.6-.4c.4-.2.6 0 .6.3ZM331.9 286.6v2.9a1.3 1.3 0 0 1-.6 1l-.7.4c-.3.1-.6 0-.6-.4v-2.8a1.3 1.3 0 0 1 .6-1l.7-.4c.3-.2.6 0 .6.3Z" fill="#FAFAFA"/><path d="M329 288.3v3a1.3 1.3 0 0 1-.7 1l-.6.3c-.4.2-.6 0-.6-.3v-3a1.3 1.3 0 0 1 .6-1l.6-.3c.4-.2.6 0 .6.3Z" fill="#E0E0E0"/><path d="M326 290v2.9a1.3 1.3 0 0 1-.6 1l-.7.4c-.3.2-.6 0-.6-.4v-2.8a1.3 1.3 0 0 1 .6-1l.6-.4c.4-.2.7 0 .7.3ZM323 291.7v2.9a1.3 1.3 0 0 1-.6 1l-.6.4c-.4.2-.6 0-.6-.4v-2.9a1.3 1.3 0 0 1 .6-1l.6-.4c.3 0 .6 0 .6.4Z" fill="#FAFAFA"/><path d="M320 293.4v2.9a1.2 1.2 0 0 1-.5 1l-.7.4c-.3.2-.6 0-.6-.4v-2.8a1.3 1.3 0 0 1 .6-1l.7-.4c.3-.2.5 0 .5.3Z" fill="#E0E0E0"/><path d="M317 295.1v2.9a1.3 1.3 0 0 1-.5 1l-.7.4c-.3.2-.5 0-.5-.4v-2.8a1.3 1.3 0 0 1 .5-1l.7-.4c.3-.2.6 0 .6.3Z" fill="#FAFAFA"/><path d="M314.1 296.8v2.9a1.3 1.3 0 0 1-.5 1l-.7.4c-.3.2-.6 0-.6-.3v-3a1.3 1.3 0 0 1 .6-1l.7-.3c.3-.2.5 0 .5.3ZM304.8 302.6l-1.2-.7a1.6 1.6 0 0 0-1.6.1 5.1 5.1 0 0 0-2.3 4 1.6 1.6 0 0 0 .6 1.6l1.2.6.2-.3.6-.3a5.2 5.2 0 0 0 2.4-4.6l.1-.4Z" fill="#E0E0E0"/><path d="M303.1 302.7a5 5 0 0 0-2.3 4c0 1.5 1 2.1 2.3 1.4a5.1 5.1 0 0 0 2.3-4c0-1.5-1-2.1-2.3-1.4Z" fill="#FAFAFA"/><path opacity=".8" d="M303.1 302.7a5 5 0 0 0-2.3 4c0 1.5 1 2.1 2.3 1.4a5.1 5.1 0 0 0 2.3-4c0-1.5-1-2.1-2.3-1.4Z" fill="#FAFAFA"/><path d="m294.8 308.4-1.2-.7a1.6 1.6 0 0 0-1.7.1 5.1 5.1 0 0 0-2.3 4 1.6 1.6 0 0 0 .7 1.6l1.1.6.2-.3.7-.3a5.1 5.1 0 0 0 2.3-4v-.6l.2-.4Z" fill="#E0E0E0"/><path d="M293 308.5a5.1 5.1 0 0 0-2.2 4c0 1.5 1 2.1 2.3 1.4a5.1 5.1 0 0 0 2.3-4c0-1.5-1-2.1-2.3-1.4Z" fill="#FAFAFA"/><path opacity=".8" d="M293 308.5a5.1 5.1 0 0 0-2.2 4c0 1.5 1 2.1 2.3 1.4a5.1 5.1 0 0 0 2.3-4c0-1.5-1-2.1-2.3-1.4Z" fill="#FAFAFA"/><path d="M292.7 353a2 2 0 0 1-1-.3 2.5 2.5 0 0 1-1.1-2.3V329a6.3 6.3 0 0 1 2.9-5l62.3-36a2.3 2.3 0 0 1 3.6 2.2v21.3a6.3 6.3 0 0 1-3 5l-62.2 36a3 3 0 0 1-1.5.5Zm63.8-63.6-62.3 36a4.8 4.8 0 0 0-2.1 3.7v21.3a1.1 1.1 0 0 0 .3 1 1 1 0 0 0 1-.2l62.3-35.9a4.8 4.8 0 0 0 2.2-3.7v-21.4a1 1 0 0 0-.4-1 1.1 1.1 0 0 0-1 .2Z" fill="#FAFAFA"/><path d="M354 298.1a5.4 5.4 0 0 1-2.5 4.2l-52.9 30.5c-1.4.8-2.5.2-2.5-1.3a5.4 5.4 0 0 1 2.4-4.1l52.9-30.6c1.4-.7 2.6-.2 2.6 1.3Z" fill="#FAFAFA"/><path d="M354 309a5.4 5.4 0 0 1-2.5 4.2l-52.9 30.5c-1.4.8-2.5.2-2.5-1.3a5.4 5.4 0 0 1 2.5-4.2l52.8-30.4c1.4-.9 2.6-.3 2.6 1.2Z" fill="#E0E0E0"/><path d="m351.4 307.8-22.4 13v5.4l22.4-13a5.4 5.4 0 0 0 2.5-4.2c0-1.5-1.1-2-2.5-1.2Z" fill="#FAFAFA"/><path d="M310.8 361.9c-.4 0-.8-.1-1.1-.3a2.8 2.8 0 0 1-1.2-2.6v-6a7.2 7.2 0 0 1 3.3-5.6l43.5-25.2a2.8 2.8 0 0 1 2.8-.2 2.7 2.7 0 0 1 1.3 2.6v5.9a7.2 7.2 0 0 1-3.3 5.7l-43.6 25.2c-.5.3-1 .4-1.7.5Zm45.2-38.4-43.5 25.2a5.7 5.7 0 0 0-2.6 4.4v5.9c0 .6.2 1 .5 1.2a1.4 1.4 0 0 0 1.3-.2l43.6-25.1a5.7 5.7 0 0 0 2.5-4.4v-6c0-.6-.1-1-.4-1.2a1.4 1.4 0 0 0-1.3.2Z" fill="#E0E0E0"/><path d="M355.5 328v2.8a1.3 1.3 0 0 1-.6 1l-.7.4c-.3.2-.6 0-.6-.4V329a1.4 1.4 0 0 1 .6-1l.7-.4c.4-.2.6 0 .6.3ZM352.6 329.6v2.9a1.3 1.3 0 0 1-.6 1l-.7.4c-.3.2-.6 0-.6-.4v-2.8a1.2 1.2 0 0 1 .6-1l.7-.4c.3-.2.6 0 .6.3ZM349.6 331.3v2.9a1.3 1.3 0 0 1-.6 1l-.6.4c-.4.2-.6 0-.6-.4v-2.8a1.3 1.3 0 0 1 .6-1l.6-.4c.3-.2.6 0 .6.3ZM346.7 333v2.9a1.3 1.3 0 0 1-.6 1l-.7.4c-.3.2-.6 0-.6-.4v-2.8a1.3 1.3 0 0 1 .6-1l.7-.4c.3-.2.6 0 .6.3Z" fill="#FAFAFA"/><path d="M343.7 334.7v2.9a1.3 1.3 0 0 1-.6 1l-.6.4c-.4.2-.6 0-.6-.3v-3a1.3 1.3 0 0 1 .6-1l.6-.3c.3-.2.6 0 .6.3ZM340.7 336.4v2.9a1.2 1.2 0 0 1-.6 1l-.6.4c-.3.2-.6 0-.6-.4v-2.8a1.3 1.3 0 0 1 .6-1l.6-.4c.4-.2.6 0 .6.3Z" fill="#E0E0E0"/><path d="M337.8 338.1v2.9a1.2 1.2 0 0 1-.6 1l-.7.4c-.3.2-.5 0-.5-.3v-3a1.3 1.3 0 0 1 .5-1l.7-.3c.3-.2.6 0 .6.3ZM334.8 339.8v2.9a1.3 1.3 0 0 1-.6 1l-.6.4c-.3.2-.6 0-.6-.3v-2.9a1.3 1.3 0 0 1 .6-1l.6-.4c.4-.2.6-.1.6.3ZM331.9 341.5v3a1.3 1.3 0 0 1-.6 1l-.7.3c-.3.2-.6 0-.6-.3v-2.9a1.3 1.3 0 0 1 .6-1l.7-.4c.3-.2.6 0 .6.3Z" fill="#FAFAFA"/><path d="M329 343.2v3a1.3 1.3 0 0 1-.7 1l-.6.3c-.4.2-.6 0-.6-.3v-2.9a1.3 1.3 0 0 1 .6-1l.6-.4c.4-.2.6 0 .6.3Z" fill="#E0E0E0"/><path d="M326 345v2.8a1.3 1.3 0 0 1-.6 1l-.7.4c-.3.2-.6 0-.6-.3V346a1.3 1.3 0 0 1 .6-1l.7-.4c.3-.2.6 0 .6.3ZM323 346.6v3a1.3 1.3 0 0 1-.6 1l-.6.3c-.4.2-.6 0-.6-.3v-2.9a1.3 1.3 0 0 1 .6-1l.6-.4c.3-.2.6 0 .6.3Z" fill="#FAFAFA"/><path d="M320 348.4v2.9a1.2 1.2 0 0 1-.5 1l-.7.4c-.3.2-.6 0-.6-.3v-2.9a1.3 1.3 0 0 1 .6-1l.7-.4c.3-.3.5-.1.5.3Z" fill="#E0E0E0"/><path d="M317 350v3a1.3 1.3 0 0 1-.5 1l-.7.4c-.3.1-.5 0-.5-.4v-2.8a1.3 1.3 0 0 1 .5-1l.7-.4c.3-.3.6-.1.6.3Z" fill="#FAFAFA"/><path d="M314.1 351.8v2.8a1.3 1.3 0 0 1-.5 1l-.7.4c-.3.2-.6 0-.6-.3v-2.9a1.3 1.3 0 0 1 .6-1l.7-.4c.3-.2.5 0 .5.4ZM304.8 357.5l-1.2-.7a1.6 1.6 0 0 0-1.6.1 5 5 0 0 0-2.3 4 1.7 1.7 0 0 0 .6 1.5l1.2.7.2-.4c.2 0 .4 0 .6-.2a5.2 5.2 0 0 0 2.4-4.6l.1-.4Z" fill="#E0E0E0"/><path d="M303.1 357.7a5 5 0 0 0-2.3 4c0 1.5 1 2 2.3 1.3a5.1 5.1 0 0 0 2.3-4c0-1.5-1-2-2.3-1.3Z" fill="#FAFAFA"/><path opacity=".8" d="M303.1 357.7a5 5 0 0 0-2.3 4c0 1.5 1 2 2.3 1.3a5.1 5.1 0 0 0 2.3-4c0-1.5-1-2-2.3-1.3Z" fill="#FAFAFA"/><path d="m294.8 363.3-1.2-.7a1.6 1.6 0 0 0-1.7.2 5.1 5.1 0 0 0-2.3 4 1.6 1.6 0 0 0 .7 1.5l1.1.6.2-.3c.3 0 .5-.1.7-.3a5.1 5.1 0 0 0 2.3-4v-.6l.2-.4Z" fill="#E0E0E0"/><path d="M293 363.5a5.1 5.1 0 0 0-2.2 4c0 1.5 1 2 2.3 1.3a5.1 5.1 0 0 0 2.3-4c0-1.5-1-2-2.3-1.3Z" fill="#FAFAFA"/><path opacity=".8" d="M293 363.5a5.1 5.1 0 0 0-2.2 4c0 1.5 1 2 2.3 1.3a5.1 5.1 0 0 0 2.3-4c0-1.5-1-2-2.3-1.3Z" fill="#FAFAFA"/><path d="M292.7 407.8a2 2 0 0 1-1-.2 2.5 2.5 0 0 1-1.1-2.3V384a6.2 6.2 0 0 1 2.9-5l62.3-36a2.3 2.3 0 0 1 3.6 2.1v21.4a6.3 6.3 0 0 1-3 5l-62.2 36a3 3 0 0 1-1.5.3Zm63.8-63.5-62.3 36a4.8 4.8 0 0 0-2.1 3.7v21.3a1.1 1.1 0 0 0 .3 1 1 1 0 0 0 1-.2l62.3-36a4.8 4.8 0 0 0 2.2-3.6V345a1 1 0 0 0-.4-1 1.1 1.1 0 0 0-1 .2Z" fill="#FAFAFA"/><path d="M354 353a5.4 5.4 0 0 1-2.5 4.2l-53 30.5c-1.3.9-2.5.3-2.5-1.2a5.4 5.4 0 0 1 2.5-4.2l52.9-30.5c1.4-.8 2.6-.2 2.6 1.3Z" fill="#FAFAFA"/><path d="M354 364a5.4 5.4 0 0 1-2.5 4.1l-52.9 30.5c-1.4.8-2.5.2-2.5-1.2a5.4 5.4 0 0 1 2.5-4.2l52.9-30.5c1.3-.8 2.5-.3 2.5 1.2Z" fill="#E0E0E0"/><path d="m351.4 362.7-22.4 13v5.4l22.4-13a5.4 5.4 0 0 0 2.5-4.2c0-1.5-1.1-2-2.5-1.2Z" fill="#FAFAFA"/><path d="M310.8 416.8c-.4 0-.8 0-1.1-.3a2.8 2.8 0 0 1-1.2-2.5v-6a7.2 7.2 0 0 1 3.3-5.7l43.5-25.1a2.8 2.8 0 0 1 2.8-.2 2.7 2.7 0 0 1 1.3 2.5v6a7.2 7.2 0 0 1-3.3 5.7l-43.6 25.1c-.5.3-1 .5-1.7.5Zm45.2-38.3-43.5 25.1a5.8 5.8 0 0 0-2.6 4.4v6c0 .6.2 1 .5 1.2a1.4 1.4 0 0 0 1.3-.2l43.6-25.1a5.7 5.7 0 0 0 2.5-4.5v-5.9c0-.6-.2-1-.5-1.2a1.4 1.4 0 0 0-1.3.2Z" fill="#E0E0E0"/><path d="M355.5 382.9v2.8a1.3 1.3 0 0 1-.6 1l-.7.4c-.3.2-.6 0-.6-.3v-2.9a1.4 1.4 0 0 1 .6-1l.7-.4c.4-.2.6 0 .6.4ZM352.6 384.6v2.8a1.3 1.3 0 0 1-.6 1l-.7.4c-.3.2-.6 0-.6-.3v-2.9a1.2 1.2 0 0 1 .6-1l.7-.4c.3-.2.6 0 .6.4ZM349.6 386.3v2.8a1.3 1.3 0 0 1-.6 1l-.6.4c-.4.2-.6 0-.6-.3v-3a1.3 1.3 0 0 1 .6-1l.6-.3c.3-.2.6 0 .6.4ZM346.7 388v2.8a1.3 1.3 0 0 1-.6 1l-.7.4c-.3.2-.6 0-.6-.3V389a1.3 1.3 0 0 1 .6-1l.7-.4c.3-.2.6 0 .6.4Z" fill="#FAFAFA"/><path d="M343.7 389.7v2.8a1.3 1.3 0 0 1-.6 1l-.6.4c-.4.2-.6 0-.6-.3v-2.9a1.3 1.3 0 0 1 .6-1l.6-.4c.3-.2.6 0 .6.4ZM340.7 391.4v2.8a1.2 1.2 0 0 1-.6 1l-.6.4c-.3.2-.6 0-.6-.3v-2.9a1.3 1.3 0 0 1 .6-1l.6-.4c.4-.1.6 0 .6.4Z" fill="#E0E0E0"/><path d="M337.8 393v3a1.3 1.3 0 0 1-.6 1l-.7.3c-.3.2-.5 0-.5-.3V394a1.3 1.3 0 0 1 .5-1l.7-.4c.3-.1.6 0 .6.4ZM334.8 394.8v2.8a1.3 1.3 0 0 1-.6 1l-.6.4c-.3.2-.6 0-.6-.3v-2.9a1.3 1.3 0 0 1 .6-1l.6-.4c.4-.1.6 0 .6.4ZM331.9 396.5v2.9a1.3 1.3 0 0 1-.6 1l-.7.3c-.3.2-.6 0-.6-.3v-2.9a1.3 1.3 0 0 1 .6-1l.7-.3c.3-.2.6 0 .6.3Z" fill="#FAFAFA"/><path d="M329 398.1v3a1.3 1.3 0 0 1-.7 1l-.6.3c-.4.2-.6 0-.6-.3v-3a1.3 1.3 0 0 1 .6-1l.6-.3c.4-.1.6 0 .6.3Z" fill="#E0E0E0"/><path d="M326 399.9v2.9a1.3 1.3 0 0 1-.6 1l-.7.3c-.3.2-.6 0-.6-.3V401a1.3 1.3 0 0 1 .6-1l.7-.3c.3-.2.6 0 .6.3ZM323 401.6v2.9a1.3 1.3 0 0 1-.6 1l-.6.4c-.4.1-.6 0-.6-.4v-2.8a1.3 1.3 0 0 1 .6-1l.6-.4c.3-.1.6 0 .6.3Z" fill="#FAFAFA"/><path d="M320 403.3v2.9a1.2 1.2 0 0 1-.5 1l-.7.4c-.3.1-.6 0-.6-.4v-2.8a1.3 1.3 0 0 1 .6-1l.7-.4c.3-.2.5 0 .5.3Z" fill="#E0E0E0"/><path d="M317 405v2.9a1.3 1.3 0 0 1-.5 1l-.7.4c-.3.1-.5 0-.5-.4v-2.8a1.3 1.3 0 0 1 .5-1l.7-.4c.3-.2.6 0 .6.3Z" fill="#FAFAFA"/><path d="M314.1 406.7v2.9a1.3 1.3 0 0 1-.5 1l-.7.4c-.3.2-.6 0-.6-.4v-2.8a1.3 1.3 0 0 1 .6-1l.7-.4c.3-.2.5 0 .5.3ZM304.8 412.5l-1.2-.7a1.6 1.6 0 0 0-1.6.1 5.1 5.1 0 0 0-2.3 4 1.7 1.7 0 0 0 .6 1.5l1.2.7.2-.4.6-.2a5.1 5.1 0 0 0 2.4-4.6l.1-.4Z" fill="#E0E0E0"/><path d="M303.1 412.6a5 5 0 0 0-2.3 4c0 1.5 1 2 2.3 1.3a5.1 5.1 0 0 0 2.3-4c0-1.5-1-2-2.3-1.3Z" fill="#FAFAFA"/><path opacity=".8" d="M303.1 412.6a5 5 0 0 0-2.3 4c0 1.5 1 2 2.3 1.3a5.1 5.1 0 0 0 2.3-4c0-1.5-1-2-2.3-1.3Z" fill="#FAFAFA"/><path d="m294.8 418.3-1.2-.7a1.6 1.6 0 0 0-1.7.1 5.1 5.1 0 0 0-2.3 4 1.6 1.6 0 0 0 .7 1.5l1.1.7.2-.4.7-.2a5.1 5.1 0 0 0 2.3-4v-.6l.2-.4Z" fill="#E0E0E0"/><path d="M293 418.4a5.1 5.1 0 0 0-2.2 4c0 1.5 1 2 2.3 1.3a5.1 5.1 0 0 0 2.3-4c0-1.4-1-2-2.3-1.3Z" fill="#FAFAFA"/><path opacity=".8" d="M293 418.4a5.1 5.1 0 0 0-2.2 4c0 1.5 1 2 2.3 1.3a5.1 5.1 0 0 0 2.3-4c0-1.4-1-2-2.3-1.3Z" fill="#FAFAFA"/><path d="M292.7 243a2 2 0 0 1-1-.2 2.5 2.5 0 0 1-1.1-2.3v-21.4a6.3 6.3 0 0 1 2.9-5l62.2-35.8a2.3 2.3 0 0 1 3.6 2v21.4a6.3 6.3 0 0 1-2.8 5l-62.3 36a3 3 0 0 1-1.5.3Zm64.5-63.8c-.3 0-.5.1-.7.3l-62.3 36a4.8 4.8 0 0 0-2.1 3.6v21.4a1.1 1.1 0 0 0 .3 1 1 1 0 0 0 1-.2l62.3-36a4.8 4.8 0 0 0 2.2-3.6v-21.4a1 1 0 0 0-.4-1h-.3Z" fill="#FAFAFA"/><path d="M354 188.3a5.4 5.4 0 0 1-2.5 4.1L298.6 223c-1.4.8-2.5.3-2.5-1.2a5.4 5.4 0 0 1 2.5-4.2l52.9-30.5c1.3-.8 2.5-.2 2.5 1.3Z" fill="#FAFAFA"/><path d="M354 199.1a5.4 5.4 0 0 1-2.5 4.2l-52.9 30.5c-1.4.8-2.5.2-2.5-1.3a5.4 5.4 0 0 1 2.5-4.1l52.8-30.6c1.4-.7 2.6-.2 2.6 1.3Z" fill="#E0E0E0"/><path d="m351.4 197.8-22.4 13v5.4l22.4-13a5.4 5.4 0 0 0 2.5-4c0-1.6-1.1-2.1-2.5-1.4Z" fill="#FAFAFA"/><path d="m210.7 377.3 1.2-.8a1.6 1.6 0 0 1 1.6.2 5.1 5.1 0 0 1 2.4 4 1.6 1.6 0 0 1-.7 1.5l-1.2.7-.2-.4-.6-.2a5.1 5.1 0 0 1-2.3-4.6l-.2-.4Z" fill="#E0E0E0"/><path d="M212.4 377.4a5.1 5.1 0 0 1 2.3 4c0 1.5-1 2-2.3 1.3a5.1 5.1 0 0 1-2.3-4c0-1.5 1-2 2.3-1.3Z" fill="#F0F0F0"/><path d="m208.2 371.2 9.4 5.4a5.9 5.9 0 0 1 2.6 4.6v5.4c0 1.7-1.2 2.4-2.6 1.5l-9.4-5.4a5.9 5.9 0 0 1-2.7-4.6v-5.4c0-1.7 1.2-2.4 2.7-1.5Z" fill="#E0E0E0"/><path opacity=".1" d="m208.2 371.2 9.4 5.4a5.9 5.9 0 0 1 2.6 4.6v5.4c0 1.7-1.2 2.4-2.6 1.5l-9.4-5.4a5.9 5.9 0 0 1-2.7-4.6v-5.4c0-1.7 1.2-2.4 2.7-1.5Z" fill="#000"/><path d="m210.7 377.3 1.2-.8a1.6 1.6 0 0 1 1.6.2 5.1 5.1 0 0 1 2.4 4 1.6 1.6 0 0 1-.7 1.5l-1.2.7-.2-.4-.6-.2a5.1 5.1 0 0 1-2.3-4.6l-.2-.4Z" fill="#E0E0E0"/><path d="M212.4 377.4a5.1 5.1 0 0 1 2.3 4c0 1.5-1 2-2.3 1.3a5.1 5.1 0 0 1-2.3-4c0-1.5 1-2 2.3-1.3Z" fill="#F0F0F0"/><path opacity=".1" d="m227.8 380.4 45.5 26.3a3.3 3.3 0 0 1 1.5 2.5v12.6c0 1-.6 1.3-1.5.9l-45.5-26.3a3.3 3.3 0 0 1-1.5-2.6v-12.6c0-1 .7-1.3 1.5-.8Z" fill="#000"/><path d="M229 386a3.2 3.2 0 0 0 1.6 2.4l40 23c.8.5 1.5.2 1.5-.7a3.2 3.2 0 0 0-1.5-2.4l-40-23.1c-.9-.5-1.5-.1-1.5.7Z" fill="#E0E0E0"/><path d="M229 392.3a3.2 3.2 0 0 0 1.6 2.5l40 23c.8.5 1.5.2 1.5-.7a3.2 3.2 0 0 0-1.5-2.4l-40-23.1c-.9-.5-1.5-.1-1.5.7Z" fill="#F0F0F0"/><path d="m230.5 391.6 22.1 12.7v3.2l-22-12.7a3.2 3.2 0 0 1-1.6-2.5c0-.8.7-1.2 1.5-.7ZM208.2 345l9.4 5.5a5.9 5.9 0 0 1 2.6 4.6v5.4c0 1.7-1.2 2.4-2.6 1.5l-9.4-5.4a5.9 5.9 0 0 1-2.7-4.6v-5.4c0-1.7 1.2-2.4 2.7-1.5Z" fill="#E0E0E0"/><path opacity=".1" d="m208.2 345 9.4 5.5a5.9 5.9 0 0 1 2.6 4.6v5.4c0 1.7-1.2 2.4-2.6 1.5l-9.4-5.4a5.9 5.9 0 0 1-2.7-4.6v-5.4c0-1.7 1.2-2.4 2.7-1.5Z" fill="#000"/><path d="m210.7 351.2 1.2-.8a1.7 1.7 0 0 1 1.6.2 5.1 5.1 0 0 1 2.4 4 1.6 1.6 0 0 1-.7 1.5l-1.2.7-.2-.3-.6-.3a5.1 5.1 0 0 1-2.3-4.6l-.2-.4Z" fill="#E0E0E0"/><path d="M212.4 351.3a5.1 5.1 0 0 1 2.3 4c0 1.5-1 2-2.3 1.3a5.1 5.1 0 0 1-2.3-4c0-1.5 1-2 2.3-1.3Z" fill="#F0F0F0"/><path d="m208.2 319.1 9.4 5.4a5.9 5.9 0 0 1 2.6 4.6v5.4c0 1.7-1.2 2.4-2.6 1.5l-9.4-5.4a6 6 0 0 1-2.7-4.6v-5.4c0-1.6 1.2-2.3 2.7-1.5Z" fill="#E0E0E0"/><path opacity=".1" d="m208.2 319.1 9.4 5.4a5.9 5.9 0 0 1 2.6 4.6v5.4c0 1.7-1.2 2.4-2.6 1.5l-9.4-5.4a6 6 0 0 1-2.7-4.6v-5.4c0-1.6 1.2-2.3 2.7-1.5Z" fill="#000"/><path d="m210.7 325.2 1.2-.7a1.6 1.6 0 0 1 1.6.1 5.1 5.1 0 0 1 2.4 4 1.6 1.6 0 0 1-.7 1.6l-1.2.6-.2-.3-.6-.3a5.1 5.1 0 0 1-2.3-4.6l-.2-.4Z" fill="#FAFAFA"/><path opacity=".2" d="m210.7 325.2 1.2-.7a1.6 1.6 0 0 1 1.6.1 5.1 5.1 0 0 1 2.4 4 1.6 1.6 0 0 1-.7 1.6l-1.2.6-.2-.3-.6-.3a5.1 5.1 0 0 1-2.3-4.6l-.2-.4Z" fill="#000"/><path d="M212.4 325.3a5.1 5.1 0 0 1 2.3 4c0 1.5-1 2.1-2.3 1.4a5.1 5.1 0 0 1-2.3-4c0-1.5 1-2.1 2.3-1.4Z" fill="#FAFAFA"/><path d="m227.8 328.3 45.5 26.3a3.3 3.3 0 0 1 1.5 2.6v12.6c0 .9-.6 1.3-1.5.8l-45.5-26.3a3.3 3.3 0 0 1-1.5-2.5v-12.6c0-1 .7-1.3 1.5-.9Z" fill="#E0E0E0"/><path d="M229 333.9a3.2 3.2 0 0 0 1.6 2.4l40 23.1c.8.5 1.5.1 1.5-.7a3.2 3.2 0 0 0-1.5-2.5l-40-23c-.9-.5-1.5-.2-1.5.7ZM230.5 339.5l22.1 12.8v3.2l-22-12.8a3.2 3.2 0 0 1-1.6-2.4c0-.9.7-1.2 1.5-.8Z" fill="#FAFAFA"/><path d="m210.7 325.2 1.2-.7a1.6 1.6 0 0 1 1.6.1 5.1 5.1 0 0 1 2.4 4 1.6 1.6 0 0 1-.7 1.6l-1.2.6-.2-.3-.6-.3a5.1 5.1 0 0 1-2.3-4.6l-.2-.4Z" fill="#E0E0E0"/><path d="M212.4 325.3a5.1 5.1 0 0 1 2.3 4c0 1.5-1 2.1-2.3 1.4a5.1 5.1 0 0 1-2.3-4c0-1.5 1-2.1 2.3-1.4Z" fill="#F0F0F0"/><path opacity=".1" d="m227.8 328.3 45.5 26.3a3.3 3.3 0 0 1 1.5 2.6v12.6c0 .9-.6 1.3-1.5.8l-45.5-26.3a3.3 3.3 0 0 1-1.5-2.5v-12.6c0-1 .7-1.3 1.5-.9Z" fill="#000"/><path d="M229 333.9a3.2 3.2 0 0 0 1.6 2.4l40 23.1c.8.5 1.5.1 1.5-.7a3.2 3.2 0 0 0-1.5-2.5l-40-23c-.9-.5-1.5-.2-1.5.7Z" fill="#E0E0E0"/><path d="M229 340.3a3.2 3.2 0 0 0 1.6 2.4l40 23.1c.8.5 1.5.1 1.5-.7a3.2 3.2 0 0 0-1.5-2.5l-40-23c-.9-.5-1.5-.2-1.5.7Z" fill="#F0F0F0"/><path d="m230.5 339.5 22.1 12.8v3.2l-22-12.8a3.2 3.2 0 0 1-1.6-2.4c0-.9.7-1.2 1.5-.8Z" fill="#E0E0E0"/><path opacity=".1" d="m227.8 354.4 45.5 26.2a3.3 3.3 0 0 1 1.5 2.6v12.6c0 1-.6 1.3-1.5.8l-45.5-26.2a3.3 3.3 0 0 1-1.5-2.6v-12.6c0-1 .7-1.3 1.5-.8Z" fill="#000"/><path d="M229 359.9a3.2 3.2 0 0 0 1.6 2.5l40 23c.8.5 1.5.2 1.5-.7a3.2 3.2 0 0 0-1.5-2.5l-40-23c-.9-.5-1.5-.2-1.5.7Z" fill="#E0E0E0"/><path d="M229 366.3a3.2 3.2 0 0 0 1.6 2.4l40 23.1c.8.5 1.5.2 1.5-.7a3.2 3.2 0 0 0-1.5-2.5l-40-23c-.9-.5-1.5-.2-1.5.7Z" fill="#F0F0F0"/><path d="m230.5 365.5 27.7 16v3.3l-27.7-16a3.2 3.2 0 0 1-1.5-2.4c0-1 .7-1.3 1.5-.9ZM227 128.8a3 3 0 0 1-2.8-2l-3.3-9-16 9.3a2.2 2.2 0 0 1-3.4-2V51.7a6 6 0 0 1 2.8-4.9L284.8.4a2.4 2.4 0 0 1 2.5-.1 2.4 2.4 0 0 1 1 2.1v73.4a6 6 0 0 1-2.7 4.8l-50.9 29.3-4.8 16.8a3 3 0 0 1-2.8 2.1Zm-5.3-13 3.9 10.6a1.5 1.5 0 0 0 1.5 1 1.5 1.5 0 0 0 1.5-1.1l4.9-17.3 51.3-29.7a4.6 4.6 0 0 0 2-3.6V2.5c0-.5 0-.9-.3-1a1 1 0 0 0-1 .2L205 48.2a4.6 4.6 0 0 0-2 3.6V125c0 .4 0 .8.3 1a1 1 0 0 0 1-.2l17.4-10Z" fill="#E0E0E0"/><path d="m210.8 451.1-83 48-83-48 83-48 83 48Z" fill="#7FE389"/><path opacity=".1" d="m210.8 451.1-83 48-83-48 83-48 83 48Z" fill="#000"/><path opacity=".1" d="M127.8 499v-6l-77.9-44.9-5.2 3 83 48Z" fill="#000"/><path d="M127.8 499v32.8c1.9 0 3.8-.4 5.5-1.3l36-20.7 38.2-22.1a7.3 7.3 0 0 0 3.3-5.8v-30.8l-83 48Z" fill="#7FE389"/><path opacity=".7" d="M127.8 499v32.8c1.9 0 3.8-.4 5.5-1.3l36-20.7 38.2-22.1a7.3 7.3 0 0 0 3.3-5.8v-30.8l-83 48Z" fill="#fff"/><path d="M44.7 451.1V482a7.4 7.4 0 0 0 3.4 5.8l33 19 41.1 23.8c1.7 1 3.6 1.4 5.6 1.3V499l-83-47.9Z" fill="#7FE389"/><path opacity=".5" d="M44.7 451.1V482a7.4 7.4 0 0 0 3.4 5.8l33 19 41.1 23.8c1.7 1 3.6 1.4 5.6 1.3V499l-83-47.9Z" fill="#fff"/><path d="m210.8 415.2-83 47.9-83-48 83-47.9 83 48Z" fill="#7FE389"/><path opacity=".1" d="m210.8 415.2-83 47.9-83-48 83-47.9 83 48Z" fill="#000"/><path opacity=".1" d="M127.8 463v-5.9l-77.9-45-5.2 3 83 48Z" fill="#000"/><path d="m210.8 439.1-83 48v-24l83-48v24Z" fill="#7FE389"/><path opacity=".7" d="m210.8 439.1-83 48v-24l83-48v24Z" fill="#fff"/><path d="m127.8 487-83-47.9v-24l83 48v24Z" fill="#7FE389"/><path opacity=".5" d="m127.8 487-83-47.9v-24l83 48v24Z" fill="#fff"/><path d="M200.4 451.1v-6l-72.6 42v6l72.6-42Z" fill="#455A64"/><path d="M50 442.1v6l77.8 45v-6l-77.9-45Z" fill="#7FE389"/><path d="M50 442.1v6l77.8 45v-6l-77.9-45Z" fill="#37474F"/><path d="m210.8 379.2-83 48-83-48 83-48 83 48Z" fill="#7FE389"/><path opacity=".1" d="m210.8 379.2-83 48-83-48 83-48 83 48Z" fill="#000"/><path opacity=".1" d="M127.8 427.1v-6l-77.9-44.9-5.2 3 83 48Z" fill="#000"/><path d="m210.8 403.2-83 48v-24l83-48v24Z" fill="#7FE389"/><path opacity=".7" d="m210.8 403.2-83 48v-24l83-48v24Z" fill="#fff"/><path d="m127.8 451.1-83-48v-23.9l83 48v24Z" fill="#7FE389"/><path opacity=".5" d="m127.8 451.1-83-48v-23.9l83 48v24Z" fill="#fff"/><path d="M200.4 415.2v-6l-72.6 42v5.9l72.6-42Z" fill="#455A64"/><path d="M50 406.2v6l77.8 44.9v-6l-77.9-45Z" fill="#37474F"/><path d="M200.4 379.2v-6l-72.6 42v6l72.6-42Z" fill="#455A64"/><path d="M50 370.2v6l77.8 45v-6l-77.9-45Z" fill="#37474F"/><path d="m210.8 343.3-83 47.9-83-48 83-47.9 83 48Z" fill="#7FE389"/><path opacity=".1" d="m210.8 343.3-83 47.9-83-48 83-47.9 83 48Z" fill="#fff"/><path opacity=".1" d="m210.8 343.3-83 47.9-83-48 83-47.9 83 48Z" fill="#000"/><path opacity=".1" d="M127.8 385.2v6l-83-48 5.1-3 77.9 45Z" fill="#000"/><path d="m210.8 367.2-83 48v-24l83-48v24Z" fill="#7FE389"/><path opacity=".7" d="m210.8 367.2-83 48v-24l83-48v24Z" fill="#fff"/><path d="m127.8 415.2-83-48v-24l83 48v24Z" fill="#7FE389"/><path opacity=".5" d="m127.8 415.2-83-48v-24l83 48v24Z" fill="#fff"/><path d="M200.4 343.3v-6l-72.6 42v5.9l72.6-42Z" fill="#455A64"/><path d="M50 334.3v6l77.8 44.9v-6l-77.9-45Z" fill="#37474F"/><path d="m210.8 307.3-83 47.9-83-48 83-47.9 83 48Z" fill="#7FE389"/><path opacity=".1" d="m210.8 307.3-83 47.9-83-48 83-47.9 83 48Z" fill="#fff"/><path opacity=".1" d="m210.8 307.3-83 47.9-83-48 83-47.9 83 48Z" fill="#000"/><path opacity=".1" d="M127.8 349.2v6l-83-48 5.1-3 77.9 45Z" fill="#000"/><path d="m210.8 331.2-83 48v-24l83-48v24Z" fill="#7FE389"/><path opacity=".7" d="m210.8 331.2-83 48v-24l83-48v24Z" fill="#fff"/><path d="m127.8 379.1-83-47.9v-24l83 48v24Z" fill="#7FE389"/><path opacity=".5" d="m127.8 379.1-83-47.9v-24l83 48v24Z" fill="#fff"/><path d="m48 269.4 76.5-44.1a7.4 7.4 0 0 1 6.6 0l76.4 44a7.4 7.4 0 0 1 3.3 5.8v20.2l-83 47.9-83-48v-20a7.4 7.4 0 0 1 3.3-5.8Z" fill="#7FE389"/><path opacity=".5" d="m48 269.4 76.5-44.1a7.4 7.4 0 0 1 6.6 0l76.4 44a7.4 7.4 0 0 1 3.3 5.8v20.2l-83 47.9-83-48v-20a7.4 7.4 0 0 1 3.3-5.8Z" fill="#fff"/><path d="M127.7 318.1v25.1l83-48v-20a7.4 7.4 0 0 0-2.6-5.4c1.2 1 1 2.5-.6 3.4L131 317.3c-1 .6-2.2.8-3.4.8Z" fill="#7FE389"/><path opacity=".7" d="M127.7 318.1v25.1l83-48v-20a7.4 7.4 0 0 0-2.6-5.4c1.2 1 1 2.5-.6 3.4L131 317.3c-1 .6-2.2.8-3.4.8Z" fill="#fff"/><path d="M207.5 273.2 131 317.3a7.3 7.3 0 0 1-6.7 0l-76.3-44a2 2 0 0 1 0-4l76.4-44a7.4 7.4 0 0 1 6.6 0l76.4 44a2 2 0 0 1 0 4Z" fill="#7FE389"/><path opacity=".8" d="M207.5 273.2 131 317.3a7.3 7.3 0 0 1-6.7 0l-76.3-44a2 2 0 0 1 0-4l76.4-44a7.4 7.4 0 0 1 6.6 0l76.4 44a2 2 0 0 1 0 4Z" fill="#fff"/><path d="M200.4 307.3v-6l-72.6 41.9v6l72.6-42Z" fill="#455A64"/><path d="M50 298.3v6l77.8 44.9v-6l-77.9-45Z" fill="#37474F"/><path d="M62.8 489.3a2.5 2.5 0 0 1 1.2 2c0 .7-.6 1-1.2.7a2.5 2.5 0 0 1-1.1-2c0-.8.5-1 1.1-.7ZM72.3 494.9a2.5 2.5 0 0 1 1.2 2c0 .7-.5 1-1.2.6a2.5 2.5 0 0 1-1.1-2c0-.7.6-1 1.1-.6ZM81.8 500.3a2.5 2.5 0 0 1 1.2 2c0 .7-.5 1-1.2.6a2.5 2.5 0 0 1-1.1-2c0-.7.5-1 1.1-.6ZM91.4 505.8a2.5 2.5 0 0 1 1.1 2c0 .7-.5 1-1.1.6a2.5 2.5 0 0 1-1.2-2c0-.7.5-1 1.2-.6Z" fill="#455A64"/><path opacity=".8" d="m51.6 461 9.8 5.6a6.1 6.1 0 0 1 2.7 4.8v5.6c0 1.8-1.2 2.5-2.7 1.6l-9.8-5.6a6.1 6.1 0 0 1-2.8-4.8v-5.6c0-1.8 1.3-2.5 2.8-1.6Z" fill="#fff"/><path d="m54.3 467.3 1.2-.7a1.7 1.7 0 0 1 1.7.2 5.3 5.3 0 0 1 2.4 4.1 1.7 1.7 0 0 1-.7 1.5l-1.2.7-.2-.3-.7-.3a5.3 5.3 0 0 1-2.4-4.8l-.1-.4Z" fill="#7FE389"/><path opacity=".2" d="m54.3 467.3 1.2-.7a1.7 1.7 0 0 1 1.7.2 5.3 5.3 0 0 1 2.4 4.1 1.7 1.7 0 0 1-.7 1.5l-1.2.7-.2-.3-.7-.3a5.3 5.3 0 0 1-2.4-4.8l-.1-.4Z" fill="#000"/><path d="M56 467.4a5.3 5.3 0 0 1 2.4 4.2c0 1.5-1 2.1-2.4 1.4a5.3 5.3 0 0 1-2.4-4c0-1.7 1-2.3 2.4-1.6Z" fill="#7FE389"/><path opacity=".8" d="m51.6 425 9.8 5.7a6 6 0 0 1 2.7 4.7v5.6c0 1.8-1.2 2.5-2.7 1.6l-9.8-5.6a6.1 6.1 0 0 1-2.8-4.8v-5.6c0-1.7 1.3-2.4 2.8-1.6Z" fill="#fff"/><path d="m54.3 431.3 1.2-.7a1.7 1.7 0 0 1 1.7.2 5.3 5.3 0 0 1 2.4 4.1 1.7 1.7 0 0 1-.7 1.6l-1.2.6-.2-.3-.7-.3a5.3 5.3 0 0 1-2.4-4.8l-.1-.4Z" fill="#7FE389"/><path opacity=".2" d="m54.3 431.3 1.2-.7a1.7 1.7 0 0 1 1.7.2 5.3 5.3 0 0 1 2.4 4.1 1.7 1.7 0 0 1-.7 1.6l-1.2.6-.2-.3-.7-.3a5.3 5.3 0 0 1-2.4-4.8l-.1-.4Z" fill="#000"/><path d="M56 431.5a5.3 5.3 0 0 1 2.4 4.2c0 1.5-1 2.1-2.4 1.3a5.3 5.3 0 0 1-2.4-4.1c0-1.6 1-2.2 2.4-1.4Z" fill="#7FE389"/><path opacity=".8" d="m51.6 389.1 9.8 5.6a6.1 6.1 0 0 1 2.7 4.8v5.6c0 1.8-1.2 2.5-2.7 1.6l-9.8-5.5a6.1 6.1 0 0 1-2.8-4.8v-5.6c0-1.9 1.3-2.6 2.8-1.7Z" fill="#fff"/><path d="m54.3 395.4 1.2-.7a1.7 1.7 0 0 1 1.7.2 5.3 5.3 0 0 1 2.4 4.1 1.7 1.7 0 0 1-.7 1.5l-1.2.7-.2-.3-.7-.3a5.3 5.3 0 0 1-2.4-4.8l-.1-.4Z" fill="#7FE389"/><path opacity=".2" d="m54.3 395.4 1.2-.7a1.7 1.7 0 0 1 1.7.2 5.3 5.3 0 0 1 2.4 4.1 1.7 1.7 0 0 1-.7 1.5l-1.2.7-.2-.3-.7-.3a5.3 5.3 0 0 1-2.4-4.8l-.1-.4Z" fill="#000"/><path d="M56 395.5a5.3 5.3 0 0 1 2.4 4.2c0 1.5-1 2.2-2.4 1.4a5.3 5.3 0 0 1-2.4-4.2c0-1.5 1-2.1 2.4-1.4Z" fill="#7FE389"/><path opacity=".8" d="m51.6 353.2 9.8 5.6a6.1 6.1 0 0 1 2.7 4.8v5.6c0 1.7-1.2 2.4-2.7 1.6l-9.8-5.6a6 6 0 0 1-2.8-4.8v-5.6c0-1.8 1.3-2.5 2.8-1.6Z" fill="#fff"/><path d="m54.3 359.5 1.2-.7a1.7 1.7 0 0 1 1.8.2 5.3 5.3 0 0 1 2.4 4.2 1.7 1.7 0 0 1-.7 1.5l-1.2.6-.2-.3c-.3 0-.5-.2-.7-.3a5.3 5.3 0 0 1-2.5-4.8l-.1-.4Z" fill="#7FE389"/><path opacity=".2" d="m54.3 359.5 1.2-.7a1.7 1.7 0 0 1 1.8.2 5.3 5.3 0 0 1 2.4 4.2 1.7 1.7 0 0 1-.7 1.5l-1.2.6-.2-.3c-.3 0-.5-.2-.7-.3a5.3 5.3 0 0 1-2.5-4.8l-.1-.4Z" fill="#000"/><path d="M56 359.6a5.3 5.3 0 0 1 2.4 4.2c0 1.5-1 2.1-2.4 1.4a5.3 5.3 0 0 1-2.4-4.2c0-1.5 1-2.1 2.4-1.4Z" fill="#7FE389"/><path opacity=".8" d="m51.6 317.2 9.8 5.6a6 6 0 0 1 2.7 4.8v5.6c0 1.8-1.2 2.5-2.7 1.6l-9.8-5.6a6 6 0 0 1-2.8-4.9v-5.6c0-1.7 1.3-2.4 2.8-1.5Z" fill="#fff"/><path d="m54.3 323.5 1.2-.8a1.7 1.7 0 0 1 1.7.2 5.3 5.3 0 0 1 2.4 4.2 1.7 1.7 0 0 1-.7 1.5l-1.2.7-.2-.4a2 2 0 0 1-.7-.3 5.3 5.3 0 0 1-2.4-4.8l-.1-.3Z" fill="#7FE389"/><path opacity=".2" d="m54.3 323.5 1.2-.8a1.7 1.7 0 0 1 1.7.2 5.3 5.3 0 0 1 2.4 4.2 1.7 1.7 0 0 1-.7 1.5l-1.2.7-.2-.4a2 2 0 0 1-.7-.3 5.3 5.3 0 0 1-2.4-4.8l-.1-.3Z" fill="#000"/><path d="M56 323.6a5.3 5.3 0 0 1 2.4 4.2c0 1.5-1 2.1-2.4 1.4a5.3 5.3 0 0 1-2.4-4.2c0-1.5 1-2.2 2.4-1.4Z" fill="#7FE389"/><path opacity=".8" d="m51.6 281.2 9.8 5.6a6 6 0 0 1 2.7 4.8v5.6c0 1.8-1.2 2.5-2.7 1.6l-9.8-5.6a6 6 0 0 1-2.8-4.8V283c0-1.9 1.3-2.6 2.8-1.7Z" fill="#fff"/><path d="m54.3 287.5 1.2-.7a1.7 1.7 0 0 1 1.7.1 5.3 5.3 0 0 1 2.4 4.2 1.7 1.7 0 0 1-.7 1.5l-1.2.7-.2-.4a2 2 0 0 1-.7-.2 5.3 5.3 0 0 1-2.4-4.8l-.1-.4Z" fill="#7FE389"/><path opacity=".2" d="m54.3 287.5 1.2-.7a1.7 1.7 0 0 1 1.7.1 5.3 5.3 0 0 1 2.4 4.2 1.7 1.7 0 0 1-.7 1.5l-1.2.7-.2-.4a2 2 0 0 1-.7-.2 5.3 5.3 0 0 1-2.4-4.8l-.1-.4Z" fill="#000"/><path d="M56 287.6a5.3 5.3 0 0 1 2.4 4.2c0 1.5-1 2.2-2.4 1.4a5.3 5.3 0 0 1-2.4-4.2c0-1.5 1-2.1 2.4-1.4Z" fill="#7FE389"/><path d="m202.8 461.7-41.1 23.8a6.1 6.1 0 0 0-2.8 4.8v5.6c0 1.7 1.2 2.5 2.8 1.6l41.1-23.8a6.1 6.1 0 0 0 2.8-4.8v-5.6c0-1.8-1.2-2.5-2.8-1.6Z" fill="#455A64"/><path d="M202.7 466.4v2.7a1.2 1.2 0 0 1-.6 1l-.6.4c-.3.1-.6 0-.6-.4v-2.7a1.2 1.2 0 0 1 .6-1l.6-.3c.3-.2.6 0 .6.3ZM199.9 468v2.8a1.2 1.2 0 0 1-.6 1l-.6.3c-.3.1-.6 0-.6-.3V469a1.2 1.2 0 0 1 .6-1l.6-.3c.3-.1.6 0 .6.3ZM197 469.7v2.7a1.2 1.2 0 0 1-.5 1l-.6.3c-.3.2-.5 0-.5-.3v-2.7a1.2 1.2 0 0 1 .5-1l.6-.4c.3-.1.6 0 .6.4Z" fill="#7FE389"/><path d="M194.3 471.3v2.7a1.2 1.2 0 0 1-.5 1l-.7.3c-.3.2-.5 0-.5-.3v-2.7a1.2 1.2 0 0 1 .5-1l.7-.3c.2-.2.5 0 .5.3ZM191.5 472.9v2.7a1.2 1.2 0 0 1-.6 1l-.6.3c-.3.2-.5 0-.5-.3v-2.7a1.2 1.2 0 0 1 .5-1l.6-.3c.4-.2.6 0 .6.3Z" fill="#37474F"/><path d="M188.7 474.5v2.7a1.2 1.2 0 0 1-.6 1l-.6.3c-.3.2-.5 0-.5-.3v-2.7a1.2 1.2 0 0 1 .5-1l.6-.3c.3-.2.6 0 .6.3ZM185.9 476.1v2.7a1.2 1.2 0 0 1-.6 1l-.6.3c-.3.2-.5 0-.5-.3v-2.7a1.2 1.2 0 0 1 .5-1l.6-.3c.3-.2.6 0 .6.3ZM183.1 477.7v2.7a1.2 1.2 0 0 1-.5 1l-.7.4c-.3.1-.5 0-.5-.4v-2.7a1.2 1.2 0 0 1 .5-1l.7-.3c.3-.2.5 0 .5.3ZM180.3 479.3v2.7a1.2 1.2 0 0 1-.5 1l-.7.4c-.3.1-.5 0-.5-.4v-2.7a1.2 1.2 0 0 1 .5-1l.7-.3c.3-.2.5 0 .5.3ZM177.5 481v2.7a1.2 1.2 0 0 1-.5 1l-.7.3c-.3.2-.5 0-.5-.3V482a1.2 1.2 0 0 1 .5-1l.7-.3c.3-.3.5-.1.5.3ZM174.7 482.6v2.7a1.2 1.2 0 0 1-.5 1l-.6.3c-.3.2-.6 0-.6-.3v-2.8a1.2 1.2 0 0 1 .6-1l.6-.3c.3-.1.5 0 .5.4ZM172 484.2v2.7a1.2 1.2 0 0 1-.6 1l-.6.3c-.3.2-.6 0-.6-.3v-2.7a1.2 1.2 0 0 1 .6-1l.6-.4c.3-.1.5 0 .5.4Z" fill="#7FE389"/><path d="M169.1 485.8v2.7a1.2 1.2 0 0 1-.5 1l-.6.3c-.3.2-.6 0-.6-.3v-2.7a1.2 1.2 0 0 1 .6-1l.6-.3c.3-.2.5 0 .5.3Z" fill="#37474F"/><path d="M166.3 487.4v2.7a1.2 1.2 0 0 1-.5 1l-.6.3c-.4.2-.6 0-.6-.3v-2.7a1.2 1.2 0 0 1 .6-1l.6-.3c.3-.2.5-.1.5.3ZM163.5 489v2.7a1.2 1.2 0 0 1-.5 1l-.6.3c-.3.2-.6 0-.6-.3V490a1.3 1.3 0 0 1 .6-1l.6-.3c.3-.2.5 0 .5.3Z" fill="#7FE389"/><path d="m202.8 425.8-41.1 23.7a6.1 6.1 0 0 0-2.8 4.8v5.6c0 1.7 1.2 2.5 2.8 1.6l41.1-23.8a6.1 6.1 0 0 0 2.8-4.8v-5.5c0-1.8-1.2-2.5-2.8-1.6Z" fill="#455A64"/><path d="M202.7 430.5v2.7a1.2 1.2 0 0 1-.6 1l-.6.3c-.3.2-.6 0-.6-.3v-2.7a1.2 1.2 0 0 1 .6-1l.6-.3c.3-.2.6 0 .6.3Z" fill="#7FE389"/><path d="M199.9 432.1v2.7a1.2 1.2 0 0 1-.6 1l-.6.3-.2.1h-.2l-.1-.2V433.1a1.2 1.2 0 0 1 .5-1l.6-.3c.3-.2.6 0 .6.3Z" fill="#37474F"/><path d="M197 433.7v2.7a1.2 1.2 0 0 1-.5 1l-.6.3c-.3.2-.5 0-.5-.3v-2.7a1.2 1.2 0 0 1 .5-1l.6-.3c.3-.2.6 0 .6.3Z" fill="#7FE389"/><path d="M194.3 435.3v2.7a1.2 1.2 0 0 1-.5 1l-.7.4c-.3.1-.5 0-.5-.4v-2.7a1.2 1.2 0 0 1 .5-1l.7-.3c.2-.2.5 0 .5.3ZM191.5 437v2.7a1.2 1.2 0 0 1-.6 1l-.6.3a.4.4 0 0 1-.4 0l-.1-.1v-3a1.2 1.2 0 0 1 .5-1l.6-.3c.4-.1.6 0 .6.3Z" fill="#37474F"/><path d="M188.7 438.5v2.8a1.2 1.2 0 0 1-.6 1l-.6.3c-.3.2-.5 0-.5-.3v-2.7a1.2 1.2 0 0 1 .5-1l.6-.4c.3-.1.6 0 .6.3ZM185.9 440.2v2.7a1.2 1.2 0 0 1-.6 1l-.6.3a.3.3 0 0 1-.4 0 .3.3 0 0 1-.1-.3v-2.7a1.2 1.2 0 0 1 .5-1l.6-.4c.3-.1.6 0 .6.4ZM183.1 441.8v2.7a1.2 1.2 0 0 1-.5 1l-.7.4c-.3.1-.5 0-.5-.4v-2.7a1.2 1.2 0 0 1 .5-1l.7-.3c.3-.2.5 0 .5.3Z" fill="#7FE389"/><path d="M180.3 443.3v2.7a1.2 1.2 0 0 1-.5 1l-.7.4c-.3.1-.5 0-.5-.4v-2.7a1.2 1.2 0 0 1 .5-1l.7-.3c.3-.1.5 0 .5.3Z" fill="#37474F"/><path d="M177.5 445v2.7a1.2 1.2 0 0 1-.5 1l-.7.3-.1.1a.3.3 0 0 1-.4-.2V446a1.2 1.2 0 0 1 .5-1l.7-.3c.3-.2.5 0 .5.3Z" fill="#7FE389"/><path d="M174.7 446.6v2.7a1.2 1.2 0 0 1-.5 1l-.6.4c-.3.1-.6 0-.6-.4v-2.7a1.2 1.2 0 0 1 .6-1l.6-.3c.3-.2.5 0 .5.3Z" fill="#37474F"/><path d="M172 448.2v2.7a1.2 1.2 0 0 1-.6 1l-.6.4a.4.4 0 0 1-.4 0 .3.3 0 0 1-.2-.4v-2.7a1.2 1.2 0 0 1 .6-1l.6-.3a.3.3 0 0 1 .4 0 .3.3 0 0 1 .1.3Z" fill="#7FE389"/><path d="M169.1 449.8v2.8a1.2 1.2 0 0 1-.5.9l-.6.4a.3.3 0 0 1-.6-.2V450.8a1.2 1.2 0 0 1 .6-1l.6-.3c.3-.2.5 0 .5.3Z" fill="#37474F"/><path d="M166.3 451.4v2.8a1.2 1.2 0 0 1-.5 1l-.6.3c-.4.2-.6 0-.6-.3v-2.8a1.2 1.2 0 0 1 .6-1l.6-.3h.2a.3.3 0 0 1 .3.1v.2ZM163.5 453v2.8a1.2 1.2 0 0 1-.5 1l-.6.3h-.2a.3.3 0 0 1-.4-.1V454a1.2 1.2 0 0 1 .6-1l.6-.4c.3-.1.5 0 .5.3Z" fill="#7FE389"/><path d="m202.8 389.8-41.1 23.7a6.1 6.1 0 0 0-2.8 4.8v5.6c0 1.8 1.2 2.5 2.8 1.6l41.1-23.7a6.1 6.1 0 0 0 2.8-4.8v-5.6c0-1.8-1.2-2.5-2.8-1.6Z" fill="#455A64"/><path d="M202.7 394.5v2.7a1.2 1.2 0 0 1-.6 1l-.6.3c-.3.2-.6 0-.6-.3v-2.7a1.2 1.2 0 0 1 .6-1l.6-.3a.3.3 0 0 1 .6.3ZM199.9 396.1v2.7a1.2 1.2 0 0 1-.6 1l-.6.4h-.2a.3.3 0 0 1-.3-.2V397.1a1.2 1.2 0 0 1 .5-1l.6-.3c.3-.2.6 0 .6.3ZM197 397.7v2.7a1.2 1.2 0 0 1-.5 1l-.6.4c-.3.1-.5 0-.5-.3v-2.8a1.2 1.2 0 0 1 .5-1l.6-.3c.3-.2.6 0 .6.3ZM194.3 399.3v2.8a1.2 1.2 0 0 1-.5 1l-.7.3c-.3.2-.5 0-.5-.3v-2.8a1.2 1.2 0 0 1 .5-1l.7-.3h.2a.3.3 0 0 1 .3.3Z" fill="#7FE389"/><path d="M191.5 401v2.7a1.2 1.2 0 0 1-.6 1l-.6.3h-.2a.3.3 0 0 1-.3-.3v-2.8a1.2 1.2 0 0 1 .5-.9l.6-.4c.4-.1.6 0 .6.4ZM188.7 402.6v2.7a1.2 1.2 0 0 1-.6 1l-.6.3c-.3.2-.5 0-.5-.3v-2.7a1.2 1.2 0 0 1 .5-1l.6-.4a.3.3 0 0 1 .6.2v.2Z" fill="#37474F"/><path d="M185.9 404.2v2.7a1.2 1.2 0 0 1-.6 1l-.6.3a.4.4 0 0 1-.4 0 .3.3 0 0 1-.1-.3v-2.7a1.2 1.2 0 0 1 .5-1l.6-.4a.3.3 0 0 1 .4 0 .3.3 0 0 1 .2.4ZM183.1 405.8v2.7a1.2 1.2 0 0 1-.5 1l-.7.3c-.3.2-.5 0-.5-.3v-2.7a1.2 1.2 0 0 1 .5-1l.7-.3c.3-.2.5 0 .5.3ZM180.3 407.4v2.8a1.2 1.2 0 0 1-.5 1l-.7.3c-.3.2-.5 0-.5-.3v-2.7a1.2 1.2 0 0 1 .5-1l.7-.3a.3.3 0 0 1 .5.2Z" fill="#7FE389"/><path d="M177.5 409v2.7a1.2 1.2 0 0 1-.5 1l-.7.3a.3.3 0 0 1-.5-.3V410a1.2 1.2 0 0 1 .5-1l.7-.3c.3-.2.5 0 .5.3Z" fill="#37474F"/><path d="M174.7 410.6v2.7a1.2 1.2 0 0 1-.5 1l-.6.4c-.3.1-.6 0-.6-.4v-2.6a1.2 1.2 0 0 1 .6-1l.6-.3c.3-.2.5-.1.5.2ZM172 412.2v2.7a1.2 1.2 0 0 1-.6 1l-.6.4a.3.3 0 0 1-.6-.1v-3a1.2 1.2 0 0 1 .6-1l.6-.3a.3.3 0 0 1 .4 0 .3.3 0 0 1 .1.3Z" fill="#7FE389"/><path d="M169.1 413.8v2.8a1.2 1.2 0 0 1-.5 1l-.6.3a.4.4 0 0 1-.4 0 .3.3 0 0 1-.2-.3v-2.8a1.3 1.3 0 0 1 .6-1l.6-.3c.3-.1.5 0 .5.3Z" fill="#37474F"/><path d="M166.3 415.5v2.7a1.2 1.2 0 0 1-.5 1l-.6.3c-.4.2-.6 0-.6-.3v-2.7a1.2 1.2 0 0 1 .6-1l.6-.4h.2a.3.3 0 0 1 .3.2v.2Z" fill="#7FE389"/><path d="M163.5 417v2.8a1.2 1.2 0 0 1-.5 1l-.6.3a.3.3 0 0 1-.6-.3V418a1.2 1.2 0 0 1 .6-1l.6-.3c.3-.2.5 0 .5.3Z" fill="#37474F"/><path d="m202.8 353.8-41.1 23.8a6.1 6.1 0 0 0-2.8 4.8v5.6c0 1.8 1.2 2.5 2.8 1.6l41.1-23.8a6.1 6.1 0 0 0 2.8-4.8v-5.6c0-1.7-1.2-2.4-2.8-1.6Z" fill="#455A64"/><path d="M202.7 358.6v2.7a1.2 1.2 0 0 1-.6 1l-.6.3c-.3.2-.6 0-.6-.3v-2.7a1.2 1.2 0 0 1 .6-1l.6-.3a.3.3 0 0 1 .6.3Z" fill="#7FE389"/><path d="M199.9 360.2v2.7a1.2 1.2 0 0 1-.6 1l-.6.3a.3.3 0 0 1-.6-.3v-2.7a1.2 1.2 0 0 1 .6-1l.6-.3c.3-.2.6 0 .6.3Z" fill="#37474F"/><path d="M197 361.8v2.7a1.2 1.2 0 0 1-.5 1l-.6.4c-.3.1-.5 0-.5-.4v-2.7a1.2 1.2 0 0 1 .5-1l.6-.3c.3-.2.6 0 .6.3ZM194.3 363.5v2.7a1.2 1.2 0 0 1-.5 1l-.7.3c-.3.2-.5 0-.5-.3v-2.7a1.2 1.2 0 0 1 .5-1l.7-.3h.2a.3.3 0 0 1 .3.3ZM191.5 365v2.7a1.2 1.2 0 0 1-.6 1l-.6.3a.4.4 0 0 1-.4 0h-.1v-3a1.2 1.2 0 0 1 .5-1l.6-.3c.4-.2.6 0 .6.3Z" fill="#7FE389"/><path d="M188.7 366.6v2.8a1.3 1.3 0 0 1-.6 1l-.6.3c-.3.2-.5 0-.5-.3v-2.8a1.2 1.2 0 0 1 .5-1l.6-.3h.2a.3.3 0 0 1 .4.3ZM185.9 368.3v2.7a1.2 1.2 0 0 1-.6 1l-.6.4a.4.4 0 0 1-.4 0 .3.3 0 0 1-.1-.4v-2.7a1.2 1.2 0 0 1 .5-1l.6-.3.2-.1a.3.3 0 0 1 .3.1l.1.3Z" fill="#37474F"/><path d="M183.1 369.9v2.6a1.2 1.2 0 0 1-.5 1l-.7.4c-.3.1-.5 0-.5-.4v-2.7a1.2 1.2 0 0 1 .5-1l.7-.3c.3-.1.5 0 .5.4Z" fill="#7FE389"/><path d="M180.3 371.5v2.7a1.2 1.2 0 0 1-.5 1l-.7.3c-.3.2-.5 0-.5-.3v-2.7a1.2 1.2 0 0 1 .5-1l.7-.3H180a.4.4 0 0 1 .2.3Z" fill="#37474F"/><path d="M177.5 373v2.8a1.2 1.2 0 0 1-.5 1l-.7.3-.1.1a.3.3 0 0 1-.4-.2v-3a1.2 1.2 0 0 1 .5-1l.7-.3c.3-.2.5 0 .5.4ZM174.7 374.7v2.7a1.2 1.2 0 0 1-.5 1l-.6.3c-.3.2-.6 0-.6-.3v-2.7a1.2 1.2 0 0 1 .6-1l.6-.3c.3-.2.5 0 .5.3ZM172 376.3v2.7a1.2 1.2 0 0 1-.6 1l-.6.4a.3.3 0 0 1-.5-.2v-2.9a1.2 1.2 0 0 1 .5-1l.6-.3h.2a.3.3 0 0 1 .3.3Z" fill="#7FE389"/><path d="M169.1 378v2.6a1.2 1.2 0 0 1-.5 1l-.6.4a.3.3 0 0 1-.4 0 .3.3 0 0 1-.2-.4V379a1.2 1.2 0 0 1 .6-1l.6-.3c.3-.2.5 0 .5.3Z" fill="#37474F"/><path d="M166.3 379.5v2.8a1.2 1.2 0 0 1-.5 1l-.6.3c-.4.2-.6 0-.6-.3v-2.8a1.2 1.2 0 0 1 .6-1l.6-.3h.2a.3.3 0 0 1 .3.1v.2ZM163.5 381.2v2.7a1.2 1.2 0 0 1-.5 1l-.6.3h-.2a.3.3 0 0 1-.4-.1v-3a1.2 1.2 0 0 1 .6-.9l.6-.4c.3-.1.5 0 .5.4Z" fill="#7FE389"/><path d="m202.8 317.8-41.1 23.8a6.1 6.1 0 0 0-2.8 4.8v5.6c0 1.8 1.2 2.5 2.8 1.6l41.1-23.8a6.1 6.1 0 0 0 2.8-4.8v-5.6c0-1.7-1.2-2.4-2.8-1.6Z" fill="#455A64"/><path d="M202.7 322.6v2.7a1.3 1.3 0 0 1-.6 1l-.6.3c-.3.2-.6 0-.6-.3v-2.7a1.2 1.2 0 0 1 .6-1l.6-.3c.3-.2.6 0 .6.3Z" fill="#7FE389"/><path d="M199.9 324.2v2.7a1.3 1.3 0 0 1-.6 1l-.6.3c-.3.2-.6 0-.6-.3v-2.7a1.3 1.3 0 0 1 .6-1l.6-.3c.3-.2.6 0 .6.3Z" fill="#37474F"/><path d="M197 325.9v2.7a1.2 1.2 0 0 1-.5 1l-.6.3c-.3.2-.5 0-.5-.3v-2.8a1.2 1.2 0 0 1 .5-1l.6-.3c.3-.2.6 0 .6.4ZM194.3 327.4v2.7a1.3 1.3 0 0 1-.5 1l-.7.3c-.3.2-.5 0-.5-.3v-2.7a1.2 1.2 0 0 1 .5-1l.7-.4c.2 0 .5 0 .5.4ZM191.5 329v2.7a1.2 1.2 0 0 1-.6 1l-.6.3c-.3.2-.5 0-.5-.3V330a1.3 1.3 0 0 1 .5-1l.6-.3c.4-.2.6 0 .6.3Z" fill="#7FE389"/><path d="M188.7 330.6v2.8a1.3 1.3 0 0 1-.6 1l-.6.3c-.3.2-.5 0-.5-.3v-2.7a1.3 1.3 0 0 1 .5-1l.6-.3c.3-.3.6-.1.6.2ZM185.9 332.3v2.7a1.3 1.3 0 0 1-.6 1l-.6.3c-.3.2-.5 0-.5-.3v-2.8a1.3 1.3 0 0 1 .5-1l.6-.3c.3-.1.6 0 .6.4Z" fill="#37474F"/><path d="M183.1 333.9v2.7a1.3 1.3 0 0 1-.5 1l-.7.3c-.3.2-.5 0-.5-.3v-2.7a1.3 1.3 0 0 1 .5-1l.7-.3c.3-.2.5-.1.5.3Z" fill="#7FE389"/><path d="M180.3 335.5v2.7a1.3 1.3 0 0 1-.5 1l-.7.3c-.3.2-.5 0-.5-.3v-2.7a1.2 1.2 0 0 1 .5-1l.7-.3c.3-.2.5 0 .5.3Z" fill="#37474F"/><path d="M177.5 337v2.8a1.2 1.2 0 0 1-.5 1l-.7.3c-.3.2-.5 0-.5-.3V338a1.3 1.3 0 0 1 .5-1l.7-.3c.3-.2.5 0 .5.3ZM174.7 338.7v2.7a1.3 1.3 0 0 1-.5 1l-.6.3c-.3.2-.6 0-.6-.3v-2.7a1.2 1.2 0 0 1 .6-1l.6-.3c.3-.2.5 0 .5.3ZM172 340.3v2.7a1.3 1.3 0 0 1-.6 1l-.6.3c-.3.2-.6 0-.6-.3v-2.7a1.3 1.3 0 0 1 .6-1l.6-.3c.3-.2.5 0 .5.3Z" fill="#7FE389"/><path d="M169.1 342v2.6a1.2 1.2 0 0 1-.5 1l-.6.3c-.3.2-.6 0-.6-.3V343a1.3 1.3 0 0 1 .6-1l.6-.3c.3-.2.5 0 .5.3Z" fill="#37474F"/><path d="M166.3 343.5v2.7a1.3 1.3 0 0 1-.5 1l-.6.4c-.4.1-.6 0-.6-.4v-2.7a1.2 1.2 0 0 1 .6-1l.6-.3c.3-.2.5 0 .5.3ZM163.5 345.1v2.8a1.2 1.2 0 0 1-.5 1l-.6.3c-.3.1-.6 0-.6-.4v-2.7a1.3 1.3 0 0 1 .6-1l.6-.3c.3-.2.5 0 .5.3Z" fill="#7FE389"/><path d="m202.8 281.9-41.1 23.8a6.1 6.1 0 0 0-2.8 4.7v5.6c0 1.8 1.2 2.5 2.8 1.6l41.1-23.7a6.1 6.1 0 0 0 2.8-4.8v-5.6c0-1.8-1.2-2.5-2.8-1.6Z" fill="#455A64"/><path d="M202.7 286.7v2.7a1.3 1.3 0 0 1-.6 1l-.6.3c-.3.2-.6 0-.6-.3v-2.7a1.2 1.2 0 0 1 .6-1l.6-.3c.3-.3.6-.1.6.3Z" fill="#37474F"/><path d="M199.9 288.2v2.7a1.3 1.3 0 0 1-.6 1l-.6.3c-.3.2-.6 0-.6-.3v-2.7a1.3 1.3 0 0 1 .6-1l.6-.3c.3-.2.6 0 .6.3Z" fill="#7FE389"/><path d="M197 289.9v2.7a1.2 1.2 0 0 1-.5 1l-.6.3c-.3.2-.5 0-.5-.3v-2.7a1.2 1.2 0 0 1 .5-1l.6-.4c.3-.1.6 0 .6.4ZM194.3 291.5v2.7a1.3 1.3 0 0 1-.5 1l-.7.3c-.3.2-.5 0-.5-.3v-2.7a1.2 1.2 0 0 1 .5-1l.7-.3c.2-.2.5 0 .5.3ZM191.5 293v2.7a1.2 1.2 0 0 1-.6 1l-.6.3c-.3.2-.5 0-.5-.3V294a1.3 1.3 0 0 1 .5-1l.6-.3c.4-.1.6 0 .6.4Z" fill="#37474F"/><path d="M188.7 294.7v2.7a1.3 1.3 0 0 1-.6 1l-.6.3c-.3.2-.5 0-.5-.3v-2.7a1.3 1.3 0 0 1 .5-1l.6-.3c.3-.2.6 0 .6.3ZM185.9 296.3v2.7a1.3 1.3 0 0 1-.6 1l-.6.3c-.3.2-.5 0-.5-.3v-2.8a1.3 1.3 0 0 1 .5-1l.6-.3c.3 0 .6 0 .6.4Z" fill="#7FE389"/><path d="M183.1 298v2.6a1.2 1.2 0 0 1-.5 1l-.7.3c-.3.2-.5 0-.5-.3V299a1.3 1.3 0 0 1 .5-1l.7-.3c.3-.2.5 0 .5.3Z" fill="#37474F"/><path d="M180.3 299.5v2.7a1.3 1.3 0 0 1-.5 1l-.7.3c-.3.2-.5 0-.5-.3v-2.7a1.2 1.2 0 0 1 .5-1l.7-.3c.3-.2.5 0 .5.3Z" fill="#7FE389"/><path d="M177.5 301.1v2.7a1.2 1.2 0 0 1-.5 1l-.7.4c-.3.1-.5 0-.5-.4v-2.7a1.3 1.3 0 0 1 .5-1l.7-.3c.3-.2.5 0 .5.3ZM174.7 302.7v2.8a1.3 1.3 0 0 1-.5 1l-.6.3c-.3.1-.6 0-.6-.3v-2.8a1.2 1.2 0 0 1 .6-1l.6-.3c.3-.1.5 0 .5.3ZM172 304.4v2.7a1.2 1.2 0 0 1-.6 1l-.6.3c-.3.2-.6 0-.6-.3v-2.7a1.2 1.2 0 0 1 .6-1l.6-.4c.3-.1.5 0 .5.4Z" fill="#37474F"/><path d="M169.1 306v2.7a1.2 1.2 0 0 1-.5 1l-.6.3c-.3.2-.6 0-.6-.3V307a1.2 1.2 0 0 1 .6-1l.6-.4c.3-.1.5 0 .5.4Z" fill="#7FE389"/><path d="M166.3 307.6v2.7a1.3 1.3 0 0 1-.5 1l-.6.3c-.4.2-.6 0-.6-.3v-2.7a1.2 1.2 0 0 1 .6-1l.6-.3c.3-.2.5 0 .5.3ZM163.5 309.2v2.7a1.2 1.2 0 0 1-.5 1l-.6.3c-.3.2-.6 0-.6-.3v-2.7a1.2 1.2 0 0 1 .6-1l.6-.3c.3-.2.5 0 .5.3Z" fill="#37474F"/><path d="m151.5 495.7-1.2-.7a1.7 1.7 0 0 0-1.7.2 5.3 5.3 0 0 0-2.4 4.1 1.7 1.7 0 0 0 .7 1.5l1.2.7.2-.4.7-.2a5.3 5.3 0 0 0 2.4-4.8l.1-.4Z" fill="#7FE389"/><path opacity=".4" d="m151.5 495.7-1.2-.7a1.7 1.7 0 0 0-1.7.2 5.3 5.3 0 0 0-2.4 4.1 1.7 1.7 0 0 0 .7 1.5l1.2.7.2-.4.7-.2a5.3 5.3 0 0 0 2.4-4.8l.1-.4Z" fill="#000"/><path d="M149.8 495.8a5.3 5.3 0 0 0-2.4 4.2c0 1.5 1 2.2 2.4 1.4a5.3 5.3 0 0 0 2.4-4.2c0-1.5-1-2.1-2.4-1.4Z" fill="#7FE389"/><path opacity=".2" d="M149.8 495.8a5.3 5.3 0 0 0-2.4 4.2c0 1.5 1 2.2 2.4 1.4a5.3 5.3 0 0 0 2.4-4.2c0-1.5-1-2.1-2.4-1.4Z" fill="#000"/><path d="m141.1 501.7-1.3-.7a1.7 1.7 0 0 0-1.7.2 5.3 5.3 0 0 0-2.4 4.1 1.7 1.7 0 0 0 .7 1.5l1.2.7.2-.3.7-.3a5.3 5.3 0 0 0 2.4-4.2v-.6l.2-.4Z" fill="#7FE389"/><path opacity=".4" d="m141.1 501.7-1.3-.7a1.7 1.7 0 0 0-1.7.2 5.3 5.3 0 0 0-2.4 4.1 1.7 1.7 0 0 0 .7 1.5l1.2.7.2-.3.7-.3a5.3 5.3 0 0 0 2.4-4.2v-.6l.2-.4Z" fill="#000"/><path d="M139.4 501.9a5.3 5.3 0 0 0-2.5 4.1c0 1.5 1.1 2.2 2.5 1.4a5.3 5.3 0 0 0 2.3-4.2c0-1.5-1-2.1-2.3-1.3Z" fill="#7FE389"/><path opacity=".2" d="M139.4 501.9a5.3 5.3 0 0 0-2.5 4.1c0 1.5 1.1 2.2 2.5 1.4a5.3 5.3 0 0 0 2.3-4.2c0-1.5-1-2.1-2.3-1.3Z" fill="#000"/><path d="m151.5 459.8-1.2-.8a1.7 1.7 0 0 0-1.7.2 5.3 5.3 0 0 0-2.4 4.2 1.7 1.7 0 0 0 .7 1.5l1.2.6.2-.3.7-.3a5.3 5.3 0 0 0 2.4-4.8l.1-.4Z" fill="#7FE389"/><path opacity=".4" d="m151.5 459.8-1.2-.8a1.7 1.7 0 0 0-1.7.2 5.3 5.3 0 0 0-2.4 4.2 1.7 1.7 0 0 0 .7 1.5l1.2.6.2-.3.7-.3a5.3 5.3 0 0 0 2.4-4.8l.1-.4Z" fill="#000"/><path d="M149.8 459.9a5.2 5.2 0 0 0-2.4 4.1c0 1.5 1 2.2 2.4 1.4a5.3 5.3 0 0 0 2.4-4.1c0-1.6-1-2.2-2.4-1.4Z" fill="#7FE389"/><path opacity=".2" d="M149.8 459.9a5.2 5.2 0 0 0-2.4 4.1c0 1.5 1 2.2 2.4 1.4a5.3 5.3 0 0 0 2.4-4.1c0-1.6-1-2.2-2.4-1.4Z" fill="#000"/><path d="m141.1 465.8-1.3-.7a1.7 1.7 0 0 0-1.7.1 5.3 5.3 0 0 0-2.4 4.2 1.7 1.7 0 0 0 .7 1.5l1.2.7.2-.4c.3 0 .5-.1.7-.3a5.3 5.3 0 0 0 2.4-4.1v-.6l.2-.4Z" fill="#7FE389"/><path opacity=".4" d="m141.1 465.8-1.3-.7a1.7 1.7 0 0 0-1.7.1 5.3 5.3 0 0 0-2.4 4.2 1.7 1.7 0 0 0 .7 1.5l1.2.7.2-.4c.3 0 .5-.1.7-.3a5.3 5.3 0 0 0 2.4-4.1v-.6l.2-.4Z" fill="#000"/><path d="M139.4 466a5.3 5.3 0 0 0-2.5 4c0 1.6 1.1 2.2 2.5 1.5a5.3 5.3 0 0 0 2.3-4.2c0-1.5-1-2.2-2.3-1.4Z" fill="#7FE389"/><path opacity=".2" d="M139.4 466a5.3 5.3 0 0 0-2.5 4c0 1.6 1.1 2.2 2.5 1.5a5.3 5.3 0 0 0 2.3-4.2c0-1.5-1-2.2-2.3-1.4Z" fill="#000"/><path d="m151.5 423.8-1.2-.7a1.7 1.7 0 0 0-1.7.1 5.3 5.3 0 0 0-2.4 4.2 1.7 1.7 0 0 0 .7 1.5l1.2.7.2-.4.7-.2a5.3 5.3 0 0 0 2.4-4.8l.1-.4Z" fill="#7FE389"/><path opacity=".4" d="m151.5 423.8-1.2-.7a1.7 1.7 0 0 0-1.7.1 5.3 5.3 0 0 0-2.4 4.2 1.7 1.7 0 0 0 .7 1.5l1.2.7.2-.4.7-.2a5.3 5.3 0 0 0 2.4-4.8l.1-.4Z" fill="#000"/><path d="M149.8 424a5.2 5.2 0 0 0-2.4 4.1c0 1.5 1 2.2 2.4 1.4a5.3 5.3 0 0 0 2.4-4.2c0-1.6-1-2.1-2.4-1.3Z" fill="#7FE389"/><path opacity=".2" d="M149.8 424a5.2 5.2 0 0 0-2.4 4.1c0 1.5 1 2.2 2.4 1.4a5.3 5.3 0 0 0 2.4-4.2c0-1.6-1-2.1-2.4-1.3Z" fill="#000"/><path d="m141.1 429.8-1.3-.8a1.7 1.7 0 0 0-1.7.2 5.3 5.3 0 0 0-2.4 4.2 1.7 1.7 0 0 0 .7 1.5l1.2.6.2-.3c.3 0 .5-.2.7-.3a5.3 5.3 0 0 0 2.4-4.1v-.7l.2-.3Z" fill="#7FE389"/><path opacity=".4" d="m141.1 429.8-1.3-.8a1.7 1.7 0 0 0-1.7.2 5.3 5.3 0 0 0-2.4 4.2 1.7 1.7 0 0 0 .7 1.5l1.2.6.2-.3c.3 0 .5-.2.7-.3a5.3 5.3 0 0 0 2.4-4.1v-.7l.2-.3Z" fill="#000"/><path d="M139.4 430a5.3 5.3 0 0 0-2.5 4.1c0 1.5 1.1 2.2 2.5 1.4a5.3 5.3 0 0 0 2.3-4.1c0-1.6-1-2.2-2.3-1.4Z" fill="#7FE389"/><path opacity=".2" d="M139.4 430a5.3 5.3 0 0 0-2.5 4.1c0 1.5 1.1 2.2 2.5 1.4a5.3 5.3 0 0 0 2.3-4.1c0-1.6-1-2.2-2.3-1.4Z" fill="#000"/><path d="m151.5 387.9-1.2-.8a1.7 1.7 0 0 0-1.7.2 5.3 5.3 0 0 0-2.4 4.2 1.7 1.7 0 0 0 .7 1.5l1.2.7.2-.4.7-.3a5.3 5.3 0 0 0 2.4-4.8l.1-.3Z" fill="#7FE389"/><path opacity=".4" d="m151.5 387.9-1.2-.8a1.7 1.7 0 0 0-1.7.2 5.3 5.3 0 0 0-2.4 4.2 1.7 1.7 0 0 0 .7 1.5l1.2.7.2-.4.7-.3a5.3 5.3 0 0 0 2.4-4.8l.1-.3Z" fill="#000"/><path d="M149.8 388a5.3 5.3 0 0 0-2.4 4.2c0 1.5 1 2.1 2.4 1.3a5.3 5.3 0 0 0 2.4-4.1c0-1.5-1-2.2-2.4-1.4Z" fill="#7FE389"/><path opacity=".2" d="M149.8 388a5.3 5.3 0 0 0-2.4 4.2c0 1.5 1 2.1 2.4 1.3a5.3 5.3 0 0 0 2.4-4.1c0-1.5-1-2.2-2.4-1.4Z" fill="#000"/><path d="m141.1 393.9-1.3-.7a1.7 1.7 0 0 0-1.7.1 5.3 5.3 0 0 0-2.4 4.2 1.7 1.7 0 0 0 .7 1.5l1.2.7.2-.4c.3 0 .5-.1.7-.3a5.3 5.3 0 0 0 2.4-4.1v-.6l.2-.4Z" fill="#7FE389"/><path opacity=".4" d="m141.1 393.9-1.3-.7a1.7 1.7 0 0 0-1.7.1 5.3 5.3 0 0 0-2.4 4.2 1.7 1.7 0 0 0 .7 1.5l1.2.7.2-.4c.3 0 .5-.1.7-.3a5.3 5.3 0 0 0 2.4-4.1v-.6l.2-.4Z" fill="#000"/><path d="M139.4 394a5.3 5.3 0 0 0-2.5 4.1c0 1.5 1.1 2.2 2.5 1.4a5.3 5.3 0 0 0 2.3-4.1c0-1.5-1-2.1-2.3-1.4Z" fill="#7FE389"/><path opacity=".2" d="M139.4 394a5.3 5.3 0 0 0-2.5 4.1c0 1.5 1.1 2.2 2.5 1.4a5.3 5.3 0 0 0 2.3-4.1c0-1.5-1-2.1-2.3-1.4Z" fill="#000"/><path d="m151.5 351.8-1.2-.7a1.7 1.7 0 0 0-1.7.2 5.3 5.3 0 0 0-2.4 4.2 1.7 1.7 0 0 0 .7 1.5l1.2.6.2-.3.7-.3a5.3 5.3 0 0 0 2.4-4.8l.1-.4Z" fill="#7FE389"/><path opacity=".4" d="m151.5 351.8-1.2-.7a1.7 1.7 0 0 0-1.7.2 5.3 5.3 0 0 0-2.4 4.2 1.7 1.7 0 0 0 .7 1.5l1.2.6.2-.3.7-.3a5.3 5.3 0 0 0 2.4-4.8l.1-.4Z" fill="#000"/><path d="M149.8 352a5.3 5.3 0 0 0-2.4 4.2c0 1.5 1 2.1 2.4 1.3a5.3 5.3 0 0 0 2.4-4.1c0-1.6-1-2.2-2.4-1.4Z" fill="#7FE389"/><path opacity=".2" d="M149.8 352a5.3 5.3 0 0 0-2.4 4.2c0 1.5 1 2.1 2.4 1.3a5.3 5.3 0 0 0 2.4-4.1c0-1.6-1-2.2-2.4-1.4Z" fill="#000"/><path d="m141.1 357.9-1.3-.8a1.7 1.7 0 0 0-1.7.2 5.3 5.3 0 0 0-2.4 4.2 1.7 1.7 0 0 0 .7 1.5l1.2.7.2-.4c.3 0 .5-.1.7-.3a5.3 5.3 0 0 0 2.4-4.1v-.6l.2-.4Z" fill="#7FE389"/><path opacity=".4" d="m141.1 357.9-1.3-.8a1.7 1.7 0 0 0-1.7.2 5.3 5.3 0 0 0-2.4 4.2 1.7 1.7 0 0 0 .7 1.5l1.2.7.2-.4c.3 0 .5-.1.7-.3a5.3 5.3 0 0 0 2.4-4.1v-.6l.2-.4Z" fill="#000"/><path d="M139.4 358a5.3 5.3 0 0 0-2.5 4.2c0 1.5 1.1 2.1 2.5 1.4a5.3 5.3 0 0 0 2.3-4.2c0-1.5-1-2.2-2.3-1.4Z" fill="#7FE389"/><path opacity=".2" d="M139.4 358a5.3 5.3 0 0 0-2.5 4.2c0 1.5 1.1 2.1 2.5 1.4a5.3 5.3 0 0 0 2.3-4.2c0-1.5-1-2.2-2.3-1.4Z" fill="#000"/><path d="m151.5 316-1.2-.8a1.7 1.7 0 0 0-1.7.2 5.2 5.2 0 0 0-2.4 4.1 1.7 1.7 0 0 0 .7 1.5l1.2.7.2-.4.7-.2a5.3 5.3 0 0 0 2.4-4.8l.1-.4Z" fill="#7FE389"/><path opacity=".4" d="m151.5 316-1.2-.8a1.7 1.7 0 0 0-1.7.2 5.2 5.2 0 0 0-2.4 4.1 1.7 1.7 0 0 0 .7 1.5l1.2.7.2-.4.7-.2a5.3 5.3 0 0 0 2.4-4.8l.1-.4Z" fill="#000"/><path d="M149.8 316a5.3 5.3 0 0 0-2.4 4.2c0 1.5 1 2.2 2.4 1.4a5.3 5.3 0 0 0 2.4-4.2c0-1.5-1-2-2.4-1.4Z" fill="#7FE389"/><path opacity=".2" d="M149.8 316a5.3 5.3 0 0 0-2.4 4.2c0 1.5 1 2.2 2.4 1.4a5.3 5.3 0 0 0 2.4-4.2c0-1.5-1-2-2.4-1.4Z" fill="#000"/><path d="m141.1 322-1.3-.8a1.7 1.7 0 0 0-1.7.2 5.3 5.3 0 0 0-2.4 4.1 1.7 1.7 0 0 0 .7 1.5l1.2.7.2-.3c.3 0 .5-.2.7-.3a5.3 5.3 0 0 0 2.4-4.2v-.6l.2-.4Z" fill="#7FE389"/><path opacity=".4" d="m141.1 322-1.3-.8a1.7 1.7 0 0 0-1.7.2 5.3 5.3 0 0 0-2.4 4.1 1.7 1.7 0 0 0 .7 1.5l1.2.7.2-.3c.3 0 .5-.2.7-.3a5.3 5.3 0 0 0 2.4-4.2v-.6l.2-.4Z" fill="#000"/><path d="M139.4 322a5.3 5.3 0 0 0-2.5 4.2c0 1.5 1.1 2.2 2.5 1.4a5.3 5.3 0 0 0 2.3-4.1c0-1.6-1-2.2-2.3-1.4Z" fill="#7FE389"/><path opacity=".2" d="M139.4 322a5.3 5.3 0 0 0-2.5 4.2c0 1.5 1.1 2.2 2.5 1.4a5.3 5.3 0 0 0 2.3-4.1c0-1.6-1-2.2-2.3-1.4Z" fill="#000"/><path d="m72 398.7 47.3 27.2a3.4 3.4 0 0 1 1.5 2.7v13c0 1-.7 1.4-1.5 1L72 415.3a3.4 3.4 0 0 1-1.5-2.7v-13c0-1 .6-1.5 1.5-1Z" fill="#455A64"/><path d="M73.3 404.4a3.3 3.3 0 0 0 1.5 2.6l41.6 24c.8.4 1.5 0 1.5-.9a3.3 3.3 0 0 0-1.5-2.5l-41.6-24c-.8-.4-1.5-.1-1.5.8Z" fill="#7FE389"/><path d="M73.3 411a3.3 3.3 0 0 0 1.5 2.6l41.6 24c.8.4 1.5.1 1.5-.8a3.3 3.3 0 0 0-1.5-2.6l-41.6-24c-.8-.4-1.5 0-1.5.9Z" fill="#263238"/><path d="m74.8 410.3 23 13.2v3.3l-23-13.2a3.3 3.3 0 0 1-1.5-2.5c0-1 .7-1.3 1.5-.8Z" fill="#7FE389"/><path d="m72 434.7 47.3 27.3a3.4 3.4 0 0 1 1.5 2.6v13c0 1-.7 1.5-1.5 1L72 451.3a3.4 3.4 0 0 1-1.5-2.7v-13c0-1 .6-1.4 1.5-1Z" fill="#455A64"/><path d="M73.3 440.4a3.3 3.3 0 0 0 1.5 2.6l41.6 24c.8.4 1.5.1 1.5-.8a3.3 3.3 0 0 0-1.5-2.6l-41.6-24c-.8-.4-1.5 0-1.5.8Z" fill="#7FE389"/><path d="M73.3 447a3.3 3.3 0 0 0 1.5 2.6l41.6 24c.8.5 1.5.1 1.5-.8a3.3 3.3 0 0 0-1.5-2.5l-41.6-24c-.8-.5-1.5-.1-1.5.8Z" fill="#263238"/><path d="m74.8 446.3 28.7 16.6v3.3l-28.7-16.5a3.3 3.3 0 0 1-1.5-2.6c0-1 .7-1.3 1.5-.8Z" fill="#7FE389"/><path d="m72 470.4 47.3 27.3a3.4 3.4 0 0 1 1.5 2.7v13c0 1-.7 1.4-1.5 1L72 487a3.4 3.4 0 0 1-1.5-2.7v-13c0-.9.6-1.3 1.5-.9Z" fill="#455A64"/><path d="M73.3 476.2a3.3 3.3 0 0 0 1.5 2.6l41.6 24c.8.4 1.5 0 1.5-.9a3.3 3.3 0 0 0-1.5-2.5l-41.6-24c-.8-.5-1.5-.1-1.5.8Z" fill="#7FE389"/><path d="M73.3 482.9a3.3 3.3 0 0 0 1.5 2.5l41.6 24c.8.4 1.5 0 1.5-.8a3.3 3.3 0 0 0-1.5-2.6l-41.6-24c-.8-.4-1.5 0-1.5.9Z" fill="#263238"/><path d="m74.8 482 34.5 20v3.3l-34.5-19.9a3.3 3.3 0 0 1-1.5-2.5c0-1 .7-1.3 1.5-.8Z" fill="#7FE389"/><path d="m72 363 47.3 27.3a3.4 3.4 0 0 1 1.5 2.6v13c0 1-.7 1.5-1.5 1L72 379.6a3.4 3.4 0 0 1-1.5-2.7v-13c0-1 .6-1.4 1.5-1Z" fill="#455A64"/><path d="M73.3 368.7a3.3 3.3 0 0 0 1.5 2.6l41.6 24c.8.4 1.5 0 1.5-.8a3.3 3.3 0 0 0-1.5-2.6L74.8 368c-.8-.5-1.5-.2-1.5.7Z" fill="#7FE389"/><path d="M73.3 375.4a3.3 3.3 0 0 0 1.5 2.5l41.6 24c.8.5 1.5.1 1.5-.8a3.3 3.3 0 0 0-1.5-2.5l-41.6-24c-.8-.5-1.5-.1-1.5.8Z" fill="#263238"/><path d="m74.8 374.6 37.4 21.5v3.3L74.8 378a3.3 3.3 0 0 1-1.5-2.5c0-1 .7-1.3 1.5-.8Z" fill="#7FE389"/><path d="m72 291 47.3 27.3a3.4 3.4 0 0 1 1.5 2.7v13c0 1-.7 1.4-1.5 1L72 307.5a3.4 3.4 0 0 1-1.5-2.7v-13c0-1 .6-1.4 1.5-.9Z" fill="#455A64"/><path d="M73.3 296.8a3.3 3.3 0 0 0 1.5 2.5l41.6 24c.8.5 1.5.1 1.5-.8a3.3 3.3 0 0 0-1.5-2.6l-41.6-24c-.8-.4-1.5 0-1.5.9Z" fill="#7FE389"/><path d="M73.3 303.4a3.3 3.3 0 0 0 1.5 2.5l41.6 24c.8.5 1.5.2 1.5-.8a3.3 3.3 0 0 0-1.5-2.5l-41.6-24c-.8-.5-1.5-.1-1.5.8Z" fill="#263238"/><path d="m74.8 302.6 28.7 16.6v3.3L74.8 306a3.3 3.3 0 0 1-1.5-2.5c0-1 .7-1.3 1.5-.8Z" fill="#7FE389"/><path d="m72 327 47.3 27.3a3.4 3.4 0 0 1 1.5 2.6v13c0 1-.7 1.4-1.5 1L72 343.6a3.4 3.4 0 0 1-1.5-2.7v-13c0-1 .6-1.4 1.5-1Z" fill="#455A64"/><path d="M73.3 332.7a3.3 3.3 0 0 0 1.5 2.6l41.6 24c.8.4 1.5 0 1.5-.8a3.3 3.3 0 0 0-1.5-2.6l-41.6-24c-.8-.4-1.5 0-1.5.8Z" fill="#7FE389"/><path d="M73.3 339.4a3.3 3.3 0 0 0 1.5 2.6l41.6 24c.8.4 1.5 0 1.5-.9a3.3 3.3 0 0 0-1.5-2.5l-41.6-24c-.8-.5-1.5-.2-1.5.8Z" fill="#263238"/><path d="m74.8 338.6 37.4 21.5v3.4L74.8 342a3.3 3.3 0 0 1-1.5-2.6c0-1 .7-1.3 1.5-.8ZM129.7 303.7l55.6-32a3.2 3.2 0 0 0 1.5-2.6v-1.8a3.2 3.2 0 0 0-1.5-2.5l-55.6-32.2a3.2 3.2 0 0 0-2.9 0l-55.6 32.1a3.2 3.2 0 0 0-1.5 2.5v1.9a3.1 3.1 0 0 0 1.5 2.5l55.6 32a3.2 3.2 0 0 0 3 0Z" fill="#7FE389"/><path opacity=".3" d="m129.7 303.7 55.6-32a3.2 3.2 0 0 0 1.5-2.6v-1.8a3.2 3.2 0 0 0-1.5-2.5l-55.6-32.2a3.2 3.2 0 0 0-2.9 0l-55.6 32.1a3.2 3.2 0 0 0-1.5 2.5v1.9a3.1 3.1 0 0 0 1.5 2.5l55.6 32a3.2 3.2 0 0 0 3 0Z" fill="#000"/><path d="m185.3 266.4-55.6 32a3.1 3.1 0 0 1-2.9 0l-55.6-32c-.7-.5-.7-1.2 0-1.7l55.6-32a3.2 3.2 0 0 1 3 0l55.5 32c.8.5.8 1.2 0 1.7Z" fill="#7FE389"/><path d="M128.3 298.8v5.2c.5 0 1 0 1.5-.3l55.5-32a3.2 3.2 0 0 0 1.5-2.6v-1.8a3.2 3.2 0 0 0-1.2-2.3c.5.4.5 1-.3 1.5l-55.6 32c-.4.2-1 .3-1.4.3Z" fill="#7FE389"/><path opacity=".2" d="M128.3 298.8v5.2c.5 0 1 0 1.5-.3l55.5-32a3.2 3.2 0 0 0 1.5-2.6v-1.8a3.2 3.2 0 0 0-1.2-2.3c.5.4.5 1-.3 1.5l-55.6 32c-.4.2-1 .3-1.4.3Z" fill="#000"/><path d="m129.7 288.1 37.7-21.7a3.1 3.1 0 0 0 1.5-2.5V262a3.2 3.2 0 0 0-1.5-2.5l-24.1-13.9c-1-.6-1.8-1.3-2.5-2.1L129.3 228a1.9 1.9 0 0 0-2.5-.5l-37.6 21.7a3.2 3.2 0 0 0-1.5 2.4V264a3.2 3.2 0 0 0 1.5 2.5l37.6 21.7a3.2 3.2 0 0 0 3 0Z" fill="#263238"/><path d="m126.8 282.9-24-14a8.7 8.7 0 0 1-2.5-2l-11.5-15.6a1.5 1.5 0 0 1 .4-2.2l37.7-21.7a1.9 1.9 0 0 1 2.4.5l11.5 15.6a9 9 0 0 0 2.3 2.2l24.2 13.9a.9.9 0 0 1 .4 1.3c0 .2-.2.3-.4.4L129.7 283a3.2 3.2 0 0 1-2.9-.1Z" fill="#455A64"/><path d="m89.2 249.2 37.7-21.8a1.9 1.9 0 0 1 2.4.5l11.5 15.6 1.2 1.2-40.5 23.4a8 8 0 0 1-1.2-1.3l-11.5-15.5a1.5 1.5 0 0 1 .4-2.2Z" fill="#37474F"/><path d="M158.2 260a3.7 3.7 0 0 0-3.4 0c-1 .4-1 1.3 0 1.9a3.7 3.7 0 0 0 3.4 0c1-.6 1-1.5 0-2ZM149.7 266.2c1.4 0 2.4-.7 2.4-1.4 0-.8-1-1.4-2.4-1.4-1.3 0-2.3.6-2.3 1.4 0 .7 1 1.4 2.3 1.4Z" fill="#7FE389"/><path d="M143 270c1.3 0 2.4-.6 2.4-1.3 0-.8-1-1.4-2.4-1.4-1.3 0-2.4.6-2.4 1.4 0 .7 1.1 1.3 2.4 1.3ZM138 271.6a3.8 3.8 0 0 0-3.4 0 1 1 0 0 0 0 2 3.8 3.8 0 0 0 3.4 0 1 1 0 0 0 0-2Z" fill="#263238"/><path d="M151.4 259.3c1.3 0 2.4-.6 2.4-1.3 0-.8-1-1.4-2.4-1.4-1.3 0-2.3.6-2.3 1.4 0 .7 1 1.3 2.3 1.3Z" fill="#7FE389"/><path d="M146.4 260.9a3.8 3.8 0 0 0-3.4 0 1 1 0 0 0 0 2 3.8 3.8 0 0 0 3.4 0 1 1 0 0 0 0-2Z" fill="#263238"/><path d="M138 267.1c1.3 0 2.3-.6 2.3-1.3 0-.8-1-1.4-2.3-1.4-1.4 0-2.4.6-2.4 1.4 0 .7 1 1.3 2.4 1.3Z" fill="#7FE389"/><path d="M132.9 268.6a3.8 3.8 0 0 0-3.3 0 1 1 0 0 0 0 2 3.8 3.8 0 0 0 3.3 0 1 1 0 0 0 .7-1 1 1 0 0 0-.7-1ZM148 254a3.7 3.7 0 0 0-3.3 0 1 1 0 0 0-.5 1.6l.5.4a3.7 3.7 0 0 0 3.4 0 1 1 0 0 0 .5-1.6 1 1 0 0 0-.5-.3Z" fill="#263238"/><path d="M141.3 258a3.8 3.8 0 0 0-3.3 0 1 1 0 0 0 0 2 3.8 3.8 0 0 0 3.3 0 1 1 0 0 0 0-2Z" fill="#7FE389"/><path d="M134.6 261.9a3.7 3.7 0 0 0-3.4 0c-1 .5-1 1.4 0 1.9a3.7 3.7 0 0 0 3.4 0c1-.5 1-1.4 0-2Z" fill="#263238"/><path d="M131.2 275.4a3.7 3.7 0 0 0-3.4 0 1 1 0 0 0-.5 1.6l.5.4a3.7 3.7 0 0 0 3.4 0 1 1 0 0 0 .5-1.6 1 1 0 0 0-.5-.4Z" fill="#7FE389"/><path d="M126.1 272.5a3.7 3.7 0 0 0-3.4 0 1 1 0 0 0 0 2 3.7 3.7 0 0 0 3.4 0 1 1 0 0 0 0-2ZM127.8 265.8a3.7 3.7 0 0 0-3.3 0c-1 .5-1 1.4 0 1.9a3.7 3.7 0 0 0 3.3 0c1-.6 1-1.4 0-2Z" fill="#263238"/><path d="M143 251.2a3.7 3.7 0 0 0-3.4 0c-.9.5-.9 1.4 0 1.9a3.7 3.7 0 0 0 3.4 0 1 1 0 0 0 0-2Z" fill="#7FE389"/><path d="M136.3 255a3.7 3.7 0 0 0-3.4 0c-1 .6-1 1.5 0 2a3.7 3.7 0 0 0 3.4 0c.9-.5.9-1.4 0-2Z" fill="#263238"/><path d="M129.6 259a3.8 3.8 0 0 0-3.4 0 1 1 0 0 0-.5 1.5l.5.4a3.8 3.8 0 0 0 3.4 0 1 1 0 0 0 0-2Z" fill="#7FE389"/><path d="M122.8 262.8a3.7 3.7 0 0 0-3.4 0 1 1 0 0 0-.5 1.6l.5.4a3.7 3.7 0 0 0 3.4 0 1 1 0 0 0 .5-1.6 1 1 0 0 0-.5-.4Z" fill="#263238"/><path d="M121 269.6a3.7 3.7 0 0 0-3.3 0c-1 .5-1 1.4 0 2a3.7 3.7 0 0 0 3.4 0 1 1 0 0 0 .5-1.7 1 1 0 0 0-.5-.3Z" fill="#7FE389"/><path d="M116 266.6a3.8 3.8 0 0 0-3.4 0 1 1 0 0 0-.5 1.6l.5.4a3.8 3.8 0 0 0 3.4 0 1 1 0 0 0 .5-1.6 1 1 0 0 0-.5-.4Z" fill="#263238"/><path d="M128.2 283.2v5.2c.5 0 1 0 1.5-.3l37.6-21.7a3.1 3.1 0 0 0 1.6-2.5V262a3.2 3.2 0 0 0-1.2-2.3c.5.5.4 1-.3 1.5L129.8 283c-.5.3-1 .4-1.6.3Z" fill="#37474F"/><path d="M135.8 242.8a1.3 1.3 0 0 0-1.6-.3l-32.8 18.8a1 1 0 0 0-.4 1l.1.4a1.2 1.2 0 0 0 1.7.4l32.7-18.9a1 1 0 0 0 .3-1.4Z" fill="#263238"/><path d="M135.8 242.8a1.3 1.3 0 0 0-1.6-.3l-24.4 14 1.4 1.8 24.3-14a1 1 0 0 0 .3-1.5Z" fill="#7FE389"/><path d="M133.1 239.2a1.3 1.3 0 0 0-1.6-.4l-32.8 18.9a1 1 0 0 0-.4 1l.1.4a1.3 1.3 0 0 0 1.7.4l32.7-19a1 1 0 0 0 .5-1l-.2-.3Z" fill="#263238"/><path d="M133.1 239.2a1.3 1.3 0 0 0-1.6-.4l-8.1 4.7 1.3 1.9 8.1-4.7a1 1 0 0 0 .5-1.1 1 1 0 0 0-.2-.4Z" fill="#7FE389"/><path d="M130.4 235.5a1.3 1.3 0 0 0-1.6-.4l-32.8 19a1 1 0 0 0-.5 1l.2.4a1.2 1.2 0 0 0 1.6.3l32.8-18.8a1 1 0 0 0 .3-1.5Z" fill="#263238"/><path d="M130.4 235.5a1.3 1.3 0 0 0-1.6-.4l-17 9.8 1.3 1.9 17-9.8a1 1 0 0 0 .3-1.5Z" fill="#7FE389"/><path d="M127.7 232a1.3 1.3 0 0 0-1.6-.4l-32.8 18.8a1 1 0 0 0-.5.7 1 1 0 0 0 .2.8 1.3 1.3 0 0 0 1.7.4l32.6-18.9a1 1 0 0 0 .4-1.5Z" fill="#263238"/><path d="M127.7 232a1.3 1.3 0 0 0-1.6-.4l-29.8 17 1.4 2 29.7-17.2a1 1 0 0 0 .5-.7 1 1 0 0 0-.2-.8ZM239 542.4l-16.5-9.5a6.1 6.1 0 0 0-5.7 0l-90 52a5.1 5.1 0 0 1-4.5 0l-109.1-63c-.5-.3-.8-.7-.8-1 0-.3.3-.7.8-1L63 491.3h.1v-.2a1 1 0 0 0-.4-.7.3.3 0 0 0-.3 0l-50 28.7a2.1 2.1 0 0 0 0 4l109.2 63a6 6 0 0 0 2.8.7c1 0 2-.3 2.9-.7l90-52a5 5 0 0 1 4.6 0l16.5 9.5a.6.6 0 1 0 .6-1v-.1Zm9.6-5.5-26-15a6.1 6.1 0 0 0-5.7 0l-90.1 52a5.1 5.1 0 0 1-4.5 0l-90-52c-.6-.3-.8-.7-.8-1 0-.3.2-.7.7-1l40.5-23.2.1-.3a1 1 0 0 0-.4-.7.3.3 0 0 0-.3 0L31.6 519a2.4 2.4 0 0 0-1.4 2 2.3 2.3 0 0 0 1.4 2l90 52c1 .5 1.9.7 2.9.7s2-.2 2.8-.7l90.1-52a5.1 5.1 0 0 1 4.5 0l26 15a.6.6 0 0 0 .5.1.6.6 0 0 0 .3-.3.6.6 0 0 0-.3-.8Zm19-11-45-26a6.2 6.2 0 0 0-5.7 0l-90.1 52a5.1 5.1 0 0 1-4.5 0l-52-30c-.5-.3-.8-.7-.8-1 0-.3.3-.7.8-1l21.3-12.2v-.2a.9.9 0 0 0-.4-.7.3.3 0 0 0-.2 0L69.6 519a2.1 2.1 0 0 0 0 4l52 30c.9.4 1.9.7 2.8.6 1 0 2-.2 2.9-.6l90-52a5.1 5.1 0 0 1 4.6 0l45 26a.6.6 0 0 0 .8-.3l.2-.2a.6.6 0 0 0-.3-.7Zm-9.5 5.5-35.6-20.5a6.1 6.1 0 0 0-5.6 0l-90.1 52a5 5 0 0 1-4.5 0l-71-41c-.5-.3-.8-.7-.8-1 0-.3.3-.7.7-1l31-17.8a.3.3 0 0 0 0-.2.9.9 0 0 0-.4-.7.4.4 0 0 0-.3 0L50.7 519a2.1 2.1 0 0 0 0 4l71 41c.9.4 1.9.7 2.8.7 1 0 2-.3 2.9-.7l90-52a5.1 5.1 0 0 1 4.6 0l35.5 20.5a.6.6 0 0 0 .8-.3.6.6 0 0 0 0-.4.6.6 0 0 0-.2-.4Z" fill="#7FE389"/><path opacity=".5" d="m239 542.4-16.5-9.5a6.1 6.1 0 0 0-5.7 0l-90 52a5.1 5.1 0 0 1-4.5 0l-109.1-63c-.5-.3-.8-.7-.8-1 0-.3.3-.7.8-1L63 491.3h.1v-.2a1 1 0 0 0-.4-.7.3.3 0 0 0-.3 0l-50 28.7a2.1 2.1 0 0 0 0 4l109.2 63a6 6 0 0 0 2.8.7c1 0 2-.3 2.9-.7l90-52a5 5 0 0 1 4.6 0l16.5 9.5a.6.6 0 1 0 .6-1v-.1Zm9.6-5.5-26-15a6.1 6.1 0 0 0-5.7 0l-90.1 52a5.1 5.1 0 0 1-4.5 0l-90-52c-.6-.3-.8-.7-.8-1 0-.3.2-.7.7-1l40.5-23.2.1-.3a1 1 0 0 0-.4-.7.3.3 0 0 0-.3 0L31.6 519a2.4 2.4 0 0 0-1.4 2 2.3 2.3 0 0 0 1.4 2l90 52c1 .5 1.9.7 2.9.7s2-.2 2.8-.7l90.1-52a5.1 5.1 0 0 1 4.5 0l26 15a.6.6 0 0 0 .5.1.6.6 0 0 0 .3-.3.6.6 0 0 0-.3-.8Zm9.5-5.5-35.6-20.5a6.1 6.1 0 0 0-5.6 0l-90.1 52a5 5 0 0 1-4.5 0l-71-41c-.5-.3-.8-.7-.8-1 0-.3.3-.7.7-1l31-17.8a.3.3 0 0 0 0-.2.9.9 0 0 0-.4-.7.4.4 0 0 0-.3 0L50.7 519a2.1 2.1 0 0 0 0 4l71 41c.9.4 1.9.7 2.8.7 1 0 2-.3 2.9-.7l90-52a5.1 5.1 0 0 1 4.6 0l35.5 20.5a.6.6 0 0 0 .8-.3.6.6 0 0 0 0-.4.6.6 0 0 0-.2-.4Zm9.5-5.5-45-26a6.2 6.2 0 0 0-5.7 0l-90.1 52a5.1 5.1 0 0 1-4.5 0l-52-30c-.5-.3-.8-.7-.8-1 0-.3.3-.7.8-1l21.3-12.2v-.2a.9.9 0 0 0-.4-.7.3.3 0 0 0-.2 0L69.6 519a2.1 2.1 0 0 0 0 4l52 30c.9.4 1.9.7 2.8.6 1 0 2-.2 2.9-.6l90-52a5.1 5.1 0 0 1 4.6 0l45 26a.6.6 0 0 0 .8-.3l.2-.2a.6.6 0 0 0-.3-.7Z" fill="#fff"/><path d="M94 159.2a.7.7 0 0 0-.8.7v64.6a.7.7 0 0 0 .7.7.7.7 0 0 0 .7-.7V160a.7.7 0 0 0-.7-.7Z" fill="#7FE389"/><path opacity=".5" d="M94 159.2a.7.7 0 0 0-.8.7v64.6a.7.7 0 0 0 .7.7.7.7 0 0 0 .7-.7V160a.7.7 0 0 0-.7-.7Z" fill="#fff"/><path d="M90.9 164a6.8 6.8 0 0 1 3-5.3c1.7-1 3-.2 3 1.8a6.7 6.7 0 0 1-3 5.3c-1.7 1-3 .2-3-1.8ZM132.3 121.1l-2-1.2a4.8 4.8 0 0 1-2.2-3l-9-67.1a2.6 2.6 0 0 0-4.1-2L69.3 74a4.2 4.2 0 0 1-5.7-1.5L62 70a4.2 4.2 0 0 0-5.8-1.5l-21 12.1A6.8 6.8 0 0 0 32 87L42.7 166a4.9 4.9 0 0 0 2 3.1l2.1 1.2a1.2 1.2 0 0 0 1.3.1l85.5-49.3a1.3 1.3 0 0 1-1.3 0Z" fill="#7FE389"/><path opacity=".3" d="m132.3 121.1-2-1.2a4.8 4.8 0 0 1-2.2-3l-9-67.1a2.6 2.6 0 0 0-4.1-2L69.3 74a4.2 4.2 0 0 1-5.7-1.5L62 70a4.2 4.2 0 0 0-5.8-1.5l-21 12.1A6.8 6.8 0 0 0 32 87L42.7 166a4.9 4.9 0 0 0 2 3.1l2.1 1.2a1.2 1.2 0 0 0 1.3.1l85.5-49.3a1.3 1.3 0 0 1-1.3 0Z" fill="#000"/><path opacity=".3" d="m44.8 169.2 2 1.2a1.2 1.2 0 0 0 1.3.1l85.5-49.3a1.3 1.3 0 0 1-1.3-.1l-2-1.2c-.6-.3-1-.8-1.4-1.3l-85.5 49.3c.4.6.8 1 1.4 1.3Z" fill="#000"/><path d="M45.2 162.1V95.4a5.4 5.4 0 0 1 2.5-4.2L122.5 48c1.4-.8 2.5-.2 2.5 1.4V116a5.3 5.3 0 0 1-2.5 4.2l-74.8 43.2c-1.3.8-2.5.2-2.5-1.4Z" fill="#F0F0F0"/><path d="M48.1 170.6a1.3 1.3 0 0 0 .6-1.2v-66a8 8 0 0 1 3.6-6.3L130.4 52c2-1.2 3.7-.2 3.7 2v66a1.3 1.3 0 0 1-.5 1.3L48 170.6Z" fill="#7FE389"/><path opacity=".1" d="M48.1 170.6a1.3 1.3 0 0 0 .6-1.2v-66a8 8 0 0 1 3.6-6.3L130.4 52c2-1.2 3.7-.2 3.7 2v66a1.3 1.3 0 0 1-.5 1.3L48 170.6Z" fill="#fff"/><path d="M203 577.4c0 4.1 3.2 6.7 7 9l156.3 90.2a15.3 15.3 0 0 0 13.8 0L632.3 531c3.8-2.2 7-5 7-9.1 0-4.2-3.2-6.7-7-9L476 422.7a15.2 15.2 0 0 0-13.8 0L210 568.2c-3.8 2.2-7 5-7 9.2Z" fill="#37474F"/><path d="m210 576.2 156.3 90.3a15.3 15.3 0 0 0 13.8 0l252.2-145.7c3.8-2.1 3.8-5.7 0-8L476 422.7a15.2 15.2 0 0 0-13.8 0L210 568.2c-3.8 2.2-3.8 5.8 0 8Z" fill="#455A64"/><path d="M373.2 668.1v10.2c-2.4 0-4.8-.6-6.9-1.7L210 586.4c-3.8-2.2-7-4.9-7-9 0-4 2.9-6.6 6.5-8.8-3 2-3 5.6.5 7.6l156.3 90.3a14 14 0 0 0 7 1.6Z" fill="#263238"/><path d="M200 569.3c-3-1.4-3.8-3.8-4-8L182.3 363a13.7 13.7 0 0 1 6.4-11.7L441 205.7c3.8-2.2 6.6-3.4 10.1-1s3.6 3.8 3.9 8L468.5 411a13.7 13.7 0 0 1-6.4 11.6L210 568.3c-3.8 2.1-6 2.8-10 1Z" fill="#37474F"/><path d="M455 212.7c-.3-4.2-3.6-5.9-7.4-3.7L195.4 354.6a13 13 0 0 0-4.8 5.1l-6.5-3.3c1-2 2.7-3.8 4.7-5L441 205.6c3.8-2.2 6.6-3.4 10.1-1 3.5 2.5 3.6 3.8 3.9 8Z" fill="#455A64"/><path d="M209.5 568.5c-3.5 2-5.7 2.3-9.4.8-2.8-1.2-3.9-3.8-4.2-8L182.4 363c-.1-2.3.5-4.6 1.7-6.6l6.5 3.3c-1.1 2-1.7 4.3-1.6 6.6l13.5 198.2c.3 4 3.7 6 7 4Z" fill="#263238"/><path d="m199.7 362.2 242.7-140c2.3-1.4 4.3-.4 4.6 2.2l12.6 185a8.3 8.3 0 0 1-3.8 7L213 556.3c-2.3 1.3-4.3.3-4.5-2.2l-12.7-185a8.2 8.2 0 0 1 3.8-7Z" fill="#000"/><path d="M199.7 362.2a8.2 8.2 0 0 0-3.8 7l12.5 181.9 239.9-138.5a8.3 8.3 0 0 0 3.8-7l-12.4-181.9-240 138.5Z" fill="#7FE389"/><path opacity=".2" d="M199.7 362.2a8.2 8.2 0 0 0-3.8 7l12.5 181.9 239.9-138.5a8.3 8.3 0 0 0 3.8-7l-12.4-181.9-240 138.5Z" fill="#fff"/><path d="m231.3 569.4 231.8-133.8a7.2 7.2 0 0 1 6.5 0l8.4 4.7a2 2 0 0 1 1 3 2 2 0 0 1-1 .8L246.2 577.9a7.2 7.2 0 0 1-6.5 0l-8.4-4.7a2 2 0 0 1 0-3.8ZM254 582.8 485.9 449a6.6 6.6 0 0 1 6-.3l60.3 34.8c1.5.9 1.2 2.4-.6 3.4L320.1 620.6a6.6 6.6 0 0 1-6 .3l-60.7-34.6c-1.4-.9-1.1-2.4.7-3.5Z" fill="#263238"/><path d="m454.9 505.2 7.2-4.2c.3-.2.4-.4 0-.6l-7-4a1.2 1.2 0 0 0-1 0l-7.2 4.2c-.3.2-.4.4 0 .6l7 4a1.1 1.1 0 0 0 1 0Zm-10.6-14.5-7.2 4.2c-.3.2-.4.5 0 .6l6.9 4a1.2 1.2 0 0 0 1 0l7.3-4.2c.3-.1.3-.4 0-.6l-7-4a1.2 1.2 0 0 0-1 0ZM421 504.3l-12.3 7c-.3.2-.3.5 0 .7l7 4a1.1 1.1 0 0 0 1 0l12.3-7.1c.3-.2.3-.5 0-.6l-7-4a1.1 1.1 0 0 0-1 0Zm12.8-7.4-7.2 4.1c-.3.2-.4.5 0 .7l6.9 4a1.2 1.2 0 0 0 1 0l7.3-4.2c.3-.2.3-.5 0-.6l-7-4a1.2 1.2 0 0 0-1 0Zm-28.4 16.4-7.3 4.2c-.3.2-.3.4 0 .6l7 4a1.2 1.2 0 0 0 1 0l7.2-4.2c.4-.2.4-.4.1-.6l-7-4a1.1 1.1 0 0 0-1 0Zm-10.7 6.1-7.2 4.2c-.3.2-.4.4-.1.6l7 4a1.2 1.2 0 0 0 1 0l7.3-4.2c.3-.2.3-.4 0-.6l-7-4a1.2 1.2 0 0 0-1 0Zm27.2 16.4 7.3-4.2c.3-.2.3-.5 0-.6l-7-4a1.2 1.2 0 0 0-1 0l-7.3 4.1c-.3.2-.3.5 0 .7l7 4a1.1 1.1 0 0 0 1 0Zm-10.5 6 7.3-4.1c.3-.2.3-.5 0-.6l-7-4a1.1 1.1 0 0 0-1 0l-7.3 4.2c-.3.1-.3.4 0 .6l7 4a1.2 1.2 0 0 0 .9 0Zm-10.6 6.2 7.3-4.2c.3-.2.3-.4 0-.6l-7-4a1.2 1.2 0 0 0-1 0l-7.2 4.2c-.3.2-.4.4 0 .6l6.9 4a1.1 1.1 0 0 0 1 0Zm-10.5 6.1 7.3-4.2c.3-.2.3-.4 0-.6l-7-4a1.1 1.1 0 0 0-1 0l-7.2 4.2c-.3.2-.4.5 0 .6l7 4c.2.1.5.1.8 0h.1Zm54.2-42.8 7.3-4.2c.3-.1.3-.4 0-.6l-7-4a1.1 1.1 0 0 0-1 0l-7.3 4.2c-.3.2-.3.5 0 .6l7 4a1.2 1.2 0 0 0 1 0Zm-11.8 18.3 16.2-9.3c.3-.2.3-.5 0-.6l-16.9-9.8a1.2 1.2 0 0 0-1 0l-8.4 4.9c-.3.2-.4.4 0 .6l8.9 5.1c.3.2.3.5 0 .6l-6.7 4c-.3.1-.3.4 0 .5l6.9 4c.3.1.6.1.8 0h.2Zm-48.5-4-7.3 4.1c-.3.2-.3.5 0 .6l7 4a1.2 1.2 0 0 0 1 0l7.3-4.2c.3-.1.3-.4 0-.6l-7-4a1.2 1.2 0 0 0-1 0Zm-10.6 6-7.2 4.2c-.3.2-.4.5 0 .7l7 4a1.2 1.2 0 0 0 1 0l7.2-4.2c.3-.2.4-.5 0-.6l-7-4a1.2 1.2 0 0 0-1 0ZM314.8 597a1.2 1.2 0 0 0 1 0l7.3-4.2c.3-.1.3-.4 0-.6l-7-4a1.1 1.1 0 0 0-1 0l-7.2 4.2c-.4.2-.4.5 0 .6l6.9 4Zm-26.1-16.4-7.4 4.3c-.3.1-.3.4 0 .6l7 4a1.1 1.1 0 0 0 1 0l7.3-4.2c.3-.2.3-.4 0-.6l-6.9-4a1.2 1.2 0 0 0-1.1 0ZM302 593a1.2 1.2 0 0 0 1 0l7.3-4.2c.3-.2.4-.4 0-.6l-7-4a1.2 1.2 0 0 0-1 0l-7.2 4.2c-.3.2-.3.4 0 .6l7 4Zm29.3 6.6 7.2-4.2c.3-.2.4-.5 0-.6l-7-4a1.1 1.1 0 0 0-1 0l-7.2 4.2c-.3.1-.4.4 0 .6l6.9 4a1.2 1.2 0 0 0 1 0Zm-11.7 6.1a1.1 1.1 0 0 0 1 0l7.3-4.1c.3-.2.3-.5 0-.7l-7-4a1.2 1.2 0 0 0-1 0l-7.2 4.2c-.3.2-.4.5 0 .6l6.9 4Zm-20.4-31-7.3 4.1c-.3.2-.3.4 0 .6l7 4a1.2 1.2 0 0 0 1 0l7.3-4.2c.3-.1.3-.4 0-.6l-7-4a1.2 1.2 0 0 0-1.1 0Zm53-30.7-7.4 4.2c-.3.2-.3.4 0 .6l7 4a1.2 1.2 0 0 0 1 0l7.3-4.2c.3-.2.3-.4 0-.6l-7-4a1.1 1.1 0 0 0-1 0Zm-42.5 24.4-7.3 4.2c-.3.2-.3.5 0 .6l7 4a1.2 1.2 0 0 0 1 0l7.3-4.2c.3-.1.3-.4 0-.6l-7-4a1.2 1.2 0 0 0-1 0Zm53-30.6-7.2 4.2c-.3.2-.4.5 0 .6l6.9 4a1.1 1.1 0 0 0 1 0l7.3-4.2c.3-.2.3-.4 0-.6l-7-4a1.3 1.3 0 0 0-1 0ZM341.6 550l-7.2 4.2c-.3.2-.4.5 0 .6l7 4a1.1 1.1 0 0 0 1 0l7.2-4.2c.3-.2.4-.4 0-.6l-7-4a1.2 1.2 0 0 0-1 0Zm-10.6 6-7.3 4.3c-.3.1-.3.4 0 .6l7 4a1.2 1.2 0 0 0 1 0l7.2-4.1c.3-.2.3-.5 0-.6l-7-4a1.2 1.2 0 0 0-1 0v-.1Zm-10.6 6.2-7.2 4.2c-.3.2-.3.4 0 .6l7 4a1.1 1.1 0 0 0 1 0l7.2-4.2c.3-.2.3-.4 0-.6l-7-4a1.2 1.2 0 0 0-1 0Zm48.5 4.1 7.2-4.2c.3-.2.4-.4 0-.6l-7-4a1.2 1.2 0 0 0-1 0l-7.2 4.2c-.3.2-.4.4 0 .6l7 4a1.2 1.2 0 0 0 1 0Zm99-89.2-7.3 4.2c-.4.2-.4.5 0 .6l6.9 4a1.2 1.2 0 0 0 1 0l7.3-4.2c.3-.1.3-.4 0-.6l-6.9-4a1.2 1.2 0 0 0-1.1 0Zm-13 7.5-7.3 4.2c-.3.2-.3.4 0 .6l7 4a1.2 1.2 0 0 0 1 0l7.3-4.2c.3-.2.3-.4 0-.6l-7-4a1.2 1.2 0 0 0-1 0Zm23.4-13.6-7.3 4.2c-.3.2-.3.5 0 .6l7 4a1.2 1.2 0 0 0 1 0l7.3-4.1c.3-.2.3-.5 0-.6l-7-4a1.1 1.1 0 0 0-1 0Zm-58.6 54.5 7.2-4.2c.4-.2.4-.4 0-.6l-6.9-4a1.2 1.2 0 0 0-1 0l-7.3 4.2c-.3.2-.3.4 0 .6l7 4a1.1 1.1 0 0 0 1 0Zm70.3-60.6a1.2 1.2 0 0 0-1 0l-7.3 4.2c-.3.2-.4.4 0 .6l6.9 4a1.2 1.2 0 0 0 1 0l7.3-4.2c.3-.2.3-.5 0-.6l-7-4Zm-110.6 95.3 7.3-4.1c.3-.2.3-.5 0-.7l-7-4a1.2 1.2 0 0 0-1 0l-7.3 4.2c-.3.2-.3.5 0 .6l7 4a1.1 1.1 0 0 0 1 0Zm130-75 7.3-4.2c.3-.2.4-.5 0-.6l-7-4a1.2 1.2 0 0 0-1 0l-7.2 4.2c-.3.2-.3.4 0 .6l7 4a1.2 1.2 0 0 0 1 0Zm-20.5.4 7.3-4.2c.3-.2.3-.5 0-.6l-7-4a1.2 1.2 0 0 0-1 0L481 481c-.3.2-.3.4 0 .6l7 4a1.2 1.2 0 0 0 1 0Zm11-15a1.2 1.2 0 0 0-1 0l-7.3 4.2c-.3.2-.3.5 0 .6l7 4a1.1 1.1 0 0 0 1 0l7.2-4.1c.4-.2.4-.5 0-.6l-6.9-4Zm2.3-1.3 16.8 9.8a1.1 1.1 0 0 0 1 0l7.3-4.2c.3-.2.4-.5 0-.6l-16.7-9.8a1.1 1.1 0 0 0-1 0l-7.3 4.2c-.4.2-.4.5-.1.6ZM477.7 483l-7.3 4.2c-.3.2-.3.4 0 .6l7 4a1.2 1.2 0 0 0 1 0l7.3-4.2c.3-.2.3-.4 0-.6l-7-4a1.2 1.2 0 0 0-1 0Zm-79.9 46-7.2 4.3c-.3.1-.3.4 0 .6l7 4a1.2 1.2 0 0 0 1 0l7.2-4.2c.3-.2.4-.5 0-.6l-6.9-4a1.2 1.2 0 0 0-1 0Zm100-37.6a1.1 1.1 0 0 0 1 0l7.3-4.2c.3-.1.4-.4 0-.6l-6.9-4a1.2 1.2 0 0 0-1 0l-7.2 4.2c-.3.2-.3.5 0 .6l6.8 4ZM408.4 523l-7.2 4.2c-.3.1-.3.4 0 .6l6.9 4a1.2 1.2 0 0 0 1 0l7.3-4.2c.3-.2.3-.5 0-.6l-7-4a1.1 1.1 0 0 0-1 0Zm-83 68a1.1 1.1 0 0 0 1 0l7.2-4.2c.4-.2.4-.4 0-.6l-6.9-4a1.2 1.2 0 0 0-1 0l-7.3 4.2c-.3.2-.3.5 0 .6l7 4ZM313 578l-7.2 4.3c-.4.1-.4.4 0 .6l7 4a1.2 1.2 0 0 0 1 0l7.2-4.2c.3-.2.4-.5 0-.6l-7-4a1.1 1.1 0 0 0-1 0Zm24 6.8 7.2-4.1c.4-.2.4-.5 0-.6l-6.8-4a1.1 1.1 0 0 0-1 0L329 580c-.3.2-.4.5 0 .6l7 4a1.2 1.2 0 0 0 .9 0Zm10.5-6 7.3-4.3c.3-.1.3-.4 0-.6l-6.9-4a1.2 1.2 0 0 0-1 0l-7.3 4.2c-.3.2-.3.5 0 .6l7 4a1.2 1.2 0 0 0 1 0Zm10.6-6.2 7.2-4.2c.3-.2.4-.4 0-.6l-6.9-4a1.2 1.2 0 0 0-1 0l-7.3 4.2c-.3.2-.3.4 0 .6l7 4a1.1 1.1 0 0 0 1.1 0h-.1Zm-34.7-.6-7 4.1c-.4.2-.4.5 0 .6l6.9 4a1.2 1.2 0 0 0 1 0l7.3-4.1c.3-.2.3-.5 0-.7l-7-4a1.2 1.2 0 0 0-1 0h-.2Zm10.6-6.2-7.3 4.2c-.3.2-.3.5 0 .6l7 4a1.2 1.2 0 0 0 1 0l7.3-4.1c.3-.2.3-.5 0-.6l-7-4c-.2-.2-.5-.2-.8 0h-.2Zm42.6-24.5-7.2 4.2c-.3.2-.4.4 0 .6l7 4a1.2 1.2 0 0 0 1 0l7.2-4.2c.3-.1.4-.4 0-.6l-7-4a1.2 1.2 0 0 0-1 0Zm-10.5 6.1-7.3 4.2c-.3.2-.3.5 0 .6l7 4a1.2 1.2 0 0 0 1 0l7.3-4.2c.3-.1.3-.4 0-.6l-6.9-4a1.2 1.2 0 0 0-1.2 0h.1Zm21.1-12.1-7.2 4.2c-.3.2-.3.4 0 .6l7 4a1.2 1.2 0 0 0 1 0l7.2-4.2c.3-.2.4-.4 0-.6l-6.9-4a1.2 1.2 0 0 0-1 0Zm-42.4 24.5-7.2 4.1c-.3.2-.4.5 0 .6l6.9 4a1.2 1.2 0 0 0 1 0l7.3-4.2c.3-.2.3-.4 0-.6l-7-4a1.2 1.2 0 0 0-1 0Zm10.6-6.1-7.3 4.1c-.3.2-.3.5 0 .7l7 4a1.2 1.2 0 0 0 1 0l7.3-4.2c.3-.2.3-.5 0-.6l-7-4a1.1 1.1 0 0 0-1-.1Zm-13.6 39.8 7.2-4.1c.4-.2.4-.5 0-.7l-6.9-4a1.2 1.2 0 0 0-1 0l-7.3 4.2c-.3.2-.4.5 0 .6l7 4a1.1 1.1 0 0 0 1.1 0h-.1Zm-56-2.6-6.9-4a1.1 1.1 0 0 0-1 0l-7.2 4.1c-.3.2-.3.5 0 .6l7 4a1.2 1.2 0 0 0 1 0l7.3-4.2c.2-.1.2-.4 0-.6l-.1.1Zm13.9 3.5-7-4a1.2 1.2 0 0 0-1 0l-11.2 6.4c-.3.2-.3.5 0 .6l7 4a1.2 1.2 0 0 0 1 0l11.2-6.4c.3-.3.4-.5 0-.7Zm-24-11.5-7-4a1.2 1.2 0 0 0-1.1 0l-9 5.2c-.2.2-.3.5 0 .6l7 4a1.2 1.2 0 0 0 1 0l9-5.1c.3-.3.3-.5 0-.7Zm6.8-4a1.2 1.2 0 0 0 1 0l7.3-4.1c.3-.2.3-.5 0-.6l-7-4a1.1 1.1 0 0 0-1 0l-7.2 4.1c-.3.2-.3.5 0 .7l6.9 4Zm30 19.5-6.9-4a1.2 1.2 0 0 0-1 0l-14 8c-.3.2-.3.5 0 .7l6.9 4a1.2 1.2 0 0 0 1 0l14-8c.2-.3.3-.6 0-.7Zm5 8.6-7-4a1.1 1.1 0 0 0-1.1 0l-9 5.2c-.2.2-.3.5 0 .6l7 4a1.2 1.2 0 0 0 1 0l9-5.1c.2-.2.3-.5 0-.7Zm43.9-73.6a1.2 1.2 0 0 0 1 0l7.3-4.2c.3-.1.3-.4 0-.6l-7-4a1.1 1.1 0 0 0-1 0l-7.2 4.2c-.3.2-.4.5 0 .6l6.9 4ZM340 545.6a1.2 1.2 0 0 0 1 0l7.3-4.2c.4-.2.4-.5 0-.6l-6.9-4.1a1.1 1.1 0 0 0-1 0l-7.3 4.2c-.3.2-.3.4 0 .6l7 4Zm-47 27a1.2 1.2 0 0 0 1 0l7.3-4.1c.3-.2.3-.5 0-.6l-7-4a1.2 1.2 0 0 0-1 0l-7.2 4.2c-.3.2-.3.5 0 .6l6.9 4Zm57.6-33.2a1.1 1.1 0 0 0 1 0l7.3-4.2c.4-.2.4-.4 0-.6l-6.9-4a1.2 1.2 0 0 0-1 0l-7.3 4.3c-.3.1-.3.4 0 .6l7 3.9Zm-21.2 12.4a1.2 1.2 0 0 0 1 0l7.3-4.2c.3-.2.3-.5 0-.6l-7-4a1.2 1.2 0 0 0-1 0l-7.3 4.1c-.3.2-.3.5 0 .6l7 4Zm-6.9 55.7a1.1 1.1 0 0 0-1 0l-11.2 6.4c-.3.2-.4.5 0 .6l7 4a1.1 1.1 0 0 0 1 0l11.2-6.4c.3-.2.3-.5 0-.6l-7-4Zm-8.3-47a1.2 1.2 0 0 0 1 0l7.3-4.1c.3-.2.3-.4 0-.6l-7-4a1.1 1.1 0 0 0-1 0l-7.3 4.2c-.3.1-.3.4 0 .6l7 4Zm-10.6 6.2a1.2 1.2 0 0 0 1 0l7.3-4.2c.3-.1.3-.4 0-.6l-7-4.1a1.2 1.2 0 0 0-1 0l-7.3 4.2c-.3.2-.3.4 0 .6l7 4.1ZM519 494a1.2 1.2 0 0 0-1 0L500 504.3c-.3.2-.3.5 0 .6l7 4a1.1 1.1 0 0 0 1 0l17.9-10.3c.3-.1.3-.4 0-.6l-7-4Zm-23.4 13.6a1.2 1.2 0 0 0-1 0l-7.3 4.2c-.3.1-.4.4 0 .6l6.9 4a1.1 1.1 0 0 0 1 0l7.3-4.2c.3-.2.3-.5 0-.6l-7-4Zm-143.1 79.8 7.3-4.2c.3-.2.3-.4 0-.6l-7-4a1.1 1.1 0 0 0-1 0l-7.3 4.2c-.3.2-.3.4 0 .6l7 4a1.2 1.2 0 0 0 1-.2v.2Zm122-67.5a1.2 1.2 0 0 0-1 0l-7.3 4.2c-.3.1-.4.4 0 .6l7 4a1.1 1.1 0 0 0 1 0l7.2-4.2c.3-.2.4-.5 0-.6l-7-4Zm55.2-32a1.1 1.1 0 0 0-1 0l-7.3 4.3c-.3.1-.3.4 0 .6l7 4a1.2 1.2 0 0 0 1 0l7.3-4.2c.3-.2.3-.5 0-.6l-7-4Zm17.6-2-16.9-9.8a1.2 1.2 0 0 0-1 0l-7.3 4.2c-.3.2-.3.5 0 .6l16.9 9.7a1.1 1.1 0 0 0 1 0l7.3-4.1c.2-.4.2-.7 0-.8v.2Zm-112.5 56.9a1.2 1.2 0 0 0-1 0l-9 5c-.4.2-.4.4 0 .6l6.9 4a1.2 1.2 0 0 0 1 0l9-5.2c.3-.1.3-.4 0-.6l-6.9-3.8Zm26.8-15.5a1.2 1.2 0 0 0-1 0l-11.2 6.4c-.3.2-.4.4 0 .6l7 4a1.1 1.1 0 0 0 1 0l11.1-6.5c.3-.1.4-.4 0-.6l-6.9-4Zm-51.3 29.6a1.2 1.2 0 0 0-1 0l-59.9 34.4c-.3.2-.3.4 0 .6l7 4a1.2 1.2 0 0 0 1 0l59.8-34.5c.3-.1.3-.4 0-.6l-6.9-3.9Zm-63 36.4a1.2 1.2 0 0 0-1.1 0l-9 5.1c-.3.2-.4.5 0 .6l6.8 4a1.1 1.1 0 0 0 1.1 0l9-5.1c.3-.2.3-.5 0-.6l-6.9-4Zm75.2-43.5a1.2 1.2 0 0 0-1 0l-9 5.2c-.3.2-.3.4 0 .6l7 4a1.2 1.2 0 0 0 1 0l9-5.1c.3-.2.3-.5 0-.7l-7-4ZM335 600.4a1.1 1.1 0 0 0-1 0l-9 5.2c-.3.2-.3.4 0 .6l7 4a1.1 1.1 0 0 0 1 0l9-5.2c.2-.1.3-.4 0-.6l-7-4ZM447 535.7a1.2 1.2 0 0 0-1 0l-9 5.1c-.3.2-.3.5 0 .7l7 4a1.1 1.1 0 0 0 1 0l9-5.2c.2-.2.3-.5 0-.6l-7-4Zm37.9-22.1a1.2 1.2 0 0 0-1 0l-7.3 4.2c-.3.2-.4.4 0 .6l7 4a1.2 1.2 0 0 0 1 0l7.2-4.2c.3-.2.4-.4 0-.6l-7-4Zm23.7-16.6 7.3-4.2c.3-.1.3-.4 0-.6l-7-4a1.2 1.2 0 0 0-1 0l-7.3 4.2c-.3.2-.3.5 0 .6l7 4a1.1 1.1 0 0 0 1 0Zm-43.2 2 7.3-4.1c.3-.2.3-.5 0-.6l-7-4a1.1 1.1 0 0 0-1 0l-7.2 4.2c-.3.2-.4.5 0 .6l7 4a1.2 1.2 0 0 0 1 0Zm-28.2 39.2 21.3-12.2c.3-.2.3-.5 0-.7l-7-4a1.2 1.2 0 0 0-1 0l-21.2 12.4c-.3.2-.3.4 0 .6l7 4a1.1 1.1 0 0 0 1-.1Zm59.8-35a1.2 1.2 0 0 0 1 0l7.3-4.3c.3-.2.4-.4 0-.6l-6.9-4a1.2 1.2 0 0 0-1 0l-7.3 4.2c-.3.2-.3.5 0 .6l7 4Zm-8.8-5.9 7.2-4.1c.3-.2.4-.5 0-.6l-6.9-4a1.1 1.1 0 0 0-1 0l-7.3 4.1c-.3.2-.3.5 0 .6l7 4a1.2 1.2 0 0 0 1 .1Zm-61.6 47 7.3-4.2c.3-.2.3-.4 0-.6l-7-4a1.1 1.1 0 0 0-1 0l-7.3 4.2c-.3.2-.3.5 0 .6l7 4a1.2 1.2 0 0 0 1 0Zm47-27.7a1.2 1.2 0 0 0 1 0l7.3-4.1c.3-.2.3-.5 0-.6l-7-4a1.1 1.1 0 0 0-1 0l-7.3 4.1c-.3.2-.3.5 0 .7l7 4Zm-100 58.3 7.3-4.2c.3-.1.3-.4 0-.6l-7-4a1.1 1.1 0 0 0-1 0l-7.3 4.2c-.3.2-.3.5 0 .6l7 4a1.2 1.2 0 0 0 1 0Zm10.5-6 7.3-4.3c.3-.2.3-.4 0-.6l-7-4a1.2 1.2 0 0 0-1 0l-7.2 4.2c-.4.2-.4.5-.1.6l7 4a1.1 1.1 0 0 0 1.1 0ZM363 581l7.3-4.2c.3-.2.3-.5 0-.6l-7-4a1.2 1.2 0 0 0-1 0l-7.3 4.1c-.3.2-.3.5 0 .6l7 4a1.1 1.1 0 0 0 1.1.1Zm42.5-24.5 7.2-4.2c.3-.2.4-.5 0-.6l-7-4a1.2 1.2 0 0 0-1 0l-7 4.2c-.4.2-.4.5 0 .7l6.9 4a1.2 1.2 0 0 0 1 0l-.1-.1Zm-10.6 6 7.3-4.1c.3-.2.3-.5 0-.6l-7-4a1.2 1.2 0 0 0-1 0l-7.3 4.2c-.3.1-.3.4 0 .6l7 4a1.2 1.2 0 0 0 1 0Zm21.2-12.2 7.3-4.1c.3-.2.3-.5 0-.7l-7-4a1.2 1.2 0 0 0-1 0l-7.2 4.3c-.3.2-.4.5 0 .6l7 4a1.1 1.1 0 0 0 1 0Zm57.9-85.1a1.1 1.1 0 0 0 1 0l7.3-4.2c.3-.2.3-.5 0-.6l-1.9-1.1a1.2 1.2 0 0 0-1 0l-7.3 4.2c-.3.2-.3.4 0 .6l1.9 1Zm-52.7 33.3a1.1 1.1 0 0 0 1 0l7.3-4.2c.3-.1.3-.4 0-.6l-7-4a1.2 1.2 0 0 0-1 0l-7.3 4.2c-.3.2-.3.5 0 .6l7 4Zm21.2-12.2a1.1 1.1 0 0 0 1 0l7.3-4.2c.3-.2.3-.4 0-.6l-7-4a1.2 1.2 0 0 0-1 0l-7.2 4.2c-.3.1-.4.4 0 .6l6.9 4ZM408.3 506a1.2 1.2 0 0 0 1 0l7.4-4.2c.3-.1.3-.4 0-.6l-7-4a1.2 1.2 0 0 0-1 0l-7.3 4.2c-.3.2-.3.5 0 .6l7 4Zm23.6-13.5a1.2 1.2 0 0 0 1 0l7.3-4.2c.3-.2.3-.5 0-.6l-7-4a1.1 1.1 0 0 0-1 0L425 488c-.4.1-.4.4 0 .6l6.9 4ZM387 518.4a1.2 1.2 0 0 0 1 0l7.3-4.2c.3-.1.3-.4 0-.6l-6.8-4a1.1 1.1 0 0 0-1 0l-7.3 4.2c-.3.2-.3.4 0 .6l6.8 4Zm10.6-6.1a1.1 1.1 0 0 0 1 0l7.3-4.2c.3-.2.4-.4 0-.6l-7-4a1.2 1.2 0 0 0-1 0l-7.2 4.2c-.4.2-.4.4 0 .6l7 4Zm55-34.7a1.1 1.1 0 0 0 1.1 0l7.3-4.2c.3-.2.3-.5 0-.6l-1.9-1a1.1 1.1 0 0 0-1 0l-7.3 4c-.3.3-.3.5 0 .7l1.9 1Zm31.9-18.4a1.2 1.2 0 0 0 1 0l7.3-4.2c.3-.2.3-.4 0-.6l-1.9-1a1.1 1.1 0 0 0-1 0l-7.3 4.1c-.3.2-.3.5 0 .7l1.9 1Zm14.6 8.4a1.2 1.2 0 0 0 1 0l7.3-4.2c.3-.1.3-.4 0-.6l-7-4a1.2 1.2 0 0 0-1 0l-7.3 4.2c-.3.2-.3.5 0 .6l7 4Zm20.1 23.3 7.3-4.2c.3-.2.4-.5 0-.6l-7-4a1.1 1.1 0 0 0-1 0l-7.2 4.2c-.3.2-.4.4 0 .6l6.9 4a1.2 1.2 0 0 0 1 0Zm-56-19.4a1.2 1.2 0 0 0 1.1 0l7.3-4.2c.3-.2.3-.5 0-.6l-1.9-1.1a1.2 1.2 0 0 0-1 0l-7.3 4.2c-.3.2-.3.4 0 .6l1.9 1Zm-86.8 53a1.2 1.2 0 0 0 1.1 0l7.3-4.1c.3-.2.3-.5 0-.7l-7-4a1.2 1.2 0 0 0-1 0l-7.3 4.2c-.3.2-.3.5 0 .6l7 4Z" fill="#455A64"/><path d="m406.9 584.9 1.6.9 41.9 24.2 74.5-43 1.6-1-43.5-25-76.1 43.9Z" fill="#263238"/><path d="M524 567.5 483 544l-73.6 42.5 41 23.6 73.6-42.5Z" fill="#37474F"/><path d="M219.4 375a8.2 8.2 0 0 0-3.9 7L228 563.7l240-138.5a8.2 8.2 0 0 0 3.8-7l-12.4-181.8-240 138.4Z" fill="#fff"/><path d="m459.3 236.5-6.2-3.6-239.9 138.6a8.2 8.2 0 0 0-3.8 7l12.4 181.8 6.1 3.6 240-138.5a8.2 8.2 0 0 0 3.8-7l-12.4-182Z" fill="#E0E0E0"/><path d="M219.4 375a8.2 8.2 0 0 0-3.9 7L228 563.7l240-138.5a8.2 8.2 0 0 0 3.8-7l-12.4-181.8-240 138.4Z" fill="#fff"/><path d="M457.9 239 470 418.4a6.8 6.8 0 0 1-3 5.6L229.3 561.3 217 381.8a6.8 6.8 0 0 1 3.1-5.6L457.9 239Zm1.3-2.5L219.4 374.9a8.2 8.2 0 0 0-3.9 7L228 563.8l240-138.5a8.2 8.2 0 0 0 3.8-7l-12.4-181.8Z" fill="#F0F0F0"/><path d="M240.4 532.6c-.3 0-.6 0-.9-.2a2 2 0 0 1-.9-1.6l-3.8-56.1a4.1 4.1 0 0 1 1.9-3.5l213-123a2 2 0 0 1 2-.2 1.9 1.9 0 0 1 1 1.6l3.8 56.1a4 4 0 0 1-2 3.5l-213 123c-.3.3-.7.4-1.1.4Zm210.5-183.3-.4.1-213 123a2.6 2.6 0 0 0-1.3 2.2l3.9 56a.5.5 0 0 0 .1.5l.6-.1 213-123a2.6 2.6 0 0 0 1.2-2.2l-3.8-56a.5.5 0 0 0-.2-.5Z" fill="#F5F5F5"/><path d="m445.5 369.5-196 113.2c-.6.3-1 0-1.1-.7v-.2a2 2 0 0 1 .8-1.8l196.1-113.2c.6-.3 1 0 1 .7v.2a2 2 0 0 1-.8 1.8ZM445.5 377.5l-196 113.2c-.6.3-1 0-1.1-.7v-.2a2 2 0 0 1 .8-1.8l196.1-113.2c.6-.3 1 0 1 .7v.2a2 2 0 0 1-.8 1.8ZM445.5 385.5l-196 113.2c-.6.3-1 0-1.1-.7v-.2a2 2 0 0 1 .8-1.8l196.1-113.2c.6-.3 1 0 1 .7v.2a2 2 0 0 1-.8 1.8ZM445.5 393.5l-196 113.2c-.6.3-1 0-1.1-.7v-.2a2 2 0 0 1 .8-1.8l196.1-113.2c.6-.3 1 0 1 .7v.2a2 2 0 0 1-.8 1.8ZM420.8 415.8l-171.4 98.9c-.5.3-1 0-1-.7v-.2a2 2 0 0 1 .8-1.8l171.5-98.9c.5-.3 1 0 1 .7v.2a2 2 0 0 1-.9 1.8Z" fill="#E0E0E0"/><path d="M235.4 460.6c-.3 0-.6 0-.9-.2a2 2 0 0 1-.9-1.6l-3.8-56.1a4.1 4.1 0 0 1 1.9-3.5l213-123a2 2 0 0 1 2-.2 1.9 1.9 0 0 1 1 1.6l3.8 56.1a4 4 0 0 1-2 3.5l-213 123c-.3.3-.7.4-1.1.4Zm210.5-183.3-.4.1-213 123a2.6 2.6 0 0 0-1.3 2.2l3.9 56a.5.5 0 0 0 .1.5l.6-.1 213-123a2.6 2.6 0 0 0 1.2-2.2l-3.8-56a.5.5 0 0 0-.2-.5Z" fill="#F5F5F5"/><path d="m440.5 297.5-196 113.2c-.6.3-1 0-1.1-.7v-.2a2 2 0 0 1 .8-1.8l196.1-113.2c.6-.3 1 0 1 .7v.2a2 2 0 0 1-.8 1.8ZM440.5 305.5l-196 113.2c-.6.3-1 0-1.1-.7v-.2a2 2 0 0 1 .8-1.8l196.1-113.2c.6-.3 1 0 1 .7v.2a2 2 0 0 1-.8 1.8ZM440.5 313.5l-196 113.2c-.6.3-1 0-1.1-.7v-.2a2 2 0 0 1 .8-1.8l196.1-113.2c.6-.3 1 0 1 .7v.2a2 2 0 0 1-.8 1.8ZM440.5 321.5l-196 113.2c-.6.3-1 0-1.1-.7v-.2a2 2 0 0 1 .8-1.8l196.1-113.2c.6-.3 1 0 1 .7v.2a2 2 0 0 1-.8 1.8ZM415.8 343.8l-171.4 98.9c-.5.3-1 0-1-.7v-.2a2 2 0 0 1 .8-1.8l171.5-98.9c.5-.3 1 0 1 .7v.2a2 2 0 0 1-.9 1.8Z" fill="#E0E0E0"/><path d="M459.3 236.4 453 233 213.2 371.5a8.5 8.5 0 0 0-3.8 6v1l.6 9 6.2 3.5 244-140.9-1-13.7Z" fill="#37474F"/><path d="M459.3 236.4 219.3 375a8.1 8.1 0 0 0-3.1 3.7l-6.1-3.5a8.5 8.5 0 0 1 3.2-3.7L453 232.9l6.2 3.5Z" fill="#455A64"/><path d="m215.5 382 .6 9-6.1-3.6-.6-9v-1.1l.1-.7.5-1.5 6.1 3.5a7 7 0 0 0-.6 3.3Z" fill="#263238"/><path d="M415.4 117.7a3.4 3.4 0 0 1-.5-3.4 10.7 10.7 0 0 1 6.9-6.7 3.3 3.3 0 0 1 3.4.6l42.4 40a4.6 4.6 0 0 1 .8 5 15 15 0 0 1-9.7 9.4 4.6 4.6 0 0 1-4.8-1l-38.5-43.9Z" fill="#7FE389"/><path d="M421.7 107.6c3-.8 4.8 1 4 4a10.8 10.8 0 0 1-7 6.7c-3 .8-4.7-1-3.9-4a10.7 10.7 0 0 1 7-6.7Z" fill="#7FE389"/><path opacity=".3" d="M421.7 107.6c3-.8 4.8 1 4 4a10.8 10.8 0 0 1-7 6.7c-3 .8-4.7-1-3.9-4a10.7 10.7 0 0 1 7-6.7Z" fill="#000"/><path d="M403.5 100a6.5 6.5 0 0 1 4.2-4.1 2 2 0 0 1 2 .3l13.6 13.9a2 2 0 0 1 .3 2 6.4 6.4 0 0 1-4.2 4.1 2 2 0 0 1-2-.4L403.7 102a2 2 0 0 1-.3-2Z" fill="#37474F"/><path d="m407.7 95.9-.7.2h-.1l-.6.3c-1.3.8-2.3 2-2.8 3.5a2 2 0 0 0 .3 2.1l3.2 3.3c1.2-.7 2.3-1.6 3.3-2.6l12 11.6c.5-.6 1-1.4 1.3-2.2a2 2 0 0 0-.4-2l-13.5-13.9a2 2 0 0 0-2-.3Z" fill="#455A64"/><path d="m424.3 114.2 42.8 41.9c.6-1 1-1.9 1.3-3a4.6 4.6 0 0 0-.8-4.8l-42.4-40.1a3.4 3.4 0 0 1 .5 3.4c-.3 1-.8 1.8-1.4 2.6Z" fill="#7FE389"/><path opacity=".3" d="m424.3 114.2 42.8 41.9c.6-1 1-1.9 1.3-3a4.6 4.6 0 0 0-.8-4.8l-42.4-40.1a3.4 3.4 0 0 1 .5 3.4c-.3 1-.8 1.8-1.4 2.6Z" fill="#fff"/><path d="M363.4 124.4c6.8 4 16.3 3.4 26.7-2.6A83.6 83.6 0 0 0 428 56.3c0-12-4.2-20.6-11-24.5l-7.7-4.5c-6.9-4-16.3-3.4-26.7 2.6a83.6 83.6 0 0 0-37.9 65.5c0 12 4.3 20.6 11.1 24.5l7.7 4.5Zm59.4-68.1c0 10.8-3.7 23-10.4 34.6a71.6 71.6 0 0 1-24.9 26.4c-8.4 4.9-16 5.8-21.5 2.6-5.5-3.1-8.5-10.2-8.5-20 0-10.7 3.7-23 10.4-34.6A72 72 0 0 1 392.7 39c8.5-4.9 16.1-5.8 21.6-2.7 5.5 3.2 8.5 10.2 8.5 20Z" fill="#7FE389"/><path opacity=".6" d="M363.4 124.4c6.8 4 16.3 3.4 26.7-2.6A83.6 83.6 0 0 0 428 56.3c0-12-4.2-20.6-11-24.5l-7.7-4.5c-6.9-4-16.3-3.4-26.7 2.6a83.6 83.6 0 0 0-37.9 65.5c0 12 4.3 20.6 11.1 24.5l7.7 4.5Zm59.4-68.1c0 10.8-3.7 23-10.4 34.6a71.6 71.6 0 0 1-24.9 26.4c-8.4 4.9-16 5.8-21.5 2.6-5.5-3.1-8.5-10.2-8.5-20 0-10.7 3.7-23 10.4-34.6A72 72 0 0 1 392.7 39c8.5-4.9 16.1-5.8 21.6-2.7 5.5 3.2 8.5 10.2 8.5 20Z" fill="#fff"/><path d="M390.1 34.4a83.6 83.6 0 0 0-37.8 65.5c0 24.2 17 34 37.8 21.9a83.6 83.6 0 0 0 37.8-65.5c0-24.1-16.9-34-37.8-21.9Zm24.1 1.9c5.5 3.1 8.5 10.2 8.5 20 0 10.7-3.7 23-10.4 34.6a71.3 71.3 0 0 1-24.8 26.4c-8.4 4.9-16 5.8-21.5 2.6-5.5-3.1-8.5-10.2-8.5-20 0-10.7 3.7-23 10.4-34.6A72 72 0 0 1 392.7 39c8.5-5 16.1-5.9 21.6-2.7h-.1Z" fill="#7FE389"/><path opacity=".3" d="M390.1 34.4a83.6 83.6 0 0 0-37.8 65.5c0 24.2 17 34 37.8 21.9a83.6 83.6 0 0 0 37.8-65.5c0-24.1-16.9-34-37.8-21.9Zm24.1 1.9c5.5 3.1 8.5 10.2 8.5 20 0 10.7-3.7 23-10.4 34.6a71.3 71.3 0 0 1-24.8 26.4c-8.4 4.9-16 5.8-21.5 2.6-5.5-3.1-8.5-10.2-8.5-20 0-10.7 3.7-23 10.4-34.6A72 72 0 0 1 392.7 39c8.5-5 16.1-5.9 21.6-2.7h-.1Z" fill="#fff"/><path opacity=".3" d="M352.3 100c0-15.9 7.3-34 18.2-48v.2l-7.7-4.4a82.2 82.2 0 0 0-18.2 47.7c0 12 4.3 20.5 11.1 24.5l7.7 4.5.4.2c-7-3.9-11.5-12.5-11.5-24.8Z" fill="#7FE389"/><path d="M414.3 36.3a14.2 14.2 0 0 0-7.4-1.9 29 29 0 0 1 3.3 14.6c0 10.8-3.7 23-10.4 34.6a72 72 0 0 1-24.9 26.4 29.4 29.4 0 0 1-14.2 4.5c1.2 2.2 3 4.1 5.3 5.4 5.4 3.2 13.1 2.2 21.6-2.6a70.5 70.5 0 0 0 24.8-26.4 72 72 0 0 0 10.4-34.6c0-9.8-3-16.9-8.5-20Z" fill="#7FE389"/><path opacity=".4" d="M417 53c0 10.8-3.6 23-10.3 34.6a72 72 0 0 1-24.9 26.3c-7 4-13.4 5.4-18.5 4-3.8-3.7-5.8-10-5.8-18 0-10.8 3.7-23.1 10.4-34.6a72 72 0 0 1 24.8-26.4c7-4 13.4-5.4 18.5-4 3.8 3.8 5.9 10 5.9 18Z" fill="#fff"/><path opacity=".1" d="M418.1 32.6c.2 0 .3.2.5.3l-.8-.5-.3-.2.4.2.2.2ZM418.7 33l.3.3-.4-.4.1.1ZM420.7 34.7l-.7-.6.4.4.3.2Z" fill="#000"/><path d="M638.2 388.6a.8.8 0 0 0-.8.7V448L589 476a.8.8 0 0 0-.3 1.1.8.8 0 0 0 .7.4l.3-.1 49-28.3a.7.7 0 0 0 .4-.6v-59a.8.8 0 0 0-.8-.8Z" fill="#7FE389"/><path opacity=".5" d="M638.2 388.6a.8.8 0 0 0-.8.7V448L589 476a.8.8 0 0 0-.3 1.1.8.8 0 0 0 .7.4l.3-.1 49-28.3a.7.7 0 0 0 .4-.6v-59a.8.8 0 0 0-.8-.8Z" fill="#fff"/><path d="M635.1 391a6.8 6.8 0 0 1 3-5.2c1.7-1 3-.2 3 1.8a6.7 6.7 0 0 1-3 5.2c-1.6 1-3 .2-3-1.7Z" fill="#7FE389"/><path d="m497.5 100.7-3-1.8L634 18.3l3.2 1.8-139.7 80.6Z" fill="#F0F0F0"/><path d="M637.2 20v214.5l-139.7 80.6V100.7L637.2 20Z" fill="#FAFAFA"/><path d="M636.4 21.3v212.8l-138.2 79.8V101l138.2-79.7Zm.7-1.2-139.6 80.6V315l139.7-80.6V20h-.1Z" fill="#EBEBEB"/><path d="M497.5 100.7V315l-3-1.7V98.9l3 1.7Z" fill="#E0E0E0"/><path fill-rule="evenodd" clip-rule="evenodd" d="m507.3 116.5.4.1h.4l119.2-69a.8.8 0 0 0 .3-1.1.8.8 0 0 0-1-.3l-119.3 69a.8.8 0 0 0 0 1.3Zm0 7h.8l119.2-69a.8.8 0 0 0-.2-1.4h-.6l-119.2 69a.8.8 0 0 0 0 1.3Zm.4 7a.8.8 0 0 1-.7-.9c0-.2.2-.4.3-.5l119.2-69a.8.8 0 0 1 .8 1.3l-119.2 69-.4.2Zm-.4 7 .4.1h.4l119.2-69a.8.8 0 0 0 .3-1.1.8.8 0 0 0-1-.3l-119.3 69a.8.8 0 0 0 0 1.3Zm.4 7a.8.8 0 0 1-.4-1.3l119.2-69a.8.8 0 0 1 1 .2.8.8 0 0 1-.2 1l-119.2 69-.4.2Zm-.4 7h.8l119.2-69a.8.8 0 0 0-.2-1.4h-.6l-119.2 69a.8.8 0 0 0-.2 1c0 .2.1.3.2.3Zm.4 7.1a.8.8 0 0 1-.4-1.4l119.2-69a.8.8 0 0 1 1.1.8c0 .2-.1.4-.3.5l-119.2 69-.4.1Zm-.4 6.8.4.2.4-.1 119.2-69a.8.8 0 0 0-.2-1.4h-.6l-119.2 69a.8.8 0 0 0 0 1.3Zm.4 7.2a.8.8 0 0 1-.7-1c0-.2.2-.4.3-.5l119.2-69a.8.8 0 0 1 .8 1.3l-119.2 69-.4.2Zm-.4 6.9.4.1h.4l119.2-69a.8.8 0 0 0 .3-1.1.8.8 0 0 0-1-.3l-119.3 69a.8.8 0 0 0 0 1.3Zm.4 7a.8.8 0 0 1-.4-1.3l119.2-69a.8.8 0 0 1 1.1.8c0 .2-.1.4-.3.5l-119.2 69h-.4Zm-.4 7h.8l119.2-69a.8.8 0 0 0-.2-1.4h-.6l-119.2 69a.8.8 0 0 0-.2 1c0 .2.1.3.2.3Zm.4 7.1a.8.8 0 0 1-.4-1.4l119.2-69a.8.8 0 0 1 1.1.8c0 .2-.1.4-.3.5l-119.2 69-.4.1Zm-.4 6.8.4.2.4-.1 119.2-69a.8.8 0 0 0 .3-1 .8.8 0 0 0-1-.3l-119.3 69a.8.8 0 0 0 0 1.2Zm.4 7.2a.8.8 0 0 1-.7-1c0-.2.2-.4.3-.5l119.2-69a.8.8 0 0 1 .8 1.3l-119.2 69-.4.2Zm-.4 6.9.4.1h.4l119.2-69a.8.8 0 0 0 .3-1.1.8.8 0 0 0-1-.3l-119.3 69a.8.8 0 0 0 0 1.3Zm.4 7a.8.8 0 0 1-.4-1.3l119.2-69a.8.8 0 0 1 1.1.8c0 .2-.1.4-.3.5l-119.2 69h-.4Zm-.4 7h.8l119.2-69a.8.8 0 0 0-.2-1.4h-.6l-119.2 69a.8.8 0 0 0-.2 1c0 .2.1.3.2.3Zm.4 7.1a.8.8 0 0 1-.4-1.4l119.2-69a.8.8 0 0 1 1.1.8c0 .2-.1.4-.3.5l-119.2 69-.4.1Zm-.4 6.8.4.2.4-.1 119.2-69a.8.8 0 0 0 .3-1 .8.8 0 0 0-1-.3l-119.3 69a.8.8 0 0 0 0 1.2Zm.4 7.2a.8.8 0 0 1-.7-1c0-.2.2-.4.3-.5l119.2-69a.8.8 0 0 1 .8 1.3l-119.2 69-.4.2Zm-.4 6.9.4.1h.4l119.2-69a.8.8 0 0 0 .3-1.1.8.8 0 0 0-1-.3l-119.3 69a.8.8 0 0 0 0 1.3Zm.4 7a.8.8 0 0 1-.4-1.3l119.2-69a.8.8 0 0 1 1.1.8c0 .2-.1.4-.3.5l-119.2 69h-.4Zm-.4 6.2a.8.8 0 0 0 .8.1l119.2-69a.7.7 0 0 0 .3-1 .7.7 0 0 0-1-.3l-119.3 69a.7.7 0 0 0-.3.8c0 .2.1.3.3.4Zm.4 7.2a.8.8 0 0 1-.7-1c0-.2.2-.3.3-.5l119.2-69a.8.8 0 0 1 .8 1.3l-119.2 69-.4.2Zm-.4 6.8.4.1h.4l119.2-69a.7.7 0 0 0 .4-.5.7.7 0 0 0 0-.6.7.7 0 0 0-.9-.4l-.3.1-119.2 69a.8.8 0 0 0 0 1.3Z" fill="#E0E0E0"/><path opacity=".1" d="M637.2 234.5v-93.1l-93.3 53.8v93.1l93.3-53.8Z" fill="#000"/><path d="m559.7 206-3-1.8 139.5-80.6 3.2 1.8L559.7 206Z" fill="#F0F0F0"/><path d="M699.4 125.4V340l-139.7 80.6V206l139.7-80.6Z" fill="#FAFAFA"/><path d="M698.6 126.7v212.7l-138.2 79.8V206.5l138.2-79.8Zm.7-1.3L559.7 206v214.5l139.7-80.7V125.4h-.1Z" fill="#EBEBEB"/><path d="M559.7 206v214.5l-3-1.7V204.2l3 1.8Z" fill="#E0E0E0"/><path fill-rule="evenodd" clip-rule="evenodd" d="M569 292h.9l119.2-69a.8.8 0 0 0 .3-1 .7.7 0 0 0-.4-.4.7.7 0 0 0-.6 0l-119.2 69a.8.8 0 0 0-.1 1.3Zm0 7h.9l119.2-69 .3-.2a.7.7 0 0 0 .1-.6v-.3a.8.8 0 0 0-1.1-.2l-119.2 69a.8.8 0 0 0-.1 1.2Zm.5 7a.8.8 0 0 1-.7-1l.4-.4 119.2-69a.8.8 0 1 1 .7 1.3l-119.2 69-.4.1Zm0 7a.8.8 0 0 1-.3-1.3l119.2-69a.7.7 0 0 1 1 .2.8.8 0 0 1-.3 1L570 313l-.4.2Zm0 7a.8.8 0 0 1-.3-1.3l119.2-69a.8.8 0 0 1 1 .2.7.7 0 0 1-.3 1L570 320c-.1.2-.2.2-.4.2Zm-.3 6.9.3.1.4-.1 119.2-69a.7.7 0 0 0 .4-.5.8.8 0 0 0 0-.6l-.2-.2a.8.8 0 0 0-1 0l-119.1 69a.8.8 0 0 0-.3 1l.3.3Zm-.1 7 .4.2.4-.1 119.2-69a.8.8 0 0 0 .3-1 .7.7 0 0 0-.4-.4.7.7 0 0 0-.6 0l-119.2 69a.8.8 0 0 0-.1 1.3Zm0 7 .4.2.4-.1 119.2-69 .3-.2a.7.7 0 0 0 .1-.6v-.3a.8.8 0 0 0-1.1-.2l-119.2 69a.8.8 0 0 0-.1 1.2Zm.4 7.1a.8.8 0 0 1-.7-1l.4-.4 119.2-69a.8.8 0 1 1 .7 1.3l-119.2 69-.4.1Zm-.4 7h.8l119.2-69a.8.8 0 0 0 .3-1 .7.7 0 0 0-.4-.4.7.7 0 0 0-.6 0l-119.2 69a.8.8 0 0 0-.1 1.3Zm0 7h.8l119.2-69 .3-.2a.7.7 0 0 0 .1-.6v-.3a.8.8 0 0 0-1.1-.2l-119.2 69a.8.8 0 0 0-.1 1.2Zm.4 7a.8.8 0 0 1-.7-1l.4-.4 119.2-69a.8.8 0 1 1 .7 1.3l-119.2 69-.4.1ZM569.5 376a.8.8 0 0 1-.3-1.3l119.2-69a.7.7 0 0 1 1 .2.8.8 0 0 1-.3 1L570 376l-.4.2Zm0 7a.8.8 0 0 1-.3-1.3l119.2-69a.8.8 0 0 1 1 .2.7.7 0 0 1-.3 1L570 383c-.1.2-.2.2-.4.2Zm-.3 6.9.3.1.4-.1 119.2-69a.7.7 0 0 0 .4-.5.8.8 0 0 0 0-.6l-.2-.2a.8.8 0 0 0-1 0l-119.1 69a.8.8 0 0 0-.3 1l.3.3Z" fill="#E0E0E0"/><path fill-rule="evenodd" clip-rule="evenodd" d="M568.9 227.5a.8.8 0 0 0 .8 0l91.8-53a.8.8 0 0 0 0-1.2l-.2-.1a.7.7 0 0 0-.6 0l-91.8 53a.8.8 0 0 0 0 1.3Zm0-7h.9l61-35.3a.7.7 0 0 0 .3-1 .8.8 0 0 0-1-.3L569 219.2a.8.8 0 0 0 0 1.2Z" fill="#455A64"/><path fill-rule="evenodd" clip-rule="evenodd" d="M569.3 241.8a.8.8 0 0 1-.4-1.4l55.1-31.8a.8.8 0 1 1 .8 1.3l-55.1 31.8h-.4Zm0 7a.7.7 0 0 1-.7-.5.8.8 0 0 1 .3-.9l55.1-31.8a.8.8 0 0 1 1.1.9.7.7 0 0 1-.3.5l-55 31.7-.5.1Zm-.4 7 .4.1h.4l55-31.9a.7.7 0 0 0 .4-.4.7.7 0 0 0 0-.6.8.8 0 0 0-1.1-.3l-55 31.8a.8.8 0 0 0-.1 1.2Zm.4 7.2a.8.8 0 0 1-.4-1.4l55.1-31.8a.8.8 0 0 1 1 .3.7.7 0 0 1-.2 1l-55.1 31.8h-.4Zm-.4 6.9.4.1h.4l55-31.9a.7.7 0 0 0 .4-.7v-.3a.8.8 0 0 0-1.1-.3l-55 31.8a.7.7 0 0 0-.1 1.3Zm.4 7.2a.8.8 0 0 1-.4-1.4l55.1-31.8a.8.8 0 0 1 1 .3.7.7 0 0 1 0 .8l-.2.2-55.1 31.8h-.4Zm-.4 6.9.4.1h.4l55-31.8a.7.7 0 0 0 .4-.8v-.3a.8.8 0 0 0-1.1-.2l-55 31.7a.7.7 0 0 0-.1 1.3ZM633.2 205a.8.8 0 0 1-.8-1l.4-.5 55-31.7a.7.7 0 0 1 1.2.5.7.7 0 0 1-.1.6l-.3.2-55 31.8h-.4Zm0 7a.8.8 0 0 1-.8-1l.4-.4 55-31.8a.7.7 0 0 1 1.2.6.7.7 0 0 1-.1.5l-.3.2-55 31.8-.4.1Zm-.4 7h.7l55.1-31.8a.7.7 0 0 0 .4-.5.7.7 0 0 0 0-.6.8.8 0 0 0-.5-.3.8.8 0 0 0-.6.1l-55.1 31.8a.8.8 0 0 0 0 1.3Zm.4 7.2a.8.8 0 0 1-.4-1.4l55-31.8a.7.7 0 0 1 1 0 .8.8 0 0 1 .2.5.7.7 0 0 1-.4.8l-55 31.7-.4.2Zm-.5 6.9.5.1h.3l55.1-31.9a.8.8 0 0 0 .3-1 .8.8 0 0 0-1-.3l-55.1 31.8a.8.8 0 0 0 0 1.3Zm.5 7.2a.8.8 0 0 1-.4-1.4l55-31.8a.7.7 0 0 1 1.2.5.7.7 0 0 1-.1.6l-.3.2-55 31.8h-.4Zm-.5 6.9.5.1h.3l55.1-31.8a.8.8 0 0 0 .3-1 .8.8 0 0 0-1-.3l-55.1 31.7a.8.8 0 0 0 0 1.3Z" fill="#E0E0E0"/></svg>