<svg width="378" height="288" fill="none" xmlns="http://www.w3.org/2000/svg"><path d="M189 247.06c60.75 0 110-28.44 110-63.51 0-35.08-49.25-63.51-110-63.51s-110 28.43-110 63.5c0 35.08 49.25 63.52 110 63.52Z" fill="#F5F5F5"/><path d="M261.53 214.7c17.24 0 31.2-8.07 31.2-18.02 0-9.96-13.97-18.02-31.2-18.02-17.23 0-31.2 8.06-31.2 18.02 0 9.95 13.97 18.01 31.2 18.01ZM182.56 206.4l-35.2-20.34 40.23-23.23 35.21 20.33-40.24 23.23ZM86.7 200.1l45.4 26.22 38.08-21.98-45.4-26.22-38.09 21.99Z" fill="#E0E0E0"/><path d="M153.85 76.9V74.3a.87.87 0 0 0-.52-.68l-15.58-8.94a2.66 2.66 0 0 0-2.4 0L90.58 90.4a.87.87 0 0 0-.5.69v2.58a.87.87 0 0 0 .5.69l15.58 8.92a2.67 2.67 0 0 0 2.4 0l44.78-25.71a.87.87 0 0 0 .51-.69v.01Z" fill="#F0F0F0"/><path d="m90.58 91.76 15.58 8.94a2.63 2.63 0 0 0 2.4 0l44.78-25.71c.66-.38.66-1 0-1.38l-15.58-8.92a2.67 2.67 0 0 0-2.4 0L90.59 90.4c-.66.37-.66.98 0 1.36Z" fill="#FAFAFA"/><path d="M107.35 100.99v2.58c-.42 0-.83-.1-1.2-.29l-15.58-8.91a.87.87 0 0 1-.5-.7V91.1c0-.1.03-.2.09-.3-.18.34-.05.72.41.99l15.58 8.92c.37.2.78.3 1.2.29ZM115.7 79.18l13.2 7.53 21.8-12.51-13.19-7.53-21.8 12.51Z" fill="#E0E0E0"/><path d="m129.06 86.14-12.73-7.31c.33-1.08.3-2.24-.07-3.3l12.65 7.23s.24.8.15 3.38Z" fill="#fff"/><path d="M128.26 81.74a2.7 2.7 0 0 1 1.23 2.1v2.47c0 .77-.55 1.08-1.23.7l-12.53-7.22v-.6l12.38 7.05c.41.24.74.05.74-.42v-2.28a1.6 1.6 0 0 0-.74-1.26l-12.38-7.08v-.7l12.53 7.24Z" fill="#EBEBEB"/><path d="M115.73 74.53 137.52 62l12.54 7.2a2.68 2.68 0 0 1 1.23 2.11v2.47a.84.84 0 0 1-.36.79l-21.8 12.52a.86.86 0 0 0 .35-.79v-2.46a2.67 2.67 0 0 0-1.22-2.1l-12.53-7.22Z" fill="#FAFAFA"/><path d="M129.11 82.64c.23.36.35.77.36 1.2v2.46a.87.87 0 0 1-.35.78l21.8-12.51a.84.84 0 0 0 .36-.79v-2.46a2.44 2.44 0 0 0-.36-1.2l-21.8 12.52Z" fill="#F0F0F0"/><path d="m102.3 60.46-.13 1.67 14.73 7.9.33-.97-14.94-8.6Z" fill="#EBEBEB"/><path d="m117.03 69.45-14.27-8.24-2.48 1.43 14.55 8.51 2.2-1.7Z" fill="#fff"/><path d="m112.15 70.27-1.4 16.54a1.17 1.17 0 0 0 .53.94l8.28 4.79c.13.07.28.11.43.12l-5.14-20.95c-.16 0-.3-.05-.43-.12l-.6-.34-1.67-.98Z" fill="#E0E0E0"/><path d="m115.46 71.57 1.48-1.26 1.08-.94c.1-.18.24-.3.17-.47l5.08 20.8c.07.14.08.47-.12.59l-2.55 2.19c-.2.1-.42.14-.63.12l-5.15-20.95c.22.04.44.01.64-.08Z" fill="#F0F0F0"/><path d="M118.03 68.77c.29.17.22.35 0 .6l-2.56 2.2a1.14 1.14 0 0 1-1.06 0l-2.25-1.3c-.3-.17-.35-.41-.12-.54a1.06 1.06 0 0 1 .94.06l1.77 1.03a.39.39 0 0 0 .35 0l1.87-1.63c.1-.05.1-.14 0-.2l-14.68-8.53.7-.4 15.04 8.7Z" fill="#FAFAFA"/><path d="m98.04 61.26 14.03 8.1v26.72l-14.03-8.11v-26.7Z" fill="#EBEBEB"/><path d="m111.62 69.81-13.58-7.8a5.74 5.74 0 0 1-3.11 1.7l13.47 7.77s.87-.2 3.22-1.67Z" fill="#fff"/><path d="M107.1 71.46a2.91 2.91 0 0 0 2.61 0l2.28-1.34c.72-.42.72-1.08 0-1.5l-13.38-7.69-.57.33 13.17 7.6a.47.47 0 0 1 0 .9L109.08 71a1.74 1.74 0 0 1-1.56 0l-13.17-7.61-.64.37 13.4 7.7Z" fill="#FAFAFA"/><path d="M93.72 63.75v26.7l13.39 7.7a2.92 2.92 0 0 0 2.6 0l2.3-1.32a.9.9 0 0 0 .53-.75V69.37a.9.9 0 0 1-.54.75l-2.28 1.34a2.91 2.91 0 0 1-2.61 0l-13.4-7.71Z" fill="#EBEBEB"/><path d="M108.4 71.74c.46.01.91-.1 1.31-.3l2.28-1.32a.9.9 0 0 0 .54-.75v26.7a.91.91 0 0 1-.54.76l-2.29 1.31c-.4.21-.85.32-1.3.31v-26.7Z" fill="#F0F0F0"/><path d="M221.2 168.7c-.08-1.18-.24-2.6-.43-4.25-.71-6.24-1.7-14.8.9-23 1.57-4.98 5.37-10.9 11.3-12.54 1.32-.36 4.5-.9 5.73 1.93a4 4 0 0 1 .3 1.29c.13 1.8-.68 3.38-1.58 4.82-1.03 1.68-2.23 3.27-3.38 4.83-1.1 1.46-2.23 2.98-3.23 4.55-1.07 1.7-2 3.5-2.8 5.34l-.38-.16c.8-1.87 1.73-3.67 2.8-5.4 1-1.59 2.14-3.11 3.25-4.58 1.14-1.54 2.33-3.13 3.36-4.8.86-1.4 1.64-2.9 1.52-4.58-.03-.4-.12-.78-.27-1.15-1.1-2.53-4.03-2.02-5.24-1.69-5.77 1.6-9.48 7.39-11.02 12.27-2.56 8.11-1.6 16.62-.88 22.83.19 1.65.35 3.07.42 4.27l-.38.02Z" fill="#7FE389"/><path d="M221.6 175.5h-.09a.6.6 0 0 1-.41-.33 1.08 1.08 0 0 1 0-.71c.06-.45.06-.9 0-1.35 0-.26-.04-.52-.04-.76v-2.9a35.29 35.29 0 0 1 4.47-14.84c2.28-3.97 4.8-6.6 7.95-8.32 1.7-.93 3.55-1.52 5.47-1.75 1.7-.19 3.4.26 4.78 1.26 1.42 1.13 2.06 3.06 1.52 4.59a6.27 6.27 0 0 1-2.12 2.6c-1.58 1.28-3.3 2.43-4.96 3.54-1.38.94-2.8 1.87-4.14 2.9a39.38 39.38 0 0 0-11.24 13.74l-.15.3c-.15.27-.28.54-.39.82l-.08.34c-.02.26-.1.52-.24.75a.47.47 0 0 1-.32.12Zm18.02-30.57c-.2 0-.42 0-.63.02-1.87.22-3.67.8-5.31 1.7-3.07 1.67-5.54 4.27-7.78 8.17a34.9 34.9 0 0 0-4.42 14.65v2.87c0 .22 0 .47.04.73.07.49.07.98 0 1.47a.75.75 0 0 0 0 .47.18.18 0 0 0 .12.1c.08-.18.14-.36.17-.55.02-.13.05-.26.1-.39.1-.3.24-.59.4-.87l.14-.29a40.87 40.87 0 0 1 4.1-6.6 39.47 39.47 0 0 1 7.27-7.29 81.46 81.46 0 0 1 4.16-2.91 66.33 66.33 0 0 0 4.93-3.53 5.92 5.92 0 0 0 2-2.41c.46-1.37-.11-3.1-1.4-4.13a6.15 6.15 0 0 0-3.89-1.21Z" fill="#7FE389"/><path d="M221.26 171.5h-.05a.2.2 0 0 1-.15-.24c3.86-15.38 14.52-22.25 20.22-23.88a.2.2 0 0 1 .25.14.2.2 0 0 1-.14.26c-5.61 1.6-16.12 8.38-19.93 23.57a.2.2 0 0 1-.2.15ZM221.24 158.88a.21.21 0 0 1-.15-.07.22.22 0 0 1-.05-.15c1.23-16.61 12.1-25.72 13.33-26.7a.2.2 0 0 1 .23-.02.2.2 0 0 1 .06.06.2.2 0 0 1 .02.23.2.2 0 0 1-.05.06c-1.22.97-11.96 9.96-13.17 26.4 0 .05-.03.1-.08.14a.22.22 0 0 1-.14.05Z" fill="#7FE389"/><path d="m219.94 100.95-26-15a1.4 1.4 0 0 0-1.4-.14l-1.87 1.08a1.4 1.4 0 0 0-.6 1.3v71.16a4.4 4.4 0 0 0 2 3.46l26 14.98a1.4 1.4 0 0 0 1.4.14l1.87-1.08a1.4 1.4 0 0 0 .59-1.3v-71.14a4.41 4.41 0 0 0-2-3.46Z" fill="#263238"/><path d="m195.66 160.57-1.87 1.08v5.92a1.1 1.1 0 0 0 .5.86l.88.5a1.12 1.12 0 0 0 1 0l.87-.5c.31-.2.55-.5.69-.83l1.69-4.87-3.76-2.16Z" fill="#263238"/><path d="M193.8 167.57a1.1 1.1 0 0 0 .5.86l.87.5a.47.47 0 0 0 .58-.07.48.48 0 0 0 .1-.18l1.68-4.87-3.74-2.16v5.92Z" fill="#37474F"/><path d="m214.43 171.36-1.88 1.09v5.91a1.1 1.1 0 0 0 .5.87l.88.5a1.1 1.1 0 0 0 1 0l.87-.5c.31-.2.55-.5.7-.83l1.67-4.87-3.74-2.17Z" fill="#263238"/><path d="M212.56 178.36a1.1 1.1 0 0 0 .49.87l.88.5a.47.47 0 0 0 .58-.07.47.47 0 0 0 .1-.18l1.7-4.87-3.75-2.16v5.91Z" fill="#37474F"/><path d="m192.2 87.09 25.99 14.96a4.43 4.43 0 0 1 2 3.46v71.16a1.21 1.21 0 0 1-.59 1.3 1.22 1.22 0 0 1-1.41-.15l-26-14.98a4.4 4.4 0 0 1-2-3.46V88.24a1.22 1.22 0 0 1 2-1.15Z" fill="#37474F"/><path d="m154.45 184.35 28.12 16.23 39.36-22.72-1.88-1.09-28.11-16.23-37.5 21.65v2.16Z" fill="#455A64"/><path d="M182.57 200.58v-2.16l39.36-22.73v2.17l-39.36 22.72Z" fill="#263238"/><path d="m182.74 197.43-.28-.19c4.98-7.55 4.95-20.6 4.55-23.87l-.06-.4.34-.06c0 .1.03.23.05.37.37 2.31 2.43 14.89 4.87 18.7l-.3.19c-1.92-3-3.57-11.09-4.4-15.75.05 5.3-.72 14.92-4.77 21.01Z" fill="#FAFAFA"/><path d="M199.16 185.9c-.42-.12-10.36-3.13-11.28-7.52l.34-.07c.87 4.19 10.94 7.23 11.04 7.27l-.1.32Z" fill="#FAFAFA"/><path d="m189.13 184.13-.25-1.07a.9.9 0 0 0-.82-.73.81.81 0 0 0-.84.41l-.32-.13a1.16 1.16 0 0 1 1.19-.63 1.21 1.21 0 0 1 .88.47c.06-.44.28-.85.63-1.13a.86.86 0 0 1 .85.03l-.15.3a.53.53 0 0 0-.53-.02c-.4.22-.55 1.09-.58 1.4l-.06 1.1Z" fill="#FAFAFA"/><path d="m190.1 187.7-.3-.98c-.35-1.1-.94-1.73-1.63-1.77a1.48 1.48 0 0 0-1.38.87l-.31-.16a1.82 1.82 0 0 1 1.72-1.07c.41.03 1.13.25 1.66 1.34.12-.86.47-2.23 1.37-2.8a2.15 2.15 0 0 1 2.1.02l-.14.3a1.82 1.82 0 0 0-1.77-.03c-1.2.74-1.28 3.22-1.28 3.25l-.03 1.02Z" fill="#FAFAFA"/><path d="m185.88 190.07-.3-.16c.69-1.33 2.2-2.3 3.52-2.22a1.86 1.86 0 0 1 1.45.71 5.07 5.07 0 0 1 2.22-3.31 4.3 4.3 0 0 1 4.2-.31l-.13.31a4 4 0 0 0-3.87.29 4.63 4.63 0 0 0-2.1 3.6v.87l-.33-.82a1.53 1.53 0 0 0-1.43-1c-1.21-.06-2.6.82-3.23 2.04Z" fill="#FAFAFA"/><path d="m183.99 195.23-.3-.17c.42-.76 2.66-4.62 5.3-5.31a2.75 2.75 0 0 1 2.24.32l-.18.3a2.43 2.43 0 0 0-1.97-.3c-1.94.52-3.95 3.1-5.1 5.16Z" fill="#FAFAFA"/><path d="M218.18 154.05v2.16l-35.62 20.56-28.11-16.23v-2.16l35.61-20.56 28.12 16.23Z" fill="#263238"/><path d="m218.18 154.05-35.62 20.56-28.11-16.23 35.61-20.56 28.12 16.23Z" fill="#455A64"/><path d="M218.18 130.24v2.16l-35.62 20.57-28.11-16.24v-2.16l35.61-20.56 28.12 16.23Z" fill="#263238"/><path d="m218.18 130.24-35.62 20.56-28.11-16.23 35.61-20.56 28.12 16.23Z" fill="#455A64"/><path d="m182.43 122.57-26-14.98a1.4 1.4 0 0 0-1.4-.14l-1.87 1.08a1.41 1.41 0 0 0-.59 1.3v71.13a4.41 4.41 0 0 0 2 3.46l26 14.99a1.4 1.4 0 0 0 1.4.14l1.87-1.09a1.4 1.4 0 0 0 .6-1.29v-71.14a4.4 4.4 0 0 0-2.01-3.46Z" fill="#263238"/><path opacity=".2" d="m182.55 133.5 1.88-1.1v-6.5l-1.89 1.1v6.5ZM220.04 111.84l1.88-1.08v-6.5l-1.88 1.1v6.48Z" fill="#000"/><path d="m158.2 182.19-1.88 1.08v5.91a1.11 1.11 0 0 0 .5.87l.88.5a1.1 1.1 0 0 0 1 0l.87-.5c.31-.2.55-.49.7-.83l1.68-4.87-3.76-2.16Z" fill="#263238"/><path d="M156.32 189.19a1.11 1.11 0 0 0 .5.86l.87.5a.47.47 0 0 0 .69-.25l1.69-4.87-3.74-2.16-.01 5.91Z" fill="#37474F"/><path d="m176.94 193.01-1.87 1.08V200a1.1 1.1 0 0 0 .5.86l.87.5a1.1 1.1 0 0 0 1 0l.88-.5c.3-.2.54-.49.68-.83l1.69-4.87-3.75-2.16Z" fill="#263238"/><path d="M175.07 199.99a1.1 1.1 0 0 0 .5.86l.87.5a.47.47 0 0 0 .69-.25l1.68-4.87-3.74-2.16v5.92Z" fill="#37474F"/><path d="m154.56 108.67 26 14.98a4.41 4.41 0 0 1 2 3.47v73.46l-2-1.17-26-14.99a4.41 4.41 0 0 1-2-3.46v-71.14a1.21 1.21 0 0 1 2-1.15Z" fill="#37474F"/><path opacity=".2" d="m180.56 123.66-26-14.99a1.22 1.22 0 0 0-2 1.15v6.35l30 17.3v-6.35a4.42 4.42 0 0 0-2-3.47Z" fill="#000"/><path d="M216.3 130.41a.18.18 0 0 1-.17-.17V108.9l-20.36 11.75a.17.17 0 0 1-.06.02h-.07a.17.17 0 0 1-.1-.08.18.18 0 0 1-.02-.13.2.2 0 0 1 .03-.06.18.18 0 0 1 .05-.05l20.64-11.9a.17.17 0 0 1 .09-.03c.03 0 .06.01.08.03.03.01.05.03.07.06l.02.09v21.64l-.01.07a.17.17 0 0 1-.05.06.17.17 0 0 1-.14.04Z" fill="#FAFAFA"/><path d="M212.55 125h-.05a.17.17 0 0 1-.13-.2l3.49-15.11-6.92 11.98a.17.17 0 0 1-.1.08.17.17 0 0 1-.13-.01.16.16 0 0 1-.06-.05.17.17 0 0 1-.03-.13c0-.02 0-.04.02-.06l7.48-12.99a.18.18 0 0 1 .22-.08c.03.02.07.05.09.09.01.04.02.08 0 .12l-3.73 16.23-.05.1a.17.17 0 0 1-.1.03Z" fill="#FAFAFA"/><path d="m205.06 119.61-.07-.01a.15.15 0 0 1-.06-.04.17.17 0 0 1 0-.24l11.25-10.83a.17.17 0 0 1 .3.12c0 .05-.02.1-.05.13l-11.25 10.82a.19.19 0 0 1-.06.03.18.18 0 0 1-.06.02Z" fill="#FAFAFA"/><path d="M216.3 126.96a.18.18 0 0 1-.17-.17c0-2.84-3.16-3.03-3.3-3.03a.19.19 0 0 1-.12-.07.17.17 0 0 1-.03-.14 3.37 3.37 0 0 0-1.08-3.19 1.62 1.62 0 0 0-1.24-.46.86.86 0 0 0-.6.4.17.17 0 0 1-.08.07.17.17 0 0 1-.24-.17c0-.1.2-2.63-2.02-2.88a.19.19 0 0 1-.08-.02.2.2 0 0 1-.06-.07.16.16 0 0 1-.02-.08c0-.03 0-.05.02-.08 0 0 .98-1.83.6-2.74a.73.73 0 0 0-.5-.43.17.17 0 0 1-.1-.08.16.16 0 0 1-.02-.07v-.06a.18.18 0 0 1 .22-.12 1.05 1.05 0 0 1 .72.63c.36.86-.25 2.27-.5 2.8 1.71.34 2.03 1.96 2.08 2.77.15-.11.33-.19.51-.22a1.86 1.86 0 0 1 1.53.56 3.74 3.74 0 0 1 1.23 3.33c.76.1 3.43.63 3.43 3.36 0 .04-.02.08-.06.11a.17.17 0 0 1-.11.05ZM216.3 122.3a.17.17 0 0 1-.17-.16c-.07-1-.64-2.28-1.37-2.6a.8.8 0 0 0-.87.14.17.17 0 0 1-.1.03c-.03 0-.07 0-.1-.02a.17.17 0 0 1-.08-.17s.15-1.76-.64-2.48a1.41 1.41 0 0 0-1.25-.28.17.17 0 0 1-.2-.23c.16-.44.47-1.66.05-2.09-.2-.2-.55-.22-1.07-.05a.18.18 0 0 1-.23-.17c0-.04 0-.07.03-.1.29-.37 1-1.43.83-1.94a.43.43 0 0 0-.14-.18.43.43 0 0 0-.2-.08.17.17 0 0 1-.14-.15v-.06a.16.16 0 0 1 .08-.11.16.16 0 0 1 .13-.02.75.75 0 0 1 .6.47c.19.55-.28 1.4-.6 1.87a1.07 1.07 0 0 1 .95.24c.52.54.27 1.66.12 2.2a1.63 1.63 0 0 1 1.27.39c.7.64.77 1.87.76 2.44a1.1 1.1 0 0 1 .94 0c.88.38 1.5 1.76 1.58 2.88v.07a.16.16 0 0 1-.1.1.17.17 0 0 1-.06.01l-.01.04Z" fill="#FAFAFA"/><path d="M226.38 101.02a1.4 1.4 0 0 0-.83-1.15l-27.87-16.1a4.43 4.43 0 0 0-4 0l-42.85 24.76a1.4 1.4 0 0 0-.83 1.15v2.17a1.4 1.4 0 0 0 .83 1.15l27.86 16.09a4.4 4.4 0 0 0 4 0l42.86-24.75a1.4 1.4 0 0 0 .83-1.15v-2.17Z" fill="#37474F"/><path d="m178.7 126.92-27.87-16.08c-1.1-.65-1.1-1.68 0-2.31l42.86-24.75a4.42 4.42 0 0 1 4 0l27.86 16.09c1.11.64 1.11 1.67 0 2.3l-42.86 24.75a4.4 4.4 0 0 1-4 0Z" fill="#455A64"/><path opacity=".1" d="m220.05 107.51-13.12 16.24-22.49 12.99v-8.66l35.61-20.57ZM218.18 132.4l-11.24 15.15-22.5 13v-8.67l33.74-19.48ZM218.18 156.21l-11.24 15.15-22.5 13v-8.67l33.74-19.48Z" fill="#000"/><path d="m166.57 203.5-34.49 19.91-38.83-22.47 34.48-19.9 38.84 22.46Z" fill="#7FE389"/><path opacity=".5" d="m166.57 203.5-34.49 19.91-38.83-22.47 34.48-19.9 38.84 22.46Z" fill="#000"/><path d="M127.73 154.04v27l-34.48 19.9v-26.99l34.48-19.9Z" fill="#7FE389"/><path opacity=".23" d="M127.73 154.04v27l-34.48 19.9v-26.99l34.48-19.9Z" fill="#000"/><path d="M132.08 196.42v27l-38.83-22.48v-26.99l38.83 22.47Z" fill="#7FE389"/><path opacity=".38" d="M132.08 196.42v27l-38.83-22.48v-26.99l38.83 22.47Z" fill="#000"/><path d="M166.57 176.51v27l-38.84-22.48v-26.99l38.84 22.47Z" fill="#7FE389"/><path opacity=".4" d="M166.57 176.51v27l-38.84-22.48v-26.99l38.84 22.47Z" fill="#000"/><path d="M166.56 203.5v-26.99l-34.48 19.91v27l34.48-19.92Z" fill="#7FE389"/><path opacity=".23" d="M166.56 203.5v-26.99l-34.48 19.91v27l34.48-19.92Z" fill="#000"/><path d="m127.73 154.04.05-14.94 38.74 22.5.05 14.91-38.84-22.47Z" fill="#7FE389"/><path opacity=".2" d="m127.73 154.04.05-14.94 38.74 22.5.05 14.91-38.84-22.47Z" fill="#000"/><path d="m132.08 196.42 3.24-13.07 34.17-19.73-2.93 12.9-34.48 19.9Z" fill="#7FE389"/><path opacity=".3" d="m132.08 196.42 3.24-13.07 34.17-19.73-2.93 12.9-34.48 19.9Z" fill="#000"/><path d="m93.25 173.95-4.12-13.55 34.49-19.91 4.11 13.55-34.48 19.91Z" fill="#7FE389"/><path opacity=".1" d="m93.25 173.95-4.12-13.55 34.49-19.91 4.11 13.55-34.48 19.91Z" fill="#000"/><path d="m93.25 173.95-8.12-11.2 38.84 22.47 8.11 11.2-38.83-22.47Z" fill="#7FE389"/><path opacity=".45" d="m93.25 173.95-8.12-11.2 38.84 22.47 8.11 11.2-38.83-22.47Z" fill="#000"/><g opacity=".7" fill="#fff"><path opacity=".7" d="M142.24 215.38a.22.22 0 0 1-.22-.21v-4.74a.22.22 0 0 1 .22-.22c.05 0 .1.02.15.06.04.04.06.1.06.16v4.74a.2.2 0 0 1-.06.15.2.2 0 0 1-.15.06Z"/><path opacity=".7" d="M141.61 212.07h-.08a.22.22 0 0 1-.11-.28l.76-1.74.84.97c.03.04.04.1.03.15 0 .05-.03.1-.07.13a.22.22 0 0 1-.29 0l-.4-.47-.46 1.12a.2.2 0 0 1-.1.1.22.22 0 0 1-.12.02ZM144.2 214.27a.22.22 0 0 1-.21-.22v-4.74a.2.2 0 0 1 .36-.15c.03.04.06.1.06.15v4.74a.2.2 0 0 1-.06.15.21.21 0 0 1-.15.07Z"/><path opacity=".7" d="M143.57 210.95a.3.3 0 0 1-.08 0 .2.2 0 0 1-.07-.04.2.2 0 0 1-.04-.07.23.23 0 0 1-.02-.09c0-.03 0-.05.02-.08l.75-1.76.84.96a.22.22 0 0 1 0 .3.2.2 0 0 1-.06.05.2.2 0 0 1-.23-.05l-.4-.46-.47 1.12a.22.22 0 0 1-.1.1.22.22 0 0 1-.14.02Z"/></g><g opacity=".7" fill="#fff"><path opacity=".7" d="M136.6 218.6a.48.48 0 0 1-.23-.05.56.56 0 0 1-.26-.51v-.58c0-.06.02-.11.06-.15.04-.04.1-.06.15-.06a.2.2 0 0 1 .21.21v.58c0 .08 0 .13.05.14.04.01.06 0 .13-.04a1.25 1.25 0 0 0 .4-.96v-2.43c0-.05.02-.1.06-.15a.2.2 0 0 1 .3 0c.04.04.06.1.06.15v2.43a1.61 1.61 0 0 1-.6 1.33c-.1.06-.22.1-.34.1Z"/><path opacity=".7" d="M134.36 216.65v-.37a6.02 6.02 0 0 1 2.7-4.67c.78-.44 1.5-.5 2.06-.18a2.03 2.03 0 0 1 .88 1.87v.12l-5.64 3.23Zm3.98-5.02a2.2 2.2 0 0 0-1.06.32 5.62 5.62 0 0 0-2.47 3.95l4.75-2.75a1.58 1.58 0 0 0-.66-1.4 1.12 1.12 0 0 0-.56-.12Z"/></g><path opacity=".7" d="m85.13 162.75 38.84 22.47 8.11 11.2-8.54-10.8-38.4-22.87ZM166.56 176.51l-34.48 19.91v27l.65-26.45 33.84-20.46Z" fill="#fff"/><path d="M115.96 165.72c3.56-.52 6.8-2.8 8.89-5.69a13.53 13.53 0 0 0 2.1-4.46c.45-1.5.52-3.08.21-4.62-.64-2.56-3.01-4.08-5.52-4.4a8.41 8.41 0 0 0-3.79.37 6.4 6.4 0 0 0-3.13 2.34c-.49.57-.8 1.28-.88 2.03a1.17 1.17 0 0 0 1.05 1.2c.75.06 1.5-.13 2.13-.55.77-.43 1.45-1 2-1.7a14.28 14.28 0 0 0 2.59-4.9 9.85 9.85 0 0 0 0-4.68 8.63 8.63 0 0 0-2.12-4.3 7.85 7.85 0 0 0-4.55-2.01 11.1 11.1 0 0 0-5.02.46c-.71.22-1.37.58-1.93 1.06-.4.38-.86 1-.7 1.6.16.6 1.05.88 1.65.8.9-.17 1.72-.61 2.34-1.27a10 10 0 0 0 1.77-2.34c.34-.62.53-1.31.52-2.03-.06-2.96-3.33-4.88-5.9-5.42-.7-.14-1.4-.19-2.11-.14-.24 0-.1.4.1.38a7.7 7.7 0 0 1 3.97.9 6.65 6.65 0 0 1 2.9 2.58 3.56 3.56 0 0 1-.1 3.62 9.6 9.6 0 0 1-1.7 2.16c-.56.5-1.4 1.1-2.18 1.03a.69.69 0 0 1-.62-.38 1 1 0 0 1 .28-.85c.4-.45.92-.8 1.49-1a9.81 9.81 0 0 1 4.43-.73c1.57.03 3.08.51 4.37 1.4a6.87 6.87 0 0 1 2.27 3.6c.45 1.44.6 2.95.41 4.44-.27 1.5-.85 2.94-1.7 4.21-.86 1.43-1.94 2.8-3.57 3.37-.4.14-1.24.35-1.4-.23-.16-.58.3-1.3.6-1.76a5.95 5.95 0 0 1 2.71-2.3 7.51 7.51 0 0 1 3.41-.5c2.2.16 4.44 1.3 5.2 3.5.39 1.3.43 2.69.13 4.01-.28 1.46-.8 2.86-1.55 4.14a14.77 14.77 0 0 1-6.96 6.07c-.7.3-1.4.55-2.13.78-.08.03-.04.22.04.2Z" fill="#E0E0E0"/><path d="M101.1 125.13c-1.87-.14-4.45 1.34-3.53 2.41.92 1.08 3.35-.66 3.35-.66s-.23 2.17.56 2.42c.8.24 1.87-1.83 1.08-3.16a2.45 2.45 0 0 0 2.34-.3c1.13-.83-.07-1.62-1.66-1.48 0 0 1.14-3.73-1.17-3.02-1.15.35-1.56 1.7-.97 3.79Z" fill="#7FE389"/><path opacity=".65" d="M101.1 125.13c-1.87-.14-4.45 1.34-3.53 2.41.92 1.08 3.35-.66 3.35-.66s-.23 2.17.56 2.42c.8.24 1.87-1.83 1.08-3.16a2.45 2.45 0 0 0 2.34-.3c1.13-.83-.07-1.62-1.66-1.48 0 0 1.14-3.73-1.17-3.02-1.15.35-1.56 1.7-.97 3.79Z" fill="#fff"/><path d="M102.85 125.92c-.1-.1-.22-.2-.33-.28l-.5-.37a4.24 4.24 0 0 0-.81-.46.84.84 0 0 0-.47-.08.23.23 0 0 0-.18.36c.12.14.28.25.46.31l.26.14c.17.1.32.22.46.33.14.12.33.23.47.35a3.03 3.03 0 0 0 .84.48l.04-.01c.24-.19-.1-.63-.24-.77Z" fill="#455A64"/><path d="M251.9 73.7c-2.04 2.75-4.78 17.86-5.81 22.7-4.97-.14-11.62-.37-14.13-.63-2.8-.3-8.8-.87-11.74-.47-7.3.94-7.01 5.73-6.83 6.98.19 1.44 1.21 2.09 5.14 1.2.88-.2 1.77-.3 2.67-.32.38 0 1.18-.19 1.48.14.47.46-.88 1.25-1.22 1.46-.52.34-1.06.77-1.17 1.37a.6.6 0 0 0 .2.62c.18.08.4.08.59 0 1.79-.42 3.52-1.08 5.14-1.95.61-.37 1.25-.69 1.92-.94 1.02-.33 2.06-.14 3.08-.14 2.2 0 13.78 1.16 18.94 1.68 3.56.36 3.94-3.16 5.17-6.73 1.51-4.42 5.09-27.68 5.09-27.68-3.61-.52-6.09-.56-8.52 2.7Z" fill="#FFA8A7"/><path d="M260.47 70.63c-1.72-.32-5.6-.8-7.72 1.56-2.11 2.36-2.61 4.84-3.54 8.41-.94 3.58-2.59 9.98-2.59 9.98s2.73 3.92 11.26 2.8l2.6-22.75Z" fill="#37474F"/><path d="M281.9 194.24h-6l-1.73-13.01 7.57-.3.16 13.31ZM261.98 187.74c-1.02 1.77-4.3 1.63-7.01 1l-.32-12.8 8.02-.32-.69 12.12Z" fill="#FFA8A7"/><path d="M281.5 111.97c.2 5.54-.53 38.3-.53 38.3.2 1.59 1.85 4.36 2.2 10.1.5 8.33-1.2 26.1-1.2 26.1s-3.44 1.79-7.14.41c0 0-3.77-25.7-5.15-33.93-1.18-7.15-2.7-26.34-2.7-26.34l-2.97 24.6c.55 2.9.77 5.87.67 8.83-.12 3.82-2.3 22.39-2.3 22.39-2.48.81-5.15.88-7.67.18 0 0-1.8-28.82-2-32.3-.23-4-.07-39.15-.07-39.15l28.85.81Z" fill="#7FE389"/><path opacity=".2" d="M266.98 126.62s-5.24-1.48-8.81-4.67c0 0 1.67 2.86 6.41 5.39l-.27 21.46 2.67-22.18Z" fill="#000"/><path d="M269.07 205.1c-.2.2-.08 1.5.15 1.83.23.34 1.66 1.48 4.15 1.56 2.37.08 4.46-.32 5.81-1.26 1.35-.93 1.99-1.93 2.07-3.27.08-1.34-.12-2.65.47-3.7.55-.99 1.46-2.1 1.64-2.63.4-1.15-.1-2.74-.1-2.74l-14.2 10.21Z" fill="#263238"/><path d="M275.05 193.1c0 .51-.07 1.02-.22 1.51-.5 1.6-1.27 3.1-2.25 4.45-.69.87-1.55 1.6-2.27 2.45a4.85 4.85 0 0 0-1.35 2.96c-.03 1.87 2.01 2.41 3.57 2.63 1.69.22 3.4.06 5.02-.47a4.6 4.6 0 0 0 3.24-3.83c.07-.52 0-1.04.06-1.56.16-1.19.61-2.32 1.31-3.3.41-.56.76-1.17 1.04-1.8.44-1.17 0-2.45-.35-3.57-.3-.98-.65-2.09-1-1.98 0 .52 0 .56-.33.93-.46.47-.44 1.12-.93 1.53.14-.43.24-.88.29-1.33a.76.76 0 0 0-.13-.52 1.42 1.42 0 0 0-.58-.28c-.74-.22-1.5-.37-2.27-.43a6.79 6.79 0 0 0-2.2.07.98.98 0 0 0-.53.34c-.13.2-.19.42-.18.64 0 .3.05 1.07.06 1.56Z" fill="#455A64"/><path d="M273.28 198.03c.67-.55 2.21-.62 3.06-.56.87.04 1.7.3 2.44.75a.55.55 0 0 0 .7-.08.5.5 0 0 0 .14-.41.53.53 0 0 0-.22-.37 5.23 5.23 0 0 0-2.74-.9c-2.09-.06-2.68.31-2.68.31s-.93.65-.7 1.26ZM271.76 199.99c.84-.55 2.55-.54 3.4-.47.84.06 1.66.33 2.37.8.1.07.24.1.37.09a.54.54 0 0 0 .33-.17.51.51 0 0 0 .15-.41.52.52 0 0 0-.22-.37 5.4 5.4 0 0 0-2.81-.98c-2.1-.07-2.62.38-2.62.38a1.73 1.73 0 0 0-.97 1.13ZM277.41 194.44a5.17 5.17 0 0 0-2.6.31c-.36.22-.58.81-.34.94a4.82 4.82 0 0 1 2.3-.41 6.82 6.82 0 0 1 2.86.8c.06.03.13.04.2.05.06 0 .13 0 .2-.03a.5.5 0 0 0 .28-.26.47.47 0 0 0-.2-.6 6.6 6.6 0 0 0-2.7-.8Z" fill="#F5F5F5"/><path d="M241.27 195.73a2.25 2.25 0 0 0 0 1.66c.2.5 2.68 2.05 6.12 1.99 2.56-.06 5.06-.81 7.23-2.16 1.35-.8 2.72-.9 4.42-.94 1.7-.03 3.98-.75 4.39-1.53.41-.78.05-2.17.05-2.17l-22.21 3.15Z" fill="#263238"/><path d="m255.62 185.67-.27-.07a1.15 1.15 0 0 0-.47-.04.85.85 0 0 0-.43.26c-.36.42-.67.87-.94 1.34-.77 1.14-2.33 2.04-4.02 2.85-1.15.55-2.27.96-3.45 1.42-1.18.47-2.8.73-3.74 1.3-1.4.86-1.67 3.12-.18 4.1 1.29.84 4.73 1.84 8.41.98 2.02-.47 4.33-2.49 6.95-2.57 1.67-.05 4.83-.37 5.95-1.58.43-.53 0-2.33-.38-3.89-.39-1.69-.21-4.2-.97-4.2l-.04.84c-.07.25-.67.5-.86.7l-.67.71c-.27.33-.61.6-.99.8-.67.3-1.45.13-2.16-.06-.03 0 .36-1.3.4-1.43.04-.1.05-.2.04-.31a.46.46 0 0 0-.2-.25 5.3 5.3 0 0 0-1.98-.9Z" fill="#455A64"/><path d="M251.1 189.18a1.55 1.55 0 0 1 1.26-.77c.76-.1 2.07.52 2.87 1.24a.62.62 0 0 1 .2.55.63.63 0 0 1-.34.47c-.12.06-.25.08-.37.06a.62.62 0 0 1-.34-.17 4.75 4.75 0 0 0-3.29-1.38ZM248.7 190.38a1.78 1.78 0 0 1 1.48-.68s1.97.15 3.13 1.35a.6.6 0 0 1-.13.98.6.6 0 0 1-.67-.11 4.75 4.75 0 0 0-3.82-1.54ZM246.05 191.43a2 2 0 0 1 1.55-.6c1.11.13 2.16.6 3 1.35a.61.61 0 0 1-.13.99.59.59 0 0 1-.68-.11 4.55 4.55 0 0 0-3.74-1.63Z" fill="#F5F5F5"/><path d="M270.48 70.73c2.2.25 4.81.39 6.92.66 2.72.36 4.83 3.17 5.5 7.52.73 4.78-2.34 18.5-2.34 18.5l.98 16.2c-3.98 2.92-20.93 4.46-29.37-1.63 0 0 .2-27.55.86-31.8.9-5.81 2.34-9.43 8.88-9.84l8.56.39Z" fill="#455A64"/><path d="M285.55 105.8a210.24 210.24 0 0 1-3 4.87c-.16.21-.34.4-.55.57-.35.24-1.09.09-1.52.1-2.11.07-4.22.23-6.32.47a1.22 1.22 0 0 0-.94.4.83.83 0 0 0 .3 1.05c.35.2.74.32 1.14.33l1.82.22c.26 0 .52.09.73.23.67.54-.6 1.19-.98 1.45-.76.53-1.57.98-2.43 1.34-3.8 1.6-4.26 2.76-3.56 4.08.61 1.15 3.24 5.31 9.91 1.73 2.7-1.45 6.78-6.01 8.65-8.22 2.68-3.18 7.22-10.28 7.22-10.28 2.58-3.55 2.91-5 2.97-6.47.06-1.48-7.94-12.8-10.66-16.78-2.72-3.98-4.02-8.82-10.94-9.48 0 0-2.64 8.36 1.73 13.76l10.08 14.07s-2.67 4.91-3.65 6.55Z" fill="#FFA8A7"/><path d="m292.88 86.28-3.95-5.7c-5.5-8.02-5.03-9.49-12.95-9.6-.7 1.08-1.12 5.7-.06 10.35.88 3.9 4.2 6.66 4.2 6.66l3.97 5.37s2.43-.07 5.34-2.2a8.88 8.88 0 0 0 3.45-4.88Z" fill="#37474F"/><path d="M275.68 49.66a3.95 3.95 0 0 0-3.67-1.73l-.4 10.04-.68 3.7.12 4.13a2.34 2.34 0 0 0 1.8-1.36c.62-1.18 2.34-6.92 2.34-6.92 1.54-4.72 1.21-6.85.5-7.86Z" fill="#263238"/><path d="M271.14 58.01c.18-.6.51-1.16.97-1.6.58-.61 2.87-1.28 3.91.66 1.04 1.95-.72 4.51-2.07 5.3-1.74 1-2.75-.37-2.75-.37l.04 9.25c-.81 1.87-4.46 3.53-6.64 3.27-1.73-.22-3.32-1.58-1.77-3.56l-.13-2.64s-2.31.47-3.46.35c-1.9-.2-3.17-1.63-3.84-3.65-1.09-3.24-1.57-5.88-1.11-12.39.5-7.13 8.75-7.61 13.34-5.03 4.6 2.58 3.51 10.41 3.51 10.41Z" fill="#FFA8A7"/><path d="M251.67 45.23c-.2-1.56.33-3.23 1.96-3.78a3.45 3.45 0 0 1 3.62.6 3.15 3.15 0 0 1 5.61-.6 3.07 3.07 0 0 1 1.87-1.3 3.62 3.62 0 0 1 2.78.5c.66.5 1.44 1.41 1.25 2.6 1.3-.53 2.68-.1 3.66 1.06a4.14 4.14 0 0 1 .73 3.92c-.19.42-.57.7-.68 1.18-.17.43-.25.88-.25 1.33.1.79.28 1.57.38 2.34.11.76.18 1.53.2 2.3a1.26 1.26 0 0 1-.57.9c-.44.38-.78.86-.99 1.4-.16.34-.32 1.17-.64 1.4-1 .7-1.11-1.55-1.16-1.98-.06-1-.06-2 0-3a3.6 3.6 0 0 1-2.65-1.22 3.11 3.11 0 0 1-.66-1.46c-.05-.31-.08-.63-.07-.94-.65 1.08-2.16 1.52-3.24 1.4-1.8-.16-2.42-.93-2.71-1.5a3.58 3.58 0 0 1-.72 1.53c-.46.43-1.02.75-1.62.93a2.98 2.98 0 0 1-2.95-.85c-.73 1.05-2.6.58-3 .29-.94-.68-1.25-1.49-1.35-2.64-.1-1.16.37-2.47 1.65-2.93a4.63 4.63 0 0 1-.45-1.48Z" fill="#263238"/><path d="M262.7 68.3s4.19-1.05 5.62-1.91a4.85 4.85 0 0 0 1.94-2.12c-.19.87-.54 1.7-1.05 2.44-1 1.43-6.46 2.72-6.46 2.72l-.05-1.12Z" fill="#F28F8F"/><path d="M262.93 57.7a.91.91 0 0 0 .62.79.9.9 0 1 0 .24-1.77.94.94 0 0 0-.86.98Z" fill="#263238"/><path d="M261.53 64.47a1.16 1.16 0 0 0 1.48 1.01 1.17 1.17 0 0 0 .28-2.13c-.2-.11-.43-.17-.66-.16a1.2 1.2 0 0 0-1.1 1.28Z" fill="#F28F8F"/><path d="m263.68 54.59 1.92.93a1.13 1.13 0 0 0-.5-1.47 1.04 1.04 0 0 0-1.42.54ZM255.31 55.4l1.64-1.4a1.03 1.03 0 0 0-1.13-.36c-.13.04-.26.11-.36.2a1.14 1.14 0 0 0-.15 1.56ZM255.8 57.52a.88.88 0 1 0 .83-.93.9.9 0 0 0-.84.93Z" fill="#263238"/><path d="m260.13 56.48-.02 5.53-2.93-.84 2.95-4.69Z" fill="#F28F8F"/><path d="M252.79 64.22a.2.2 0 0 0 .13-.1.2.2 0 0 0 .03-.15.21.21 0 0 0-.1-.14l-2.53-1.7a.22.22 0 0 0-.24 0 .2.2 0 0 0-.06.07.2.2 0 0 0-.03.16c0 .03.01.05.03.08a.2.2 0 0 0 .06.06l2.54 1.69a.2.2 0 0 0 .17.03ZM252.53 65.31a.23.23 0 0 0 .16-.16.22.22 0 0 0-.03-.16.22.22 0 0 0-.13-.1l-2.98-.69a.21.21 0 0 0-.22.08.22.22 0 0 0-.04.08.22.22 0 0 0 .16.26l2.98.7h.1ZM249.76 67.3h.03l2.87-1.06c.05-.02.1-.06.12-.1a.22.22 0 0 0-.27-.3l-2.87 1.05a.22.22 0 0 0-.14.2l.01.08a.21.21 0 0 0 .25.12ZM225.5 89.72a.68.68 0 0 0 1.02.24c.1-.08.19-.19.23-.31l2.13-5.26a.67.67 0 0 0-.39-.9.68.68 0 0 0-.88.43l-2.13 5.26a.68.68 0 0 0 .03.54ZM222 89.69a.68.68 0 0 0 1.29-.3l-.07-6.55a.68.68 0 0 0-1.35 0l.06 6.54c0 .1.03.21.07.31ZM216.06 86.05l.04.08 3.22 4.67a.68.68 0 0 0 .94.19.69.69 0 0 0 .18-.93l-3.22-4.68a.67.67 0 0 0-1.16.67Z" fill="#E0E0E0"/></svg>