<svg width="230" height="40" fill="none" xmlns="http://www.w3.org/2000/svg"><path d="M91 26.2V24h2.7a5 5 0 0 0 1.8-.3 3.8 3.8 0 0 0 2.1-2.2c.2-.5.3-1 .3-1.7 0-.6 0-1.2-.3-1.7-.2-.5-.4-1-.8-1.3-.4-.4-.8-.6-1.3-.8-.5-.2-1.1-.3-1.8-.3H91v-2.3h2.5c1.2 0 2.2.1 3 .5a6 6 0 0 1 4 5.7v.4a6.2 6.2 0 0 1-4 5.8c-.8.3-1.8.5-3 .5H91Zm-2.1 0v-13h2.5v13h-2.5ZM103 26.1v-9.5h2.4v9.5h-2.5Zm-1.4-7.6v-1.9h3.8v1.9h-3.8Zm2.2-3c-.4 0-.8-.1-1-.4-.2-.2-.4-.5-.4-1 0-.3.2-.6.4-.9.2-.2.6-.3 1-.3.5 0 .9 0 1.1.3.2.3.3.6.3 1s0 .7-.3 1c-.2.2-.6.3-1 .3ZM114 26.1v-2.8h-.4v-3.1c0-.6-.2-1-.4-1.2-.3-.3-.7-.4-1.3-.4a38.1 38.1 0 0 0-3.4 0v-2a53.8 53.8 0 0 1 3-.1c1 0 1.8.1 2.4.4.7.2 1.2.6 1.5 1.2.3.5.5 1.3.5 2.1v6h-2Zm-3 .3c-.8 0-1.4-.1-2-.4-.4-.2-.8-.6-1.1-1a3 3 0 0 1-.5-1.7c0-.7.2-1.2.6-1.7.3-.4.8-.8 1.4-1 .6-.2 1.4-.3 2.2-.3h2.2v1.4h-2.2c-.6 0-1 .2-1.3.5-.3.2-.4.6-.4 1s.1.8.4 1c.3.3.7.5 1.3.5l1-.2c.2-.1.5-.4.6-.7.2-.3.4-.7.4-1.2l.6.7a4 4 0 0 1-.5 1.7c-.3.4-.6.8-1.1 1-.5.3-1 .4-1.7.4Zm-.4-11 1.6-3.6h2.5l-2 3.6h-2ZM118.5 26.1v-9.5h2v4c0-1.3.2-2.3.8-3 .6-.7 1.4-1 2.6-1h.3v2h-.7c-.8 0-1.4.3-1.9.7-.4.4-.6 1-.6 1.9v5h-2.5ZM126.3 26.1v-9.5h2.4v9.5h-2.4Zm-1.3-7.6v-1.9h3.7v1.9H125Zm2.2-3c-.5 0-.8-.1-1-.4-.3-.2-.4-.5-.4-1l.3-.9c.3-.2.6-.3 1.1-.3.5 0 .8 0 1 .3.3.3.4.6.4 1s-.1.7-.3 1c-.3.2-.6.3-1.1.3ZM136.1 26.5c-.8 0-1.5-.2-2.2-.4a4.9 4.9 0 0 1-2.6-2.7 5 5 0 0 1-.4-1.8v-.4a5 5 0 0 1 1.4-3.4c.5-.5 1-.8 1.7-1 .6-.4 1.3-.5 2.1-.5.9 0 1.6.1 2.2.4l1.7 1c.4.5.8 1 1 1.7l.3 1.8v.4a4.8 4.8 0 0 1-3 4.5c-.6.2-1.3.4-2.2.4Zm0-2.1c.6 0 1.1-.1 1.6-.4.4-.3.7-.6.9-1 .2-.5.3-1 .3-1.6 0-.6-.1-1.1-.3-1.5-.2-.5-.6-.9-1-1.1-.4-.3-.9-.4-1.5-.4-.5 0-1 .1-1.4.4-.5.2-.8.6-1 1-.2.5-.3 1-.3 1.6 0 .6 0 1 .3 1.5.2.5.5.8 1 1.1.3.3.8.4 1.4.4ZM151.2 26.5c-.6 0-1.3-.2-1.8-.4l-1.5-1-1-1.6c-.2-.6-.3-1.2-.3-2v-.3c0-.7.1-1.3.4-1.9a5 5 0 0 1 .9-1.5c.4-.5.8-.8 1.4-1a4.4 4.4 0 0 1 3.8 0c.6.3 1 .8 1.4 1.5.3.6.5 1.4.5 2.4l-.7-.9v-6.4h2.5V26h-2v-4h.5c0 1-.3 1.8-.6 2.4-.4.7-.9 1.2-1.5 1.5-.6.3-1.2.5-2 .5Zm.6-2c.4 0 .9-.2 1.3-.4s.7-.5 1-1c.2-.4.3-.9.3-1.4V21c0-.6-.1-1-.4-1.4-.2-.4-.5-.7-1-.9-.3-.2-.8-.3-1.2-.3a2.6 2.6 0 0 0-2.4 1.4c-.2.5-.3 1-.3 1.6 0 .6 0 1.2.3 1.6.3.5.6.8 1 1 .4.3.8.4 1.4.4ZM164.1 26.5c-.8 0-1.6-.2-2.2-.4-.6-.3-1.2-.7-1.6-1.1a5 5 0 0 1-1.4-3.4v-.4a5 5 0 0 1 1.4-3.4c.5-.5 1-.8 1.7-1 .6-.4 1.3-.5 2.1-.5s1.6.1 2.2.4c.7.3 1.2.6 1.6 1 .5.5.8 1 1 1.7.3.6.4 1.2.4 1.8v.4a4.8 4.8 0 0 1-3 4.5c-.6.2-1.3.4-2.2.4Zm0-2.1a2.6 2.6 0 0 0 2.4-1.5c.3-.4.4-1 .4-1.5 0-.6-.1-1.1-.3-1.5-.3-.5-.6-.9-1-1.1-.4-.3-.9-.4-1.5-.4-.5 0-1 .1-1.5.4-.4.2-.7.6-1 1l-.2 1.6c0 .6 0 1 .3 1.5.2.5.5.8 1 1.1.3.3.8.4 1.4.4ZM181.2 26.5c-1.1 0-2.1-.2-3-.6a6 6 0 0 1-3.1-3.8c-.3-.7-.4-1.5-.4-2.2v-.4c0-.8.1-1.5.4-2.3a5.7 5.7 0 0 1 3.2-3.6c.8-.4 1.7-.6 2.8-.6 1.2 0 2.2.2 3 .6a5 5 0 0 1 2.1 1.8c.5.7.9 1.6 1 2.6h-2.5a3 3 0 0 0-1.9-2.4c-.5-.2-1-.3-1.7-.3a4 4 0 0 0-1.6.3c-.5.3-1 .6-1.3 1-.3.3-.6.8-.7 1.4a6 6 0 0 0 0 3.5c.1.5.4 1 .7 1.4l1.3 1c.5.2 1 .3 1.7.3a4 4 0 0 0 2.5-.7 3 3 0 0 0 1.2-2h2.5c-.1.9-.5 1.7-1 2.5-.5.7-1.2 1.3-2 1.8-1 .4-2 .7-3.2.7ZM189.4 26.1V13.4h2.4V26h-2.4Zm-1.2-11v-1.7h3.6v1.8h-3.6ZM195 26.1v-9.5h2.5v9.5h-2.4Zm-1.2-7.6v-1.9h3.7v1.9h-3.7Zm2.2-3c-.5 0-.8-.1-1-.4-.3-.2-.4-.5-.4-1 0-.3 0-.6.3-.9.3-.2.6-.3 1-.3.6 0 1 0 1.1.3.3.3.4.6.4 1s-.1.7-.4 1c-.2.2-.5.3-1 .3ZM200.3 26.1v-9.5h2v4.1h-.2c0-1 .1-1.7.4-2.4a3 3 0 0 1 1-1.5c.6-.3 1.2-.5 1.9-.5.8 0 1.4.2 2 .5.4.4.8.9 1 1.5.3.7.4 1.5.4 2.4h-.6c0-1 0-1.7.3-2.4a3 3 0 0 1 1.1-1.5c.5-.3 1.1-.5 1.9-.5.8 0 1.4.2 2 .5.4.4.8.9 1 1.5.3.7.4 1.5.4 2.4v5.4h-2.4v-5.6c0-.6-.2-1-.5-1.4-.3-.4-.7-.6-1.3-.6-.6 0-1 .2-1.3.6a2 2 0 0 0-.6 1.5V26h-2.4v-5.6c0-.6-.1-1-.5-1.4-.3-.4-.7-.6-1.3-.6-.5 0-1 .2-1.3.6a2 2 0 0 0-.5 1.5V26h-2.5ZM223.3 26.1v-2.8h-.4v-3.1c0-.6-.1-1-.4-1.2-.3-.3-.7-.4-1.3-.4a38 38 0 0 0-3.4 0v-2a53.2 53.2 0 0 1 3-.1c1 0 1.8.1 2.4.4.7.2 1.2.6 1.5 1.2.4.5.5 1.3.5 2.1v6h-2Zm-3 .3c-.8 0-1.4-.1-2-.4-.4-.2-.8-.6-1.1-1a3 3 0 0 1-.4-1.7c0-.7.1-1.2.5-1.7.3-.4.8-.8 1.4-1 .7-.2 1.4-.3 2.2-.3h2.3v1.4h-2.3c-.6 0-1 .2-1.3.5-.3.2-.4.6-.4 1s.1.8.4 1c.3.3.7.5 1.3.5l1-.2.7-.7c.2-.3.3-.7.3-1.2l.6.7a4 4 0 0 1-.5 1.7c-.3.4-.6.8-1.1 1-.5.3-1 .4-1.7.4Z" fill="#0C180A"/><path d="M23 6.6C9 13 3.8 17.6 6.5 19.1h3.8c5.2.2 10.2-2.8 14.3-5.8 2.6-1.9 4.7-2.7 7.1-4 .6-.4.7-1.3.3-1.8-1-.9-1.9-3-3.3-3-1 .2-2.7.7-5.5 2.1Z" fill="#A4B57A"/><path d="M24 19.1c-4.3 0 5.9-5.8 9.2-8 .7-.5 1.7-.2 2 .5 3.7 10-.4 7.1-11.2 7.5ZM30 31.7c1.6 1 3.9.3 4.7-1.5.7-1.6 1.2-3.4 1.7-5.4.3-1.4-.8-2.8-2.4-2.8l-16.6-.3s-4.2.4 12.5 10ZM2.5 22h-.4c-.7 0-1.2.5-1.2 1.1v15.5c0 .3.2.7.5.8l.2.1 12.4.3c.9 0 1.3-1 .7-1.6-6.2-6.4-8-10-10.8-15.3-.3-.5-.8-.8-1.3-.8ZM9.6 22h-2c-.7 0-1.2.8-1 1.4a39 39 0 0 0 5.8 8.3c1.9 2.1 6.5 6.7 7.1 7.3 1 1 2.3.6 3.6.6 3.6-.3 6.4-1.9 8.4-4.3.2-.1.1-.4 0-.5-5.8-3-12.6-7-15.4-10A8.9 8.9 0 0 0 9.6 22Z" fill="#476A29"/><path d="M7.7 2.1c.4-.4-.3-1-.8-1H3.2C.3 1.1.8 4.5.8 4.5s-.4-5 0 0V6c1 2.5 2.6-1.7 4-2.3l3-1.6h-.1Z" fill="#EE7917"/><path d="M18 1.2C12.3 1 7.5 3.8 1.6 9.8c-.5.4-.7 1-.7 1.6v4.4c0 .8 1 1.3 1.8.9C5 15.2 11 9.9 16.9 6.7c3.9-2 8-2 9.5-2.9 1.9-2-7.1-2.8-8.3-2.6ZM76 2.1V11l-.1 1a8 8 0 0 1-7.8 6.6H41c-.6 0-1.1-.5-1.1-1.1l.1-3.9c.6-3.3 2-6.1 4.5-8.4A15 15 0 0 1 55 1h19.8c.5 0 1 .4 1.2 1V2ZM54.7 21.6H68a8 8 0 0 1 8 8V38c0 .8-.7 1.4-1.4 1.4H54.9c-4 0-7.4-1.4-10.3-4a14.9 14.9 0 0 1-4.8-12.5c0-.7.6-1.2 1.3-1.2h13.6Z" fill="#476A29"/></svg>