<svg fill="none" xmlns="http://www.w3.org/2000/svg" viewBox="0 0 180 36"><path d="M41.04 24.71v-2.3h2.65c.67 0 1.26-.1 1.78-.3a3.8 3.8 0 0 0 2.16-2.2c.2-.5.3-1.07.3-1.7 0-.63-.1-1.2-.3-1.7a3.54 3.54 0 0 0-.83-1.32 3.53 3.53 0 0 0-1.33-.82 5.18 5.18 0 0 0-1.78-.28h-2.65v-2.31h2.5c1.15 0 2.16.17 3.03.5a5.98 5.98 0 0 1 3.88 5.75v.38c0 .77-.14 1.53-.44 2.28a6.02 6.02 0 0 1-1.28 2.03c-.57.6-1.3 1.09-2.16 1.45-.86.36-1.88.54-3.04.54h-2.49Zm-2.14 0V11.78h2.5v12.93h-2.5Zm14.05-.07v-9.5h2.44v9.5h-2.44Zm-1.34-7.68v-1.82h3.78v1.82h-3.78ZM53.84 14c-.48 0-.83-.12-1.07-.37a1.4 1.4 0 0 1-.33-.94c0-.4.11-.72.33-.97.24-.24.6-.36 1.07-.36.48 0 .83.12 1.06.37.22.24.33.56.33.96 0 .37-.1.69-.33.94-.22.25-.58.37-1.06.37Zm10.14 10.64v-2.82h-.4V18.7c0-.55-.14-.96-.4-1.23-.28-.26-.7-.4-1.25-.4a46.78 46.78 0 0 0-2.3.07c-.41.01-.78.03-1.11.06v-2.07l.91-.07a33.74 33.74 0 0 1 2.05-.05c.99 0 1.8.13 2.45.38.65.26 1.14.66 1.47 1.21.34.55.51 1.27.51 2.15v5.9h-1.93Zm-3.07.25c-.7 0-1.3-.13-1.83-.37a2.87 2.87 0 0 1-1.21-1.05c-.28-.46-.42-1-.42-1.65 0-.7.17-1.27.5-1.71.36-.45.84-.78 1.46-1a6.7 6.7 0 0 1 2.22-.33h2.21v1.45h-2.25c-.56 0-1 .14-1.3.42-.29.27-.44.62-.44 1.05 0 .43.15.78.44 1.05.3.27.74.4 1.3.4.34 0 .65-.06.93-.17.3-.13.54-.34.72-.63.2-.3.31-.71.34-1.23l.6.69a3.96 3.96 0 0 1-.5 1.68 2.62 2.62 0 0 1-1.09 1.05c-.45.23-1.02.35-1.68.35Zm-.27-10.96 1.57-3.59h2.53l-2 3.6h-2.1Zm7.89 10.71v-9.5h1.93v4.03h-.05c0-1.37.29-2.4.87-3.1.59-.7 1.45-1.05 2.59-1.05h.35v2.11h-.67c-.82 0-1.46.23-1.92.67-.44.43-.66 1.06-.66 1.89v4.95h-2.44Zm7.78 0v-9.5h2.44v9.5H76.3Zm-1.34-7.68v-1.82h3.78v1.82h-3.78ZM77.2 14c-.48 0-.84-.12-1.07-.37a1.4 1.4 0 0 1-.33-.94c0-.4.1-.72.33-.97.24-.24.6-.36 1.07-.36s.83.12 1.06.37c.22.24.33.56.33.96 0 .37-.11.69-.33.94-.23.25-.58.37-1.06.37Zm8.94 10.97c-.84 0-1.58-.13-2.23-.4a4.87 4.87 0 0 1-1.63-1.08 4.92 4.92 0 0 1-1.02-1.58 5.07 5.07 0 0 1-.33-1.82v-.37c0-.65.12-1.27.35-1.85a4.92 4.92 0 0 1 1.04-1.58 4.72 4.72 0 0 1 1.65-1.08 5.6 5.6 0 0 1 2.17-.4c.81 0 1.54.13 2.18.4a4.55 4.55 0 0 1 1.64 1.08 4.93 4.93 0 0 1 1.39 3.43v.37a4.84 4.84 0 0 1-.36 1.82 4.68 4.68 0 0 1-1 1.58 4.87 4.87 0 0 1-1.63 1.08 5.7 5.7 0 0 1-2.22.4Zm0-2.08c.6 0 1.1-.13 1.51-.38.41-.27.72-.63.94-1.07.2-.46.31-.97.31-1.54 0-.59-.11-1.1-.33-1.54a2.4 2.4 0 0 0-.95-1.07c-.41-.27-.9-.4-1.48-.4a2.56 2.56 0 0 0-2.44 1.47 3.4 3.4 0 0 0-.33 1.54c0 .57.1 1.08.32 1.54.22.44.53.8.94 1.07.41.25.92.38 1.51.38Zm15.08 2.07a4.56 4.56 0 0 1-1.84-.37 4.3 4.3 0 0 1-1.46-1.03 4.72 4.72 0 0 1-.95-1.54 5.45 5.45 0 0 1-.33-1.93v-.37c0-.67.1-1.3.31-1.9a5.02 5.02 0 0 1 .92-1.56 4.17 4.17 0 0 1 1.42-1.03 4.43 4.43 0 0 1 1.86-.39c.75 0 1.4.16 1.97.5.57.3 1.03.78 1.37 1.43.34.64.52 1.44.56 2.41l-.72-.84v-6.47h2.44v12.77h-1.93V20.6h.42a5.36 5.36 0 0 1-.6 2.43 3.67 3.67 0 0 1-3.44 1.93Zm.55-2.05a2.46 2.46 0 0 0 2.26-1.26c.25-.42.37-.91.37-1.47v-.7a2.5 2.5 0 0 0-.37-1.4 2.4 2.4 0 0 0-.97-.88 2.75 2.75 0 0 0-1.3-.31c-.52 0-.99.13-1.4.38a2.6 2.6 0 0 0-.95 1.05c-.22.46-.33.99-.33 1.6 0 .6.11 1.13.35 1.59.23.44.55.79.95 1.03.4.25.87.37 1.38.37Zm12.36 2.06c-.84 0-1.58-.13-2.23-.4a4.88 4.88 0 0 1-1.63-1.08 4.93 4.93 0 0 1-1.02-1.58 5.08 5.08 0 0 1-.33-1.82v-.37c0-.65.11-1.27.35-1.85a4.9 4.9 0 0 1 1.03-1.58 4.72 4.72 0 0 1 1.65-1.08 5.6 5.6 0 0 1 2.18-.4c.81 0 1.54.13 2.18.4a4.55 4.55 0 0 1 1.63 1.08 4.93 4.93 0 0 1 1.39 3.43v.37c0 .63-.12 1.24-.35 1.82a4.69 4.69 0 0 1-1 1.58 4.88 4.88 0 0 1-1.63 1.08 5.7 5.7 0 0 1-2.22.4Zm0-2.08c.6 0 1.1-.13 1.51-.38.41-.27.72-.63.93-1.07.21-.46.32-.97.32-1.54 0-.59-.11-1.1-.33-1.54a2.4 2.4 0 0 0-.95-1.07c-.41-.27-.9-.4-1.48-.4-.57 0-1.07.13-1.5.4-.4.26-.72.61-.94 1.07-.22.44-.33.95-.33 1.54 0 .57.1 1.08.31 1.54.23.44.54.8.95 1.07.41.25.92.38 1.51.38Zm17.1 2.08a6.7 6.7 0 0 1-2.99-.6 5.9 5.9 0 0 1-2.03-1.6 6.72 6.72 0 0 1-1.15-2.14 7.3 7.3 0 0 1-.37-2.22v-.38c0-.8.13-1.58.37-2.35a6.43 6.43 0 0 1 1.18-2.1 5.67 5.67 0 0 1 2-1.5 6.75 6.75 0 0 1 2.9-.58c1.16 0 2.17.2 3.02.63a5.06 5.06 0 0 1 2.07 1.75c.52.75.83 1.62.93 2.62h-2.5a3 3 0 0 0-.64-1.47 2.85 2.85 0 0 0-1.21-.9 4.21 4.21 0 0 0-1.67-.32c-.63 0-1.2.1-1.69.33-.49.21-.9.52-1.23.91a4.25 4.25 0 0 0-.75 1.4 6.1 6.1 0 0 0-.25 1.79c0 .63.09 1.21.25 1.75.18.53.43 1 .77 1.41.34.4.76.71 1.25.93.5.22 1.08.33 1.74.33.96 0 1.77-.23 2.42-.7a2.94 2.94 0 0 0 1.21-2h2.51a5.8 5.8 0 0 1-.93 2.51c-.5.76-1.19 1.37-2.07 1.82-.88.46-1.92.68-3.14.68Zm8.18-.33V11.87h2.44v12.77h-2.44Zm-1.2-10.95v-1.82h3.64v1.82h-3.64Zm6.88 10.95v-9.5h2.44v9.5h-2.44Zm-1.33-7.68v-1.82h3.77v1.82h-3.77Zm2.23-2.96c-.48 0-.84-.12-1.07-.37a1.4 1.4 0 0 1-.34-.94c0-.4.11-.72.34-.96.23-.25.59-.37 1.07-.37s.83.12 1.05.37c.22.24.34.56.34.96 0 .37-.12.69-.34.94-.22.25-.57.37-1.05.37Zm4.36 10.64v-9.5h1.93v4.08h-.18c0-.96.13-1.76.37-2.4.25-.65.61-1.14 1.1-1.47.48-.34 1.1-.5 1.82-.5h.1c.74 0 1.35.16 1.83.5.49.33.85.82 1.09 1.47.24.64.37 1.44.37 2.4h-.62c0-.96.12-1.76.37-2.4.26-.65.63-1.14 1.1-1.47.5-.34 1.1-.5 1.83-.5h.1c.75 0 1.36.16 1.85.5.5.33.86.82 1.1 1.47.27.64.4 1.44.4 2.4v5.42h-2.45V19c0-.6-.15-1.07-.45-1.42a1.6 1.6 0 0 0-1.3-.54c-.56 0-1.02.19-1.35.56-.34.36-.51.85-.51 1.47v5.58h-2.45V19c0-.6-.15-1.07-.45-1.42-.3-.36-.74-.54-1.3-.54s-1.01.19-1.35.56c-.34.36-.51.85-.51 1.47v5.58h-2.44Zm22.94 0v-2.82h-.4V18.7c0-.55-.14-.96-.4-1.23-.28-.26-.7-.4-1.25-.4a46.67 46.67 0 0 0-2.3.07c-.41.01-.78.03-1.11.06v-2.07l.91-.07a33.8 33.8 0 0 1 2.05-.05c1 0 1.8.13 2.45.38.65.26 1.15.66 1.47 1.21.34.55.51 1.27.51 2.15v5.9h-1.93Zm-3.07.25c-.7 0-1.3-.13-1.83-.37a2.87 2.87 0 0 1-1.21-1.05c-.28-.46-.42-1-.42-1.65 0-.7.17-1.27.5-1.71.36-.45.84-.78 1.46-1a6.7 6.7 0 0 1 2.22-.33h2.21v1.45h-2.25c-.56 0-1 .14-1.3.42-.29.27-.44.62-.44 1.05 0 .43.15.78.44 1.05.3.27.74.4 1.3.4.34 0 .65-.06.93-.17.3-.13.54-.34.72-.63.2-.3.31-.71.34-1.23l.6.69a3.93 3.93 0 0 1-.5 1.68c-.26.45-.62.8-1.09 1.05-.45.23-1.02.35-1.68.35Z" fill="#FAFAFA"/><path fill-rule="evenodd" clip-rule="evenodd" d="M7.29 26.3a11.53 11.53 0 0 1 0-16.35 11.63 11.63 0 0 1 16.4 0 11.53 11.53 0 0 1 .57 15.75L22 23.44v-7.32a.83.83 0 0 0-.83-.82.83.83 0 0 0-.83.83v5.66l-2.58-2.57v-3.2a.83.83 0 0 0-.83-.83.83.83 0 0 0-.83.82v1.55l-1.78-1.77a.83.83 0 0 0-1.17 0 .82.82 0 0 0 0 1.17l5.04 5.02H13.1a.83.83 0 1 0 0 1.66h6.63a.83.83 0 0 0 .1-.01l3.26 3.24a11.63 11.63 0 0 1-15.8-.57Zm17.6-17.54c5 4.98 5.2 12.93.58 18.14l1.18 1.17.28-.28a.42.42 0 0 1 .6 0l5.27 5.25a.42.42 0 0 1 0 .6l-1.74 1.74a.42.42 0 0 1-.6 0l-5.28-5.26a.42.42 0 0 1 0-.6l.3-.28-1.19-1.17a13.33 13.33 0 0 1-18.2-.57 13.22 13.22 0 0 1 0-18.74 13.33 13.33 0 0 1 18.8 0Z" fill="#7FE389"/></svg>