<svg fill="none" xmlns="http://www.w3.org/2000/svg" viewBox="0 0 180 35"><path d="M41.04 24.21v-2.3h2.65c.67 0 1.26-.1 1.78-.3a3.79 3.79 0 0 0 2.16-2.2c.2-.5.3-1.07.3-1.7 0-.63-.1-1.2-.3-1.7a3.54 3.54 0 0 0-.83-1.32c-.36-.36-.8-.63-1.33-.82a5.2 5.2 0 0 0-1.78-.28h-2.65v-2.31h2.5c1.15 0 2.17.17 3.03.5a5.96 5.96 0 0 1 3.88 5.75v.38c0 .77-.14 1.53-.44 2.28a6.02 6.02 0 0 1-3.44 3.48c-.86.36-1.88.54-3.04.54h-2.49Zm-2.14 0V11.28h2.5V24.2h-2.5ZM52.95 24.14v-9.5h2.44v9.5h-2.44Zm-1.34-7.68v-1.82h3.78v1.82h-3.78Zm2.23-2.96c-.48 0-.83-.12-1.07-.37a1.4 1.4 0 0 1-.33-.94c0-.4.11-.72.33-.96.24-.25.6-.37 1.07-.37.48 0 .84.12 1.06.37.22.24.33.56.33.96 0 .37-.1.69-.33.94-.22.25-.58.37-1.06.37ZM63.98 24.14v-2.82h-.4V18.2c0-.55-.14-.96-.4-1.22-.28-.27-.7-.4-1.25-.4a38.08 38.08 0 0 0-2.3.06c-.41.02-.78.03-1.11.06v-2.07l.91-.07a32.01 32.01 0 0 1 2.05-.05c1 0 1.8.13 2.45.38.65.26 1.15.66 1.47 1.21.34.55.51 1.27.51 2.15v5.9h-1.93Zm-3.07.25c-.7 0-1.3-.13-1.83-.37-.51-.25-.92-.6-1.21-1.05-.28-.46-.42-1-.42-1.65 0-.7.17-1.27.5-1.71.36-.44.84-.78 1.46-1a6.69 6.69 0 0 1 2.22-.33h2.21v1.45h-2.25c-.56 0-1 .14-1.3.42-.29.27-.44.62-.44 1.05 0 .43.15.78.44 1.05.3.27.74.4 1.3.4.34 0 .65-.05.93-.17.3-.13.54-.34.72-.63.2-.3.31-.71.34-1.23l.6.69a3.95 3.95 0 0 1-.5 1.68c-.26.45-.62.8-1.09 1.05-.45.23-1.02.35-1.68.35Zm-.27-10.96 1.57-3.59h2.53l-2 3.6h-2.1ZM68.53 24.14v-9.5h1.93v4.02h-.05c0-1.36.29-2.4.87-3.1.59-.7 1.45-1.04 2.59-1.04h.35v2.11h-.67c-.82 0-1.46.23-1.91.67-.45.43-.67 1.06-.67 1.89v4.95h-2.44ZM76.3 24.14v-9.5h2.45v9.5H76.3Zm-1.33-7.68v-1.82h3.78v1.82h-3.78Zm2.23-2.96c-.48 0-.84-.12-1.07-.37a1.4 1.4 0 0 1-.33-.94c0-.4.1-.72.33-.96.23-.25.6-.37 1.07-.37.48 0 .83.12 1.06.37.22.24.33.56.33.96 0 .37-.11.69-.33.94-.23.25-.58.37-1.06.37ZM86.14 24.47c-.84 0-1.58-.13-2.23-.4A4.87 4.87 0 0 1 82.28 23a4.92 4.92 0 0 1-1.35-3.4v-.37a4.93 4.93 0 0 1 1.39-3.43c.45-.46 1-.82 1.65-1.08.64-.27 1.37-.4 2.17-.4.81 0 1.54.13 2.18.4.65.26 1.19.62 1.63 1.08a4.93 4.93 0 0 1 1.39 3.43v.37a4.84 4.84 0 0 1-2.98 4.48c-.65.27-1.38.4-2.22.4Zm0-2.08c.6 0 1.1-.13 1.51-.38.41-.27.72-.63.93-1.07.22-.46.32-.97.32-1.54 0-.58-.11-1.1-.33-1.54a2.63 2.63 0 0 0-2.42-1.47c-.58 0-1.08.13-1.5.4-.4.26-.72.61-.95 1.07-.22.44-.33.96-.33 1.54 0 .57.1 1.08.32 1.54.22.44.53.8.94 1.07.41.25.92.38 1.51.38ZM101.22 24.46a4.3 4.3 0 0 1-3.3-1.4 4.73 4.73 0 0 1-.95-1.54 5.45 5.45 0 0 1-.33-1.93v-.37a5.02 5.02 0 0 1 1.23-3.47 4.43 4.43 0 0 1 5.25-.93c.57.33 1.03.8 1.37 1.45.34.64.52 1.44.56 2.41l-.72-.84v-6.47h2.44v12.77h-1.93V20.1h.42a5.36 5.36 0 0 1-.6 2.43 3.66 3.66 0 0 1-1.44 1.45c-.58.32-1.25.48-2 .48Zm.55-2.05c.48 0 .91-.1 1.31-.32s.72-.53.95-.94c.25-.42.37-.91.37-1.47v-.7a2.4 2.4 0 0 0-1.33-2.27c-.4-.22-.84-.32-1.3-.32a2.6 2.6 0 0 0-2.36 1.43c-.22.46-.33.99-.33 1.6 0 .6.12 1.13.35 1.59.23.44.55.79.95 1.03.4.25.87.37 1.39.37ZM114.13 24.47c-.84 0-1.58-.13-2.23-.4a4.88 4.88 0 0 1-1.63-1.08 4.93 4.93 0 0 1-1.35-3.4v-.37a4.94 4.94 0 0 1 1.38-3.43c.46-.46 1.01-.82 1.65-1.08.65-.27 1.37-.4 2.18-.4s1.54.13 2.18.4c.64.26 1.19.62 1.63 1.08a4.94 4.94 0 0 1 1.39 3.43v.37a4.84 4.84 0 0 1-2.98 4.48c-.65.27-1.39.4-2.22.4Zm0-2.08c.6 0 1.1-.13 1.51-.38.41-.27.72-.63.93-1.07.21-.46.32-.97.32-1.54 0-.58-.11-1.1-.33-1.54a2.63 2.63 0 0 0-2.42-1.47c-.58 0-1.08.13-1.5.4-.41.26-.73.61-.95 1.07-.22.44-.33.96-.33 1.54 0 .57.1 1.08.31 1.54.23.44.54.8.95 1.07.41.25.91.38 1.51.38ZM131.23 24.47a6.7 6.7 0 0 1-2.99-.6 5.9 5.9 0 0 1-2.03-1.6 7.3 7.3 0 0 1-1.51-4.36v-.38c0-.8.12-1.58.36-2.35.26-.77.65-1.47 1.18-2.1a5.66 5.66 0 0 1 2-1.5 6.75 6.75 0 0 1 2.9-.58c1.16 0 2.17.2 3.02.63.87.4 1.56.99 2.07 1.75.52.75.83 1.62.93 2.62h-2.5a3 3 0 0 0-1.85-2.38 4.2 4.2 0 0 0-1.67-.31c-.63 0-1.2.11-1.69.33-.49.21-.9.51-1.22.91-.33.4-.58.86-.76 1.4a6.1 6.1 0 0 0-.25 1.79c0 .63.09 1.21.25 1.75.18.53.43 1 .77 1.41.34.4.76.71 1.25.93.5.22 1.08.33 1.74.33.96 0 1.77-.23 2.42-.7a2.94 2.94 0 0 0 1.21-2h2.51a5.8 5.8 0 0 1-.93 2.51c-.5.76-1.2 1.37-2.07 1.82-.88.46-1.92.68-3.14.68ZM139.4 24.14V11.37h2.45v12.77h-2.44Zm-1.19-10.95v-1.82h3.64v1.82h-3.64ZM145.1 24.14v-9.5h2.43v9.5h-2.44Zm-1.34-7.68v-1.82h3.77v1.82h-3.77Zm2.23-2.96c-.48 0-.84-.12-1.07-.37a1.4 1.4 0 0 1-.34-.94c0-.4.11-.72.34-.96.23-.25.59-.37 1.07-.37.48 0 .83.12 1.05.37.22.24.34.56.34.96 0 .37-.12.69-.34.94-.22.25-.57.37-1.05.37ZM150.35 24.14v-9.5h1.93v4.08h-.18c0-.96.13-1.76.37-2.4.25-.65.61-1.14 1.09-1.47.5-.34 1.1-.5 1.83-.5h.1c.74 0 1.35.16 1.83.5.49.33.85.82 1.09 1.47.24.64.37 1.44.37 2.4h-.62c0-.96.12-1.76.37-2.4.26-.65.63-1.14 1.1-1.47.5-.34 1.1-.5 1.83-.5h.1c.75 0 1.36.16 1.85.5.5.33.86.82 1.1 1.47.27.64.4 1.44.4 2.4v5.42h-2.45V18.5c0-.6-.15-1.07-.45-1.42a1.6 1.6 0 0 0-1.3-.54c-.56 0-1.02.19-1.35.56-.34.36-.51.85-.51 1.47v5.58h-2.44V18.5c0-.6-.16-1.07-.46-1.42a1.6 1.6 0 0 0-1.3-.54c-.56 0-1.01.19-1.35.56-.34.36-.51.85-.51 1.47v5.58h-2.44ZM173.3 24.14v-2.82h-.41V18.2c0-.55-.14-.96-.4-1.22-.28-.27-.7-.4-1.25-.4a38.03 38.03 0 0 0-2.3.06c-.41.02-.78.03-1.11.06v-2.07l.91-.07a31.99 31.99 0 0 1 2.05-.05c1 0 1.8.13 2.45.38.65.26 1.15.66 1.47 1.21.34.55.51 1.27.51 2.15v5.9h-1.93Zm-3.08.25c-.7 0-1.3-.13-1.83-.37-.51-.25-.92-.6-1.21-1.05-.28-.46-.42-1-.42-1.65 0-.7.17-1.27.5-1.71.36-.44.84-.78 1.47-1a6.69 6.69 0 0 1 2.2-.33h2.22v1.45h-2.25c-.56 0-1 .14-1.3.42-.29.27-.44.62-.44 1.05 0 .43.15.78.44 1.05.3.27.74.4 1.3.4.34 0 .65-.05.93-.17.3-.13.54-.34.72-.63.2-.3.31-.71.34-1.23l.6.69a3.93 3.93 0 0 1-.5 1.68c-.25.45-.62.8-1.09 1.05-.45.23-1.02.35-1.68.35Z" fill="#172030"/><path fill-rule="evenodd" clip-rule="evenodd" d="M7.29 25.8a11.53 11.53 0 0 1 0-16.35 11.63 11.63 0 0 1 16.4 0 11.53 11.53 0 0 1 .57 15.75L22 22.94v-7.32a.83.83 0 0 0-1.66 0v5.67l-2.58-2.57v-3.2a.83.83 0 0 0-1.66 0v1.54l-1.78-1.77a.83.83 0 0 0-1.17 0 .83.83 0 0 0 0 1.17l5.04 5.02H13.1a.83.83 0 1 0 0 1.65H19.83l3.26 3.24a11.63 11.63 0 0 1-15.8-.57Zm17.6-17.54c5 4.98 5.2 12.93.58 18.14l1.18 1.17.28-.28a.43.43 0 0 1 .6 0l5.27 5.25c.17.16.17.43 0 .6l-1.75 1.74a.43.43 0 0 1-.6 0l-5.27-5.26a.42.42 0 0 1 0-.6l.3-.28-1.19-1.17A13.33 13.33 0 0 1 6.1 27a13.22 13.22 0 0 1 0-18.74 13.33 13.33 0 0 1 18.8 0Z" fill="#52CE5F"/></svg>