<?xml version="1.0" encoding="utf-8"?>
<!-- Generator: Adobe Illustrator 16.0.0, SVG Export Plug-In . SVG Version: 6.00 Build 0)  -->
<!DOCTYPE svg PUBLIC "-//W3C//DTD SVG 1.1//EN" "http://www.w3.org/Graphics/SVG/1.1/DTD/svg11.dtd">
<svg version="1.1" id="Layer_1" xmlns="http://www.w3.org/2000/svg" xmlns:xlink="http://www.w3.org/1999/xlink" x="0px" y="0px"
	 width="137.051px" height="28.597px" viewBox="0 0 137.051 28.597" enable-background="new 0 0 137.051 28.597"
	 xml:space="preserve">
<path fill="#A6B67C" d="M16.668,4.103C6.312,8.843,2.403,12.213,4.402,13.309c0.544-0.011,1.52-0.019,2.816,0.025
	c3.78,0.127,7.487-2.118,10.51-4.31c1.89-1.371,3.494-1.993,5.229-3.021c0.445-0.264,0.542-0.869,0.201-1.261
	c-0.653-0.658-1.346-2.293-2.428-2.234C20.035,2.663,18.775,3.066,16.668,4.103"/>
<path fill="#496B32" d="M17.391,13.323c-3.207,0.019,4.292-4.327,6.792-5.954c0.505-0.329,1.196-0.112,1.403,0.442
	C28.314,15.188,25.35,13.02,17.391,13.323"/>
<path fill="#496B32" d="M21.719,22.658c1.274,0.734,2.94,0.224,3.531-1.09c0.003-0.008,0.008-0.017,0.012-0.024
	c0.548-1.222,0.867-2.538,1.216-3.964c0.26-1.063-0.575-2.079-1.707-2.079l-12.284-0.263C12.487,15.238,9.409,15.573,21.719,22.658"
	/>
<path fill="#496B32" d="M1.54,15.5H1.192c-0.464,0-0.839,0.363-0.839,0.81v11.408c0,0.261,0.127,0.516,0.355,0.652
	c0.04,0.024,0.077,0.039,0.115,0.039c3.05,0.033,6.106,0.152,9.157,0.187c0.638,0.008,0.972-0.729,0.533-1.177
	c-4.597-4.684-5.953-7.346-7.975-11.314c-0.001-0.002-0.002-0.004-0.003-0.006C2.35,15.732,1.963,15.5,1.54,15.5"/>
<path fill="#496B32" d="M6.754,15.5H5.307c-0.544,0-0.926,0.531-0.722,1.017c0.749,1.799,2.726,4.352,4.267,6.146
	c1.342,1.563,4.765,4.943,5.211,5.404c0.65,0.674,1.707,0.455,2.642,0.399c2.673-0.162,4.684-1.378,6.215-3.138
	c0.101-0.115,0.064-0.289-0.071-0.36c-4.248-2.237-9.264-5.188-11.335-7.399C10.292,16.269,8.576,15.5,6.754,15.5"/>
<path fill="#496B32" d="M39.215,0.034h15.789c0.012,0.008,0.023,0.02,0.038,0.024c0.534,0.138,0.751,0.418,0.751,0.97
	c0,2.234,0.005,4.468-0.005,6.702c-0.002,0.339-0.034,0.683-0.104,1.014c-0.547,2.594-2.744,4.383-5.39,4.384
	c-6.738,0.004-13.477,0.002-20.215,0.001c-0.582,0-0.939-0.357-0.942-0.941c-0.003-0.488,0.002-0.977-0.002-1.465
	c-0.006-0.739,0.043-1.473,0.187-2.2c0.492-2.491,1.724-4.544,3.688-6.146c1.636-1.334,3.516-2.09,5.621-2.283
	C38.825,0.076,39.02,0.054,39.215,0.034"/>
<path fill="#496B32" d="M40.27,15.397c3.369,0,6.738,0,10.106,0c2.456,0,4.736,1.851,5.227,4.261
	c0.084,0.41,0.127,0.836,0.129,1.254c0.013,2.215,0.006,4.428,0.006,6.642c0,0.442-0.234,0.771-0.632,0.881
	c-0.077,0.022-0.16,0.028-0.24,0.028c-5.212,0.002-10.423,0.021-15.634-0.008c-2.246-0.012-4.27-0.765-6.047-2.131
	c-2.083-1.603-3.381-3.707-3.91-6.281c-0.134-0.652-0.194-1.315-0.194-1.983c-0.001-0.575,0.012-1.151-0.004-1.726
	c-0.014-0.561,0.436-0.945,0.948-0.943C33.44,15.403,36.855,15.397,40.27,15.397"/>
<path fill="#EC7A23" d="M5.323,0.766c0.336-0.289-0.186-0.794-0.537-0.754c0,0-0.689,0.01-2.79-0.012
	c-2.103-0.023-1.73,2.531-1.73,2.531s-0.337-3.65,0.001,0.038c-0.014,0.6-0.013,1.089-0.013,1.089
	c0.694,1.856,1.935-1.256,2.985-1.731C4.035,1.447,4.754,1.058,5.323,0.766"/>
<path fill="#496B32" d="M12.971,0.083C8.685-0.049,5.148,1.982,0.741,6.466C0.428,6.785,0.256,7.21,0.263,7.649L0.3,10.904
	c0.008,0.617,0.718,0.984,1.256,0.649c1.766-1.101,6.286-5.046,10.589-7.329c2.835-1.505,5.813-1.553,7.006-2.198
	C20.525,0.536,13.86-0.043,12.971,0.083"/>
<g>
	<path fill="#496B32" d="M61.676,12.598V2.574h4.554c1.088,0,2.048,0.208,2.878,0.623c0.83,0.415,1.479,0.995,1.947,1.74
		s0.702,1.627,0.702,2.649c0,1.012-0.234,1.893-0.702,2.643c-0.468,0.749-1.117,1.331-1.947,1.746
		c-0.83,0.416-1.79,0.623-2.878,0.623H61.676z M63.996,10.693h2.119c0.669,0,1.248-0.127,1.74-0.379
		c0.491-0.254,0.873-0.613,1.146-1.082c0.272-0.467,0.408-1.017,0.408-1.646c0-0.639-0.136-1.191-0.408-1.654
		c-0.272-0.462-0.654-0.82-1.146-1.073c-0.492-0.253-1.071-0.38-1.74-0.38h-2.119V10.693z"/>
	<path fill="#496B32" d="M73.503,12.598V2.574h2.319v10.023H73.503z"/>
	<path fill="#496B32" d="M76.882,12.598L81.35,2.574h2.291l4.481,10.023h-2.434l-3.666-8.849h0.916l-3.68,8.849H76.882z
		 M79.116,10.449l0.616-1.761h5.155l0.63,1.761H79.116z M81.193,1.758l1.933-2.062h2.405l-2.592,2.062H81.193z"/>
	<path fill="#496B32" d="M89.168,12.598V2.574h4.339c0.897,0,1.67,0.146,2.319,0.437c0.649,0.291,1.15,0.708,1.504,1.253
		c0.353,0.544,0.529,1.193,0.529,1.947c0,0.745-0.177,1.387-0.529,1.926c-0.354,0.54-0.854,0.953-1.504,1.239
		s-1.422,0.43-2.319,0.43h-3.05l1.03-1.017v3.809H89.168z M91.488,9.047l-1.03-1.088h2.921c0.716,0,1.25-0.156,1.604-0.467
		c0.354-0.31,0.53-0.736,0.53-1.281c0-0.553-0.177-0.983-0.53-1.288c-0.354-0.306-0.888-0.458-1.604-0.458h-2.921l1.03-1.103V9.047z
		 M95.541,12.598l-2.506-3.637h2.478l2.534,3.637H95.541z"/>
	<path fill="#496B32" d="M99.693,12.598V2.574h2.319v10.023H99.693z"/>
	<path fill="#496B32" d="M109.257,12.77c-0.792,0-1.524-0.129-2.197-0.387c-0.674-0.258-1.256-0.62-1.747-1.088
		c-0.492-0.468-0.874-1.018-1.146-1.646c-0.272-0.631-0.408-1.318-0.408-2.063s0.136-1.432,0.408-2.062
		c0.271-0.63,0.656-1.179,1.152-1.646s1.079-0.831,1.747-1.088s1.394-0.387,2.177-0.387c0.792,0,1.52,0.129,2.184,0.387
		c0.663,0.258,1.24,0.621,1.732,1.088c0.491,0.468,0.876,1.014,1.152,1.64c0.277,0.625,0.415,1.315,0.415,2.069
		c0,0.744-0.138,1.435-0.415,2.069c-0.276,0.635-0.661,1.184-1.152,1.646c-0.492,0.464-1.069,0.823-1.732,1.081
		C110.763,12.641,110.041,12.77,109.257,12.77z M109.244,10.793c0.448,0,0.861-0.076,1.238-0.229s0.709-0.373,0.995-0.658
		c0.286-0.287,0.509-0.625,0.666-1.018c0.157-0.391,0.236-0.825,0.236-1.303c0-0.477-0.079-0.912-0.236-1.303
		c-0.157-0.392-0.377-0.73-0.659-1.017c-0.281-0.286-0.613-0.506-0.995-0.659c-0.382-0.152-0.797-0.229-1.245-0.229
		c-0.449,0-0.862,0.077-1.239,0.229c-0.377,0.153-0.708,0.373-0.995,0.659c-0.286,0.287-0.508,0.625-0.666,1.017
		c-0.157,0.391-0.235,0.826-0.235,1.303c0,0.468,0.078,0.9,0.235,1.296c0.158,0.396,0.378,0.737,0.659,1.024
		c0.281,0.285,0.613,0.506,0.995,0.658S108.794,10.793,109.244,10.793z"/>
	<path fill="#496B32" d="M119.767,12.77c-0.802,0-1.57-0.107-2.305-0.322c-0.735-0.215-1.327-0.494-1.775-0.838l0.787-1.746
		c0.43,0.305,0.938,0.556,1.525,0.751c0.587,0.196,1.181,0.294,1.782,0.294c0.458,0,0.828-0.045,1.109-0.137
		c0.282-0.09,0.489-0.217,0.623-0.379s0.201-0.349,0.201-0.559c0-0.268-0.105-0.479-0.315-0.637c-0.21-0.158-0.487-0.287-0.83-0.387
		c-0.344-0.101-0.724-0.195-1.139-0.287c-0.415-0.09-0.831-0.202-1.246-0.336s-0.795-0.306-1.138-0.516
		c-0.344-0.21-0.623-0.486-0.838-0.83s-0.322-0.783-0.322-1.318c0-0.573,0.155-1.095,0.465-1.568
		c0.311-0.473,0.778-0.85,1.403-1.131c0.625-0.281,1.411-0.422,2.355-0.422c0.631,0,1.251,0.074,1.861,0.222
		c0.611,0.148,1.15,0.37,1.618,0.666l-0.716,1.761c-0.468-0.267-0.936-0.465-1.403-0.594c-0.468-0.128-0.926-0.193-1.374-0.193
		c-0.449,0-0.816,0.052-1.103,0.157c-0.287,0.105-0.492,0.241-0.616,0.408s-0.186,0.36-0.186,0.58c0,0.257,0.104,0.465,0.314,0.623
		s0.487,0.284,0.831,0.38c0.343,0.096,0.723,0.191,1.138,0.286c0.415,0.096,0.831,0.206,1.246,0.329
		c0.415,0.125,0.795,0.291,1.139,0.502c0.343,0.209,0.622,0.486,0.837,0.83s0.322,0.777,0.322,1.303
		c0,0.563-0.157,1.079-0.473,1.547c-0.314,0.468-0.785,0.845-1.41,1.131C121.512,12.627,120.722,12.77,119.767,12.77z"/>
</g>
<g>
	<path fill="#496B32" d="M61.658,27.997V17.974h4.554c1.088,0,2.048,0.208,2.878,0.623s1.479,0.995,1.947,1.739
		c0.468,0.745,0.702,1.628,0.702,2.649c0,1.013-0.234,1.893-0.702,2.642c-0.468,0.75-1.117,1.332-1.947,1.747
		s-1.79,0.623-2.878,0.623H61.658z M63.977,26.093h2.119c0.669,0,1.248-0.126,1.74-0.38c0.491-0.252,0.873-0.613,1.146-1.08
		c0.272-0.469,0.408-1.018,0.408-1.647c0-0.64-0.136-1.19-0.408-1.653s-0.654-0.821-1.146-1.074c-0.492-0.253-1.071-0.38-1.74-0.38
		h-2.119V26.093z"/>
	<path fill="#496B32" d="M78.353,28.169c-0.792,0-1.524-0.129-2.197-0.387c-0.674-0.258-1.256-0.62-1.747-1.089
		c-0.492-0.467-0.874-1.016-1.146-1.646c-0.272-0.629-0.408-1.316-0.408-2.062s0.136-1.432,0.408-2.062
		c0.271-0.631,0.656-1.18,1.152-1.646c0.496-0.469,1.079-0.831,1.747-1.089s1.394-0.387,2.177-0.387c0.792,0,1.52,0.129,2.184,0.387
		c0.663,0.258,1.24,0.62,1.732,1.089c0.491,0.467,0.876,1.014,1.152,1.639c0.277,0.625,0.415,1.315,0.415,2.069
		c0,0.745-0.138,1.435-0.415,2.069c-0.276,0.635-0.661,1.184-1.152,1.646c-0.492,0.463-1.069,0.823-1.732,1.081
		C79.859,28.04,79.136,28.169,78.353,28.169z M78.339,26.193c0.448,0,0.861-0.076,1.238-0.229s0.709-0.372,0.995-0.659
		c0.286-0.286,0.509-0.625,0.666-1.016c0.157-0.393,0.236-0.826,0.236-1.304s-0.079-0.911-0.236-1.304
		c-0.157-0.391-0.377-0.729-0.659-1.016c-0.281-0.287-0.613-0.506-0.995-0.659c-0.382-0.152-0.797-0.229-1.245-0.229
		c-0.449,0-0.862,0.077-1.239,0.229c-0.377,0.153-0.708,0.372-0.995,0.659c-0.286,0.286-0.508,0.625-0.666,1.016
		c-0.157,0.393-0.235,0.826-0.235,1.304c0,0.468,0.078,0.899,0.235,1.296c0.158,0.396,0.378,0.737,0.659,1.023
		c0.281,0.287,0.613,0.506,0.995,0.659S77.89,26.193,78.339,26.193z"/>
	<path fill="#496B32" d="M94.419,28.169c-0.773,0-1.491-0.126-2.155-0.38c-0.663-0.252-1.238-0.613-1.726-1.08
		c-0.486-0.469-0.866-1.018-1.138-1.647c-0.272-0.63-0.408-1.321-0.408-2.076c0-0.754,0.136-1.446,0.408-2.076
		c0.271-0.63,0.653-1.179,1.146-1.647c0.491-0.467,1.066-0.827,1.726-1.08c0.658-0.253,1.379-0.38,2.162-0.38
		c0.868,0,1.653,0.15,2.355,0.451c0.701,0.301,1.291,0.742,1.769,1.325l-1.489,1.374c-0.344-0.392-0.726-0.685-1.146-0.881
		c-0.421-0.195-0.879-0.294-1.375-0.294c-0.468,0-0.897,0.077-1.289,0.229c-0.392,0.153-0.729,0.372-1.017,0.659
		c-0.286,0.286-0.508,0.625-0.666,1.016c-0.157,0.393-0.235,0.826-0.235,1.304s0.078,0.911,0.235,1.304
		c0.158,0.391,0.38,0.729,0.666,1.016c0.287,0.287,0.625,0.506,1.017,0.659s0.821,0.229,1.289,0.229
		c0.496,0,0.954-0.098,1.375-0.294c0.42-0.196,0.802-0.494,1.146-0.896l1.489,1.375c-0.478,0.582-1.067,1.026-1.769,1.332
		C96.087,28.016,95.297,28.169,94.419,28.169z"/>
	<path fill="#496B32" d="M100.118,27.997V17.974h2.319v8.134h5.026v1.89H100.118z"/>
	<path fill="#496B32" d="M108.767,27.997V17.974h2.319v10.023H108.767z"/>
	<path fill="#496B32" d="M113.463,27.997V17.974h1.919l4.267,7.073h-1.017l4.195-7.073h1.905l0.028,10.023h-2.177l-0.014-6.687h0.4
		l-3.351,5.627h-1.045l-3.423-5.627h0.487v6.687H113.463z"/>
	<path fill="#496B32" d="M125.82,27.997l4.468-10.023h2.291l4.481,10.023h-2.434l-3.666-8.849h0.916l-3.68,8.849H125.82z
		 M128.053,25.85l0.616-1.762h5.155l0.63,1.762H128.053z"/>
</g>
</svg>
