<svg width="229" height="39" fill="none" xmlns="http://www.w3.org/2000/svg"><path d="M90 27.7v-2.3h2.7a5 5 0 0 0 1.8-.3 3.8 3.8 0 0 0 2.1-2.2c.2-.5.3-1 .3-1.7 0-.6 0-1.2-.3-1.7-.2-.5-.4-1-.8-1.3-.4-.4-.8-.6-1.3-.8-.5-.2-1.1-.3-1.8-.3H90v-2.3h2.5c1.2 0 2.2.1 3 .5a6 6 0 0 1 4 5.7v.4a6.2 6.2 0 0 1-4 5.8c-.8.3-1.8.5-3 .5H90Zm-2.1 0v-13h2.5v13h-2.5ZM102 27.6v-9.5h2.4v9.5h-2.5Zm-1.4-7.6V18h3.8V20h-3.8Zm2.2-3c-.4 0-.8-.1-1-.4-.2-.2-.4-.5-.4-1 0-.3.2-.6.4-.9.2-.2.6-.3 1-.3.5 0 .9 0 1.1.3.2.3.3.6.3 1s0 .7-.3 1c-.2.2-.6.3-1 .3ZM113 27.6v-2.8h-.4v-3.1c0-.6-.2-1-.4-1.2-.3-.3-.7-.4-1.3-.4a38.1 38.1 0 0 0-3.4 0v-2a53.8 53.8 0 0 1 3-.1c1 0 1.8.1 2.4.4.7.2 1.2.6 1.5 1.2.3.5.5 1.3.5 2.1v6h-2Zm-3 .3c-.8 0-1.4-.1-2-.4-.4-.2-.8-.6-1.1-1a3 3 0 0 1-.5-1.7c0-.7.2-1.2.6-1.7.3-.4.8-.8 1.4-1 .6-.2 1.4-.3 2.2-.3h2.2v1.4h-2.2c-.6 0-1 .2-1.3.5-.3.2-.4.6-.4 1s.1.8.4 1c.3.3.7.5 1.3.5l1-.2c.2-.1.5-.4.6-.7.2-.3.4-.7.4-1.2l.6.7a4 4 0 0 1-.5 1.7c-.3.4-.6.8-1.1 1-.5.3-1 .4-1.7.4Zm-.4-11 1.6-3.6h2.5l-2 3.6h-2ZM117.5 27.6v-9.5h2v4c0-1.3.2-2.3.8-3 .6-.7 1.4-1 2.6-1h.3v2h-.7c-.8 0-1.4.3-1.9.7-.4.4-.6 1-.6 1.9v5h-2.5ZM125.3 27.6v-9.5h2.4v9.5h-2.4ZM124 20V18h3.7V20H124Zm2.2-3c-.5 0-.8-.1-1-.4-.3-.2-.4-.5-.4-1l.3-.9c.3-.2.6-.3 1.1-.3.5 0 .8 0 1 .3.3.3.4.6.4 1s-.1.7-.3 1c-.3.2-.6.3-1.1.3ZM135.1 28c-.8 0-1.5-.2-2.2-.4-.6-.3-1.2-.7-1.6-1.1a5 5 0 0 1-1.4-3.4v-.4a5 5 0 0 1 1.4-3.4c.5-.5 1-.8 1.7-1 .6-.4 1.3-.5 2.1-.5.9 0 1.6.1 2.2.4l1.7 1c.4.5.8 1 1 1.7l.3 1.8v.4a4.8 4.8 0 0 1-3 4.5c-.6.2-1.3.4-2.2.4Zm0-2.1c.6 0 1.1-.1 1.6-.4.4-.3.7-.6.9-1 .2-.5.3-1 .3-1.6 0-.6-.1-1.1-.3-1.5-.2-.5-.6-.9-1-1.1-.4-.3-.9-.4-1.5-.4-.5 0-1 .1-1.4.4-.5.2-.8.6-1 1-.2.5-.3 1-.3 1.6 0 .6 0 1 .3 1.5.2.5.5.8 1 1.1.3.3.8.4 1.4.4ZM150.2 28c-.6 0-1.3-.2-1.8-.4l-1.5-1-1-1.6c-.2-.6-.3-1.2-.3-2v-.3c0-.7.1-1.3.4-1.9a5 5 0 0 1 .9-1.5c.4-.5.8-.8 1.4-1a4.4 4.4 0 0 1 3.8 0c.6.3 1 .8 1.4 1.5.3.6.5 1.4.5 2.4l-.7-.9V15h2.5v12.7h-2v-4h.5c0 1-.3 1.8-.6 2.4-.4.7-.9 1.2-1.5 1.5-.6.3-1.2.5-2 .5Zm.6-2c.4 0 .9-.2 1.3-.4s.7-.5 1-1c.2-.4.3-.9.3-1.4v-.7c0-.6-.1-1-.4-1.4-.2-.4-.5-.7-1-.9-.3-.2-.8-.3-1.2-.3a2.6 2.6 0 0 0-2.4 1.4c-.2.5-.3 1-.3 1.6 0 .6 0 1.2.3 1.6.3.5.6.8 1 1 .4.3.8.4 1.4.4ZM163.1 28c-.8 0-1.6-.2-2.2-.4-.6-.3-1.2-.7-1.6-1.1a5 5 0 0 1-1.4-3.4v-.4a5 5 0 0 1 1.4-3.4c.5-.5 1-.8 1.7-1 .6-.4 1.3-.5 2.1-.5s1.6.1 2.2.4c.7.3 1.2.6 1.6 1 .5.5.8 1 1 1.7.3.6.4 1.2.4 1.8v.4a4.8 4.8 0 0 1-3 4.5c-.6.2-1.3.4-2.2.4Zm0-2.1a2.6 2.6 0 0 0 2.4-1.5c.3-.4.4-1 .4-1.5 0-.6-.1-1.1-.3-1.5-.3-.5-.6-.9-1-1.1-.4-.3-.9-.4-1.5-.4-.5 0-1 .1-1.5.4-.4.2-.7.6-1 1l-.2 1.6c0 .6 0 1 .3 1.5.2.5.5.8 1 1.1.3.3.8.4 1.4.4ZM180.2 28c-1.1 0-2.1-.2-3-.6a6 6 0 0 1-3.1-3.8c-.3-.7-.4-1.5-.4-2.2V21c0-.8.1-1.5.4-2.3a5.7 5.7 0 0 1 3.2-3.6c.8-.4 1.7-.6 2.8-.6 1.2 0 2.2.2 3 .6a5 5 0 0 1 2.1 1.8c.5.7.9 1.6 1 2.6h-2.5a3 3 0 0 0-1.9-2.4c-.5-.2-1-.3-1.7-.3a4 4 0 0 0-1.6.3c-.5.3-1 .6-1.3 1-.3.3-.6.8-.7 1.4a6 6 0 0 0 0 3.5c.1.5.4 1 .7 1.4l1.3 1c.5.2 1 .3 1.7.3a4 4 0 0 0 2.5-.7 3 3 0 0 0 1.2-2h2.5c-.1.9-.5 1.7-1 2.5-.5.7-1.2 1.3-2 1.8-1 .4-2 .7-3.2.7ZM188.4 27.6V15h2.4v12.7h-2.4Zm-1.2-11V15h3.6v1.8h-3.6ZM194 27.6v-9.5h2.5v9.5h-2.4Zm-1.2-7.6V18h3.7V20h-3.7Zm2.2-3c-.5 0-.8-.1-1-.4-.3-.2-.4-.5-.4-1 0-.3 0-.6.3-.9.3-.2.6-.3 1-.3.6 0 1 0 1.1.3.3.3.4.6.4 1s-.1.7-.4 1c-.2.2-.5.3-1 .3ZM199.3 27.6v-9.5h2v4.1h-.2c0-1 .1-1.7.4-2.4a3 3 0 0 1 1-1.5c.6-.3 1.2-.5 1.9-.5.8 0 1.4.2 2 .5.4.4.8.9 1 1.5.3.7.4 1.5.4 2.4h-.6c0-1 0-1.7.3-2.4a3 3 0 0 1 1.1-1.5c.5-.3 1.1-.5 1.9-.5.8 0 1.4.2 2 .5.4.4.8.9 1 1.5.3.7.4 1.5.4 2.4v5.4h-2.4V22c0-.6-.2-1-.5-1.4-.3-.4-.7-.6-1.3-.6-.6 0-1 .2-1.3.6a2 2 0 0 0-.6 1.5v5.5h-2.4V22c0-.6-.1-1-.5-1.4-.3-.4-.7-.6-1.3-.6-.5 0-1 .2-1.3.6a2 2 0 0 0-.5 1.5v5.5h-2.5ZM222.3 27.6v-2.8h-.4v-3.1c0-.6-.1-1-.4-1.2-.3-.3-.7-.4-1.3-.4a38 38 0 0 0-3.4 0v-2a52.3 52.3 0 0 1 3-.1c1 0 1.8.1 2.4.4.7.2 1.2.6 1.5 1.2.4.5.5 1.3.5 2.1v6h-2Zm-3 .3c-.8 0-1.4-.1-2-.4-.4-.2-.8-.6-1.1-1a3 3 0 0 1-.4-1.7c0-.7.1-1.2.5-1.7.3-.4.8-.8 1.4-1 .7-.2 1.4-.3 2.2-.3h2.3v1.4h-2.3c-.6 0-1 .2-1.3.5-.3.2-.4.6-.4 1s.1.8.4 1c.3.3.7.5 1.3.5l1-.2.7-.7c.2-.3.3-.7.3-1.2l.6.7a4 4 0 0 1-.5 1.7c-.3.4-.6.8-1.1 1-.5.3-1 .4-1.7.4Z" fill="#BED18E"/><path d="M75.3 1.6v9.7c-.7 3.7-4 6.5-7.8 6.5H40.6c-.6 0-1.2-.5-1.2-1.1 0-1.3 0-2.6.2-3.8.6-3.3 2-6.1 4.4-8.4C47 1.8 50.4.3 54.5.3H74c.6 0 1 .4 1.2 1v.3ZM54.2 20.9h13.2a7.9 7.9 0 0 1 7.8 8V37c0 .7-.5 1.3-1.3 1.3H54.3c-3.9 0-7.3-1.3-10.1-4a14.7 14.7 0 0 1-4.9-12.3c0-.7.6-1.2 1.3-1.2h13.6ZM36 24a2.8 2.8 0 0 0-2.8-3.1L23 21c-.7 0-1.5.6-2 1-1.4 1.1-2.7 2.4-4 3.7-.8.6-1.1 1.5-1 2.4v9c0 .7.2 1 1.1 1.1 1 0 9 1.4 13.8-3.9 3-2.7 4.3-7.1 5-10.3V24h.1ZM29.1 3a.9.9 0 0 0-.9 0l-5.5 3-5 2.8c-1.2.6-1.8 1.8-1.8 3l-.1 2.5c0 6.9 4.4 5 7 2.3l3-3.2 6.3-6.6c.3-.4.3-.9 0-1.2a14 14 0 0 0-3-2.6ZM36 16.4c.2.8-.4 1.4-1.2 1.4l-7-.1c-1.4 0-2.2-.7-1.3-1.7L33 9.3a.9.9 0 0 1 1.4.3c.5 1.5 1.4 3.3 1.7 6.8ZM1.5 38.5h9.7c.8 0 1.4-.6 1.4-1.4V30c.1-2.2-1-4-3-4.6L4.2 24c-2-.5-3.6.9-3.6 2.7v11.1c0 .4.4.8.8.8ZM.7 14.8c0-.7.5-1.3 1.2-1.5l2.5-.6H5c1-.2 1.6.7 2 1.3 1.7 2 3.3 4.2 4.9 6.4.4.6.7 1.4.7 2.2.1.6-.4 1-1 .8l-8.5-2a3 3 0 0 1-2.4-2.8v-3.9ZM12.7 11.4c0 1.2-.8 2-1.7 1-2.5-2.7-8-7.9-9.7-9.8C.7 1.9.7.9 1.4.4c.3-.2 1.4 0 1.7 0l8.5-.2c.7 0 1.2.5 1.2 1.2v10ZM.7 10.3c0 .4.4.7.8.5l1.9-.6c.9-.3 1-.6.6-1.1-.6-1-1.7-2.5-2.5-3.4-.2-.4-.8-.2-.8.2v4.4ZM15.8 6.3V1.7c0-.8.7-1.5 1.5-1.5h3.2c1.6 0 2.4 2 1.1 3L17.1 7a.8.8 0 0 1-1.3-.6Z" fill="#A4B57A"/></svg>