<?xml version="1.0" standalone="no"?>
<!DOCTYPE svg PUBLIC "-//W3C//DTD SVG 20010904//EN"
 "http://www.w3.org/TR/2001/REC-SVG-20010904/DTD/svg10.dtd">
<svg version="1.0" xmlns="http://www.w3.org/2000/svg"
 width="800.000000pt" height="800.000000pt" viewBox="0 0 800.000000 800.000000"
 preserveAspectRatio="xMidYMid meet">
<metadata>
Created by potrace 1.14, written by Peter Selinger 2001-2017
</metadata>
<g transform="translate(0.000000,800.000000) scale(0.100000,-0.100000)"
fill="#000000" stroke="none">
<path d="M165 6031 c-116 -53 -147 -133 -145 -376 1 -160 8 -187 53 -204 48
-18 109 27 196 145 59 78 147 164 196 190 22 12 85 47 140 77 55 31 112 63
128 71 34 19 35 46 3 83 l-24 28 -254 2 c-226 2 -257 0 -293 -16z"/>
<path d="M1605 6030 c-27 -4 -72 -11 -100 -14 -73 -10 -127 -24 -245 -63 -342
-114 -655 -328 -1073 -733 -171 -166 -162 -139 -162 -468 0 -199 3 -282 13
-306 24 -61 110 -87 167 -50 60 37 254 181 435 319 587 451 1041 737 1330 838
128 45 187 60 456 121 111 25 221 53 245 62 78 30 104 67 79 114 -17 32 -252
119 -395 145 -179 34 -625 54 -750 35z"/>
<path d="M5629 6036 c-2 -2 -35 -6 -73 -10 -38 -4 -71 -8 -75 -10 -4 -3 -27
-7 -51 -11 -25 -3 -83 -17 -130 -31 -411 -122 -785 -439 -977 -828 -45 -92
-107 -263 -118 -325 -3 -19 -7 -37 -9 -40 -2 -3 -7 -23 -10 -43 -3 -21 -9 -54
-12 -73 -16 -103 -20 -379 -6 -416 16 -41 68 -79 110 -80 64 -1 2069 0 2527 1
486 1 514 4 656 65 224 96 399 285 473 513 39 118 45 201 45 697 1 535 2 525
-68 572 l-34 23 -1122 0 c-617 0 -1124 -2 -1126 -4z"/>
<path d="M2845 5660 c-44 -15 -89 -30 -100 -34 -83 -32 -183 -74 -255 -108
-47 -22 -150 -69 -230 -106 -161 -74 -613 -298 -730 -362 -504 -277 -818 -508
-939 -690 -71 -106 -79 -153 -33 -192 l28 -24 330 2 c181 0 343 4 359 8 17 3
62 13 100 22 136 29 255 69 405 136 78 35 264 130 280 143 8 6 42 27 75 45 74
41 232 146 385 255 119 85 266 176 380 235 336 174 393 208 415 249 32 64 27
76 -109 251 -165 213 -192 226 -361 170z"/>
<path d="M3480 5007 c-19 -7 -75 -38 -123 -69 -48 -32 -90 -58 -93 -58 -3 0
-17 -9 -32 -19 -15 -11 -117 -76 -227 -146 -512 -324 -720 -513 -617 -561 25
-12 934 -20 1102 -10 126 8 230 31 259 57 11 10 25 35 30 55 10 35 8 159 -3
213 -3 14 -8 40 -11 56 -2 17 -9 45 -14 63 -5 18 -10 33 -9 35 4 22 -92 308
-114 340 -34 47 -88 63 -148 44z"/>
<path d="M1754 3860 c-28 -11 -35 -32 -24 -70 8 -28 55 -93 94 -132 111 -110
302 -255 536 -406 69 -45 130 -85 136 -89 5 -4 21 -15 35 -23 13 -8 137 -82
274 -165 268 -160 343 -201 390 -210 48 -9 149 -7 178 4 119 46 180 98 227
196 60 125 166 483 177 595 8 83 -10 134 -67 191 -78 78 -72 77 -432 84 -466
10 -617 13 -913 20 -546 12 -590 13 -611 5z"/>
<path d="M4261 3839 c-47 -10 -81 -37 -98 -77 -13 -30 -14 -67 -10 -207 7
-187 9 -209 39 -340 119 -522 492 -951 992 -1141 150 -58 256 -82 436 -99 25
-2 537 -4 1137 -5 1190 0 1131 -3 1183 56 l25 29 2 504 c3 467 2 510 -17 600
-33 165 -102 300 -208 413 -142 150 -327 245 -514 264 -89 9 -2925 12 -2967 3z"/>
<path d="M93 3810 c-63 -38 -60 6 -59 -920 l1 -845 23 -32 23 -33 92 -1 c110
-1 330 -5 682 -14 506 -12 578 -12 607 2 52 25 70 97 36 141 -7 10 -52 58 -99
107 -239 247 -409 452 -589 710 -33 47 -60 88 -60 91 0 3 -13 24 -29 47 -64
94 -161 267 -287 512 -96 188 -134 238 -185 249 -60 12 -123 6 -156 -14z"/>
<path d="M683 3811 c-22 -14 -36 -33 -44 -61 -12 -39 -11 -44 39 -143 72 -144
272 -443 386 -578 17 -20 38 -45 46 -55 140 -180 319 -373 690 -745 277 -277
265 -270 450 -264 63 3 133 7 155 10 74 9 127 16 148 21 12 3 33 7 47 10 143
29 391 154 495 248 111 102 175 171 175 190 0 17 -23 33 -108 79 -283 151
-497 274 -735 421 -81 50 -155 96 -165 101 -9 6 -66 44 -127 84 -201 135 -353
257 -500 400 -233 226 -415 298 -762 300 -141 1 -161 -1 -190 -18z"/>
</g>
</svg>
