<svg fill="none" xmlns="http://www.w3.org/2000/svg" viewBox="0 0 100 100">
  <path fill-rule="evenodd" clip-rule="evenodd" d="M16.58 69.97A37.76 37.76 0 1 1 71.8 68l-7.36-7.36v-23.9a2.7 2.7 0 1 0-5.4 0v18.5l-8.4-8.4V36.36a2.7 2.7 0 1 0-5.4 0v5.07l-5.8-5.8a2.7 2.7 0 0 0-3.82 3.82l16.4 16.4H35.5a2.7 2.7 0 0 0 0 5.4h21.56c.13 0 .24 0 .36-.02L68 71.81a37.76 37.76 0 0 1-51.41-1.84Zm57.3-57.3a43.28 43.28 0 0 1 1.85 59.24l3.83 3.83.94-.93a1.38 1.38 0 0 1 1.95 0L99.6 91.96c.54.54.54 1.4 0 1.95l-5.7 5.69c-.53.54-1.4.54-1.94 0L74.8 82.45a1.38 1.38 0 0 1 0-1.95l.93-.94-3.83-3.83a43.28 43.28 0 1 1 1.96-63.06Z" fill="#A4B57A"/>
  <path d="m79.56 75.74.94-.93a1.38 1.38 0 0 1 1.95 0L99.6 91.96c.54.54.54 1.4 0 1.95l-5.7 5.69c-.53.54-1.4.54-1.94 0L74.8 82.45a1.38 1.38 0 0 1 0-1.95l.93-.94 3.82-3.82Z" fill="#0C180A"/>
</svg>
