<svg fill="none" xmlns="http://www.w3.org/2000/svg" viewBox="0 0 16 17">
  <path d="M8 8.5c-1.1 0-2.04-.4-2.83-1.17A3.85 3.85 0 0 1 4 4.5c0-1.1.4-2.04 1.17-2.83A3.85 3.85 0 0 1 8 .5c1.1 0 2.04.4 2.82 1.18A3.85 3.85 0 0 1 12 4.5c0 1.1-.4 2.04-1.18 2.83A3.85 3.85 0 0 1 8 8.5Zm-8 8v-2.8c0-.57.15-1.09.44-1.56a2.9 2.9 0 0 1 1.16-1.09 13.78 13.78 0 0 1 9.65-1.16c1.07.26 2.12.64 3.15 1.16.48.25.87.61 1.16 1.09.3.47.44 1 .44 1.56v2.8H0Zm2-2h12v-.8a.98.98 0 0 0-.5-.85c-.9-.45-1.8-.79-2.72-1.01a11.62 11.62 0 0 0-5.55 0c-.92.22-1.83.56-2.73 1.01a.97.97 0 0 0-.5.85v.8Zm6-8c.55 0 1.02-.2 1.41-.59.4-.39.59-.86.59-1.41 0-.55-.2-1.02-.59-1.41-.39-.4-.86-.59-1.41-.59-.55 0-1.02.2-1.41.59-.4.39-.59.86-.59 1.41 0 .55.2 1.02.59 1.41.39.4.86.59 1.41.59Z" fill="#172030"/>
</svg>
