<svg fill="none" xmlns="http://www.w3.org/2000/svg" viewBox="0 0 16 16">
  <path d="M8 8c-1.1 0-2-.4-2.8-1.2A3.9 3.9 0 0 1 4 4c0-1.1.4-2 1.2-2.8C6 .4 6.9 0 8 0c1.1 0 2 .4 2.8 1.2C11.6 2 12 2.9 12 4c0 1.1-.4 2-1.2 2.8C10 7.6 9.1 8 8 8Zm-8 8v-2.8c0-.6.1-1 .4-1.6a3 3 0 0 1 1.2-1A14.9 14.9 0 0 1 8 9a13.8 13.8 0 0 1 6.4 1.6c.5.2.9.6 1.2 1 .3.5.4 1 .4 1.6V16H0Zm2-2h12v-.8l-.1-.5a1 1 0 0 0-.4-.3A13 13 0 0 0 8 11a11.6 11.6 0 0 0-5.5 1.3 1 1 0 0 0-.5.9v.8Zm6-8c.6 0 1-.2 1.4-.6.4-.4.6-.9.6-1.4 0-.5-.2-1-.6-1.4A2 2 0 0 0 8 2a2 2 0 0 0-1.4.6A2 2 0 0 0 6 4c0 .5.2 1 .6 1.4.4.4.9.6 1.4.6Z" fill="#F6F8FB"/>
</svg>
