<svg width="325" height="324" viewBox="0 0 325 324" fill="none" xmlns="http://www.w3.org/2000/svg">
<path d="M162.298 324C251.933 324 324.596 282.046 324.596 230.293C324.596 178.539 251.933 136.585 162.298 136.585C72.6634 136.585 0 178.539 0 230.293C0 282.046 72.6634 324 162.298 324Z" fill="#F0F4F9"/>
<path d="M226.173 199.507L280.84 231.063C281.528 231.463 282.311 231.674 283.107 231.674C283.904 231.674 284.686 231.463 285.375 231.063L315.789 213.49C315.994 213.371 316.165 213.201 316.283 212.995C316.402 212.79 316.464 212.557 316.464 212.32C316.464 212.083 316.402 211.85 316.283 211.645C316.165 211.439 315.994 211.269 315.789 211.15L261.138 179.674C260.45 179.278 259.671 179.07 258.877 179.07C258.084 179.07 257.305 179.278 256.617 179.674L226.181 197.16C225.975 197.279 225.805 197.45 225.686 197.655C225.567 197.861 225.504 198.094 225.503 198.332C225.502 198.569 225.564 198.803 225.682 199.009C225.799 199.215 225.969 199.387 226.173 199.507Z" fill="#E0E0E0"/>
<path d="M183.156 187.77L51.6651 263.868C50.5943 264.49 49.3795 264.82 48.1415 264.826C46.9035 264.833 45.6854 264.515 44.6083 263.905L10.451 244.573C10.0962 244.369 9.80139 244.076 9.59641 243.722C9.39142 243.367 9.28348 242.966 9.28348 242.556C9.28348 242.147 9.39142 241.745 9.59641 241.391C9.80139 241.037 10.0962 240.743 10.451 240.54L141.695 164.739C142.763 164.126 143.972 163.799 145.203 163.792C146.435 163.784 147.647 164.095 148.723 164.696L183.127 183.977C183.464 184.164 183.745 184.438 183.942 184.769C184.139 185.101 184.244 185.479 184.247 185.865C184.25 186.251 184.151 186.63 183.959 186.965C183.767 187.3 183.49 187.577 183.156 187.77Z" fill="#E0E0E0"/>
<path d="M204.203 264.144C224.131 264.144 240.286 254.816 240.286 243.309C240.286 231.801 224.131 222.473 204.203 222.473C184.275 222.473 168.12 231.801 168.12 243.309C168.12 254.816 184.275 264.144 204.203 264.144Z" fill="#E0E0E0"/>
<path d="M282.249 255.293C289.196 255.293 294.829 252.039 294.829 248.025C294.829 244.011 289.196 240.758 282.249 240.758C275.301 240.758 269.668 244.011 269.668 248.025C269.668 252.039 275.301 255.293 282.249 255.293Z" fill="#E0E0E0"/>
<path d="M282.656 133.518L282.671 229.428L313.732 211.477V115.662L282.656 133.518Z" fill="#E6E6E6"/>
<path d="M229.902 198.962L282.672 229.428V133.606L229.917 103.235L229.902 198.962Z" fill="#EBEBEB"/>
<path d="M229.902 103.14L282.672 133.606L313.733 115.662L260.985 85.2838L229.902 103.14Z" fill="#F5F5F5"/>
<path d="M236.087 138.213L276.182 161.368C276.357 161.468 276.556 161.521 276.758 161.52C276.96 161.52 277.158 161.467 277.333 161.366C277.508 161.266 277.653 161.121 277.755 160.946C277.856 160.772 277.911 160.574 277.912 160.372V140.03C277.909 139.528 277.773 139.035 277.518 138.602C277.262 138.169 276.897 137.812 276.458 137.567L236.429 114.499C236.253 114.399 236.054 114.346 235.852 114.347C235.649 114.347 235.45 114.401 235.275 114.503C235.1 114.604 234.954 114.75 234.853 114.925C234.752 115.101 234.699 115.3 234.699 115.502V135.75C234.695 136.246 234.82 136.735 235.064 137.167C235.308 137.599 235.66 137.96 236.087 138.213Z" fill="#FAFAFA"/>
<path d="M259.823 133.119C259.685 133.117 259.549 133.08 259.431 133.01L252.352 128.94C252.189 128.825 252.075 128.654 252.032 128.459C251.989 128.265 252.02 128.061 252.119 127.889C252.218 127.716 252.378 127.586 252.568 127.525C252.757 127.464 252.963 127.476 253.144 127.559L260.223 131.636C260.363 131.728 260.47 131.862 260.529 132.019C260.588 132.175 260.596 132.347 260.552 132.508C260.507 132.67 260.413 132.813 260.282 132.917C260.151 133.022 259.99 133.082 259.823 133.09V133.119Z" fill="#E0E0E0"/>
<path d="M236.087 166.615L276.182 189.762C276.357 189.862 276.556 189.915 276.758 189.914C276.959 189.914 277.158 189.861 277.333 189.76C277.508 189.66 277.653 189.515 277.755 189.34C277.856 189.166 277.91 188.968 277.912 188.766V168.417C277.908 167.915 277.772 167.422 277.517 166.99C277.261 166.557 276.896 166.199 276.458 165.953L236.429 142.937C236.253 142.837 236.055 142.784 235.853 142.784C235.651 142.785 235.453 142.838 235.278 142.938C235.103 143.039 234.958 143.184 234.856 143.358C234.754 143.533 234.7 143.731 234.699 143.933V164.18C234.7 164.671 234.829 165.154 235.072 165.58C235.315 166.007 235.665 166.363 236.087 166.615Z" fill="#FAFAFA"/>
<path d="M259.823 161.513C259.686 161.511 259.551 161.476 259.431 161.411L252.352 157.334C252.189 157.219 252.075 157.048 252.032 156.854C251.989 156.659 252.02 156.456 252.119 156.283C252.218 156.11 252.378 155.981 252.568 155.92C252.757 155.859 252.963 155.871 253.144 155.953L260.223 160.03C260.363 160.122 260.47 160.256 260.529 160.413C260.588 160.57 260.596 160.741 260.552 160.902C260.507 161.064 260.413 161.207 260.282 161.312C260.151 161.416 259.99 161.476 259.823 161.484V161.513Z" fill="#E0E0E0"/>
<path d="M236.087 195.009L276.182 218.156C276.357 218.256 276.555 218.309 276.757 218.309C276.959 218.308 277.157 218.255 277.332 218.155C277.507 218.054 277.653 217.909 277.754 217.735C277.856 217.56 277.91 217.362 277.911 217.16V196.811C277.908 196.309 277.771 195.816 277.516 195.384C277.261 194.951 276.896 194.594 276.458 194.348L236.428 171.28C236.253 171.18 236.055 171.127 235.853 171.128C235.651 171.128 235.453 171.181 235.278 171.282C235.103 171.382 234.957 171.527 234.855 171.702C234.754 171.876 234.7 172.074 234.699 172.276V192.531C234.692 193.029 234.817 193.521 235.061 193.956C235.304 194.391 235.658 194.754 236.087 195.009Z" fill="#FAFAFA"/>
<path d="M259.822 189.907C259.685 189.909 259.549 189.874 259.43 189.805L252.351 185.728C252.261 185.676 252.182 185.607 252.118 185.524C252.055 185.442 252.008 185.348 251.981 185.247C251.954 185.146 251.948 185.041 251.961 184.938C251.975 184.835 252.009 184.735 252.061 184.645C252.113 184.555 252.182 184.476 252.265 184.412C252.347 184.349 252.442 184.303 252.543 184.277C252.643 184.25 252.749 184.244 252.852 184.259C252.955 184.273 253.054 184.308 253.144 184.362L260.222 188.432C260.312 188.484 260.391 188.553 260.455 188.635C260.518 188.718 260.565 188.812 260.592 188.913C260.619 189.013 260.626 189.118 260.612 189.222C260.599 189.325 260.565 189.424 260.513 189.514C260.444 189.636 260.343 189.736 260.221 189.805C260.1 189.875 259.962 189.91 259.822 189.907Z" fill="#E0E0E0"/>
<path d="M262.889 36.94V62.5725L285.091 75.3852V49.7526L262.889 36.94Z" fill="#FAFAFA"/>
<path d="M265.294 38.3208L285.12 49.7526V72.6089L265.323 61.1844V38.3208H265.294ZM264.117 36.2422L262.918 36.969V62.6015L285.12 75.3851L286.319 74.6584V49.0622L264.088 36.2422H264.117Z" fill="#E0E0E0"/>
<path d="M264.088 39.0113L283.885 50.4431V73.2994L264.088 61.8676V39.0113ZM262.889 36.9327V62.5653L285.12 75.3852V49.7526L262.889 36.94V36.9327Z" fill="#EBEBEB"/>
<path d="M266.145 56.7076L282.94 66.4025L277.976 53.4954L274.546 57.5724L271.029 52.5724L266.145 56.7076Z" fill="#E0E0E0"/>
<path d="M271.973 48.6553C272.002 49.187 272.156 49.7044 272.422 50.1654C272.688 50.6264 273.06 51.0179 273.507 51.3079C274.35 51.7949 275.04 51.3952 275.04 50.4213C275.01 49.8899 274.856 49.3729 274.59 48.9121C274.323 48.4513 273.952 48.0596 273.507 47.7687C272.656 47.2817 271.973 47.6742 271.973 48.6553Z" fill="#E0E0E0"/>
<path d="M291.741 67.965V88.3867L309.422 98.5976V78.1758L291.741 67.965Z" fill="#FAFAFA"/>
<path d="M293.652 69.0767L309.422 78.1756V96.4244L293.652 87.3182V69.1494V69.0767ZM292.693 67.4851L291.741 68.0375V88.4592L309.422 98.6046L310.382 98.0523V77.6306L292.693 67.4561V67.4851Z" fill="#E0E0E0"/>
<path d="M292.693 69.6292L308.463 78.7282V96.9406L292.693 87.8344V69.6292ZM291.741 67.965V88.3867L309.422 98.6048V78.1831L291.741 68.0086V67.965Z" fill="#EBEBEB"/>
<path d="M294.335 83.7139L307.707 91.4393L303.761 81.1557L301.021 84.4116L298.223 80.4217L294.335 83.7139Z" fill="#E0E0E0"/>
<path d="M298.972 77.3039C298.996 77.7275 299.118 78.1396 299.33 78.507C299.543 78.8744 299.838 79.1868 300.193 79.4188C300.869 79.8039 301.414 79.4914 301.414 78.692C301.392 78.2682 301.27 77.8556 301.058 77.488C300.845 77.1204 300.549 76.8083 300.193 76.5772C299.517 76.2065 298.972 76.5263 298.972 77.3039Z" fill="#E0E0E0"/>
<path d="M282.99 229.507C282.99 229.507 275.258 221.956 279.662 209.311C282.125 202.225 290.294 197.022 294.924 196.527C293.383 198.358 292.155 200.431 291.29 202.661L285.432 206.557L290.817 204.871L289.669 209.478C289.669 209.478 284.662 212.509 283.921 213.17L289.32 211.76C289.32 211.76 288.928 224.813 282.99 229.507Z" fill="#7FE389"/>
<path opacity="0.4" d="M282.99 229.507C282.99 229.507 275.258 221.956 279.662 209.311C282.125 202.225 290.294 197.022 294.924 196.527C293.383 198.358 292.155 200.431 291.29 202.661L285.432 206.557L290.817 204.871L289.669 209.478C289.669 209.478 284.662 212.509 283.921 213.17L289.32 211.76C289.32 211.76 288.928 224.813 282.99 229.507Z" fill="black"/>
<path d="M282.99 229.507C282.99 229.507 278.986 213.708 284.909 204.493C284.909 204.493 277.968 212.625 282.99 229.507Z" fill="white"/>
<path d="M291.834 231.644L282.387 231.528H282.292L272.844 231.644C272.844 231.644 272.735 243.272 276.326 248.04C277.321 249.304 279.64 250.22 282.35 250.22C285.061 250.22 287.394 249.326 288.382 248.04C291.943 243.287 291.834 231.644 291.834 231.644Z" fill="#37474F"/>
<path d="M291.835 231.644C291.835 234.464 287.583 236.731 282.329 236.731C277.074 236.731 272.823 234.442 272.823 231.644C272.823 228.846 277.082 226.557 282.329 226.557C287.576 226.557 291.835 228.824 291.835 231.644Z" fill="#455A64"/>
<path d="M282.329 230.292C285.599 230.292 288.368 231.339 289.349 232.792C289.588 232.457 289.72 232.056 289.727 231.644C289.727 229.631 286.413 228.01 282.329 228.01C278.245 228.01 274.931 229.646 274.931 231.644C274.937 232.058 275.072 232.459 275.316 232.792C276.29 231.339 279.059 230.292 282.329 230.292Z" fill="#263238"/>
<path d="M282.329 230.292C279.058 230.292 276.29 231.339 275.316 232.792C276.29 234.246 279.058 235.3 282.329 235.3C285.599 235.3 288.368 234.246 289.349 232.792C288.368 231.339 285.599 230.292 282.329 230.292Z" fill="#E0E0E0"/>
<path d="M282.445 233.425C282.445 233.425 278.812 233.287 275.643 228.417C274.342 226.411 273.717 225.358 273.717 225.358L278.804 224.972L273.085 223.519L270.381 219.384L275.127 219.028C273.17 218.345 271.133 217.923 269.066 217.77C269.066 217.77 264.705 210.038 263.404 208.933C266.728 209.135 269.976 210.003 272.957 211.485C275.939 212.967 278.592 215.033 280.759 217.56C287.932 226.07 283.514 233.643 282.445 233.425Z" fill="#7FE389"/>
<path d="M282.445 233.425C282.445 233.425 284.742 219.616 270.09 211.317C270.112 211.317 285.294 218.613 282.445 233.425Z" fill="white"/>
<path d="M282.445 233.425C282.445 233.425 285.766 233.643 289.059 229.551C290.418 227.858 291.079 226.964 291.079 226.964L286.508 226.143L291.806 225.416L294.633 221.935L290.381 221.172C292.211 220.739 294.091 220.551 295.97 220.612C295.97 220.612 300.65 214.071 301.908 213.17C298.904 213.036 295.904 213.505 293.085 214.548C290.265 215.592 287.683 217.189 285.49 219.246C278.194 226.273 281.486 233.519 282.445 233.425Z" fill="#7FE389"/>
<path opacity="0.2" d="M282.445 233.425C282.445 233.425 285.766 233.643 289.059 229.551C290.418 227.858 291.079 226.964 291.079 226.964L286.508 226.143L291.806 225.416L294.633 221.935L290.381 221.172C292.211 220.739 294.091 220.551 295.97 220.612C295.97 220.612 300.65 214.071 301.908 213.17C298.904 213.036 295.904 213.505 293.085 214.548C290.265 215.592 287.683 217.189 285.49 219.246C278.194 226.273 281.486 233.519 282.445 233.425Z" fill="black"/>
<path d="M282.445 233.425C282.445 233.425 281.675 220.757 295.657 214.638C295.657 214.638 281.275 219.791 282.445 233.425Z" fill="white"/>
<path d="M138.163 57.0713L134.856 55.7268L134.522 55.5888H134.485C133.893 55.3747 133.26 55.293 132.632 55.3495C132.004 55.406 131.397 55.5993 130.852 55.9158L17.3766 121.411C14.9919 122.785 13.0114 124.763 11.6348 127.147C10.2581 129.53 9.53383 132.234 9.53491 134.986V233.781C9.53549 234.831 9.81246 235.862 10.338 236.771C10.8635 237.68 11.6191 238.435 12.5287 238.96C13.4384 239.484 14.4701 239.76 15.52 239.759C16.57 239.758 17.6013 239.481 18.5103 238.956L132.094 173.381C133.715 172.444 135.061 171.098 135.996 169.476C136.931 167.855 137.423 166.015 137.421 164.144V59.724C137.424 58.9762 137.233 58.2404 136.869 57.5873L138.163 57.0713Z" fill="#7FE389"/>
<path opacity="0.3" d="M138.163 57.0713L134.856 55.7268L134.522 55.5888H134.485C133.893 55.3747 133.26 55.293 132.632 55.3495C132.004 55.406 131.397 55.5993 130.852 55.9158L17.3766 121.411C14.9919 122.785 13.0114 124.763 11.6348 127.147C10.2581 129.53 9.53383 132.234 9.53491 134.986V233.781C9.53549 234.831 9.81246 235.862 10.338 236.771C10.8635 237.68 11.6191 238.435 12.5287 238.96C13.4384 239.484 14.4701 239.76 15.52 239.759C16.57 239.758 17.6013 239.481 18.5103 238.956L132.094 173.381C133.715 172.444 135.061 171.098 135.996 169.476C136.931 167.855 137.423 166.015 137.421 164.144V59.724C137.424 58.9762 137.233 58.2404 136.869 57.5873L138.163 57.0713Z" fill="black"/>
<path d="M140.43 60.9158V165.372C140.431 167.244 139.939 169.083 139.002 170.703C138.066 172.324 136.718 173.668 135.096 174.602L21.5117 240.184C20.6018 240.707 19.5703 240.983 18.5206 240.982C17.4708 240.981 16.4397 240.704 15.5306 240.18C14.6215 239.655 13.8663 238.9 13.3407 237.991C12.8152 237.083 12.5378 236.052 12.5363 235.002V136.164C12.5369 133.455 13.2406 130.793 14.5785 128.438C15.5918 126.692 17.0549 125.249 18.8154 124.26L136.135 56.519C137.273 56.5545 138.353 57.0277 139.151 57.8401C139.948 58.6524 140.401 59.7412 140.416 60.8795L140.43 60.9158Z" fill="#7FE389"/>
<path opacity="0.1" d="M140.43 60.9158V165.372C140.431 167.244 139.939 169.083 139.002 170.703C138.066 172.324 136.718 173.668 135.096 174.602L21.5117 240.184C20.6018 240.707 19.5703 240.983 18.5206 240.982C17.4708 240.981 16.4397 240.704 15.5306 240.18C14.6215 239.655 13.8663 238.9 13.3407 237.991C12.8152 237.083 12.5378 236.052 12.5363 235.002V136.164C12.5369 133.455 13.2406 130.793 14.5785 128.438C15.5918 126.692 17.0549 125.249 18.8154 124.26L136.135 56.519C137.273 56.5545 138.353 57.0277 139.151 57.8401C139.948 58.6524 140.401 59.7412 140.416 60.8795L140.43 60.9158Z" fill="black"/>
<path d="M135.096 174.602L21.5118 240.184C20.6326 240.698 19.6357 240.977 18.6172 240.994C17.5988 241.01 16.5933 240.764 15.6978 240.278L83.5183 138.206L140.43 165.365C140.431 167.237 139.938 169.077 139.001 170.698C138.065 172.32 136.718 173.666 135.096 174.602Z" fill="#7FE389"/>
<path opacity="0.2" d="M135.096 174.602L21.5118 240.184C20.6326 240.698 19.6357 240.977 18.6172 240.994C17.5988 241.01 16.5933 240.764 15.6978 240.278L83.5183 138.206L140.43 165.365C140.431 167.237 139.938 169.077 139.001 170.698C138.065 172.32 136.718 173.666 135.096 174.602Z" fill="black"/>
<path d="M138.519 57.2966L92.203 154.18C91.2908 156.083 89.9954 157.778 88.3979 159.158C86.8005 160.537 84.9354 161.573 82.9194 162.198C80.9035 162.824 78.7801 163.026 76.6822 162.793C74.5843 162.56 72.5571 161.897 70.7275 160.844L14.5786 128.46C15.5371 126.758 16.9351 125.345 18.6267 124.369L136.135 56.519C136.989 56.5392 137.818 56.8096 138.519 57.2966Z" fill="#7FE389"/>
<path d="M26.2362 97.355L59.5069 78.1396V54.324L35.3279 67.6526C32.574 69.1684 30.2775 71.3958 28.6782 74.1021C27.079 76.8084 26.2356 79.8944 26.2362 83.0379V97.355Z" fill="#7FE389"/>
<path opacity="0.5" d="M26.2362 97.355L59.5069 78.1396V54.324L35.3279 67.6526C32.574 69.1684 30.2775 71.3958 28.6782 74.1021C27.079 76.8084 26.2356 79.8944 26.2362 83.0379V97.355Z" fill="white"/>
<path d="M163.752 5.12294L160.707 3.40054C156.84 1.16431 152.449 -0.00888411 147.982 5.06546e-05C143.515 0.00898542 139.129 1.19973 135.271 3.45141L40.117 58.8881C35.8933 61.3478 32.3886 64.8725 29.9529 69.1101C27.5172 73.3478 26.2356 78.1502 26.2361 83.038C26.2357 80.5271 26.8985 78.0606 28.1573 75.8879C29.416 73.7153 31.2262 71.9136 33.4048 70.665C35.5833 69.4165 38.0529 68.7653 40.5638 68.7774C43.0747 68.7896 45.5379 69.4646 47.7043 70.7341L51.6869 73.067C55.8335 75.494 59.2728 78.9638 61.6633 83.1315C64.0538 87.2992 65.3122 92.0199 65.3135 96.8245V238.207L58.8236 254.682L71.0112 247.262L168.985 190.416C172.464 188.398 175.353 185.501 177.359 182.015C179.366 178.528 180.42 174.576 180.416 170.554V34.0404C180.416 28.1829 178.876 22.4284 175.951 17.3533C173.026 12.2782 168.82 8.0606 163.752 5.12294Z" fill="#7FE389"/>
<path opacity="0.7" d="M163.752 5.12294L160.707 3.40054C156.84 1.16431 152.449 -0.00888411 147.982 5.06546e-05C143.515 0.00898542 139.129 1.19973 135.271 3.45141L40.117 58.8881C35.8933 61.3478 32.3886 64.8725 29.9529 69.1101C27.5172 73.3478 26.2356 78.1502 26.2361 83.038C26.2357 80.5271 26.8985 78.0606 28.1573 75.8879C29.416 73.7153 31.2262 71.9136 33.4048 70.665C35.5833 69.4165 38.0529 68.7653 40.5638 68.7774C43.0747 68.7896 45.5379 69.4646 47.7043 70.7341L51.6869 73.067C55.8335 75.494 59.2728 78.9638 61.6633 83.1315C64.0538 87.2992 65.3122 92.0199 65.3135 96.8245V238.207L58.8236 254.682L71.0112 247.262L168.985 190.416C172.464 188.398 175.353 185.501 177.359 182.015C179.366 178.528 180.42 174.576 180.416 170.554V34.0404C180.416 28.1829 178.876 22.4284 175.951 17.3533C173.026 12.2782 168.82 8.0606 163.752 5.12294Z" fill="white"/>
<path d="M30.1822 241.833C30.1822 241.833 37.0064 251.812 47.9731 255.118C59.7683 258.672 65.3134 250.852 65.3134 240.482V221.724L30.1822 241.833Z" fill="#7FE389"/>
<path opacity="0.5" d="M30.1822 241.833C30.1822 241.833 37.0064 251.812 47.9731 255.118C59.7683 258.672 65.3134 250.852 65.3134 240.482V221.724L30.1822 241.833Z" fill="white"/>
<path d="M86.5134 141.484C86.2777 141.48 86.0495 141.4 85.8637 141.255C85.6778 141.11 85.5443 140.908 85.4835 140.68C85.4226 140.453 85.4378 140.211 85.5266 139.993C85.6154 139.774 85.773 139.591 85.9756 139.47L158.651 97.4932C158.898 97.3506 159.193 97.3122 159.469 97.3865C159.745 97.4607 159.98 97.6416 160.122 97.8893C160.265 98.137 160.303 98.4312 160.229 98.7072C160.155 98.9831 159.974 99.2183 159.726 99.361L87.0512 141.338C86.8873 141.432 86.7021 141.482 86.5134 141.484Z" fill="white"/>
<path d="M86.5134 157.581C86.277 157.581 86.0474 157.502 85.86 157.358C85.6726 157.214 85.5379 157.012 85.4766 156.784C85.4154 156.556 85.4311 156.314 85.5213 156.095C85.6115 155.877 85.7711 155.694 85.9756 155.575L158.651 113.591C158.898 113.448 159.193 113.41 159.469 113.484C159.745 113.558 159.98 113.739 160.122 113.987C160.265 114.234 160.303 114.529 160.229 114.805C160.155 115.081 159.974 115.316 159.726 115.458L87.0512 157.472C86.8839 157.553 86.699 157.591 86.5134 157.581Z" fill="white"/>
<path d="M86.5134 173.671C86.277 173.671 86.0474 173.592 85.86 173.448C85.6726 173.304 85.5379 173.102 85.4766 172.874C85.4154 172.646 85.4311 172.404 85.5213 172.185C85.6115 171.967 85.7711 171.784 85.9756 171.665L158.651 129.688C158.896 129.56 159.182 129.532 159.448 129.61C159.714 129.687 159.939 129.864 160.078 130.104C160.217 130.344 160.257 130.628 160.192 130.897C160.126 131.166 159.96 131.399 159.726 131.549L87.0512 173.526C86.8873 173.619 86.7021 173.67 86.5134 173.671Z" fill="white"/>
<path d="M86.5134 189.762C86.277 189.761 86.0474 189.683 85.86 189.539C85.6726 189.395 85.5379 189.193 85.4766 188.965C85.4154 188.736 85.4311 188.494 85.5213 188.276C85.6115 188.057 85.7711 187.875 85.9756 187.756L158.651 145.779C158.896 145.651 159.182 145.623 159.448 145.7C159.714 145.778 159.939 145.955 160.078 146.195C160.217 146.434 160.257 146.718 160.192 146.987C160.126 147.257 159.96 147.49 159.726 147.639L87.0512 189.616C86.8886 189.713 86.7026 189.763 86.5134 189.762Z" fill="white"/>
<path d="M86.5134 205.852C86.277 205.851 86.0474 205.773 85.86 205.629C85.6726 205.485 85.5379 205.283 85.4766 205.055C85.4154 204.826 85.4311 204.584 85.5213 204.366C85.6115 204.147 85.7711 203.965 85.9756 203.846L158.651 161.869C158.896 161.741 159.182 161.713 159.448 161.791C159.714 161.868 159.939 162.045 160.078 162.285C160.217 162.525 160.257 162.809 160.192 163.078C160.126 163.347 159.96 163.58 159.726 163.729L87.0512 205.706C86.8886 205.803 86.7026 205.854 86.5134 205.852Z" fill="white"/>
<path d="M134.239 194.383C134.05 194.385 133.864 194.336 133.7 194.241C133.537 194.146 133.402 194.01 133.308 193.846C133.171 193.6 133.135 193.311 133.208 193.039C133.281 192.767 133.458 192.535 133.701 192.392L158.665 177.959C158.911 177.831 159.196 177.803 159.462 177.881C159.728 177.958 159.953 178.135 160.092 178.375C160.231 178.615 160.271 178.899 160.206 179.168C160.14 179.437 159.974 179.67 159.74 179.819L134.777 194.245C134.612 194.337 134.427 194.384 134.239 194.383Z" fill="white"/>
<path d="M137.124 80.9013L116.179 92.9944V82.6745C116.179 75.5015 120.54 67.1657 125.925 64.0552L127.379 63.2194C132.756 60.1089 137.124 63.4083 137.124 70.5814V80.9013Z" fill="#7FE389"/>
<path d="M142 84.3242L111.302 102.05L116.179 90.756L137.124 78.6628L142 84.3242Z" fill="#7FE389"/>
<path d="M126.688 67.0423C125.78 67.5655 125.046 67.144 125.046 66.0975V62.0785C125.077 61.5092 125.242 60.9554 125.528 60.4617C125.813 59.9681 126.21 59.5485 126.688 59.2369C127.589 58.7137 128.323 59.1352 128.323 60.1817V64.2079C128.291 64.7753 128.127 65.3273 127.843 65.8196C127.559 66.3118 127.163 66.7306 126.688 67.0423Z" fill="#7FE389"/>
<path d="M123.163 96.7156C123.25 98.8013 124.776 99.6226 126.651 98.5397C127.633 97.8973 128.457 97.0402 129.06 96.0331C129.663 95.026 130.03 93.8951 130.132 92.7257L123.163 96.7156Z" fill="#7FE389"/>
<path d="M229.9 65.2905C238.341 65.2905 245.184 58.4478 245.184 50.0069C245.184 41.566 238.341 34.7233 229.9 34.7233C221.459 34.7233 214.616 41.566 214.616 50.0069C214.616 58.4478 221.459 65.2905 229.9 65.2905Z" fill="#7FE389"/>
<path d="M227.175 61.8892C227.175 61.8892 228.542 66.7439 223.011 71.2498C223.011 71.2498 231.528 70.3922 231.994 62.2962L227.175 61.8892Z" fill="#7FE389"/>
<path d="M231.405 51.4166H228.12L227.299 43.5314H232.226L231.405 51.4166ZM229.762 56.5039C229.46 56.5246 229.156 56.484 228.87 56.3846C228.584 56.2852 228.32 56.1291 228.096 55.9255C227.871 55.722 227.69 55.4752 227.563 55.1999C227.436 54.9247 227.366 54.6266 227.357 54.3236C227.422 53.7312 227.703 53.1837 228.147 52.786C228.591 52.3883 229.166 52.1684 229.762 52.1684C230.358 52.1684 230.933 52.3883 231.377 52.786C231.821 53.1837 232.103 53.7312 232.168 54.3236C232.157 54.6254 232.085 54.9218 231.957 55.1954C231.83 55.4689 231.648 55.714 231.424 55.916C231.199 56.1181 230.937 56.2729 230.651 56.3714C230.366 56.4699 230.063 56.51 229.762 56.4894V56.5039Z" fill="white"/>
<path d="M199.726 109.085C198.152 108.963 196.573 109.231 195.128 109.865C193.683 110.499 192.417 111.479 191.441 112.719C188.207 116.978 181.361 127.05 181.361 127.05C181.361 127.05 178.497 123.874 176.622 121.643C174.747 119.412 172.988 117.523 172.988 117.523C172.742 116.322 172.557 115.109 172.436 113.889C172.276 112.159 172.044 110.982 170.779 109.797C169.514 108.613 168.548 107.501 168.446 106.6C168.344 105.698 167.719 104.797 166.92 105.72C166.121 106.643 166.193 109.477 167.865 111.367C167.865 111.367 164.878 109.979 163.504 108.351C162.131 106.723 160.357 103.889 159.573 104.674C158.788 105.459 157.283 113.911 159.573 115.793C161.862 117.675 167.523 120.88 167.523 120.88C167.523 120.88 174.922 138.991 180.125 138.991C185.329 138.991 193.933 125.604 193.933 125.604L199.726 109.085Z" fill="#FFA8A7"/>
<path d="M190.489 203.636L192.095 228.207C192.095 228.207 193.548 230.809 196.346 230.809L198.89 228.033C198.855 224.746 199.13 221.464 199.711 218.229C200.656 213.265 202.487 206.005 203.018 201.812L190.489 203.636Z" fill="#FFA8A7"/>
<path d="M191.935 148.126C191.935 148.126 190.655 156.389 190.023 164.427C189.522 170.837 189.195 179.725 189.078 183.061C189.051 183.934 189.07 184.807 189.137 185.677L190.488 203.635C190.488 203.635 198.432 207.124 203.032 201.811C203.032 201.811 203.592 196.666 202.792 193.09C202.324 190.833 202.381 188.498 202.959 186.266L207.938 166.266V147.952L191.935 148.126Z" fill="#37474F"/>
<path d="M195.794 154.979C196.13 156.448 196.862 157.797 197.91 158.879C198.958 159.962 200.282 160.737 201.739 161.12L204.711 179.217L209.072 163.359V154.979H195.794Z" fill="#263238"/>
<path d="M211.244 207.298L216.266 234.995H221.695C221.695 234.995 223.751 211.659 223.642 205.292L211.244 207.298Z" fill="#FFA8A7"/>
<path d="M194.471 147.944C194.471 147.944 193.41 158.635 202.974 159.572L207.938 191.411L211.245 207.291C211.245 207.291 218.992 212.342 223.643 205.285C223.643 205.285 224.115 197.291 222.19 191.782C221.687 190.351 221.479 188.833 221.579 187.32C222.117 179.514 223.599 156.614 222.873 151.542L218.091 145.284L194.471 147.944Z" fill="#37474F"/>
<path d="M211.884 110.233H216.739L219.988 126.447L217.851 133.388C217.399 134.826 217.503 136.382 218.142 137.748C219.595 140.917 222.291 147.109 222.88 151.556C221.521 151.656 220.16 151.385 218.943 150.772C217.726 150.159 216.698 149.227 215.969 148.075C215.969 148.075 211.892 153.446 201.971 153.446C197.16 153.446 193.25 149.907 191.935 148.133L193.716 140.096C193.863 139.443 193.917 138.772 193.875 138.104C193.781 136.44 193.599 133.017 193.643 130.415C193.643 130.415 189.035 128.584 190.22 122.915C191.404 117.246 199.726 109.107 199.726 109.107L203.294 109.245L211.884 110.233Z" fill="#7FE389"/>
<path d="M200.176 78.9829C200.176 78.9829 194.29 76.9407 192.851 82.9655C191.412 88.9903 195.845 94.8406 189.217 96.8465C189.217 96.8465 193.127 100.102 196.572 94.0194L199.479 106.374C199.479 106.374 199.479 107.05 198.447 107.566C198.447 107.566 215.162 111.287 218.382 102.944C218.825 103.424 219.128 104.017 219.256 104.659C219.384 105.3 219.333 105.964 219.108 106.578C219.108 106.578 224.043 104.579 222.655 98.1909C222.655 98.1909 226.558 98.0819 227.488 94.906C227.488 94.906 221.245 95.204 221.281 88.3144C221.325 80.3565 217.139 81.512 217.139 81.512C217.139 81.512 212.015 73.8956 200.176 78.9829Z" fill="#455A64"/>
<path d="M203.294 103.911V109.223C203.294 109.223 197.792 115.342 203.156 115.829C208.519 116.316 211.877 110.233 211.877 110.233V98.9978L203.294 103.911Z" fill="#FFA8A7"/>
<path d="M211.789 97.2244V97.5296C209.878 105.088 204.9 106.73 203.294 107.115L203.235 95.422L211.549 95.3784L211.789 97.2244Z" fill="#F28F8F"/>
<path d="M203.838 80.4365C200.663 80.6982 194.064 83.0165 193.969 91.3814C193.875 99.7463 195.147 106.127 199.485 106.389C203.824 106.65 213.512 102.755 213.962 91.8538C214.413 80.9525 206.927 80.1458 203.838 80.4365Z" fill="#FFA8A7"/>
<path d="M199.82 94.7026L199.9 99.6155L197.008 98.7797L199.82 94.7026Z" fill="#F28F8F"/>
<path d="M204.136 94.5717C204.141 94.7707 204.086 94.9664 203.979 95.134C203.871 95.3016 203.717 95.4335 203.534 95.513C203.352 95.5924 203.15 95.6159 202.954 95.5802C202.758 95.5446 202.578 95.4516 202.435 95.313C202.292 95.1743 202.194 94.9964 202.153 94.8018C202.111 94.6071 202.129 94.4046 202.203 94.22C202.277 94.0353 202.404 93.8769 202.569 93.7648C202.733 93.6527 202.927 93.5921 203.126 93.5906C203.257 93.5877 203.387 93.6109 203.509 93.6588C203.631 93.7068 203.743 93.7785 203.837 93.8698C203.931 93.9611 204.006 94.0701 204.057 94.1906C204.108 94.3112 204.135 94.4407 204.136 94.5717Z" fill="#263238"/>
<path d="M197.545 93.9688C197.548 94.1002 197.525 94.2308 197.477 94.3532C197.429 94.4755 197.358 94.5872 197.266 94.6818C197.175 94.7764 197.066 94.852 196.946 94.9043C196.825 94.9565 196.695 94.9844 196.564 94.9863C196.365 94.9906 196.17 94.9358 196.003 94.8289C195.835 94.7219 195.703 94.5677 195.624 94.3857C195.544 94.2038 195.52 94.0022 195.555 93.8067C195.59 93.6111 195.682 93.4304 195.82 93.2874C195.958 93.1444 196.135 93.0456 196.33 93.0035C196.524 92.9613 196.726 92.9778 196.911 93.0508C197.096 93.1238 197.254 93.25 197.367 93.4134C197.48 93.5769 197.542 93.7702 197.545 93.9688Z" fill="#263238"/>
<path d="M202.523 101.207C201.434 101.485 200.362 101.824 199.311 102.224C199.311 102.224 199.013 100.516 200.43 100.124C200.85 100.035 201.288 100.094 201.67 100.292C202.052 100.489 202.353 100.812 202.523 101.207Z" fill="#F28F8F"/>
<path d="M197.182 90.2695L195.241 91.4541C195.241 91.4541 195.968 92.2245 196.738 91.7448C196.952 91.572 197.109 91.3388 197.188 91.0756C197.267 90.8124 197.265 90.5315 197.182 90.2695Z" fill="#263238"/>
<path d="M208.941 94.5427C208.941 94.5427 208.868 97.6387 210.896 97.6387H214.871V90.9308C214.871 83.4016 209.159 75.5382 197.007 81.7591C197.007 81.7591 196.295 92.2316 208.941 94.5427Z" fill="#455A64"/>
<path d="M195.547 97.4715C193.657 97.4715 192.116 96.1634 192.116 94.5645C192.116 92.9657 193.657 91.6575 195.547 91.6575C197.436 91.6575 198.977 92.9657 198.977 94.5645C198.977 96.1634 197.436 97.4715 195.547 97.4715ZM195.547 92.2171C193.984 92.2171 192.712 93.2637 192.712 94.5427C192.712 95.8218 193.984 96.8756 195.547 96.8756C197.109 96.8756 198.381 95.8291 198.381 94.5427C198.381 93.2564 197.109 92.2171 195.547 92.2171Z" fill="#7FE389"/>
<path d="M203.984 97.4934C201.869 97.4934 200.139 96.1707 200.139 94.5428C200.139 92.9149 201.869 91.6358 203.984 91.6358C206.099 91.6358 207.828 92.9585 207.828 94.5428C207.828 96.1271 206.106 97.4934 203.984 97.4934ZM203.984 92.2317C202.218 92.2317 200.772 93.271 200.772 94.5428C200.772 95.8146 202.225 96.8612 203.984 96.8612C205.743 96.8612 207.196 95.8219 207.196 94.5428C207.196 93.2637 205.757 92.2317 203.984 92.2317Z" fill="#7FE389"/>
<path d="M200.459 94.2303H198.679V94.8626H200.459V94.2303Z" fill="#7FE389"/>
<path d="M212.109 94.2303H207.516V94.8626H212.109V94.2303Z" fill="#7FE389"/>
<path d="M210.881 97.2316C210.856 96.4645 211.005 95.7017 211.317 95.0005C211.469 94.5638 211.745 94.1811 212.112 93.8996C212.479 93.6181 212.92 93.45 213.381 93.4161C215.75 93.3798 216.041 95.6618 216.004 96.4685C215.895 98.5979 214.151 100.88 210.917 100.931L210.881 97.2316Z" fill="#FFA8A7"/>
<path d="M216.738 110.233C216.738 110.233 211.201 123.475 219.987 126.447L221.913 122.334C221.913 122.334 237.989 107.61 241.92 104.383C245.852 101.156 240.808 96.3887 235.932 91.9192C231.055 87.4496 226.164 83.1255 226.164 83.1255L223.723 78.8013C223.454 78.3291 223.089 77.9191 222.65 77.5984C222.212 77.2778 221.71 77.0536 221.179 76.9408C218.621 76.4103 213.802 75.4873 211.201 75.6399C207.567 75.8361 213.054 80.3638 213.977 80.3638C214.808 80.3886 215.62 80.6261 216.333 81.0536C217.047 81.481 217.64 82.0843 218.054 82.8057C219.159 84.7752 219.355 88.3217 222.879 88.1619L231.048 100.364L216.738 110.233Z" fill="#FFA8A7"/>
<path d="M231.048 100.364L233.882 103.99L229.464 101.461L231.048 100.364Z" fill="#F28F8F"/>
<path d="M181.361 127.058L183.883 129.972L182.422 125.51L181.361 127.058Z" fill="#F28F8F"/>
<path opacity="0.2" d="M203.141 130.677C203.141 130.677 210.408 131.266 212.661 124.361C212.661 124.361 212.749 133.162 203.141 130.677Z" fill="black"/>
<path d="M191.404 229.268C191.404 229.268 190.394 226.099 191.956 225.932C193.519 225.765 196.281 226.594 196.557 227.422C196.726 227.97 196.794 228.543 196.76 229.115C197.522 228.857 198.244 228.493 198.904 228.033V226.863C198.904 226.863 200.532 227.022 200.656 228.243C200.779 229.464 200.801 230.954 200.852 232.342C200.946 235.148 201.361 237.023 198.17 237.851C195.895 238.423 193.841 239.657 192.269 241.398C191.178 242.549 189.82 243.413 188.315 243.914C186.811 244.415 185.206 244.537 183.642 244.268C178.839 243.6 179.115 239.544 180.808 238.244C182.436 237.045 184.176 236.008 186.004 235.148L191.404 229.268Z" fill="#7FE389"/>
<path d="M189.689 238.229C189.616 238.231 189.545 238.212 189.483 238.175C189.422 238.137 189.372 238.083 189.34 238.018C188.569 236.777 187.343 235.888 185.924 235.54C185.872 235.529 185.823 235.508 185.78 235.477C185.737 235.447 185.7 235.409 185.671 235.364C185.643 235.319 185.624 235.269 185.615 235.217C185.606 235.165 185.607 235.112 185.619 235.06C185.63 235.01 185.651 234.962 185.681 234.919C185.711 234.877 185.749 234.84 185.793 234.813C185.837 234.785 185.886 234.766 185.937 234.758C185.988 234.749 186.041 234.751 186.091 234.762C186.909 234.96 187.68 235.319 188.357 235.818C189.035 236.317 189.606 236.947 190.037 237.669C190.071 237.73 190.087 237.797 190.086 237.866C190.085 237.934 190.065 238.001 190.03 238.06C189.995 238.119 189.945 238.168 189.885 238.201C189.825 238.235 189.757 238.252 189.689 238.251V238.229Z" fill="#FAFAFA"/>
<path d="M191.527 236.267C191.455 236.269 191.384 236.25 191.322 236.212C191.26 236.175 191.211 236.121 191.179 236.056C190.408 234.815 189.182 233.926 187.763 233.578C187.66 233.555 187.57 233.493 187.513 233.404C187.456 233.316 187.436 233.208 187.458 233.105C187.468 233.054 187.488 233.005 187.518 232.962C187.548 232.918 187.585 232.881 187.629 232.853C187.673 232.825 187.723 232.805 187.774 232.796C187.826 232.787 187.879 232.788 187.93 232.8C188.749 232.996 189.52 233.355 190.197 233.854C190.875 234.353 191.446 234.983 191.876 235.707C191.926 235.8 191.936 235.908 191.907 236.009C191.877 236.109 191.808 236.194 191.716 236.245C191.656 236.266 191.591 236.273 191.527 236.267Z" fill="#FAFAFA"/>
<path d="M193.366 234.305C193.294 234.305 193.224 234.285 193.162 234.248C193.101 234.211 193.051 234.158 193.017 234.094C192.242 232.857 191.018 231.969 189.602 231.616C189.5 231.591 189.412 231.528 189.356 231.44C189.301 231.352 189.282 231.245 189.304 231.143C189.313 231.092 189.333 231.044 189.362 231C189.39 230.957 189.428 230.92 189.471 230.891C189.515 230.863 189.563 230.843 189.614 230.834C189.666 230.825 189.718 230.826 189.769 230.838C190.588 231.035 191.36 231.394 192.039 231.893C192.718 232.392 193.29 233.022 193.722 233.745C193.771 233.839 193.781 233.948 193.75 234.048C193.718 234.149 193.648 234.233 193.555 234.283C193.495 234.304 193.43 234.312 193.366 234.305Z" fill="#FAFAFA"/>
<path d="M216.266 234.995C216.207 234.685 216.22 234.365 216.305 234.061C216.39 233.756 216.544 233.476 216.755 233.241C216.966 233.006 217.228 232.823 217.522 232.706C217.815 232.589 218.132 232.542 218.447 232.568C220.99 232.568 222.807 232.64 222.582 234.53V235.882C222.582 235.882 222.582 242.619 223.091 244.799C223.599 246.979 224.849 253.883 219.66 254.893C214.471 255.904 212.582 251.478 213.527 247.284C214.112 244.921 214.468 242.507 214.588 240.075C214.704 238.541 214.115 232.931 215.801 232.568L216.266 234.995Z" fill="#7FE389"/>
<path d="M221.019 243.338C220.952 243.337 220.887 243.317 220.83 243.28C219.513 242.648 218 242.557 216.615 243.026C216.567 243.044 216.515 243.053 216.463 243.051C216.411 243.05 216.36 243.038 216.312 243.016C216.265 242.994 216.222 242.963 216.187 242.925C216.152 242.887 216.124 242.842 216.107 242.793C216.088 242.744 216.079 242.692 216.081 242.639C216.082 242.587 216.094 242.535 216.116 242.487C216.137 242.439 216.168 242.396 216.207 242.36C216.245 242.324 216.29 242.296 216.339 242.277C217.133 242.004 217.974 241.891 218.812 241.945C219.651 241.998 220.47 242.218 221.223 242.59C221.314 242.643 221.381 242.73 221.408 242.832C221.435 242.934 221.421 243.043 221.368 243.135C221.334 243.197 221.284 243.249 221.222 243.285C221.161 243.321 221.091 243.339 221.019 243.338Z" fill="#FAFAFA"/>
<path d="M221.296 240.322C221.228 240.319 221.161 240.301 221.1 240.271C219.786 239.635 218.274 239.541 216.892 240.009C216.842 240.036 216.788 240.052 216.732 240.057C216.676 240.061 216.62 240.053 216.567 240.033C216.515 240.014 216.467 239.984 216.427 239.944C216.387 239.905 216.356 239.857 216.336 239.805C216.316 239.752 216.308 239.696 216.312 239.64C216.315 239.584 216.331 239.53 216.357 239.48C216.384 239.431 216.42 239.387 216.465 239.353C216.509 239.319 216.561 239.295 216.615 239.283C217.408 239.006 218.248 238.891 219.085 238.944C219.923 238.998 220.741 239.219 221.492 239.595C221.538 239.62 221.578 239.654 221.61 239.695C221.643 239.735 221.667 239.782 221.681 239.832C221.695 239.882 221.699 239.935 221.693 239.986C221.687 240.038 221.67 240.088 221.645 240.133C221.608 240.192 221.556 240.241 221.495 240.274C221.434 240.307 221.365 240.324 221.296 240.322Z" fill="#FAFAFA"/>
<path d="M221.571 237.35C221.503 237.346 221.436 237.329 221.375 237.299C220.057 236.667 218.546 236.574 217.16 237.037C217.11 237.065 217.056 237.082 216.999 237.087C216.942 237.091 216.885 237.083 216.832 237.064C216.779 237.044 216.73 237.013 216.69 236.973C216.65 236.933 216.619 236.885 216.599 236.832C216.579 236.778 216.571 236.721 216.576 236.665C216.58 236.608 216.597 236.553 216.625 236.504C216.652 236.454 216.691 236.411 216.737 236.378C216.783 236.344 216.835 236.321 216.891 236.31C217.683 236.033 218.523 235.918 219.361 235.972C220.199 236.025 221.017 236.247 221.768 236.623C221.813 236.648 221.853 236.682 221.886 236.722C221.918 236.763 221.942 236.81 221.956 236.86C221.971 236.91 221.975 236.962 221.968 237.014C221.962 237.066 221.946 237.115 221.92 237.161C221.884 237.22 221.832 237.268 221.771 237.301C221.71 237.335 221.641 237.351 221.571 237.35Z" fill="#FAFAFA"/>
<path d="M184.187 236.078C183.009 236.721 181.88 237.45 180.808 238.258C179.115 239.559 178.839 243.614 183.642 244.283C185.665 244.616 187.741 244.308 189.58 243.404C189.354 241.833 188.744 240.342 187.803 239.064C186.862 237.786 185.62 236.76 184.187 236.078Z" fill="white"/>
<path d="M198.17 237.233C195.895 237.805 193.841 239.039 192.269 240.78C191.178 241.931 189.82 242.796 188.315 243.296C186.811 243.797 185.205 243.919 183.642 243.651C180.953 243.28 179.856 241.841 179.711 240.417C179.573 242.015 180.561 243.839 183.642 244.268C185.205 244.537 186.811 244.415 188.315 243.914C189.82 243.413 191.178 242.549 192.269 241.398C193.841 239.657 195.895 238.423 198.17 237.851C200.685 237.204 200.961 235.896 200.917 233.999C200.866 235.562 200.401 236.688 198.17 237.233Z" fill="#37474F"/>
<path d="M223.555 247.451C222.244 246.115 220.459 245.348 218.586 245.316C216.713 245.285 214.904 245.992 213.548 247.284C212.603 251.477 214.493 255.903 219.682 254.893C223.446 254.13 223.832 250.336 223.555 247.451Z" fill="#F5F5F5"/>
<path d="M219.711 254.072C215.539 254.886 213.504 252.183 213.352 248.912C213.177 252.546 215.19 255.773 219.711 254.893C223.061 254.239 223.73 251.143 223.65 248.44C223.541 250.918 222.691 253.483 219.711 254.072Z" fill="#455A64"/>
</svg>
