<svg fill="none" xmlns="http://www.w3.org/2000/svg" viewBox="0 0 364 324"><path d="M181.68 324c100.34 0 181.69-45.42 181.69-101.45s-81.35-101.46-181.69-101.46S0 166.52 0 222.55C0 278.58 81.34 324 181.68 324Z" fill="#F0F4F9"/><path d="M72.26 260.98c21.34 0 38.63-9.99 38.63-22.3 0-12.33-17.3-22.31-38.63-22.31-21.34 0-38.63 9.98-38.63 22.3s17.3 22.3 38.63 22.3Z" fill="#E0E0E0"/><path d="M84.91 216c-.07-5.1 2.4-35.66 2.4-35.66l-15.21 7.24c1.49 18.52 2.75 27.36 2.7 28.85-.07.25-.11.5-.1.75-.17 3.37 3.72 5.4 6.77 7.82a59.47 59.47 0 0 0 8.2 5.7c2.23 1.2 6.83 1.55 7.45.19-3.67-2.98-7.91-6.21-10.78-9.53-1.35-1.62-1.37-1.8-1.43-5.35Z" fill="#9E6767"/><path d="M103.45 234.85c.2 0 .39 2.07-.74 2.88-1.27.94-4.94 2.39-9.65 1.55-4.71-.83-7.19-2.4-9.04-3.98-1.84-1.58-4.37-3.88-6.5-4.47-1.96-.53-4.09-1.5-4.7-2.12-.61-.62-.39-3.22-.39-3.22l31.02 9.36Z" fill="#000"/><path d="M89.41 222.67c-.29-.3-.57-.62-.84-.93a9.81 9.81 0 0 1-1.65-2.85c-.2-.44-.37-.88-.53-1.34-.16-.62-.25-1.28-.38-1.91a4.84 4.84 0 0 0-.25-.91.79.79 0 0 0-.4-.45 13.6 13.6 0 0 0-5.5 1.2c-.42.19-.74.42-.8.9.05.55-.03 1.1-.22 1.62-.05.1-.11.18-.2.24a.42.42 0 0 1-.4 0 .85.85 0 0 1-.32-.3c-.47-.66-.58-1.55-1.12-2.17-.3-.32-.7-.54-1.13-.63-.2-.04-.91-.05-.96-.35l-.13-1.38s-.43-.2-.7.62c-.2.85-.3 1.72-.33 2.6-.09.94-.22 1.68-.38 2.62-.2 1.11-.39 2.23-.57 3.35a11.35 11.35 0 0 0-.3 3.28c.05.49.29.93.66 1.25a6.52 6.52 0 0 0 1.95 1.35c.99.48 2.02.87 3.03 1.3a26.7 26.7 0 0 1 6.52 4.39 20.35 20.35 0 0 0 9.84 4.08c4.7.31 8.1-1.02 9.13-2.58.16-1.1.3-2.24-.15-3.04-1.5-2.66-5.1-3.73-7.94-5.33a32.29 32.29 0 0 1-3.56-2.43c-.84-.67-1.64-1.4-2.37-2.2Z" fill="#37474F"/><path d="M86.69 229.56a.44.44 0 0 0 .53-.06c2.06-2.03 5.97-3.22 7.25-2.76 0 0-.16-.63-1.5-1 0 0-3.41-.34-6.8 2.88a.44.44 0 0 0-.06.55c.04.06.09.1.14.14l.44.25ZM91.25 224.4c-1.42-.53-4.85.97-6.54 2.62a.4.4 0 0 1-.26.13.4.4 0 0 1-.28-.09l-.42-.32a.4.4 0 0 1-.15-.3.4.4 0 0 1 .15-.32c.95-.88 3.73-3.13 6.36-2.76-.02 0 1.03.52 1.14 1.04ZM88.57 221.74c-1.02-.24-3.73.33-5.96 2.09a.38.38 0 0 1-.46 0 .38.38 0 0 1-.1-.12l-.2-.39a.37.37 0 0 1 .1-.46c.74-.61 3.39-2.47 5.86-2.14.34.27.6.62.76 1.02ZM97.09 228.16c-5.89 1.25-8.15 5.01-9.23 8.1a19.12 19.12 0 0 0 6.44 1.95c4.7.31 8.1-1.01 9.13-2.58.16-1.09.3-2.24-.15-3.04-1.19-2.13-3.76-3.24-6.2-4.43Z" fill="#FAFAFA"/><path d="M60.85 194.32 46.7 192.3c.22 7.45-.26 17.4-.59 25.77-.4 1.83-.47 3.7-.21 5.56.29 1.6-2.24 13.1-1.5 16.45 1.08 5.04 8.95 3.47 9.28.42.33-3.04 1.27-9.13 2.3-17.14.82-6.86 4.82-28.58 4.88-29.05Z" fill="#9E6767"/><path d="m55.47 242.42-4.72-10.53c-1.32-.75-2.88-2.24-4.35-1.42-.52.26-1 .6-1.42.99-1.1 1.08-1.2 2.66-1.5 4.07-.29 1.42-1.33 2.72-1.55 4.19-.43 2.76-.54 4.51.2 7.06.74 2.54 3.21 3.98 5.68 4.7 2.06.6 4.69.05 5.84-1.7 1.42-2.22 1.73-4.38 1.82-7.36Z" fill="#000"/><path d="M55.41 242.32c-1.9-2.56-11.08-3.48-13.65-1.17 0-.34.06-.7.1-1.08.27-2.51.8-4.99 1.6-7.38.49-1.5.87-3.03 1.14-4.59.2-1.6.44-4.93.54-6.06.03-1.12.13-2.23.31-3.34.08-.33.18-.74.61-.62 0 0 0 .55-.06.89-.07.33-.06.69-.08.97-.06.7-.06 1.31-.06 2-.02.27 0 .53.08.79.03.05.07.1.12.14.19.08.18-.38.19-.46l.3-1.71c.01-.1.05-.18.1-.25a.47.47 0 0 1 .18-.1c1.44-.57 2.5-1.05 3.99-.8.83.12 1.64.32 2.43.59.57.2 1.6.52 1.92 1.08.11.27.14.58.07.87l-.3 2.5c-.12 1.04 1.2-2.46 1.43-4.44.55.13.48.75 0 3.09a63.79 63.79 0 0 0-1.13 16.07c.1 1.06.16 2.05.17 3.02Z" fill="#37474F"/><path d="M44.86 236.54a19.65 19.65 0 0 1 8.84.92.25.25 0 0 0 .22-.25v-.81a.24.24 0 0 0-.14-.22 14.73 14.73 0 0 0-8.87-.84.26.26 0 0 0-.2.2l-.11.75.01.1.06.09.1.05.1.01ZM45.72 232.5c2.64-.38 5.34-.01 7.78 1.05.04.02.08.02.12.02a.24.24 0 0 0 .22-.23v-.74a.23.23 0 0 0-.04-.13.23.23 0 0 0-.1-.07c-.7-.32-3.18-1.8-7.94-1a.23.23 0 0 0-.2.19l-.1.66a.25.25 0 0 0 .26.25ZM46.45 228.81c2.47-.38 5-.04 7.29.98.03.01.07.02.1.01.04 0 .08-.01.1-.03a.22.22 0 0 0 .1-.19v-.75a.23.23 0 0 0-.13-.2c-.64-.3-2.98-1.71-7.45-.9a.22.22 0 0 0-.19.19l-.1.62a.23.23 0 0 0 .07.2.23.23 0 0 0 .21.07ZM41.78 241.18c-.08 2.5.13 4.2 1.44 6.06 1.67 2.38 7.85 4.61 10.5 1.08 1.33-1.76 1.63-3.82 1.75-5.9-1.75-2.64-11.14-3.58-13.7-1.24Z" fill="#FAFAFA"/><path d="M50.09 113.43c-2 16.07-1.74 35.4-2.37 45.76-.63 10.35-1.78 17.4-1.91 25.27-.22 13.32.2 27.82.2 27.82s5.6 3.2 11.92 1.1c0 0 5.28-26.96 6.63-35.26 1.93-11.84 4.47-32.87 4.47-32.87l2.33 22.37a59.06 59.06 0 0 0-.7 16.82c.59 5.22 3.07 24.3 3.07 24.3a14.36 14.36 0 0 0 12.14-.74s3.28-36.53 3.54-41.35c.4-6.8.83-57.4.75-63.2l-40.07 9.98Z" fill="#455A64"/><path d="m69.02 145.23 1.78-11.93s8.04-2.24 11.44-7.65c-2.23 6.66-9.64 9.6-9.64 9.6l-2.55 11.59 1.3 20.75-2.33-22.36Z" fill="#37474F"/><path d="M80.47 59.54c6.35 1 8.43 3.18 10.68 8.56 3.83 9.16 7.55 18.2 7.55 18.2l17.53 7-1.55 11.19s-13.46-2.76-21.38-4.86c-2.23-.6-3.04-2.03-4.15-3.66-.9-1.33-9.6-17.51-9.6-17.51l.92-18.92Z" fill="#263238"/><path d="M89.07 74.1c-1.64-8.45-2.4-12.2-7.9-14.08-5.49-1.89-14.9-1.81-14.9-1.81-2.84.74-11.68 2.86-15.53 4-3.86 1.15-3.06 10.11-2.16 15.83a164.14 164.14 0 0 1 2.05 19.74c-.15 9.1-.97 15.26-1.32 20.47 8.2 5.22 32.2 4.3 40.9-.95.2-4.33.26-15.76.19-21.37-.14-10.51-.64-18.26-1.33-21.82Z" fill="#37474F"/><path d="M53.38 61.22c-3.27.57-7.4 1.5-9.26 4.48-1.34 2.16-8.46 18.88-8.28 25.7 2.72 7.72 16.82-6.46 16.82-6.46 1.63-9.22 3.62-18.82.72-23.72ZM83.7 25.3a14 14 0 0 0-7.78-4.18c-2.95-.56-6-.42-8.88.42-3.34.99-6.92 3.86-7.14 7.95-1.6.36-2.77 2-3.16 3.93-.61 2.98.33 6.19 1.42 8.88 0 0 3.6 6.49 4.27 7.84.75 1.57 1.34 2.88 1.34 2.88l-.2-4.92c1.95-.05 3.9-.36 5.76-.95a36.58 36.58 0 0 0 5.37-2.44 64.16 64.16 0 0 0 9.62-6.7c1.7-1.4 2.02-2.99 2.1-5.14a10.33 10.33 0 0 0-2.72-7.58Z" fill="#263238"/><path d="M67.8 30.5a9.77 9.77 0 0 1-3.22 5.33c.36 1.97.38 3.98.06 5.96-.07.42-.23.83-.46 1.2a1.49 1.49 0 0 1-1.07.64c-.57 0-.8-.32-.97-.74-.25-.58-.54-1.15-.86-1.69-.14-.24-.3-.46-.5-.66-.87-.82-3.45-1.84-4.69.9-1.24 2.75.96 6.66 3.04 7.27 3.6 1.06 4.4-1.38 4.4-1.38l.52 12.87c1.93 2.08 9.37 5.1 11.47 7.56.98-1.63 3.17-4.35 1.21-7.97v-4.22c1.43.08 2.86-.02 4.27-.28 1.87-.34 3.68-2.02 4.56-4.84 1.7-5.5.86-13.08.2-16.5a10.9 10.9 0 0 0-2.66-5.56.64.64 0 0 0-1.01.1 5.7 5.7 0 0 1-3.99 2.23c-2.23.3-5.86-.28-8.6-1.17a1.31 1.31 0 0 0-1.7.95Z" fill="#9E6767"/><path d="M76.73 55.55c-3.32-.35-6.8-.92-8.65-1.92a7.1 7.1 0 0 1-2.89-2.75s.14 1.32 1.9 3.1c1.99 2.01 9.64 2.84 9.64 2.84v-1.27Z" fill="#874C4C"/><path d="M73.33 40.13a1.15 1.15 0 1 1-1.17-1.17 1.18 1.18 0 0 1 1.17 1.17ZM81 34.11c1.2.2 2.33.67 3.3 1.39a1.88 1.88 0 0 0-1-2.41 1.75 1.75 0 0 0-2.3 1.02Z" fill="#263238"/><path d="m73.27 46.88 4.1 1.17a2.1 2.1 0 0 1-2.6 1.54 2.24 2.24 0 0 1-1.5-2.7Z" fill="#874C4C"/><path d="M73.67 47.83a1.92 1.92 0 0 1 1.77 1.83c-.22.01-.44-.01-.66-.07a2.24 2.24 0 0 1-1.5-1.71 2 2 0 0 1 .39-.05Z" fill="#F28F8F"/><path d="M72.67 36.93a5.22 5.22 0 0 0-3.03 1.74 1.7 1.7 0 0 1 .62-2.34 1.79 1.79 0 0 1 2.41.6ZM83.49 39.24a1.15 1.15 0 1 1-1.18-1.18 1.18 1.18 0 0 1 1.18 1.18Z" fill="#263238"/><path d="m76.64 37.04.74 8.48 4.2-1.29a20.96 20.96 0 0 0-4.94-7.19Z" fill="#874C4C"/><path d="M75.52 67.74c-1.5-.91-4.39-3.04-5.83-1.22-1.45 1.83-2.51 3.96-3.57 3.64-1.06-.32-4.54-3.64-5.85-6.5-.66-1.56-1-3.25-1.01-4.95 0 0 1.26-1.38 2.3-2.46 1.16-1.2 1.35-1.49 2.24-1.56l.12 3.17a4.82 4.82 0 0 0 1.94 3.17c2.6 1.89 7.8 2.56 9.66 6.71ZM75.52 67.74c.88-.79 2.1-2.92 3.52-2.5 1.42.41 2.8 3.22 2.84 2.46.05-.77-1.21-4.8-2.39-7.03-.9-1.71-1.81-3.23-2.76-3.4v2.5s0 2.15-.1 3.44a11.47 11.47 0 0 1-1.11 4.53Z" fill="#263238"/><path d="M53.22 67.25a17.15 17.15 0 0 0 3.1-6.01c.63-2.55 2.64-4.9 3.33-5.86.68-.96 2.16-2.39 3.28-3.73 1.13-1.34 1.5-1.73 3.08-2 2.24-.38 3.98-.75 4.85-.47.87.29.84.84.09 1.6-.76.78-2.36.97-2.85 1.12-.5.15-1.58.62-1.58.62l-2.07 3.04c1.42.24 2.82.58 4.19 1.02.68.37 1.27 2.14.97 3.12 0 0 1.28.87.74 2.13 0 0 .78 1.02.25 1.86-.61.85-1.3 1.62-2.08 2.31-.43.37-2.11.46-2.11.46a15.58 15.58 0 0 1-2.64 3.06c-1.2.89-1.98.83-3.3 2.7l-7.25-4.97Z" fill="#9E6767"/><path d="M66.03 55.86c.82-.36 1.01-.92 1.8-.62.78.3.47 1.18.47 1.18l-2.27-.56ZM69.58 59.76a7.87 7.87 0 0 0-1.7-1.1c-.57-.28-1.75-.7-1.75-.7a8.48 8.48 0 0 1 3.57 1.15c0 .2-.03.4-.08.58l-.04.07ZM69.7 60.95c.27.11.54.25.8.4-.02.2-.07.38-.13.57a7.06 7.06 0 0 0-2.24-1.37c.53.07 1.06.2 1.56.4ZM66.13 66.91c.48-.96 1.05-1.88 1.7-2.74a1.26 1.26 0 0 1 1.72-.16c.21.33-.92.29-1.25.43-.85.7-1.58 1.54-2.17 2.47ZM63.5 55.45s.64-.9 1.78-2.34c1.14-1.44 1.08-1.23 2.2-1.44 1.1-.22 3.21-.6 3.78-1.26-.1.13-.2.25-.31.36-.75.75-2.36.96-2.85 1.11-.5.15-1.58.63-1.58.63l-2.13 3.12-.89-.18Z" fill="#874C4C"/><path d="M53.22 67.25c-3.74 4.5-13.8 15.32-16.16 19.66-1.61 2.99-2.02 9.93-.38 12.45 1.64 2.52 6.35 1.49 10.16-1.88 3.28-2.89 6.02-9.83 8.4-14.77 2.4-4.94 5.23-10.51 5.23-10.51l-7.25-4.95Z" fill="#9E6767"/><path d="M53.22 67.25c.85-1.14 1.6-2.36 2.24-3.64.3-.64.55-1.31.74-2 .16-.7.39-1.38.68-2.03.63-1.29 1.4-2.5 2.28-3.63a31.17 31.17 0 0 1 2.77-3.25c.48-.53.94-1.07 1.4-1.62a3.77 3.77 0 0 1 1.7-1.3c.7-.2 1.4-.33 2.12-.43.7-.12 1.4-.25 2.11-.32.36-.05.72-.06 1.08-.05.38 0 .76.12 1.07.34a.61.61 0 0 1 .23.56c-.03.2-.1.38-.22.53-.22.3-.49.56-.8.75a6.6 6.6 0 0 1-2.04.7c-.69.2-1.36.44-2 .75l.06-.03-2.07 3.02-.06-.15c1.26.26 2.53.5 3.78.88.16.04.31.1.46.19.14.1.27.22.37.36.19.27.34.57.44.89.24.62.3 1.3.16 1.95v-.1c.34.26.62.59.8.98a1.64 1.64 0 0 1 0 1.25v-.07a1.87 1.87 0 0 1 .33 1.78c-.32.53-.7 1.01-1.13 1.45l-.64.66c-.2.23-.46.42-.75.55-.59.17-1.2.27-1.81.29h.04c-.39.58-.81 1.13-1.26 1.66a8.2 8.2 0 0 1-1.5 1.5c-.57.4-1.22.66-1.78 1.07-.55.42-1.03.93-1.43 1.5.36-.6.8-1.14 1.33-1.6.56-.42 1.2-.7 1.77-1.11a8.01 8.01 0 0 0 1.49-1.5c.44-.53.85-1.09 1.23-1.67.6-.03 1.2-.13 1.79-.3.27-.12.5-.3.69-.53a12.97 12.97 0 0 0 1.74-2.06 1.74 1.74 0 0 0-.32-1.64v-.04a1.49 1.49 0 0 0-.02-1.14 2.3 2.3 0 0 0-.74-.9h-.05v-.06c.13-.62.07-1.26-.16-1.85-.21-.58-.52-1.2-1.17-1.32-1.23-.37-2.5-.6-3.72-.85h-.15l.08-.13 2.06-3.03c.64-.31 1.32-.56 2.02-.75.69-.12 1.36-.34 1.98-.67.3-.19.56-.44.75-.74.2-.27.3-.63 0-.82a2.98 2.98 0 0 0-2-.26c-.74.08-1.4.19-2.1.31-.7.1-1.4.23-2.08.41a3.6 3.6 0 0 0-1.65 1.24c-.46.55-.92 1.1-1.4 1.62-1 1.01-1.94 2.1-2.78 3.24a19.7 19.7 0 0 0-2.29 3.58c-.3.65-.53 1.32-.7 2.02-.19.68-.44 1.35-.74 2a23.58 23.58 0 0 1-2.23 3.56Z" fill="#874C4C"/><path d="m125.79 78.46-30 11.06-7.78 36 .69.7 28.5-11.11 9.27-35.95-.68-.7Z" fill="#7FE389"/><path opacity=".25" d="m125.79 78.46-30 11.06-7.78 36 .69.7 28.5-11.11 9.27-35.95-.68-.7Z" fill="#fff"/><path d="m96.48 90.23-7.78 36-.69-.72 7.78-35.99.7.71Z" fill="#7FE389"/><path opacity=".35" d="m96.48 90.23-7.78 36-.69-.72 7.78-35.99.7.71Z" fill="#000"/><path d="M126.47 79.16 96.48 90.23l-7.78 36 28.5-11.12 9.27-35.95Z" fill="#7FE389"/><path opacity=".2" d="M112.61 107.91c.3.7 2.63 2.24 5.97 1.9l.53-2.08-6.5.18Z" fill="#000"/><path opacity=".1" d="m117.5 86.64.23-1.2c.12-.67-1.64-.3-3.95.83l-5.4 1.72c-2.31 1.14-4.48 1.98-4.62 2.64l-.23 1.21 13.97-5.2Z" fill="#000"/><path d="M119.21 81.17c.08-.41-.61-.32-1.56-.05l-1.73.62s.58-2.07-3.41-.58c-5.1 1.9-4.57 3.55-4.57 3.55-.7.31-1.43.59-2.16.82-1.5.5-1.66.8-1.78 1.23l-.2.74 15.26-5.61.15-.72Z" fill="#37474F"/><path d="M117.63 83.5c-1.42.67-2 1-2.24 2.02-.23 1.18-.27 1.66-.27 1.66l-7.96 3.27s.41-1.72.51-2.3c.1-.57-.96-.57-2.33.1l.3-1.44 12.29-4.47-.3 1.17Z" fill="#263238"/><path d="m117.9 86.65.24-1.2c.12-.67-1.64-.3-3.94.84L108.78 88c-2.3 1.13-4.47 1.98-4.61 2.64l-.23 1.2 13.97-5.2Z" fill="#263238"/><path d="M123.3 91.51 122 96.46c-.27 1-5.16 3.35-7.63 3.73-4.72.66-5.22 1.7-4.06 5.03 1.1 3.08 4.2 4.2 8.45 3.64a7.7 7.7 0 0 0 5.78-5.22c1.33-3.97.52-8.2 1.03-10.5.52-2.3-1.1-3.05-2.28-1.63Z" fill="#9E6767"/><path d="M134.44 135.5c.38-.9 1.36-1.55 2.83-1.72a10.33 10.33 0 0 1 8.63 3.69c.9 1.18 1.11 2.34.74 3.23l-24.56 64.2c-.47 1.36-1.86 2.34-4.02 2.6-4.14.5-9.51-1.78-12-5.11-1.32-1.74-1.56-3.43-.92-4.7l29.3-62.2Z" fill="#455A64"/><path d="M145.9 137.47c1.79 2.37.84 4.6-2.11 4.95a10.33 10.33 0 0 1-8.59-3.66c-1.79-2.38-.84-4.6 2.11-4.95a10.32 10.32 0 0 1 8.59 3.66Z" fill="#37474F"/><path d="M146.5 116.86a6.26 6.26 0 0 1 5.22 2.24 1.97 1.97 0 0 1 .44 1.95l-7.95 18.64a1.98 1.98 0 0 1-1.71 1.03 6.24 6.24 0 0 1-5.22-2.23 2 2 0 0 1-.44-1.96l7.95-18.64a1.98 1.98 0 0 1 1.71-1.03Z" fill="#7FE389"/><path opacity=".2" d="M146.5 116.86a6.26 6.26 0 0 1 5.22 2.24 1.97 1.97 0 0 1 .44 1.95l-7.95 18.64a1.98 1.98 0 0 1-1.71 1.03 6.24 6.24 0 0 1-5.22-2.23 2 2 0 0 1-.44-1.96l7.95-18.64a1.98 1.98 0 0 1 1.71-1.03Z" fill="#000"/><path opacity=".2" d="m141.13 126.5.55.32.08.05.1.06.13.06c.34.2.7.4 1.08.57.44.22.9.42 1.37.6a12.62 12.62 0 0 0 1.92.66c.24.1.5.17.75.22a8.56 8.56 0 0 0 1.29.3h.18l3.56-8.35a1.95 1.95 0 0 0-.44-1.95 4.25 4.25 0 0 0-.75-.75 27.26 27.26 0 0 1-6.83 1.17l-3 7.04Z" fill="#000"/><path opacity=".15" d="M140.86 142.2 115 207.4c1 .16 2.03.2 3.05.09 2.17-.27 3.55-1.25 4.02-2.6l24.52-64.17c-.38.9-1.36 1.53-2.84 1.71a8.6 8.6 0 0 1-2.9-.22Z" fill="#000"/><path d="M221.66 39.67c0-.53-.05-1.06-.1-1.6-.04-.52-.05-1.03-.1-1.54 0-.35-.07-.7-.12-1.04-.09-.9-.21-1.78-.36-2.62l-.21-1.17-.23-1.08c-.23-.97-.47-1.93-.75-2.85l-.42-1.28a33.2 33.2 0 0 0-.53-1.42c-.17-.4-.37-.94-.58-1.37-.2-.44-.29-.65-.46-.96-.1-.24-.21-.47-.34-.7a9.76 9.76 0 0 0-.55-1l-.41-.74c-.15-.27-.2-.3-.3-.46a22.82 22.82 0 0 0-2.28-2.98l-.41-.48a9.28 9.28 0 0 0-.36-.37l-.46-.46a14 14 0 0 0-1.38-1.23c-.22-.2-.46-.38-.7-.55-.23-.17-.47-.36-.74-.53-.39-.28-.78-.54-1.18-.75l-.31-.2-.07-.04-7.38-4.35-.1-.06a23.5 23.5 0 0 0-11.76-2.98c-6.13 0-13.05 2-20.38 6.23-25.18 14.53-45.6 49.86-45.6 78.93 0 14.5 5.07 24.7 13.27 29.49h.08l7.4 4.33.08.05.1.06c.04 0 .08.05.12.06a15.23 15.23 0 0 0 2.46 1.17c.4.18.83.34 1.25.46.22.09.44.15.66.2.25.1.5.17.75.22a8.45 8.45 0 0 0 1.29.3 10.58 10.58 0 0 0 1.22.21c.4.06.8.12 1.18.16 6.8.75 14.69-1.2 23.11-6.08 25.2-14.53 45.61-49.9 45.61-78.97.02-.63 0-1.31-.01-2Zm-83.1 68.59a44.63 44.63 0 0 1-1.53-11.93c0-27.58 20.13-62.48 44.02-76.26a42.64 42.64 0 0 1 11.18-4.62 24.6 24.6 0 0 1 5.75-.74 18 18 0 0 1 2.91.22h.09c4.88 5.78 5.6 15.04 5.6 19.98 0 27.58-20.13 62.48-43.99 76.25-6.07 3.5-11.93 5.36-16.91 5.36a11.6 11.6 0 0 1-3.08-.4 21.76 21.76 0 0 1-4.04-7.83v-.03Z" fill="#37474F"/><path opacity=".25" d="M215.13 39.8c0 14.63-5.69 31.35-14.6 45.87-.41.7-.84 1.37-1.28 2.05-.44.68-.75 1.16-1.15 1.74a106.93 106.93 0 0 1-10.03 12.73 74.25 74.25 0 0 1-16.95 13.85 45.3 45.3 0 0 1-3.39 1.8 33.89 33.89 0 0 1-11.6 3.5c-.64.06-1.28.09-1.92.09h-.97a14.12 14.12 0 0 1-2.67-.34c-.27-.07-.56-.12-.83-.2a13.33 13.33 0 0 1-7.15-4.63c1 .26 2.03.4 3.07.38 5.01 0 10.85-1.84 16.92-5.34 23.86-13.77 43.99-48.7 43.99-76.26 0-4.95-.75-14.16-5.61-19.98h-.07c6.22 1 9.75 5.22 11.75 10.12a28.4 28.4 0 0 1 1.36 4.27c0 .08.04.16.05.24.07.26.13.53.18.8l.15.74v.2l.15.82c.16 1.03.28 2.02.36 2.99 0 .28.06.54.07.8.02.26 0 .4.04.6v.24c0 .22 0 .43.04.64v.91c.1.45.1.9.1 1.37Z" fill="#000"/><path d="m143.2 123.57-6.84-4.03c-8.2-4.79-13.27-14.99-13.27-29.47 0-12.96 4.06-27.18 10.78-40.25l7.8 4.47c-6.7 13.05-11.18 27.1-11.18 40.08-.02 14.2 4.81 24.27 12.71 29.2Z" fill="#263238"/><path d="m208.4 12.28-.06-.06-7.38-4.34-.1-.06c-3.6-2-7.65-3.04-11.76-2.98-6.13 0-13.05 2-20.38 6.23-13.96 8.06-26.44 22.52-34.8 38.76l7.76 4.57-.17.32c8.39-16.06 20.81-30.57 34.62-39.3 12.5-7.87 24.35-7.98 32.64-2.98l-.36-.16Z" fill="#455A64"/><path opacity=".1" d="M211.17 37.46c0 27.58-20.13 62.48-44.02 76.25a42.42 42.42 0 0 1-11.19 4.63c-1.88.47-3.8.72-5.74.74-2 .03-3.97-.31-5.84-1-2.98-2.49-4.76-6.08-5.83-9.78A44.6 44.6 0 0 1 137 96.37c0-27.58 20.13-62.48 44.02-76.25a42.65 42.65 0 0 1 11.19-4.62 24.6 24.6 0 0 1 5.74-.75c2-.02 3.97.31 5.84 1 2.98 2.47 4.76 6.08 5.83 9.77 1.05 3.9 1.57 7.9 1.54 11.94Z" fill="#7FE389"/><path opacity=".3" d="M150.23 119.1a24.6 24.6 0 0 0 5.75-.75c3.93-1 7.7-2.55 11.18-4.62 23.86-13.78 44.02-48.7 44.02-76.26.03-4.02-.49-8.04-1.53-11.92-1.08-3.69-2.86-7.29-5.81-9.77l-.28-.1c-.27-.1-.53-.18-.8-.26l-.47-.13c-.27-.07-.55-.12-.83-.18l-.5-.1h-.04.05c4.89 5.78 5.6 15.03 5.6 19.98 0 27.58-20.12 62.49-43.98 76.26-6.08 3.5-11.93 5.34-16.92 5.34-1.04.01-2.07-.12-3.07-.39l.04.06c.55.66 1.15 1.26 1.8 1.81 1.85.7 3.81 1.04 5.79 1.03Z" fill="#fff"/><path d="m265.65 50.6-33.68 19.46c-1.8 1.03-3.27-.07-3.27-2.48V38.36c0-2.4 1.5-5.22 3.27-6.25l33.68-19.44c1.8-1.04 3.27.06 3.27 2.47v29.23c-.02 2.41-1.46 5.2-3.27 6.24Z" fill="#FAFAFA"/><path d="M230.67 70.8c-.36 0-.7-.09-1.02-.27-.83-.47-1.3-1.55-1.3-2.98V38.36c0-2.52 1.54-5.46 3.44-6.55l33.69-19.45a2.42 2.42 0 0 1 2.48-.17c.84.48 1.32 1.55 1.32 2.98V44.4c0 2.51-1.55 5.46-3.45 6.55l-33.68 19.41c-.45.28-.96.43-1.48.44Zm36.28-58.14c-.4 0-.78.13-1.12.34l-33.68 19.43c-1.7.98-3.1 3.64-3.1 5.96v29.22c0 1.14.36 1.99.96 2.34a1.75 1.75 0 0 0 1.78-.18l33.69-19.45c1.7-.98 3.08-3.63 3.08-5.92V15.14c0-1.14-.35-1.99-.95-2.34a1.3 1.3 0 0 0-.66-.16v.02Z" fill="#E0E0E0"/><path d="m258.27 28.7-6.88 24.73 13.75-7.94-6.87-16.78Z" fill="#7FE389"/><path opacity=".3" d="m258.27 28.7-6.88 24.73 13.75-7.94-6.87-16.78Z" fill="#fff"/><path d="m248.81 27-6.88 31.88 13.76-7.94-6.88-23.93Z" fill="#7FE389"/><path d="m239.44 43.5-6.88 20.8 13.75-7.94-6.88-12.86Z" fill="#7FE389"/><path opacity=".3" d="m239.44 43.5-6.88 20.8 13.75-7.94-6.88-12.86Z" fill="#000"/><path d="m233.87 36.82-1.09.63c-.12.07-.22 0-.22-.17V35.5a.53.53 0 0 1 .22-.42l1.09-.63c.12-.07.22 0 .22.17v1.76a.54.54 0 0 1-.22.43Z" fill="#7FE389"/><path opacity=".3" d="m233.87 36.82-1.09.63c-.12.07-.22 0-.22-.17V35.5a.53.53 0 0 1 .22-.42l1.09-.63c.12-.07.22 0 .22.17v1.76a.54.54 0 0 1-.22.43Z" fill="#000"/><path d="m233.87 40.22-1.09.63c-.12.07-.22 0-.22-.17v-1.76a.54.54 0 0 1 .22-.43l1.09-.65c.12-.07.22 0 .22.17v1.77a.54.54 0 0 1-.22.44ZM233.87 43.62l-1.09.63c-.12.07-.22 0-.22-.16V42.3a.51.51 0 0 1 .22-.43l1.09-.62c.12-.07.22 0 .22.16v1.77a.52.52 0 0 1-.22.43Z" fill="#7FE389"/><path opacity=".3" d="m233.87 43.62-1.09.63c-.12.07-.22 0-.22-.16V42.3a.51.51 0 0 1 .22-.43l1.09-.62c.12-.07.22 0 .22.16v1.77a.52.52 0 0 1-.22.43Z" fill="#fff"/><path d="M175.3 148.74a.44.44 0 0 0 .25-.32 17.7 17.7 0 0 0 .5-3.6c0-.15-.07-.24-.18-.2l-1.22.37a8.56 8.56 0 0 0-.39-2.43l1.05-1.49a.48.48 0 0 0 .08-.4 5.32 5.32 0 0 0-1.4-2.02c-.08-.06-.2 0-.28.13l-1.04 1.49a3.11 3.11 0 0 0-1.69-.54l.26-1.77c0-.16-.04-.26-.14-.26-.41.03-.82.1-1.22.23-.44.14-.86.31-1.27.53a.55.55 0 0 0-.21.36l-.26 1.78a9.8 9.8 0 0 0-1.98 1.66l-.69-1c-.06-.07-.17-.05-.27.06a18.7 18.7 0 0 0-2.12 3.09.43.43 0 0 0 0 .39l.69.98c-.47.93-.84 1.9-1.13 2.9l-1.22.37a.46.46 0 0 0-.25.32 16.75 16.75 0 0 0-.5 3.62c-.01.14.06.22.17.19l1.22-.37c.01.82.14 1.63.39 2.41l-1.05 1.5a.49.49 0 0 0-.08.4c.3.78.78 1.47 1.4 2.02.08.06.2 0 .29-.12l1.03-1.5c.5.34 1.08.52 1.68.54l-.25 1.78c0 .15.04.26.14.25.41-.03.82-.1 1.22-.23.44-.14.86-.32 1.27-.53a.51.51 0 0 0 .22-.37l.25-1.77a9.8 9.8 0 0 0 1.98-1.66l.69.99c.06.09.18.07.27-.05.81-.95 1.52-1.99 2.11-3.09a.41.41 0 0 0 0-.4l-.68-.98c.46-.92.84-1.89 1.12-2.88l1.23-.38Zm-6.3 4.54c-3.18 2.48-5.37-.67-3.67-5.3a7.9 7.9 0 0 1 2.36-3.46c3.19-2.5 5.38.66 3.68 5.3a7.9 7.9 0 0 1-2.36 3.46ZM184.6 149.12a.27.27 0 0 0 .06-.2 8.03 8.03 0 0 0-.15-1.06 5.33 5.33 0 0 0-.29-.93c0-.05-.08-.05-.13 0l-.83.75a2.5 2.5 0 0 0-.81-.96l.43-1.23v-.18a2.68 2.68 0 0 0-1.49-.3c-.05 0-.11.07-.14.15l-.43 1.23c-.48.08-.93.26-1.33.52l-.22-.98a.08.08 0 0 0-.04-.05h-.08a8.77 8.77 0 0 0-1.73 1.67.26.26 0 0 0-.01.11l.22.98c-.41.53-.77 1.1-1.07 1.7l-.75-.15c-.04 0-.1 0-.14.11a13 13 0 0 0-.88 2.5c0 .09 0 .16.06.16l.74.15c-.13.62-.2 1.25-.19 1.88l-.81.75a.26.26 0 0 0-.1.21 6.86 6.86 0 0 0 .44 1.99c0 .05.09.05.14 0l.83-.75c.18.38.46.71.8.96l-.42 1.23v.18c.46.24.97.35 1.49.3.05 0 .11-.07.14-.15l.42-1.22c.48-.1.93-.27 1.34-.53l.22.97v.04l.04.03a.07.07 0 0 0 .07-.02 7.84 7.84 0 0 0 1.68-1.55.33.33 0 0 0 .07-.22l-.22-.97c.41-.54.77-1.1 1.07-1.7l.74.15c.05 0 .12-.05.15-.12.37-.8.66-1.65.88-2.5 0-.1 0-.16-.06-.16l-.74-.15c.13-.62.19-1.25.18-1.88l.85-.76Zm-3.72 5.28c-1.71 2.37-3.82 1.9-3.68-.88.08-1.1.46-2.15 1.1-3.05 1.72-2.36 3.82-1.88 3.69.9a5.85 5.85 0 0 1-1.11 3.03ZM187 132.57a.27.27 0 0 0 .1-.21 6.98 6.98 0 0 0-.45-1.99c0-.05-.08-.05-.13 0l-.83.75a2.59 2.59 0 0 0-.8-.96l.42-1.22v-.19a2.68 2.68 0 0 0-1.49-.3c-.05 0-.11.07-.14.15l-.43 1.22c-.47.1-.92.27-1.33.53l-.22-.97-.01-.04a.08.08 0 0 0-.03-.02h-.04l-.03.01a8.63 8.63 0 0 0-1.74 1.66.26.26 0 0 0 0 .12l.21.97c-.41.53-.77 1.1-1.07 1.7l-.75-.15c-.04 0-.1.04-.14.12-.38.8-.68 1.63-.9 2.5 0 .07 0 .14.06.15l.75.15c-.13.61-.2 1.24-.19 1.88l-.82.74a.26.26 0 0 0-.09.22 6.77 6.77 0 0 0 .44 1.98c0 .05.08.05.14 0l.82-.74c.19.38.47.7.81.95l-.43 1.24v.18c.46.24.98.34 1.5.3.05 0 .1-.07.13-.16l.44-1.22c.47-.1.92-.27 1.32-.53l.22.98c0 .01 0 .02.02.03l.03.03h.03c.02 0 .03 0 .04-.02a10.07 10.07 0 0 0 1.74-1.66.3.3 0 0 0 0-.1l-.21-.98c.4-.53.76-1.1 1.06-1.7l.75.15c.04 0 .11-.04.15-.12.37-.8.66-1.64.87-2.5 0-.09 0-.15-.05-.16l-.75-.15c.13-.62.2-1.25.19-1.88l.83-.74Zm-3.72 5.28c-1.72 2.37-3.82 1.9-3.69-.88a5.9 5.9 0 0 1 1.12-3.05c1.7-2.36 3.81-1.89 3.67.9a5.95 5.95 0 0 1-1.1 3.03Z" fill="#E6E6E6"/><path d="M102.9 48.9c-.14.07-.24 0-.24-.22v-28.8a.6.6 0 0 1 .23-.5c.13-.08.23 0 .23.22v28.82a.63.63 0 0 1-.23.49Z" fill="#E0E0E0"/><path d="m132.93 31.57-32.8 18.93c-.13.07-.23 0-.23-.23a.6.6 0 0 1 .23-.48l32.8-18.93c.12-.07.22 0 .22.22a.6.6 0 0 1-.22.49Z" fill="#E0E0E0"/><path d="m108.55 21.98-4.03 2.33v20.23l4.03-2.33V21.98Z" fill="#F5F5F5"/><path d="m114.27 32.72-4.03 2.32v6.2l4.03-2.33v-6.2Z" fill="#EBEBEB"/><path d="m119.99 10.57-4.03 2.32v25.04l4.03-2.32V10.57Z" fill="#F5F5F5"/><path d="m125.7 17.27-4.02 2.33v15.03l4.02-2.32V17.27Z" fill="#E0E0E0"/><path d="m131.42 19.8-4.02 2.32v9.2l4.02-2.3V19.8Z" fill="#F5F5F5"/><path d="M220.76 91.24v9.15l-5.53 8.88c-1.96-2.52-1.39-8.8 1.68-13.77.92-1.7 2.24-3.17 3.85-4.26Z" fill="#E0E0E0"/><path d="M228.32 99.31c-1.1 5.56-4.94 10.74-8.72 11.66a3.72 3.72 0 0 1-3.73-.92l5.6-9.05 6.85-1.69Z" fill="#F0F0F0"/><path d="m228.46 98.35-6.59 1.6 3.73-9.72c2.3.89 3.44 4 2.86 8.12Z" fill="#E0E0E0"/><path d="m224.88 90.16-3.34 8.8v-8.2a4.7 4.7 0 0 1 3.34-.6Z" fill="#F0F0F0"/><path d="M269.35 273.73c-7.2 0-14.38-1.59-19.85-4.75-5.47-3.16-8.34-7.24-8.34-11.67s2.99-8.57 8.34-11.67c10.94-6.32 28.75-6.32 39.7 0 5.37 3.1 8.33 7.25 8.33 11.67s-2.98 8.57-8.33 11.67c-5.47 3.16-12.66 4.75-19.85 4.75Zm0-32.11c-7.06 0-14.12 1.55-19.5 4.65-5.13 2.98-7.96 6.89-7.96 11.04 0 4.15 2.83 8.08 7.97 11.05 10.75 6.2 28.23 6.2 38.98 0 5.14-2.98 7.97-6.9 7.97-11.05 0-4.16-2.83-8.07-7.97-11.04-5.37-3.1-12.44-4.65-19.49-4.65Z" fill="#7FE389"/><path d="M270.09 251.44v4.68l-4.62-12.53v-4.67l4.62 12.52Z" fill="#263238"/><path d="M270.1 251.44v4.68l19.07-6.62v-4.67l-19.07 6.61Z" fill="#37474F"/><path d="m265.47 238.88 4.63 12.56 19.07-6.61c-5.24-4.57-14.3-6.85-23.7-5.95Z" fill="#455A64"/><path d="M245.55 252.31v.15-.15ZM268.2 257.35l-2.84 13.32c-11.56-1.13-19.9-6.98-19.81-13.66v-4.56c0 6.63 8.33 12.41 19.82 13.54l1.95-9.16.88.52Z" fill="#7FE389"/><path opacity=".4" d="m268.2 257.35-2.84 13.32c-11.56-1.13-19.9-6.98-19.81-13.66v-4.56c0 6.63 8.33 12.41 19.82 13.54l1.95-9.16.88.52Z" fill="#000"/><path d="M267.53 266.14v4.68c4.76.29 9.53-.35 14.05-1.88 5.45-1.9 9.3-4.9 10.83-8.45.47-1.04.72-2.15.75-3.28v-4.83s-1.32-.1-2.87-1.75l-3.57 1.24-16.32 5.63-2.87 8.64Z" fill="#7FE389"/><path opacity=".6" d="M267.53 266.14v4.68c4.76.29 9.53-.35 14.05-1.88 5.45-1.9 9.3-4.9 10.83-8.45.47-1.04.72-2.15.75-3.28v-4.83s-1.32-.1-2.87-1.75l-3.57 1.24-16.32 5.63-2.87 8.64Z" fill="#fff"/><path d="m253.3 246.96 14.21 8.2v-4.67l-14.2-8.2v4.67Z" fill="#7FE389"/><path opacity=".1" d="m253.3 246.96 14.21 8.2v-4.67l-14.2-8.2v4.67Z" fill="#000"/><path d="M245.72 250.76c-1.56 7.32 7.19 14.01 19.64 15.23l2.84-13.32-16.44-9.49c-3.44 2.15-5.41 4.64-6.04 7.58Z" fill="#7FE389"/><path opacity=".3" d="M245.72 250.76c-1.56 7.32 7.19 14.01 19.64 15.23l2.84-13.32-16.44-9.49c-3.44 2.15-5.41 4.64-6.04 7.58Z" fill="#000"/><path d="m267.62 265.75-.09.4c4.77.27 9.54-.39 14.05-1.93 5.45-1.9 9.3-4.9 10.83-8.45 1.45-3.36.69-6.83-2.15-9.86l-3.57 1.24-16.3 5.67-2.77 12.94Z" fill="#7FE389"/><path opacity=".75" d="m267.62 265.75-.09.4c4.77.27 9.54-.39 14.05-1.93 5.45-1.9 9.3-4.9 10.83-8.45 1.45-3.36.69-6.83-2.15-9.86l-3.57 1.24-16.3 5.67-2.77 12.94Z" fill="#fff"/><path d="m253.3 242.29 14.21 8.2-4.18-11.37c-3.5.44-6.9 1.51-10.03 3.17ZM268.2 257.35v-4.68L265.36 266v4.68l2.84-13.32Z" fill="#7FE389"/><path opacity=".55" d="M268.2 257.35v-4.68L265.36 266v4.68l2.84-13.32Z" fill="#000"/><path d="m286.32 231.86-3.1 1.79 3.1 1.79 3.1-1.8-3.1-1.78Z" fill="#7FE389"/><path opacity=".3" d="m286.32 231.86-3.1 1.79 3.1 1.79 3.1-1.8-3.1-1.78Z" fill="#000"/><path d="M289.41 233.65v1.79l-3.1 1.78v-1.78l3.1-1.8Z" fill="#7FE389"/><path opacity=".4" d="M289.41 233.65v1.79l-3.1 1.78v-1.78l3.1-1.8Z" fill="#000"/><path d="M286.32 235.44v1.78l-3.1-1.78v-1.8l3.1 1.8Z" fill="#7FE389"/><path opacity=".55" d="M286.32 235.44v1.78l-3.1-1.78v-1.8l3.1 1.8Z" fill="#000"/><path d="m291.05 230.47 11.46-6.62a2.68 2.68 0 0 1 2.4-.04c.64.37.61.99-.07 1.38l-11.47 6.62a2.64 2.64 0 0 1-2.4.05c-.65-.37-.61-1 .08-1.39Z" fill="#E0E0E0"/><path d="m293.29 235.9-3.1 1.77 3.1 1.8 3.1-1.8-3.1-1.78Z" fill="#7FE389"/><path opacity=".88" d="m293.29 235.9-3.1 1.77 3.1 1.8 3.1-1.8-3.1-1.78Z" fill="#fff"/><path d="M296.4 237.67v1.8l-3.11 1.78v-1.79l3.1-1.79Z" fill="#7FE389"/><path opacity=".75" d="M296.4 237.67v1.8l-3.11 1.78v-1.79l3.1-1.79Z" fill="#fff"/><path d="M293.29 239.46v1.8l-3.1-1.8v-1.79l3.1 1.8Z" fill="#7FE389"/><path opacity=".6" d="M293.29 239.46v1.8l-3.1-1.8v-1.79l3.1 1.8Z" fill="#fff"/><path d="m298.02 234.5 11.46-6.62a2.68 2.68 0 0 1 2.41-.05c.64.38.6 1-.08 1.39l-11.47 6.63a2.64 2.64 0 0 1-2.4.03c-.64-.36-.61-.99.08-1.38Z" fill="#E0E0E0"/><path d="m300.27 239.91-3.1 1.79 3.1 1.79 3.1-1.8-3.1-1.78Z" fill="#7FE389"/><path opacity=".3" d="m300.27 239.91-3.1 1.79 3.1 1.79 3.1-1.8-3.1-1.78Z" fill="#fff"/><path d="M303.36 241.7v1.79l-3.1 1.79v-1.8l3.1-1.78Z" fill="#7FE389"/><path d="M300.27 243.49v1.79l-3.1-1.8v-1.78l3.1 1.79Z" fill="#7FE389"/><path opacity=".1" d="M300.27 243.49v1.79l-3.1-1.8v-1.78l3.1 1.79Z" fill="#000"/><path d="m305 238.53 11.46-6.63a2.68 2.68 0 0 1 2.4-.04c.64.37.6.99-.07 1.38l-11.48 6.63a2.64 2.64 0 0 1-2.4.03c-.64-.36-.6-.97.08-1.37Z" fill="#E0E0E0"/><path d="m307.24 243.94-3.1 1.78 3.1 1.8 3.1-1.8-3.1-1.78Z" fill="#455A64"/><path d="M310.33 245.72v1.8l-3.1 1.78v-1.79l3.1-1.79Z" fill="#37474F"/><path d="M307.24 247.51v1.8l-3.1-1.8v-1.79l3.1 1.8Z" fill="#263238"/><path d="m311.96 242.56 11.47-6.63a2.65 2.65 0 0 1 2.4-.04c.64.37.61.99-.07 1.38l-11.47 6.63a2.66 2.66 0 0 1-2.4.04c-.64-.35-.61-.99.07-1.38Z" fill="#E0E0E0"/><path opacity=".3" d="M256.69 223.4a.36.36 0 0 1-.18-.05l-22.08-12.75a.36.36 0 0 1-.17-.3c0-.05.02-.11.05-.16.03-.05.07-.1.12-.12l27.59-15.94a.33.33 0 0 1 .33 0l22.09 12.74c.05.04.1.08.12.13.03.06.05.11.04.17a.33.33 0 0 1-.16.3l-27.58 15.93a.35.35 0 0 1-.17.05Zm-21.4-13.1 21.4 12.37 26.92-15.55-21.42-12.36-26.9 15.55Z" fill="#7FE389"/><path d="M256.69 219.87v-98.72l-16.57-9.57v98.73l16.57 9.56Z" fill="#7FE389"/><path opacity=".2" d="M256.69 219.87v-98.72l-16.57-9.57v98.73l16.57 9.56Z" fill="#000"/><path d="m256.69 219.87 22.08-12.75V108.4l-22.08 12.75v98.72Z" fill="#7FE389"/><path d="m278.77 108.4-16.56-9.57-22.09 12.75 16.57 9.57 22.08-12.75Z" fill="#7FE389"/><path opacity=".25" d="m278.77 108.4-16.56-9.57-22.09 12.75 16.57 9.57 22.08-12.75Z" fill="#fff"/><path opacity=".3" d="m278.77 108.4-22.3 12.3-7.25-4.05-9.1-5.07 8.95 5.35 7.33 4.37c-.18 2.5-.23 88.47-.2 90.95.02 2.55.19 5.1.5 7.62.3-2.53.46-5.07.48-7.62 0-2.4 0-88.3-.18-90.7l21.77-13.15Z" fill="#fff"/><path opacity=".3" d="M215.28 247.32a.37.37 0 0 1-.18-.04l-22.08-12.75a.36.36 0 0 1-.17-.3.33.33 0 0 1 .17-.3L220.6 218a.35.35 0 0 1 .35 0l22.08 12.75a.33.33 0 0 1 .17.3.33.33 0 0 1-.17.29l-27.58 15.94a.34.34 0 0 1-.17.04Zm-21.4-13.1 21.4 12.35 26.92-15.54-21.4-12.36-26.93 15.56Z" fill="#7FE389"/><path d="M215.27 243.78v-70.13l-16.56-9.56v70.12l16.56 9.57Z" fill="#7FE389"/><path opacity=".1" d="M215.27 243.78v-70.13l-16.56-9.56v70.12l16.56 9.57Z" fill="#fff"/><path d="m215.27 243.78 22.1-12.76V160.9l-22.1 12.75v70.13Z" fill="#7FE389"/><path opacity=".3" d="m215.27 243.78 22.1-12.76V160.9l-22.1 12.75v70.13Z" fill="#fff"/><path d="m237.36 160.9-16.56-9.56-22.09 12.75 16.56 9.56 22.1-12.75Z" fill="#7FE389"/><path opacity=".55" d="m237.36 160.9-16.56-9.56-22.09 12.75 16.56 9.56 22.1-12.75Z" fill="#fff"/><path opacity=".3" d="m215.56 174.05 21.8-13.15-22.3 12.3c-2.42-1.36-4.83-2.7-7.25-4.04l-9.1-5.07 8.95 5.34c2.44 1.5 4.88 2.94 7.33 4.38-.07 2.58-.16 21.4-.18 23.97-.02 2.58-.03 27.59 0 30.2.04 2.63.06 5.27.14 7.9.09 2.64.18 5.27.35 7.9.17-2.63.27-5.26.34-7.9.07-2.63.13-5.26.14-7.9.02-2.62 0-27.57 0-30.2-.06-2.5-.14-21.23-.22-23.73Z" fill="#fff"/><path opacity=".3" d="M173.87 271.21a.34.34 0 0 1-.17-.04l-22.09-12.75a.36.36 0 0 1-.12-.13.36.36 0 0 1 0-.34c.03-.05.07-.09.12-.12l27.58-15.94a.34.34 0 0 1 .34 0l22.09 12.75a.33.33 0 0 1 .16.3.33.33 0 0 1-.16.29l-27.59 15.94a.32.32 0 0 1-.16.04Zm-21.41-13.09 21.41 12.36 26.93-15.54-21.41-12.36-26.93 15.54Z" fill="#7FE389"/><path d="M173.87 267.69v-47.82l-16.57-9.56v47.81l16.57 9.57Z" fill="#7FE389"/><path opacity=".45" d="M173.87 267.69v-47.82l-16.57-9.56v47.81l16.57 9.57Z" fill="#000"/><path d="m173.87 267.69 22.08-12.76v-47.8l-22.09 12.74.01 47.82Z" fill="#7FE389"/><path opacity=".3" d="m173.87 267.69 22.08-12.76v-47.8l-22.09 12.74.01 47.82Z" fill="#000"/><path d="m195.96 207.12-16.57-9.56-22.1 12.75 16.57 9.56 22.1-12.75Z" fill="#7FE389"/><path opacity=".15" d="m195.96 207.12-16.57-9.56-22.1 12.75 16.57 9.56 22.1-12.75Z" fill="#000"/><path opacity=".3" d="m195.96 207.12-22.31 12.3-7.25-4.04-9.1-5.07 8.94 5.34 7.33 4.38c-.17 1.49-.21 41.45-.18 42.96.01 1.58.18 3.15.49 4.7.3-1.55.47-3.12.48-4.7 0-1.44 0-41.3-.16-42.73l21.76-13.14Z" fill="#fff"/><path opacity=".3" d="M298.1 199.49a.34.34 0 0 1-.17-.05l-22.1-12.74a.36.36 0 0 1-.16-.3.33.33 0 0 1 .17-.3l27.58-15.93a.35.35 0 0 1 .34 0l22.09 12.75a.33.33 0 0 1 .17.3.33.33 0 0 1-.17.29l-27.59 15.93a.34.34 0 0 1-.17.05Zm-21.41-13.1 21.4 12.37 26.93-15.55-21.4-12.36-26.93 15.55Z" fill="#7FE389"/><path d="M298.1 195.96V52.32l-16.57-9.57V186.4l16.56 9.56Z" fill="#7FE389"/><path opacity=".3" d="M298.1 195.96V52.32l-16.57-9.57V186.4l16.56 9.56Z" fill="#fff"/><path d="m298.1 195.96 22.08-12.75V39.58l-22.09 12.75v143.64Z" fill="#7FE389"/><path opacity=".55" d="m298.1 195.96 22.08-12.75V39.58l-22.09 12.75v143.64Z" fill="#fff"/><path d="M320.18 39.57 303.62 30l-22.1 12.75 16.57 9.57 22.09-12.75Z" fill="#7FE389"/><path opacity=".75" d="M320.18 39.57 303.62 30l-22.1 12.75 16.57 9.57 22.09-12.75Z" fill="#fff"/><path opacity=".3" d="m298.38 52.75 21.8-13.16-22.31 12.3c-2.4-1.36-4.83-2.7-7.24-4.05l-9.1-5.07 8.94 5.36c2.45 1.49 4.88 2.93 7.34 4.36-.08 2.93-.16 5.85-.18 8.77-.02 2.92 0 113.9 0 116.88 0 2.97.06 5.96.15 8.95.09 2.98.17 5.96.34 8.94.16-2.98.27-5.96.34-8.94.06-2.99.13-5.97.15-8.95.01-2.98 0-113.9 0-116.88l-.23-8.51Z" fill="#fff"/><path d="m260.42 69.48-18.56 10.7a3.9 3.9 0 0 0-1.76 3.07V98.3c0 1.12.79 1.58 1.77 1.02l6.83-3.96 1.84 3.17a.84.84 0 0 0 1.53-.15l2.16-6.2 6.19-3.57a3.92 3.92 0 0 0 1.77-3.06V70.5c0-1.13-.8-1.58-1.77-1.02Z" fill="#FAFAFA"/><path d="M241.07 99.96c-.23 0-.45-.06-.65-.18a1.6 1.6 0 0 1-.75-1.5V83.26a4.3 4.3 0 0 1 1.96-3.4l18.59-10.7a1.64 1.64 0 0 1 1.65-.13 1.62 1.62 0 0 1 .74 1.5v15.03a4.29 4.29 0 0 1-1.97 3.4l-6.06 3.5-2.1 6.06a1.25 1.25 0 0 1-2.26.22l-1.63-2.83-6.5 3.73c-.3.2-.65.31-1.02.33Zm20.13-30.33c-.2.02-.4.08-.59.19l-18.54 10.71a3.54 3.54 0 0 0-1.58 2.72V98.3a.9.9 0 0 0 .32.8.88.88 0 0 0 .85-.12l7.19-4.16 2.03 3.51a.45.45 0 0 0 .43.23.45.45 0 0 0 .39-.3l2.2-6.36 6.32-3.64a3.54 3.54 0 0 0 1.56-2.71V70.5a.9.9 0 0 0-.3-.8.51.51 0 0 0-.28-.07Z" fill="#E0E0E0"/><path d="M244.24 93.5a.34.34 0 0 1-.33-.43.33.33 0 0 1 .16-.2l13.8-7.97a.34.34 0 0 1 .27-.06.34.34 0 0 1 .07.65l-13.8 7.97a.34.34 0 0 1-.17.04ZM244.24 90.31a.34.34 0 0 1-.33-.43.33.33 0 0 1 .16-.2l13.8-7.97a.35.35 0 0 1 .47.13c.04.08.06.17.03.25a.34.34 0 0 1-.16.2l-13.8 7.98a.34.34 0 0 1-.17.04ZM244.24 87.13a.34.34 0 0 1-.33-.43.33.33 0 0 1 .16-.2l13.8-7.97a.34.34 0 0 1 .27-.06.34.34 0 0 1 .28.3.34.34 0 0 1-.2.35l-13.81 7.96a.34.34 0 0 1-.17.05Z" fill="#E0E0E0"/><path d="M244.24 83.94a.35.35 0 0 1-.3-.17.34.34 0 0 1-.03-.26.36.36 0 0 1 .06-.12.35.35 0 0 1 .1-.08l13.8-7.97a.35.35 0 0 1 .47.12c.04.08.06.17.03.26a.34.34 0 0 1-.16.2l-13.8 7.97a.34.34 0 0 1-.17.05Z" fill="#7FE389"/><path d="m219.03 121.97-18.55 10.72a3.9 3.9 0 0 0-1.77 3.05v15.05c0 1.12.79 1.58 1.77 1.02l6.83-3.95 1.84 3.16a.85.85 0 0 0 1.25.24c.13-.1.23-.23.28-.38l2.16-6.21 6.2-3.57a3.89 3.89 0 0 0 1.76-3.06v-15.05c0-1.13-.8-1.58-1.77-1.02Z" fill="#FAFAFA"/><path d="M199.69 152.45c-.23 0-.46-.06-.66-.17a1.63 1.63 0 0 1-.75-1.5v-15.04a4.3 4.3 0 0 1 1.97-3.4l18.55-10.72a1.5 1.5 0 0 1 2.21.53c.13.26.19.55.15.84v15.05a4.28 4.28 0 0 1-1.96 3.4l-6.06 3.5-2.1 6.06a1.24 1.24 0 0 1-1.07.84 1.23 1.23 0 0 1-1.2-.62l-1.63-2.83-6.5 3.73c-.28.2-.61.3-.95.33Zm19.53-30.13-18.54 10.7a3.5 3.5 0 0 0-1.58 2.72v15.05a.7.7 0 0 0 1.18.68l7.18-4.16 2.03 3.51a.42.42 0 0 0 .43.22c.09 0 .17-.03.24-.08a.42.42 0 0 0 .15-.22l2.24-6.34 6.32-3.65a3.52 3.52 0 0 0 1.56-2.71v-15.05a.89.89 0 0 0-.31-.8.88.88 0 0 0-.86.13h-.03Z" fill="#E0E0E0"/><path d="M202.85 146a.34.34 0 0 1-.3-.18.34.34 0 0 1-.03-.26.34.34 0 0 1 .16-.2l13.8-7.97a.35.35 0 0 1 .13-.06h.15a.34.34 0 0 1 .22.16.34.34 0 0 1-.16.49l-13.8 7.95a.34.34 0 0 1-.17.06Z" fill="#7FE389"/><path d="M202.85 142.81a.35.35 0 0 1-.3-.17.33.33 0 0 1 .03-.38.35.35 0 0 1 .1-.08l13.8-7.97a.34.34 0 0 1 .28-.06.33.33 0 0 1 .22.16.35.35 0 0 1 .03.28.34.34 0 0 1-.19.2l-13.8 7.97a.35.35 0 0 1-.17.05ZM202.85 139.62a.35.35 0 0 1-.17-.05.34.34 0 0 1-.16-.38.33.33 0 0 1 .16-.2l13.8-7.97a.34.34 0 0 1 .38.03l.1.1a.34.34 0 0 1-.14.46l-13.8 7.97a.34.34 0 0 1-.17.04ZM202.85 136.44a.35.35 0 0 1-.3-.18.32.32 0 0 1-.04-.12l.01-.13a.33.33 0 0 1 .16-.2l13.8-7.98a.35.35 0 0 1 .4 0c.05.03.08.06.1.1a.35.35 0 0 1 .03.28.34.34 0 0 1-.19.21l-13.8 7.97a.35.35 0 0 1-.17.05Z" fill="#E0E0E0"/><path d="m177.63 168.19-18.55 10.7a3.9 3.9 0 0 0-1.77 3.07V197c0 1.13.8 1.59 1.77 1.02l6.83-3.95 1.84 3.17c.08.14.2.25.35.32a.85.85 0 0 0 1.2-.47l2.14-6.21 6.2-3.57a3.89 3.89 0 0 0 1.76-3.06V169.2c0-1.13-.79-1.58-1.77-1.01Z" fill="#FAFAFA"/><path d="M158.29 198.66c-.23 0-.46-.06-.66-.17a1.62 1.62 0 0 1-.74-1.5v-15.03a4.28 4.28 0 0 1 1.97-3.41l18.54-10.71a1.49 1.49 0 0 1 2.37 1.36v15.05a4.28 4.28 0 0 1-1.97 3.4l-6.06 3.5-2.1 6.06a1.24 1.24 0 0 1-2.24.22l-1.64-2.82-6.49 3.72c-.3.2-.63.31-.98.33Zm19.55-30.13-18.52 10.71a3.5 3.5 0 0 0-1.57 2.72V197a.92.92 0 0 0 .31.8.92.92 0 0 0 .86-.12l7.18-4.16 2.03 3.52c.04.07.1.13.19.17.07.04.16.05.25.05a.46.46 0 0 0 .38-.3l2.2-6.35 6.28-3.68a3.52 3.52 0 0 0 1.57-2.7V169.2a.9.9 0 0 0-.31-.8.87.87 0 0 0-.85.13Z" fill="#E0E0E0"/><path d="M161.46 192.2a.34.34 0 0 1-.17-.63l13.8-7.97a.34.34 0 0 1 .34.6l-13.8 7.95a.37.37 0 0 1-.17.06ZM161.46 189.02a.35.35 0 0 1-.3-.17.34.34 0 0 1 .13-.46l13.8-7.97a.32.32 0 0 1 .13-.04.33.33 0 0 1 .25.06l.08.1a.35.35 0 0 1-.12.47l-13.8 7.97a.37.37 0 0 1-.17.04Z" fill="#E0E0E0"/><path d="M161.46 185.83a.33.33 0 0 1-.17-.63l13.8-7.96a.34.34 0 0 1 .26-.03l.12.06a.33.33 0 0 1 .12.36.34.34 0 0 1-.16.2l-13.8 7.96a.37.37 0 0 1-.17.04Z" fill="#7FE389"/><path d="M161.46 182.65a.35.35 0 0 1-.3-.17.34.34 0 0 1 .13-.47l13.8-7.96a.34.34 0 0 1 .46.11.35.35 0 0 1-.12.47l-13.8 7.97a.37.37 0 0 1-.17.05Z" fill="#E0E0E0"/><path d="m301.85.64-18.56 10.71a3.89 3.89 0 0 0-1.77 3.06v15.05c0 1.12.8 1.58 1.77 1.01l6.84-3.95 1.83 3.17a.84.84 0 0 0 1.27.24c.13-.1.22-.23.27-.39l2.15-6.2 6.2-3.58a3.9 3.9 0 0 0 1.76-3.06V1.66c0-1.1-.79-1.59-1.76-1.02Z" fill="#FAFAFA"/><path d="M282.5 31.13c-.23 0-.45-.06-.65-.17a1.61 1.61 0 0 1-.75-1.5V14.42a4.28 4.28 0 0 1 1.97-3.4L301.62.28a1.49 1.49 0 0 1 2.36 1.36V16.7a4.32 4.32 0 0 1-1.96 3.41l-6.07 3.49-2.07 6.04a1.23 1.23 0 0 1-1.06.83 1.21 1.21 0 0 1-1.2-.62l-1.63-2.81-6.5 3.72c-.29.21-.63.34-.99.37ZM302.05 1l-18.56 10.7a3.52 3.52 0 0 0-1.56 2.7v15.06a.7.7 0 0 0 1.17.67l7.18-4.15 2.02 3.5a.43.43 0 0 0 .44.23.43.43 0 0 0 .38-.3l2.2-6.35 6.32-3.64a3.53 3.53 0 0 0 1.56-2.72V1.66a.7.7 0 0 0-1.17-.68l.02.02Z" fill="#E0E0E0"/><path d="M291.45 21.44a2.97 2.97 0 0 1 1.15-2.34c.6-.35 1.08.16 1.08 1.05a3 3 0 0 1-1.08 2.38c-.65.4-1.15-.14-1.15-1.1Zm.14-11.53 2.02-1.15-.4 8.64-1.22.7-.4-8.19Z" fill="#7FE389"/></svg>