<svg width="364" height="324" viewBox="0 0 364 324" fill="none" xmlns="http://www.w3.org/2000/svg">
<path d="M181.682 324C282.023 324 363.365 278.578 363.365 222.547C363.365 166.516 282.023 121.094 181.682 121.094C81.342 121.094 0 166.516 0 222.547C0 278.578 81.342 324 181.682 324Z" fill="#F0F4F9"/>
<path d="M72.2599 260.977C93.5952 260.977 110.891 250.991 110.891 238.672C110.891 226.353 93.5952 216.367 72.2599 216.367C50.9245 216.367 33.6288 226.353 33.6288 238.672C33.6288 250.991 50.9245 260.977 72.2599 260.977Z" fill="#E0E0E0"/>
<path d="M84.9112 216.009C84.8367 210.903 87.3117 180.338 87.3117 180.338L72.0963 187.584C73.5873 206.102 74.8472 214.936 74.8024 216.434C74.727 216.676 74.6892 216.927 74.6906 217.18C74.5341 220.549 78.418 222.585 81.4671 225C84.0358 227.128 86.7789 229.035 89.6674 230.703C91.9039 231.903 96.4961 232.254 97.1223 230.889C93.4545 227.907 89.2052 224.679 86.3351 221.362C84.9858 219.737 84.9709 219.558 84.9112 216.009Z" fill="#9E6767"/>
<path d="M103.452 234.848C103.645 234.848 103.839 236.92 102.706 237.733C101.439 238.665 97.771 240.118 93.0595 239.284C88.348 238.449 85.873 236.883 84.0242 235.303C82.1754 233.722 79.6482 231.419 77.5236 230.83C75.5555 230.3 73.4308 229.339 72.8196 228.713C72.2083 228.086 72.4319 225.492 72.4319 225.492L103.452 234.848Z" fill="black"/>
<path d="M89.4138 222.674C89.123 222.361 88.8397 222.048 88.5714 221.735C87.8657 220.885 87.3087 219.922 86.9239 218.887C86.7237 218.452 86.5471 218.006 86.3946 217.552C86.2305 216.926 86.1411 216.27 86.0144 215.637C85.9597 215.326 85.8748 215.021 85.7609 214.727C85.691 214.531 85.5463 214.37 85.3583 214.28C85.2426 214.257 85.1237 214.257 85.008 214.28C83.2319 214.338 81.4845 214.743 79.8641 215.473C79.4392 215.666 79.1186 215.897 79.0664 216.375C79.1061 216.927 79.0273 217.481 78.8353 218C78.7946 218.096 78.7274 218.179 78.6415 218.238C78.5787 218.273 78.5082 218.291 78.4365 218.291C78.3648 218.291 78.2943 218.273 78.2315 218.238C78.1034 218.167 77.9956 218.065 77.9184 217.94C77.4487 217.277 77.3369 216.389 76.8001 215.771C76.5023 215.446 76.1074 215.226 75.6745 215.145C75.4657 215.1 74.7575 215.085 74.7128 214.787L74.5786 213.408C74.5786 213.408 74.1537 213.206 73.8778 214.026C73.6837 214.878 73.5738 215.747 73.5498 216.621C73.4604 217.567 73.3336 218.305 73.1696 219.245C72.9684 220.363 72.782 221.481 72.6031 222.599C72.3421 223.672 72.2392 224.777 72.2974 225.88C72.3518 226.366 72.589 226.814 72.9609 227.132C73.5241 227.697 74.186 228.155 74.9141 228.481C75.8981 228.958 76.9269 229.346 77.9407 229.771C80.3203 230.907 82.5184 232.389 84.4637 234.169C87.3216 236.377 90.7153 237.784 94.2967 238.247C99.0082 238.56 102.408 237.233 103.429 235.668C103.593 234.579 103.735 233.431 103.28 232.626C101.789 229.972 98.1881 228.899 95.3404 227.296C94.1021 226.566 92.9141 225.754 91.7844 224.866C90.9354 224.201 90.1425 223.468 89.4138 222.674Z" fill="#37474F"/>
<path d="M86.6855 229.562C86.7697 229.613 86.8682 229.633 86.9654 229.621C87.0627 229.609 87.1531 229.565 87.2223 229.495C89.2798 227.475 93.1862 226.275 94.4684 226.737C94.4684 226.737 94.3118 226.111 92.9774 225.731C92.9774 225.731 89.5556 225.403 86.1711 228.616C86.1228 228.663 86.0859 228.72 86.0633 228.784C86.0408 228.848 86.0332 228.915 86.0411 228.983C86.049 229.05 86.0723 229.114 86.1091 229.17C86.1458 229.227 86.1951 229.274 86.2531 229.309L86.6855 229.562Z" fill="#FAFAFA"/>
<path d="M91.248 224.403C89.8316 223.867 86.4024 225.373 84.7101 227.02C84.642 227.093 84.5494 227.137 84.4503 227.145C84.3512 227.154 84.2526 227.125 84.1734 227.065L83.7484 226.744C83.7017 226.707 83.6641 226.659 83.6382 226.605C83.6123 226.551 83.5989 226.491 83.5989 226.431C83.5989 226.371 83.6123 226.312 83.6382 226.258C83.6641 226.204 83.7017 226.156 83.7484 226.118C84.7027 225.238 87.4759 222.994 90.1149 223.36C90.0851 223.36 91.1437 223.882 91.248 224.403Z" fill="#FAFAFA"/>
<path d="M88.5717 221.735C87.5504 221.504 84.8443 222.07 82.6078 223.83C82.5642 223.863 82.5139 223.887 82.4602 223.899C82.4065 223.912 82.3508 223.912 82.297 223.901C82.2431 223.89 82.1923 223.867 82.1482 223.834C82.104 223.801 82.0675 223.759 82.0412 223.71L81.8474 223.323C81.8062 223.247 81.7934 223.159 81.8111 223.074C81.8289 222.989 81.8761 222.914 81.9443 222.861C82.6898 222.249 85.3363 220.393 87.8113 220.721C88.15 220.986 88.4123 221.336 88.5717 221.735Z" fill="#FAFAFA"/>
<path d="M97.0852 228.161C91.2033 229.406 88.9371 233.17 87.8636 236.264C89.8764 237.288 92.0545 237.946 94.2971 238.21C99.0086 238.523 102.408 237.196 103.429 235.631C103.593 234.542 103.735 233.394 103.28 232.589C102.095 230.457 99.523 229.346 97.0852 228.161Z" fill="#FAFAFA"/>
<path d="M60.8544 194.316L46.6902 192.31C46.9138 199.765 46.4293 209.71 46.1012 218.082C45.7041 219.906 45.631 221.786 45.8851 223.636C46.1758 225.246 43.6486 236.734 44.3941 240.089C45.4676 245.128 53.3399 243.555 53.6679 240.514C53.9959 237.472 54.9353 231.381 55.964 223.367C56.7915 216.509 60.7873 194.793 60.8544 194.316Z" fill="#9E6767"/>
<path d="M55.472 242.422L50.7531 231.888C49.4336 231.143 47.868 229.652 46.3994 230.472C45.8818 230.733 45.4026 231.064 44.9756 231.456C43.8797 232.544 43.7753 234.117 43.4846 235.534C43.1938 236.95 42.1502 238.247 41.9265 239.716C41.5016 242.481 41.3898 244.233 42.1278 246.775C42.8658 249.318 45.3408 250.756 47.8084 251.48C49.8734 252.083 52.4975 251.532 53.6456 249.772C55.0694 247.558 55.3751 245.396 55.472 242.422Z" fill="black"/>
<path d="M55.4124 242.325C53.5114 239.76 44.327 238.844 41.7551 241.147C41.7551 240.812 41.8222 240.446 41.8669 240.066C42.1319 237.556 42.6642 235.082 43.4548 232.686C43.9504 231.189 44.3317 229.656 44.5954 228.101C44.7966 226.498 45.0352 223.173 45.1396 222.04C45.1694 220.921 45.274 219.806 45.4527 218.7C45.5347 218.372 45.6316 217.955 46.064 218.082C46.064 218.082 46.064 218.633 45.9969 218.969C45.9298 219.304 45.9447 219.655 45.9223 219.945C45.8627 220.631 45.8627 221.25 45.8552 221.943C45.8362 222.208 45.8665 222.473 45.9447 222.726C45.9664 222.784 46.0055 222.833 46.0565 222.868C46.2503 222.95 46.2354 222.495 46.2503 222.406L46.556 220.698C46.5613 220.608 46.5953 220.522 46.6529 220.452C46.7036 220.402 46.7647 220.364 46.8318 220.341C48.2706 219.781 49.3367 219.304 50.8202 219.55C51.6465 219.672 52.4599 219.87 53.2505 220.139C53.8245 220.341 54.8458 220.661 55.1664 221.22C55.2847 221.493 55.3109 221.796 55.2409 222.085C55.1589 222.83 55.0545 223.718 54.9427 224.582C54.816 225.626 56.1429 222.13 56.3666 220.154C56.9183 220.281 56.8512 220.9 56.3666 223.24C55.7881 226.181 55.4095 229.157 55.2335 232.149C55.0993 234.535 55.0993 236.927 55.2335 239.313C55.3378 240.372 55.3975 241.356 55.4124 242.325Z" fill="#37474F"/>
<path d="M44.8639 236.54C47.7996 236.181 50.7787 236.489 53.5786 237.442C53.6164 237.459 53.6577 237.465 53.6986 237.461C53.7396 237.457 53.7789 237.443 53.813 237.42C53.8472 237.397 53.875 237.366 53.8939 237.33C53.9129 237.293 53.9224 237.252 53.9215 237.211V236.399C53.9212 236.353 53.9076 236.308 53.8825 236.27C53.8574 236.231 53.8218 236.201 53.7799 236.182C50.9808 234.992 47.8817 234.698 44.9086 235.34C44.8577 235.35 44.8111 235.376 44.7752 235.413C44.7392 235.45 44.7155 235.498 44.7073 235.549L44.5955 236.294C44.5941 236.329 44.6003 236.363 44.6137 236.395C44.627 236.427 44.6471 236.456 44.6727 236.48C44.6982 236.503 44.7285 236.52 44.7616 236.531C44.7946 236.541 44.8295 236.545 44.8639 236.54Z" fill="#FAFAFA"/>
<path d="M45.7211 232.499C48.3627 232.124 51.0567 232.487 53.504 233.55C53.5396 233.566 53.5785 233.573 53.6174 233.571C53.6563 233.568 53.694 233.556 53.7271 233.535C53.7602 233.515 53.7877 233.486 53.8073 233.452C53.8269 233.419 53.8379 233.381 53.8394 233.342V232.596C53.8381 232.553 53.824 232.51 53.7988 232.474C53.7736 232.439 53.7385 232.411 53.6978 232.395C52.997 232.082 50.522 230.606 45.7584 231.403C45.7093 231.409 45.6633 231.43 45.6271 231.464C45.5909 231.497 45.5663 231.541 45.5571 231.59L45.4527 232.246C45.4515 232.281 45.4578 232.316 45.471 232.348C45.4843 232.38 45.5043 232.409 45.5297 232.433C45.5551 232.457 45.5853 232.476 45.6183 232.487C45.6513 232.498 45.6863 232.503 45.7211 232.499Z" fill="#FAFAFA"/>
<path d="M46.4517 228.81C48.9229 228.427 51.4519 228.766 53.7351 229.786C53.7694 229.801 53.8069 229.807 53.8442 229.804C53.8816 229.801 53.9174 229.788 53.9486 229.767C53.9798 229.747 54.0052 229.718 54.0226 229.685C54.04 229.652 54.0488 229.615 54.0482 229.577V228.832C54.0453 228.791 54.0313 228.751 54.0077 228.717C53.984 228.683 53.9517 228.655 53.914 228.638C53.2654 228.332 50.932 226.916 46.4591 227.721C46.4123 227.728 46.3691 227.75 46.3356 227.784C46.3021 227.817 46.2801 227.861 46.2728 227.908L46.1758 228.541C46.1688 228.579 46.1712 228.617 46.1827 228.654C46.1942 228.69 46.2145 228.723 46.2418 228.749C46.2691 228.776 46.3026 228.795 46.3392 228.806C46.3758 228.816 46.4144 228.818 46.4517 228.81Z" fill="#FAFAFA"/>
<path d="M41.7772 241.177C41.6952 243.675 41.9114 245.374 43.2234 247.238C44.8933 249.623 51.0659 251.852 53.7273 248.319C55.0468 246.56 55.3525 244.502 55.4717 242.422C53.7198 239.783 44.3267 238.836 41.7772 241.177Z" fill="#FAFAFA"/>
<path d="M50.0896 113.431C48.0991 129.496 48.3451 148.834 47.7189 159.188C47.0927 169.543 45.9372 176.581 45.8105 184.46C45.5943 197.782 46.0043 212.282 46.0043 212.282C46.0043 212.282 51.6104 215.48 57.9321 213.378C57.9321 213.378 63.2101 186.421 64.5595 178.116C66.4903 166.285 69.0324 145.255 69.0324 145.255L71.3583 167.62C70.3255 173.164 70.092 178.828 70.665 184.438C71.2465 189.656 73.7289 208.748 73.7289 208.748C75.6844 209.52 77.7854 209.854 79.8837 209.725C81.9821 209.596 84.0266 209.008 85.8729 208.003C85.8729 208.003 89.1456 171.474 89.414 166.651C89.8091 159.859 90.2414 109.248 90.1594 103.456L50.0896 113.431Z" fill="#455A64"/>
<path d="M69.0175 145.226L70.7992 133.298C70.7992 133.298 78.8355 131.062 82.2424 125.649C80.0059 132.306 72.5958 135.259 72.5958 135.259L70.0537 146.836L71.3509 167.59L69.0175 145.226Z" fill="#37474F"/>
<path d="M80.4748 59.5397C86.8189 60.5386 88.8988 62.7229 91.1502 68.0978C94.982 77.2599 98.702 86.2952 98.702 86.2952L116.228 93.3027L114.685 104.485C114.685 104.485 101.222 101.727 93.3046 99.6319C91.0682 99.0281 90.2556 97.5967 89.1523 95.9716C88.2428 94.6446 79.5504 78.4601 79.5504 78.4601L80.4748 59.5397Z" fill="#263238"/>
<path d="M89.0703 74.1066C87.4302 65.6528 86.6698 61.903 81.1756 60.0169C75.6814 58.1308 66.2659 58.2054 66.2659 58.2054C63.433 58.9508 54.5916 61.068 50.7374 62.2161C46.8832 63.3641 47.6809 72.3249 48.5755 78.0427C49.6586 84.5729 50.3457 91.1626 50.633 97.7757C50.4839 106.886 49.6639 113.036 49.3061 118.247C57.5064 123.465 81.5036 122.541 90.2034 117.3C90.4047 112.969 90.4718 101.54 90.3973 95.9344C90.2556 85.4156 89.7561 77.67 89.0703 74.1066Z" fill="#37474F"/>
<path d="M53.3838 61.2245C50.1112 61.7911 45.9737 62.7155 44.1175 65.6974C42.7756 67.8593 35.6562 84.5806 35.8351 91.3943C38.5636 99.125 52.6607 84.9384 52.6607 84.9384C54.2859 75.7167 56.2838 66.1223 53.3838 61.2245Z" fill="#263238"/>
<path d="M83.6954 25.2918C81.6204 23.1011 78.8931 21.6395 75.92 21.1246C72.969 20.5607 69.9263 20.7038 67.0412 21.542C63.7015 22.5261 60.1157 25.3962 59.8995 29.4889C58.3041 29.8542 57.1337 31.4868 56.7386 33.4176C56.1273 36.3996 57.0741 39.6052 58.1625 42.3038C58.1625 42.3038 61.7632 48.7895 62.4341 50.1389C63.1796 51.7119 63.7686 53.0239 63.7686 53.0239L63.5673 48.0962C65.5233 48.0549 67.4635 47.7362 69.3299 47.1495C71.1817 46.4826 72.9767 45.6674 74.6974 44.7117C78.1036 42.7739 81.3252 40.528 84.3216 38.0024C86.0288 36.6083 86.3419 35.0204 86.4239 32.866C86.4995 31.4851 86.297 30.1031 85.8283 28.802C85.3596 27.5009 84.6343 26.3072 83.6954 25.2918Z" fill="#263238"/>
<path d="M67.7941 30.4952C67.3325 32.5746 66.2043 34.4462 64.5811 35.8254C64.9389 37.7956 64.9591 39.8123 64.6407 41.7893C64.5662 42.2133 64.4092 42.6186 64.1785 42.9821C64.0582 43.1608 63.9006 43.3113 63.7166 43.4232C63.5326 43.5352 63.3264 43.6059 63.1124 43.6306C62.5384 43.6306 62.3073 43.3101 62.1359 42.8851C61.886 42.306 61.5997 41.7432 61.2786 41.2003C61.1394 40.9621 60.9717 40.7418 60.7791 40.5443C59.9143 39.7243 57.3275 38.703 56.09 41.4464C54.8525 44.1897 57.0516 48.1035 59.1316 48.7148C62.7248 49.7734 63.5374 47.3282 63.5374 47.3282L64.0518 60.2028C65.9826 62.2752 73.4225 65.3094 75.5173 67.762C76.5014 66.1294 78.6857 63.4084 76.7325 59.7853V55.5733C78.1601 55.645 79.5911 55.5499 80.9967 55.29C82.8678 54.9546 84.6794 53.2698 85.559 50.4518C87.2662 44.9501 86.4163 37.3685 85.7678 33.9542C85.4323 31.8821 84.5055 29.951 83.0989 28.3929C83.0324 28.3203 82.9501 28.2641 82.8584 28.2284C82.7667 28.1928 82.668 28.1788 82.5699 28.1874C82.4719 28.1961 82.3772 28.2272 82.2931 28.2783C82.209 28.3295 82.1378 28.3993 82.0851 28.4823C81.6117 29.1096 81.0137 29.6321 80.3286 30.017C79.6434 30.4019 78.8861 30.6408 78.1042 30.7188C75.8677 31.017 72.2372 30.4355 69.5013 29.5484C69.3272 29.4883 69.1425 29.4655 68.9591 29.4815C68.7756 29.4974 68.5976 29.5518 68.4366 29.6411C68.2756 29.7304 68.1351 29.8526 68.0245 29.9998C67.9138 30.1469 67.8353 30.3157 67.7941 30.4952Z" fill="#9E6767"/>
<path d="M76.7324 55.5513C73.4076 55.2009 69.9336 54.6343 68.0773 53.6279C66.8728 53.0051 65.8717 52.0506 65.1923 50.8771C65.1923 50.8771 65.3339 52.204 67.0933 53.9858C69.0763 55.9911 76.7324 56.8186 76.7324 56.8186V55.5513Z" fill="#874C4C"/>
<path d="M73.3255 40.1349C73.3196 40.3596 73.2479 40.5777 73.1192 40.762C72.9905 40.9464 72.8105 41.0889 72.6016 41.1718C72.3926 41.2548 72.1639 41.2746 71.9439 41.2288C71.7238 41.183 71.522 41.0735 71.3635 40.9141C71.205 40.7546 71.0969 40.5521 71.0525 40.3317C71.008 40.1113 71.0293 39.8828 71.1136 39.6744C71.1979 39.4659 71.3415 39.2869 71.5267 39.1594C71.7118 39.0318 71.9303 38.9615 72.1551 38.957C72.4662 38.959 72.7639 39.084 72.9832 39.3046C73.2025 39.5253 73.3255 39.8238 73.3255 40.1349Z" fill="#263238"/>
<path d="M80.9966 34.1109C82.193 34.3087 83.3265 34.7835 84.3066 35.4975C84.484 35.0449 84.479 34.5411 84.2927 34.0921C84.1064 33.643 83.7533 33.2837 83.3076 33.0896C83.0893 33 82.8552 32.9555 82.6192 32.9587C82.3833 32.9618 82.1504 33.0126 81.9346 33.108C81.7188 33.2034 81.5244 33.3414 81.3632 33.5137C81.2021 33.686 81.0774 33.8892 80.9966 34.1109Z" fill="#263238"/>
<path d="M73.2734 46.8812L77.3736 48.0516C77.3094 48.3261 77.1906 48.5847 77.0241 48.8121C76.8576 49.0395 76.6469 49.231 76.4047 49.3751C76.1625 49.5192 75.8937 49.6129 75.6144 49.6506C75.3351 49.6884 75.0511 49.6694 74.7793 49.5948C74.226 49.4252 73.7599 49.0477 73.4791 48.5417C73.1983 48.0357 73.1246 47.4405 73.2734 46.8812Z" fill="#874C4C"/>
<path d="M73.6684 47.828C74.1372 47.864 74.5765 48.0705 74.9034 48.4084C75.2303 48.7463 75.4221 49.1922 75.4426 49.6619C75.2194 49.6728 74.9957 49.6502 74.7791 49.5948C74.4001 49.4683 74.0619 49.2425 73.7997 48.9409C73.5375 48.6394 73.3609 48.2731 73.2882 47.8802C73.4129 47.8506 73.5403 47.8332 73.6684 47.828Z" fill="#F28F8F"/>
<path d="M72.6697 36.9291C71.4877 37.144 70.416 37.7601 69.6356 38.6735C69.52 38.4789 69.4444 38.2631 69.4134 38.0389C69.3823 37.8146 69.3963 37.5864 69.4547 37.3677C69.513 37.1489 69.6144 36.944 69.753 36.765C69.8916 36.586 70.0646 36.4365 70.2618 36.3253C70.6633 36.0948 71.1385 36.029 71.5875 36.1416C72.0365 36.2542 72.4244 36.5365 72.6697 36.9291Z" fill="#263238"/>
<path d="M83.4865 39.24C83.4821 39.4666 83.4112 39.6868 83.2825 39.8734C83.1539 40.0599 82.9732 40.2046 82.763 40.2892C82.5528 40.3739 82.3223 40.3949 82.1003 40.3496C81.8782 40.3043 81.6744 40.1947 81.5142 40.0345C81.3539 39.8742 81.2444 39.6704 81.1991 39.4484C81.1538 39.2263 81.1748 38.9959 81.2594 38.7857C81.3441 38.5755 81.4887 38.3948 81.6753 38.2662C81.8618 38.1375 82.0821 38.0666 82.3087 38.0621C82.6211 38.0621 82.9207 38.1862 83.1415 38.4071C83.3624 38.628 83.4865 38.9276 83.4865 39.24Z" fill="#263238"/>
<path d="M76.6355 37.0408L77.381 45.5244L81.5855 44.2347C80.459 41.5157 78.7723 39.0645 76.6355 37.0408Z" fill="#874C4C"/>
<path d="M75.5173 67.7397C74.0264 66.8302 71.1339 64.6981 69.6876 66.5246C68.2414 68.351 67.1754 70.4831 66.1168 70.1626C65.0582 69.842 61.5842 66.5246 60.2722 63.6619C59.6106 62.0951 59.266 60.4127 59.2583 58.7119C59.2583 58.7119 60.5182 57.3253 61.5619 56.2518C62.7174 55.059 62.9112 54.7608 63.7983 54.6863L63.9176 57.862C64.0148 58.4922 64.2363 59.0967 64.569 59.6406C64.9017 60.1845 65.3391 60.6569 65.8559 61.0304C68.4651 62.9164 73.6611 63.5948 75.5173 67.7397Z" fill="#263238"/>
<path d="M75.5174 67.7401C76.397 66.9498 77.6271 64.8177 79.0435 65.2352C80.4599 65.6527 81.8391 68.4557 81.8838 67.6953C81.9285 66.9349 80.6687 62.9019 79.4908 60.6729C78.5888 58.9582 77.6793 57.4449 76.7325 57.2734V59.7634C76.7325 59.7634 76.7325 61.9178 76.6281 63.2075C76.5725 64.7785 76.1944 66.3213 75.5174 67.7401Z" fill="#263238"/>
<path d="M53.2195 67.2479C54.6392 65.4701 55.6909 63.4275 56.3133 61.2393C56.9469 58.6897 58.9598 56.3414 59.6456 55.3797C60.3315 54.4181 61.8075 52.9942 62.9332 51.6523C64.0589 50.3104 64.4242 49.9153 66.0121 49.6469C68.2485 49.2667 69.9855 48.9015 70.8577 49.1847C71.7299 49.468 71.7001 50.0197 70.9472 50.7875C70.1942 51.5554 68.5914 51.7492 68.0994 51.8983C67.6074 52.0474 66.519 52.5245 66.519 52.5245L64.454 55.5587C65.8704 55.8001 67.2679 56.1414 68.6362 56.58C69.322 56.9527 69.9109 58.7195 69.6053 59.7036C69.6053 59.7036 70.8875 60.5683 70.3508 61.8282C70.3508 61.8282 71.1335 62.8495 70.5968 63.6919C69.9904 64.5362 69.2929 65.3112 68.5169 66.0029C68.092 66.3682 66.4072 66.4577 66.4072 66.4577C65.6643 67.5893 64.7772 68.6193 63.7681 69.5216C62.5679 70.4087 61.7852 70.3491 60.4731 72.2128L53.2195 67.2479Z" fill="#9E6767"/>
<path d="M66.027 55.8571C66.8545 55.4992 67.0409 54.9401 67.8236 55.2383C68.6064 55.5365 68.3007 56.4236 68.3007 56.4236L66.027 55.8571Z" fill="#874C4C"/>
<path d="M69.5829 59.7633C69.0658 59.3265 68.4945 58.9581 67.8831 58.6674C67.3091 58.3841 66.1313 57.9667 66.1313 57.9667C66.9652 58.0371 67.7842 58.2305 68.5615 58.5407C68.9594 58.6948 69.3413 58.887 69.7021 59.1147C69.6998 59.3088 69.6723 59.5018 69.6201 59.6887L69.5829 59.7633Z" fill="#874C4C"/>
<path d="M69.6948 60.9486C69.9719 61.0646 70.2409 61.1991 70.4999 61.3511C70.4784 61.5447 70.4334 61.735 70.3657 61.9177C69.7125 61.3248 68.9539 60.8595 68.1293 60.546C68.6647 60.6202 69.19 60.7553 69.6948 60.9486Z" fill="#874C4C"/>
<path d="M66.1313 66.9126C66.6111 65.9456 67.1828 65.0269 67.8384 64.1692C68.0497 63.9314 68.3431 63.7823 68.6598 63.7519C68.9764 63.7214 69.2929 63.8119 69.5456 64.0052C69.7618 64.3407 68.6286 64.2959 68.3006 64.445C67.4533 65.1494 66.7214 65.982 66.1313 66.9126Z" fill="#874C4C"/>
<path d="M63.4999 55.4543C63.4999 55.4543 64.141 54.5523 65.2816 53.1135C66.4222 51.6747 66.3626 51.8834 67.4734 51.6672C68.5841 51.451 70.6938 51.0708 71.2604 50.4073C71.1654 50.5369 71.0608 50.659 70.9473 50.7726C70.2018 51.5181 68.5916 51.7343 68.0996 51.8834C67.6075 52.0325 66.5191 52.5096 66.5191 52.5096L64.3945 55.6332L63.4999 55.4543Z" fill="#874C4C"/>
<path d="M53.2196 67.2478C49.4847 71.758 39.4132 82.5675 37.0575 86.9137C35.4472 89.8957 35.0447 96.8361 36.6847 99.3559C38.3248 101.876 43.0288 100.847 46.8383 97.4773C50.1184 94.5922 52.8618 87.6518 55.2473 82.7092C57.6329 77.7666 60.4657 72.1978 60.4657 72.1978L53.2196 67.2478Z" fill="#9E6767"/>
<path d="M53.2195 67.2477C54.0749 66.1062 54.8235 64.8884 55.456 63.6098C55.7595 62.9657 56.0089 62.2974 56.2015 61.6119C56.3634 60.9137 56.5905 60.2323 56.8798 59.5767C57.5076 58.2904 58.2724 57.0757 59.161 55.9536C60.0073 54.8057 60.9314 53.7172 61.9268 52.6958C62.4114 52.174 62.8661 51.6298 63.3209 51.0781C63.7534 50.4858 64.3493 50.0325 65.0355 49.7735C65.7294 49.5891 66.434 49.4471 67.1452 49.3486C67.846 49.2293 68.5467 49.1026 69.2624 49.0281C69.6208 48.9832 69.9824 48.9683 70.3433 48.9833C70.7245 48.9844 71.0963 49.1014 71.4094 49.3188C71.4931 49.3839 71.5584 49.4697 71.5989 49.5678C71.6395 49.6658 71.6538 49.7727 71.6405 49.8779C71.608 50.0716 71.5315 50.2552 71.4168 50.4147C71.2043 50.7148 70.9329 50.9684 70.6192 51.1601C69.9819 51.5071 69.2917 51.7463 68.5765 51.8684C67.8905 52.0518 67.2238 52.3014 66.5861 52.6138L66.6383 52.5766L64.5658 55.6032L64.5062 55.4541C65.7735 55.7076 67.0408 55.9462 68.2858 56.3264C68.4466 56.3735 68.6017 56.4385 68.748 56.5202C68.8947 56.6136 69.0214 56.7352 69.1207 56.878C69.3099 57.1507 69.458 57.4496 69.5606 57.7651C69.7987 58.3878 69.853 59.0657 69.7171 59.7183V59.6289C70.0643 59.8754 70.3396 60.2099 70.5148 60.598C70.6018 60.7951 70.645 61.0088 70.6415 61.2242C70.6431 61.4387 70.6026 61.6515 70.5222 61.8504V61.7759C70.7246 62.0216 70.8609 62.3148 70.9183 62.6279C70.9757 62.941 70.9523 63.2635 70.8503 63.565C70.5273 64.0876 70.1472 64.5726 69.7171 65.0113C69.5084 65.2349 69.2996 65.4511 69.076 65.6673C68.8708 65.9035 68.6164 66.0918 68.3305 66.219C67.7409 66.3901 67.1325 66.4878 66.519 66.5097H66.5637C66.1712 67.0861 65.7482 67.641 65.2964 68.1721C64.8656 68.7312 64.3645 69.2324 63.8054 69.6631C63.2314 70.0731 62.5828 70.334 62.0163 70.7441C61.4658 71.1627 60.9853 71.6659 60.5924 72.235C60.9475 71.6364 61.3954 71.0979 61.9193 70.6397C62.4784 70.2222 63.127 69.9464 63.6861 69.5289C64.2466 69.0998 64.748 68.5984 65.1771 68.0379C65.6176 67.5 66.0306 66.9402 66.4146 66.3606C67.018 66.3298 67.6158 66.2298 68.1963 66.0624C68.4658 65.9428 68.7033 65.7615 68.8896 65.5331C69.1058 65.3244 69.322 65.1082 69.5233 64.8845C69.9415 64.454 70.3115 63.979 70.6266 63.4681C70.7147 63.1898 70.7315 62.8937 70.6755 62.6072C70.6195 62.3207 70.4925 62.0528 70.3061 61.828V61.7908C70.3737 61.6069 70.409 61.4127 70.4104 61.2168C70.4081 61.0219 70.3675 60.8294 70.2911 60.6502C70.1244 60.2903 69.8677 59.9796 69.5457 59.7481H69.5009V59.6885C69.6273 59.07 69.573 58.4282 69.3444 57.8397C69.1282 57.2582 68.8225 56.6395 68.174 56.5202C66.9439 56.1549 65.6691 55.9163 64.4465 55.6703H64.2974L64.3794 55.5436L66.437 52.5095C67.0845 52.1958 67.7612 51.9461 68.4573 51.764C69.149 51.6445 69.818 51.4182 70.4402 51.093C70.7417 50.9039 70.9965 50.649 71.1857 50.3476C71.387 50.0792 71.4839 49.7214 71.1857 49.5275C70.5714 49.2157 69.8681 49.1261 69.1953 49.2741C68.4498 49.3486 67.7863 49.4604 67.0856 49.5797C66.385 49.6768 65.6906 49.8137 65.0056 49.9897C64.3469 50.2354 63.7743 50.6681 63.3581 51.2347C62.9034 51.7789 62.4412 52.3306 61.9566 52.8524C60.9525 53.862 60.0231 54.9433 59.1759 56.0878C58.2885 57.1973 57.5236 58.3996 56.8948 59.6736C56.5971 60.3205 56.3624 60.9945 56.194 61.6864C56.0021 62.3721 55.7527 63.0405 55.4485 63.6843C54.8131 64.9361 54.0671 66.1286 53.2195 67.2477Z" fill="#874C4C"/>
<path d="M125.786 78.4597L95.7947 89.5227L88.0118 125.515L88.6977 126.223L117.198 115.108L126.471 79.1605L125.786 78.4597Z" fill="#7FE389"/>
<path opacity="0.25" d="M125.786 78.4597L95.7947 89.5227L88.0118 125.515L88.6977 126.223L117.198 115.108L126.471 79.1605L125.786 78.4597Z" fill="white"/>
<path d="M96.4805 90.231L88.6977 126.223L88.0118 125.515L95.7947 89.5228L96.4805 90.231Z" fill="#7FE389"/>
<path opacity="0.35" d="M96.4805 90.231L88.6977 126.223L88.0118 125.515L95.7947 89.5228L96.4805 90.231Z" fill="black"/>
<path d="M126.471 79.1608L96.4804 90.2312L88.6975 126.223L117.197 115.108L126.471 79.1608Z" fill="#7FE389"/>
<g opacity="0.2">
<path opacity="0.2" d="M112.613 107.914C112.904 108.615 115.237 110.151 118.577 109.808L119.113 107.728L112.613 107.914Z" fill="black"/>
</g>
<g opacity="0.1">
<path opacity="0.1" d="M117.495 86.6381L117.727 85.4378C117.853 84.7669 116.086 85.1396 113.783 86.2728L108.371 87.9948C106.067 89.128 103.898 89.9704 103.756 90.6339L103.525 91.8415L117.495 86.6381Z" fill="black"/>
</g>
<path d="M119.21 81.1733C119.292 80.7558 118.599 80.8527 117.645 81.1211L115.915 81.7398C115.915 81.7398 116.497 79.6748 112.508 81.1584C107.402 83.0519 107.938 84.7069 107.938 84.7069C107.234 85.0221 106.513 85.296 105.777 85.5269C104.286 86.0338 104.122 86.332 104.002 86.7569L103.794 87.5024L119.061 81.8889C119.061 81.8889 119.128 81.5907 119.21 81.1733Z" fill="#37474F"/>
<path d="M117.63 83.5071C116.213 84.1706 115.624 84.4986 115.393 85.5199C115.162 86.6978 115.118 87.1823 115.118 87.1823L107.163 90.455C107.163 90.455 107.573 88.7255 107.67 88.1515C107.767 87.5774 106.708 87.5849 105.337 88.2484L105.642 86.8096L117.928 82.3367L117.63 83.5071Z" fill="#263238"/>
<path d="M117.906 86.6532L118.137 85.453C118.263 84.782 116.504 85.1548 114.2 86.2879L108.781 88.01C106.477 89.1357 104.308 89.9855 104.166 90.649L103.935 91.8567L117.906 86.6532Z" fill="#263238"/>
<path d="M123.295 91.5134C123.295 91.5134 122.282 95.4645 122.013 96.4634C121.745 97.4624 116.847 99.8106 114.379 100.191C109.66 100.847 109.161 101.883 110.324 105.223C111.412 108.302 114.514 109.427 118.77 108.861C120.11 108.582 121.351 107.952 122.366 107.035C123.382 106.118 124.135 104.947 124.548 103.642C125.875 99.669 125.07 95.4421 125.584 93.1385C126.098 90.835 124.473 90.0895 123.295 91.5134Z" fill="#9E6767"/>
<path d="M134.441 135.497C134.821 134.603 135.797 133.954 137.274 133.775C138.901 133.665 140.531 133.942 142.03 134.583C143.529 135.225 144.855 136.212 145.899 137.465C146.793 138.651 147.01 139.806 146.644 140.701L122.081 204.902C121.611 206.259 120.224 207.235 118.055 207.504C113.925 208.003 108.55 205.715 106.053 202.39C104.741 200.645 104.495 198.961 105.136 197.686L134.441 135.497Z" fill="#455A64"/>
<path d="M145.899 137.465C147.688 139.844 146.741 142.065 143.789 142.423C142.171 142.53 140.55 142.254 139.058 141.618C137.566 140.982 136.245 140.004 135.201 138.763C133.412 136.384 134.359 134.163 137.311 133.805C138.929 133.697 140.55 133.972 142.043 134.608C143.535 135.244 144.856 136.223 145.899 137.465Z" fill="#37474F"/>
<path d="M146.503 116.86C147.487 116.794 148.474 116.962 149.381 117.35C150.288 117.739 151.09 118.338 151.721 119.097C151.962 119.353 152.131 119.67 152.208 120.013C152.285 120.357 152.269 120.715 152.161 121.05L144.214 139.687C144.047 139.997 143.8 140.257 143.498 140.44C143.197 140.622 142.852 140.72 142.499 140.723C141.515 140.79 140.528 140.622 139.621 140.234C138.713 139.845 137.912 139.246 137.281 138.487C137.04 138.229 136.872 137.911 136.794 137.566C136.717 137.222 136.733 136.862 136.841 136.526L144.788 117.889C144.957 117.581 145.205 117.323 145.506 117.143C145.807 116.962 146.151 116.864 146.503 116.86Z" fill="#7FE389"/>
<path opacity="0.2" d="M146.503 116.86C147.487 116.794 148.474 116.962 149.381 117.35C150.288 117.739 151.09 118.338 151.721 119.097C151.962 119.353 152.131 119.67 152.208 120.013C152.285 120.357 152.269 120.715 152.161 121.05L144.214 139.687C144.047 139.997 143.8 140.257 143.498 140.44C143.197 140.622 142.852 140.72 142.499 140.723C141.515 140.79 140.528 140.622 139.621 140.234C138.713 139.845 137.912 139.246 137.281 138.487C137.04 138.229 136.872 137.911 136.794 137.566C136.717 137.222 136.733 136.862 136.841 136.526L144.788 117.889C144.957 117.581 145.205 117.323 145.506 117.143C145.807 116.962 146.151 116.864 146.503 116.86Z" fill="black"/>
<path opacity="0.2" d="M141.128 126.499L141.679 126.82L141.761 126.872L141.866 126.931L141.985 126.991C142.335 127.199 142.696 127.388 143.066 127.558C143.512 127.783 143.97 127.985 144.438 128.161C144.849 128.34 145.27 128.497 145.697 128.631C145.914 128.709 146.136 128.774 146.361 128.825C146.603 128.917 146.853 128.989 147.106 129.041C147.36 129.116 147.591 129.175 147.852 129.228C148.03 129.279 148.212 129.316 148.396 129.339H148.582L152.138 120.99C152.247 120.655 152.263 120.297 152.185 119.953C152.108 119.61 151.94 119.293 151.699 119.037C151.482 118.758 151.232 118.508 150.953 118.291C148.734 118.971 146.436 119.364 144.117 119.462L141.128 126.499Z" fill="black"/>
<path opacity="0.15" d="M140.859 142.207L114.998 207.392C116.006 207.561 117.031 207.593 118.048 207.489C120.217 207.221 121.603 206.244 122.073 204.887L146.585 140.716C146.205 141.618 145.228 142.251 143.752 142.43C142.782 142.52 141.804 142.445 140.859 142.207Z" fill="black"/>
<path d="M221.655 39.6727C221.655 39.136 221.61 38.6067 221.565 38.0774C221.521 37.5481 221.506 37.0412 221.454 36.5268C221.454 36.1764 221.387 35.8335 221.342 35.4906C221.252 34.596 221.126 33.7088 220.977 32.8664C220.909 32.4788 220.842 32.121 220.768 31.7035C220.693 31.286 220.619 30.958 220.537 30.6225C220.313 29.6459 220.074 28.6917 219.791 27.7748C219.65 27.3424 219.515 26.91 219.366 26.4851C219.34 26.4202 219.32 26.3528 219.307 26.2838C219.15 25.8589 219.001 25.4563 218.837 25.0612C218.673 24.6661 218.472 24.1294 218.263 23.697C218.054 23.2646 217.972 23.0484 217.801 22.7353C217.705 22.4981 217.59 22.2688 217.458 22.0494C217.324 21.7736 217.182 21.4903 217.018 21.222C216.988 21.1598 216.953 21.1 216.914 21.043C216.779 20.8045 216.638 20.5659 216.496 20.2976C216.355 20.0292 216.295 19.9919 216.205 19.8428C215.528 18.788 214.765 17.7907 213.924 16.8609L213.507 16.3838C213.387 16.2496 213.268 16.1303 213.149 16.011C213.03 15.8917 212.851 15.7054 212.687 15.5488C212.257 15.1091 211.799 14.6982 211.315 14.3188C211.091 14.1249 210.853 13.9386 210.614 13.7671C210.376 13.5956 210.137 13.4093 209.869 13.2378C209.481 12.962 209.086 12.7011 208.691 12.4923L208.378 12.2985L208.311 12.2463L200.93 7.90012L200.826 7.84048C197.236 5.83517 193.182 4.80696 189.07 4.85854C182.942 4.85854 176.024 6.8639 168.688 11.0908C143.506 25.6203 123.087 60.9489 123.087 90.0229C123.087 104.523 128.164 114.728 136.356 119.507H136.438L143.834 123.838L143.916 123.89L144.02 123.95C144.065 123.95 144.102 123.995 144.139 124.01C144.489 124.218 144.85 124.407 145.22 124.576C145.668 124.8 146.13 125.001 146.599 125.18C147.007 125.36 147.425 125.515 147.852 125.642C148.067 125.726 148.289 125.794 148.515 125.843C148.758 125.935 149.007 126.008 149.261 126.06C149.514 126.134 149.745 126.194 150.006 126.246C150.185 126.294 150.367 126.331 150.55 126.358C150.871 126.425 151.207 126.492 151.542 126.529C151.615 126.559 151.694 126.574 151.773 126.574C152.161 126.634 152.563 126.693 152.951 126.731C159.742 127.476 167.637 125.53 176.061 120.655C201.251 106.118 221.67 70.7446 221.67 41.6781C221.692 41.0519 221.677 40.366 221.655 39.6727ZM138.563 108.257C137.515 104.369 136.999 100.357 137.027 96.3297C137.027 68.7467 157.155 33.8505 181.048 20.0739C184.537 18.0095 188.302 16.4532 192.231 15.4519C194.11 14.9778 196.04 14.7276 197.978 14.7064C198.954 14.7018 199.929 14.7766 200.893 14.9301H200.975C205.858 20.7076 206.574 29.9665 206.574 34.9091C206.574 62.4921 186.446 97.3883 162.59 111.157C156.522 114.661 150.662 116.517 145.675 116.517C144.636 116.524 143.6 116.391 142.596 116.122C140.732 113.813 139.359 111.147 138.563 108.287V108.257Z" fill="#37474F"/>
<path opacity="0.25" d="M215.132 39.7991C215.132 54.433 209.444 71.1468 200.535 85.6688C200.118 86.3621 199.686 87.0405 199.246 87.7189C198.806 88.3973 198.5 88.8819 198.105 89.4633C197.263 90.7083 196.42 91.9309 195.533 93.1311C195.116 93.7076 194.691 94.2742 194.258 94.8308C193.789 95.4496 193.312 96.0609 192.835 96.6647C191.918 97.8203 190.963 98.9459 190.002 100.042C189.368 100.787 188.719 101.495 188.071 102.189C183.136 107.618 177.423 112.286 171.119 116.04C169.978 116.703 168.882 117.3 167.734 117.844C164.106 119.695 160.174 120.877 156.127 121.333C155.49 121.398 154.851 121.43 154.211 121.43C153.875 121.43 153.562 121.43 153.242 121.43C152.635 121.407 152.029 121.344 151.43 121.243C151.14 121.199 150.849 121.154 150.573 121.087C150.297 121.02 150.014 120.968 149.738 120.886C146.913 120.166 144.401 118.54 142.589 116.256C143.591 116.522 144.624 116.653 145.66 116.644C150.67 116.644 156.507 114.802 162.583 111.299C186.438 97.5295 206.566 62.596 206.566 35.0429C206.566 30.0928 205.821 20.8786 200.96 15.0638H200.886C207.111 16.0628 210.644 20.2822 212.642 25.1801C213.206 26.566 213.66 27.9943 213.999 29.4517C213.999 29.5337 214.036 29.6083 214.051 29.6903C214.118 29.9512 214.185 30.2196 214.23 30.488C214.275 30.7563 214.334 31.0023 214.379 31.2334C214.384 31.3004 214.384 31.3677 214.379 31.4347C214.431 31.7106 214.483 31.9864 214.528 32.2548C214.685 33.2761 214.811 34.2676 214.893 35.2367C214.893 35.52 214.946 35.7809 214.961 36.0418C214.976 36.3027 214.961 36.4444 215.005 36.6382C215.005 36.7202 215.005 36.8022 215.005 36.8842C215.005 37.1004 215.005 37.3091 215.043 37.5179C215.046 37.575 215.046 37.6323 215.043 37.6893C215.043 37.9577 215.043 38.2062 215.043 38.4348C215.132 38.8821 215.132 39.3294 215.132 39.7991Z" fill="black"/>
<path d="M143.2 123.57L136.356 119.544C128.156 114.75 123.087 104.552 123.087 90.0749C123.087 77.1109 127.15 62.8944 133.874 49.8186L141.672 54.2915C134.962 67.3375 130.489 81.3974 130.489 94.3689C130.475 108.578 135.305 118.642 143.2 123.57Z" fill="#263238"/>
<path d="M208.408 12.2759L208.341 12.2237L200.96 7.88494L200.856 7.81785C197.266 5.81156 193.212 4.78328 189.1 4.83591C182.972 4.83591 176.054 6.84126 168.718 11.0682C154.763 19.1269 142.276 33.5893 133.919 49.8334L141.679 54.3958L141.508 54.7164C149.895 38.6586 162.322 24.1514 176.128 15.4218C188.623 7.54947 200.483 7.43765 208.766 12.4399L208.408 12.2759Z" fill="#455A64"/>
<path opacity="0.1" d="M211.166 37.4582C211.166 65.0412 191.038 99.9374 167.146 113.714C163.658 115.781 159.892 117.338 155.963 118.336C154.083 118.81 152.154 119.06 150.216 119.082C148.225 119.105 146.247 118.767 144.378 118.083C141.396 115.593 139.622 111.999 138.549 108.302C137.501 104.413 136.984 100.401 137.013 96.374C137.013 68.791 157.141 33.8948 181.034 20.1182C184.523 18.0539 188.288 16.4975 192.216 15.4962C194.096 15.0221 196.025 14.7719 197.964 14.7507C199.954 14.7252 201.931 15.0612 203.801 15.7422C206.783 18.2247 208.557 21.8329 209.631 25.523C210.679 29.4139 211.196 33.4287 211.166 37.4582Z" fill="#7FE389"/>
<path opacity="0.3" d="M150.23 119.096C152.169 119.075 154.098 118.825 155.978 118.351C159.907 117.353 163.673 115.796 167.16 113.729C191.016 99.9522 211.181 65.0261 211.181 37.473C211.21 33.446 210.693 29.4336 209.646 25.5452C208.572 21.8625 206.79 18.2618 203.838 15.7793L203.555 15.6824C203.294 15.5855 203.033 15.5035 202.757 15.4215L202.288 15.2948C202.019 15.2202 201.736 15.168 201.46 15.1084L200.968 15.0115H200.916H200.968C205.858 20.789 206.574 30.0405 206.574 34.9905C206.574 62.5735 186.446 97.4771 162.59 111.246C156.515 114.75 150.663 116.591 145.668 116.591C144.631 116.6 143.598 116.47 142.597 116.204L142.641 116.263C143.187 116.918 143.788 117.524 144.438 118.075C146.291 118.762 148.254 119.108 150.23 119.096Z" fill="white"/>
<path d="M265.654 50.6082L231.965 70.0579C230.161 71.0942 228.7 69.9908 228.7 67.5829V38.3599C228.7 35.9519 230.191 33.1415 231.965 32.1127L265.654 12.6704C267.458 11.6267 268.919 12.7301 268.919 15.138V44.3685C268.904 46.7839 267.458 49.5645 265.654 50.6082Z" fill="#FAFAFA"/>
<path d="M230.668 70.8032C230.312 70.8064 229.962 70.7137 229.654 70.5349C228.819 70.0578 228.342 68.9843 228.342 67.5529V38.3597C228.342 35.8399 229.893 32.9027 231.786 31.8069L265.475 12.3571C265.835 12.1053 266.257 11.9563 266.696 11.9261C267.135 11.8959 267.573 11.9856 267.965 12.1857C268.8 12.6702 269.277 13.7437 269.277 15.1676V44.3981C269.277 46.9104 267.734 49.8551 265.833 50.951L232.152 70.3634C231.704 70.638 231.193 70.7897 230.668 70.8032ZM266.951 12.6553C266.554 12.6684 266.168 12.7868 265.833 12.9983L232.152 32.4256C230.444 33.4097 229.058 36.0711 229.058 38.3895V67.6126C229.058 68.7457 229.408 69.5956 230.012 69.9459C230.296 70.0788 230.61 70.1329 230.923 70.1027C231.235 70.0726 231.533 69.9592 231.786 69.7745L265.475 50.3247C267.174 49.3407 268.561 46.6868 268.561 44.3981V15.1378C268.561 14.0047 268.211 13.1548 267.607 12.8044C267.407 12.6927 267.18 12.6361 266.951 12.6404V12.6553Z" fill="#E0E0E0"/>
<path d="M258.266 28.7059L251.392 53.4263L265.139 45.4868L258.266 28.7059Z" fill="#7FE389"/>
<path opacity="0.3" d="M258.266 28.7059L251.392 53.4263L265.139 45.4868L258.266 28.7059Z" fill="white"/>
<path d="M248.813 27.006L241.932 58.883L255.686 50.9435L248.813 27.006Z" fill="#7FE389"/>
<path d="M239.435 43.4962L232.562 64.2953L246.308 56.3633L239.435 43.4962Z" fill="#7FE389"/>
<path opacity="0.3" d="M239.435 43.4962L232.562 64.2953L246.308 56.3633L239.435 43.4962Z" fill="black"/>
<path d="M233.866 36.8243L232.785 37.4505C232.658 37.5176 232.562 37.4505 232.562 37.279V35.5122C232.563 35.4288 232.583 35.3468 232.622 35.2729C232.661 35.1991 232.717 35.1355 232.785 35.0873L233.866 34.4611C233.993 34.3865 234.09 34.4611 234.09 34.6325V36.3919C234.089 36.4764 234.068 36.5594 234.029 36.6345C233.99 36.7095 233.934 36.7745 233.866 36.8243Z" fill="#7FE389"/>
<path opacity="0.3" d="M233.866 36.8243L232.785 37.4505C232.658 37.5176 232.562 37.4505 232.562 37.279V35.5122C232.563 35.4288 232.583 35.3468 232.622 35.2729C232.661 35.1991 232.717 35.1355 232.785 35.0873L233.866 34.4611C233.993 34.3865 234.09 34.4611 234.09 34.6325V36.3919C234.089 36.4764 234.068 36.5594 234.029 36.6345C233.99 36.7095 233.934 36.7745 233.866 36.8243Z" fill="black"/>
<path d="M233.866 40.2235L232.785 40.8497C232.658 40.9242 232.562 40.8497 232.562 40.6782V38.9189C232.563 38.8344 232.583 38.7513 232.622 38.6763C232.661 38.6012 232.717 38.5362 232.785 38.4865L233.866 37.8379C233.993 37.7708 234.09 37.8379 234.09 38.0094V39.7762C234.092 39.8634 234.073 39.9499 234.034 40.0279C233.995 40.1059 233.937 40.1731 233.866 40.2235Z" fill="#7FE389"/>
<path d="M233.866 43.6231L232.785 44.2493C232.658 44.3239 232.562 44.2493 232.562 44.0853V42.3111C232.561 42.2274 232.582 42.1449 232.621 42.0709C232.66 41.9969 232.716 41.9334 232.785 41.8861L233.866 41.2599C233.993 41.1854 234.09 41.2599 234.09 41.4239V43.1907C234.091 43.2757 234.071 43.3596 234.032 43.4351C233.993 43.5105 233.936 43.5751 233.866 43.6231Z" fill="#7FE389"/>
<path opacity="0.3" d="M233.866 43.6231L232.785 44.2493C232.658 44.3239 232.562 44.2493 232.562 44.0853V42.3111C232.561 42.2274 232.582 42.1449 232.621 42.0709C232.66 41.9969 232.716 41.9334 232.785 41.8861L233.866 41.2599C233.993 41.1854 234.09 41.2599 234.09 41.4239V43.1907C234.091 43.2757 234.071 43.3596 234.032 43.4351C233.993 43.5105 233.936 43.5751 233.866 43.6231Z" fill="white"/>
<path d="M175.293 148.744C175.356 148.714 175.412 148.669 175.455 148.614C175.498 148.558 175.526 148.493 175.539 148.423C175.691 147.816 175.81 147.202 175.897 146.582C175.983 145.997 176.036 145.407 176.053 144.815C176.053 144.666 175.979 144.584 175.874 144.621L174.652 144.994C174.64 144.17 174.51 143.351 174.264 142.564L175.308 141.073C175.352 141.015 175.382 140.948 175.396 140.877C175.41 140.806 175.408 140.733 175.39 140.663C175.086 139.892 174.606 139.203 173.988 138.65C173.914 138.59 173.794 138.65 173.705 138.777L172.669 140.268C172.171 139.93 171.585 139.743 170.984 139.731L171.237 137.957C171.237 137.8 171.2 137.696 171.103 137.696C170.688 137.728 170.278 137.808 169.881 137.934C169.443 138.068 169.018 138.243 168.613 138.456C168.554 138.499 168.505 138.554 168.467 138.617C168.43 138.679 168.406 138.749 168.397 138.821L168.144 140.596C167.412 141.06 166.746 141.619 166.161 142.258L165.475 141.267C165.415 141.185 165.296 141.207 165.199 141.319C164.392 142.274 163.683 143.308 163.082 144.405C163.05 144.466 163.033 144.534 163.033 144.603C163.033 144.672 163.05 144.739 163.082 144.8L163.768 145.784C163.305 146.712 162.928 147.68 162.642 148.677L161.419 149.05C161.355 149.08 161.299 149.125 161.255 149.18C161.211 149.236 161.181 149.301 161.166 149.37C161.017 149.981 160.897 150.593 160.808 151.211C160.727 151.8 160.677 152.392 160.659 152.986C160.659 153.127 160.733 153.209 160.838 153.18L162.06 152.807C162.071 153.627 162.202 154.44 162.448 155.222L161.404 156.713C161.361 156.771 161.331 156.838 161.317 156.909C161.303 156.98 161.305 157.053 161.322 157.123C161.623 157.896 162.103 158.586 162.724 159.136C162.798 159.196 162.918 159.136 163.007 159.017L164.043 157.526C164.541 157.859 165.122 158.045 165.721 158.062L165.475 159.837C165.475 159.986 165.512 160.098 165.609 160.09C166.024 160.06 166.434 159.983 166.831 159.859C167.269 159.722 167.694 159.545 168.099 159.33C168.159 159.288 168.21 159.234 168.247 159.171C168.284 159.108 168.307 159.037 168.315 158.965L168.568 157.19C169.299 156.728 169.966 156.172 170.551 155.535L171.237 156.519C171.297 156.609 171.416 156.586 171.513 156.475C172.32 155.518 173.027 154.481 173.623 153.381C173.656 153.32 173.674 153.252 173.674 153.183C173.674 153.114 173.656 153.046 173.623 152.986L172.937 152.002C173.398 151.076 173.775 150.11 174.063 149.117L175.293 148.744ZM169.008 153.276C165.818 155.759 163.626 152.613 165.326 147.976C165.788 146.631 166.604 145.436 167.689 144.517C170.879 142.027 173.071 145.18 171.371 149.817C170.909 151.162 170.093 152.357 169.008 153.276Z" fill="#E6E6E6"/>
<path d="M184.604 149.124C184.628 149.096 184.646 149.062 184.656 149.026C184.666 148.99 184.669 148.953 184.664 148.916C184.637 148.56 184.588 148.206 184.514 147.857C184.446 147.541 184.348 147.231 184.224 146.933C184.224 146.88 184.142 146.88 184.09 146.933L183.262 147.678C183.076 147.296 182.797 146.968 182.449 146.724L182.882 145.494C182.882 145.412 182.882 145.33 182.882 145.307C182.424 145.066 181.906 144.962 181.391 145.009C181.339 145.009 181.279 145.076 181.249 145.158L180.817 146.388C180.344 146.473 179.893 146.65 179.49 146.91L179.274 145.934C179.271 145.921 179.266 145.909 179.257 145.899C179.249 145.89 179.239 145.882 179.227 145.878C179.215 145.873 179.202 145.872 179.189 145.874C179.176 145.876 179.164 145.881 179.154 145.889C178.854 146.102 178.568 146.333 178.297 146.582C178.007 146.854 177.733 147.143 177.477 147.447C177.451 147.476 177.431 147.51 177.42 147.548C177.408 147.585 177.405 147.624 177.41 147.663L177.626 148.64C177.217 149.168 176.86 149.735 176.56 150.332L175.815 150.19C175.77 150.19 175.703 150.19 175.673 150.302C175.295 151.105 175 151.944 174.793 152.807C174.793 152.889 174.793 152.956 174.846 152.963L175.591 153.113C175.461 153.73 175.398 154.36 175.405 154.991L174.585 155.737C174.554 155.764 174.531 155.797 174.515 155.835C174.5 155.872 174.493 155.912 174.495 155.953C174.517 156.309 174.567 156.663 174.644 157.011C174.713 157.328 174.81 157.637 174.935 157.936C174.935 157.988 175.017 157.988 175.069 157.936L175.897 157.19C176.078 157.575 176.359 157.904 176.709 158.145L176.277 159.382C176.277 159.457 176.277 159.539 176.277 159.561C176.735 159.803 177.252 159.906 177.768 159.859C177.82 159.859 177.88 159.792 177.909 159.71L178.334 158.488C178.809 158.397 179.261 158.217 179.669 157.958L179.885 158.935C179.884 158.949 179.888 158.963 179.896 158.975C179.904 158.986 179.915 158.995 179.928 159C179.942 159.005 179.956 159.006 179.97 159.002C179.983 158.998 179.995 158.991 180.004 158.98C180.306 158.769 180.593 158.537 180.862 158.286C181.152 158.017 181.426 157.731 181.682 157.429C181.731 157.366 181.755 157.286 181.749 157.205L181.533 156.236C181.94 155.704 182.297 155.135 182.599 154.536L183.344 154.686C183.389 154.686 183.456 154.641 183.486 154.566C183.859 153.762 184.154 152.923 184.365 152.061C184.365 151.979 184.365 151.912 184.313 151.905L183.568 151.756C183.698 151.138 183.76 150.508 183.754 149.877L184.604 149.124ZM180.876 154.402C179.169 156.773 177.06 156.296 177.201 153.523C177.28 152.424 177.662 151.369 178.305 150.474C180.019 148.11 182.121 148.587 181.987 151.361C181.91 152.459 181.525 153.513 180.876 154.402Z" fill="#E6E6E6"/>
<path d="M187.004 132.574C187.035 132.547 187.058 132.514 187.074 132.477C187.089 132.439 187.096 132.399 187.094 132.358C187.071 132.002 187.022 131.648 186.945 131.3C186.876 130.983 186.779 130.674 186.654 130.375C186.654 130.323 186.572 130.323 186.52 130.375L185.692 131.121C185.507 130.739 185.23 130.409 184.887 130.159L185.312 128.936C185.312 128.854 185.312 128.772 185.312 128.75C184.854 128.509 184.337 128.405 183.821 128.452C183.769 128.452 183.709 128.519 183.68 128.601L183.255 129.824C182.78 129.914 182.328 130.094 181.92 130.353L181.704 129.376C181.702 129.364 181.696 129.352 181.688 129.342C181.68 129.332 181.669 129.325 181.657 129.32C181.645 129.316 181.632 129.315 181.619 129.317C181.607 129.318 181.595 129.324 181.585 129.332C181.285 129.544 180.998 129.776 180.727 130.025C180.439 130.296 180.165 130.582 179.907 130.882C179.882 130.913 179.864 130.949 179.854 130.988C179.843 131.026 179.841 131.066 179.848 131.106L180.064 132.082C179.65 132.609 179.29 133.176 178.99 133.775L178.245 133.626C178.2 133.626 178.141 133.67 178.103 133.745C177.724 134.546 177.424 135.382 177.209 136.242C177.209 136.324 177.209 136.391 177.261 136.399L178.006 136.548C177.876 137.165 177.814 137.795 177.82 138.427L177 139.172C176.97 139.199 176.946 139.232 176.93 139.27C176.915 139.307 176.908 139.348 176.911 139.388C176.933 139.744 176.982 140.098 177.06 140.447C177.129 140.763 177.226 141.072 177.35 141.371C177.35 141.423 177.432 141.423 177.485 141.371L178.312 140.626C178.498 141.007 178.778 141.335 179.125 141.58L178.692 142.817C178.692 142.892 178.692 142.974 178.692 142.996C179.15 143.238 179.668 143.341 180.183 143.295C180.235 143.295 180.295 143.227 180.325 143.145L180.757 141.923C181.228 141.828 181.678 141.649 182.084 141.394L182.3 142.37C182.303 142.383 182.308 142.394 182.317 142.404C182.325 142.414 182.335 142.422 182.347 142.426C182.359 142.431 182.372 142.432 182.385 142.43C182.398 142.428 182.41 142.423 182.42 142.415C182.723 142.206 183.01 141.974 183.277 141.722C183.567 141.452 183.841 141.166 184.097 140.864C184.123 140.834 184.143 140.798 184.155 140.76C184.166 140.721 184.169 140.681 184.164 140.641L183.948 139.671C184.356 139.14 184.713 138.57 185.014 137.972L185.759 138.121C185.804 138.121 185.871 138.076 185.909 138.002C186.28 137.197 186.572 136.358 186.781 135.497C186.781 135.415 186.781 135.348 186.729 135.34L185.983 135.191C186.113 134.574 186.176 133.944 186.169 133.312L187.004 132.574ZM183.277 137.852C181.562 140.223 179.46 139.746 179.594 136.973C179.672 135.873 180.057 134.816 180.705 133.924C182.412 131.561 184.522 132.03 184.38 134.811C184.302 135.906 183.923 136.959 183.284 137.852H183.277Z" fill="#E6E6E6"/>
<path d="M102.892 48.9079C102.765 48.9749 102.661 48.9079 102.661 48.6842V19.8712C102.658 19.7769 102.678 19.6834 102.718 19.5981C102.758 19.5127 102.818 19.4378 102.892 19.3792C103.018 19.3046 103.123 19.3792 103.123 19.6028V48.4158C103.124 48.5099 103.103 48.603 103.063 48.6882C103.023 48.7734 102.965 48.8485 102.892 48.9079Z" fill="#E0E0E0"/>
<path d="M132.927 31.5679L100.126 50.4958C99.9992 50.5704 99.9023 50.4958 99.9023 50.2722C99.9 50.1797 99.9189 50.0879 99.9577 50.0039C99.9965 49.9198 100.054 49.8459 100.126 49.7876L132.927 30.8597C133.054 30.7852 133.151 30.8597 133.151 31.0759C133.154 31.1696 133.135 31.2627 133.096 31.348C133.058 31.4333 133 31.5086 132.927 31.5679Z" fill="#E0E0E0"/>
<path d="M108.55 21.9808L104.524 24.3067V44.5392L108.55 42.2133V21.9808Z" fill="#F5F5F5"/>
<path d="M114.268 32.7162L110.242 35.0421V41.2371L114.268 38.9112V32.7162Z" fill="#EBEBEB"/>
<path d="M119.986 10.5676L115.96 12.8935V37.9344L119.986 35.6085V10.5676Z" fill="#F5F5F5"/>
<path d="M125.704 17.2694L121.678 19.5953V34.6318L125.704 32.3059V17.2694Z" fill="#E0E0E0"/>
<path d="M131.421 19.7968L127.396 22.1227V31.3294L131.421 29.011V19.7968Z" fill="#F5F5F5"/>
<path d="M220.761 91.2368V100.391L215.229 109.27C213.269 106.75 213.843 100.466 216.907 95.501C217.832 93.7922 219.154 92.33 220.761 91.2368Z" fill="#E0E0E0"/>
<path d="M228.32 99.3105C227.217 104.872 223.378 110.046 219.598 110.97C218.951 111.169 218.263 111.188 217.606 111.025C216.949 110.862 216.349 110.523 215.871 110.046L221.469 100.995L228.32 99.3105Z" fill="#F0F0F0"/>
<path d="M228.462 98.3492L221.872 99.9594L225.599 90.2308C227.903 91.118 229.043 94.2341 228.462 98.3492Z" fill="#E0E0E0"/>
<path d="M224.876 90.1561L221.536 98.9677V90.7674C222.534 90.1549 223.725 89.9369 224.876 90.1561Z" fill="#F0F0F0"/>
<path d="M269.352 273.725C262.158 273.725 254.972 272.145 249.5 268.984C244.028 265.823 241.165 261.738 241.165 257.309C241.165 252.881 244.147 248.744 249.5 245.643C260.444 239.321 278.253 239.321 289.204 245.643C294.572 248.744 297.531 252.889 297.531 257.309C297.531 261.73 294.55 265.882 289.204 268.984C283.725 272.145 276.539 273.725 269.352 273.725ZM269.352 241.617C262.292 241.617 255.233 243.168 249.858 246.269C244.721 249.251 241.888 253.157 241.888 257.309C241.888 261.462 244.721 265.39 249.858 268.357C260.608 274.56 278.089 274.56 288.839 268.357C293.975 265.376 296.808 261.469 296.808 257.309C296.808 253.15 293.975 249.236 288.839 246.269C283.472 243.168 276.404 241.617 269.352 241.617Z" fill="#7FE389"/>
<path d="M270.09 251.442V256.124L265.468 243.592V238.918L270.09 251.442Z" fill="#263238"/>
<path d="M270.098 251.442V256.124L289.167 249.504V244.83L270.098 251.442Z" fill="#37474F"/>
<path d="M265.468 238.881L270.098 251.442L289.167 244.83C283.934 240.26 274.869 237.979 265.468 238.881Z" fill="#455A64"/>
<path d="M245.549 252.314C245.545 252.362 245.545 252.409 245.549 252.456V252.314Z" fill="#7FE389"/>
<path d="M268.197 257.346L265.364 270.668C253.801 269.542 245.452 263.69 245.549 257.011V252.448C245.549 259.076 253.883 264.861 265.371 265.986L267.317 256.832L268.197 257.346Z" fill="#7FE389"/>
<path opacity="0.4" d="M268.197 257.346L265.364 270.668C253.801 269.542 245.452 263.69 245.549 257.011V252.448C245.549 259.076 253.883 264.861 265.371 265.986L267.317 256.832L268.197 257.346Z" fill="black"/>
<path d="M267.533 266.143V270.824C272.293 271.108 277.062 270.467 281.578 268.938C287.028 267.045 290.874 264.041 292.41 260.485C292.877 259.455 293.131 258.342 293.156 257.212C293.156 256.772 293.156 252.381 293.156 252.381C293.156 252.381 291.836 252.277 290.293 250.629L286.722 251.867L270.396 257.503L267.533 266.143Z" fill="#7FE389"/>
<path opacity="0.6" d="M267.533 266.143V270.824C272.293 271.108 277.062 270.467 281.578 268.938C287.028 267.045 290.874 264.041 292.41 260.485C292.877 259.455 293.131 258.342 293.156 257.212C293.156 256.772 293.156 252.381 293.156 252.381C293.156 252.381 291.836 252.277 290.293 250.629L286.722 251.867L270.396 257.503L267.533 266.143Z" fill="white"/>
<path d="M253.302 246.961L267.511 255.162V250.488L253.302 242.287V246.961Z" fill="#7FE389"/>
<path opacity="0.1" d="M253.302 246.961L267.511 255.162V250.488L253.302 242.287V246.961Z" fill="black"/>
<path d="M245.72 250.764C244.162 258.077 252.907 264.771 265.364 265.994L268.197 252.672L251.759 243.182C248.322 245.329 246.346 247.819 245.72 250.764Z" fill="#7FE389"/>
<path opacity="0.3" d="M245.72 250.764C244.162 258.077 252.907 264.771 265.364 265.994L268.197 252.672L251.759 243.182C248.322 245.329 246.346 247.819 245.72 250.764Z" fill="black"/>
<path d="M267.615 265.755L267.533 266.143C272.295 266.418 277.065 265.764 281.578 264.219C287.028 262.326 290.874 259.329 292.41 255.766C293.864 252.411 293.096 248.937 290.263 245.91L286.692 247.148L270.396 252.821L267.615 265.755Z" fill="#7FE389"/>
<path opacity="0.75" d="M267.615 265.755L267.533 266.143C272.295 266.418 277.065 265.764 281.578 264.219C287.028 262.326 290.874 259.329 292.41 255.766C293.864 252.411 293.096 248.937 290.263 245.91L286.692 247.148L270.396 252.821L267.615 265.755Z" fill="white"/>
<path d="M253.302 242.288L267.511 250.488L263.329 239.119C259.822 239.558 256.424 240.632 253.302 242.288Z" fill="#7FE389"/>
<path d="M268.197 257.346V252.672L265.364 265.994V270.668L268.197 257.346Z" fill="#7FE389"/>
<path opacity="0.55" d="M268.197 257.346V252.672L265.364 265.994V270.668L268.197 257.346Z" fill="black"/>
<path d="M286.319 231.858L283.226 233.647L286.319 235.436L289.413 233.647L286.319 231.858Z" fill="#7FE389"/>
<path opacity="0.3" d="M286.319 231.858L283.226 233.647L286.319 235.436L289.413 233.647L286.319 231.858Z" fill="black"/>
<path d="M289.413 233.647V235.436L286.319 237.225V235.436L289.413 233.647Z" fill="#7FE389"/>
<path opacity="0.4" d="M289.413 233.647V235.436L286.319 237.225V235.436L289.413 233.647Z" fill="black"/>
<path d="M286.319 235.436V237.225L283.226 235.436V233.647L286.319 235.436Z" fill="#7FE389"/>
<path opacity="0.55" d="M286.319 235.436V237.225L283.226 235.436V233.647L286.319 235.436Z" fill="black"/>
<path d="M291.046 230.471L302.511 223.851C302.88 223.657 303.289 223.552 303.706 223.544C304.123 223.536 304.536 223.626 304.912 223.807C305.553 224.179 305.523 224.798 304.837 225.193L293.372 231.813C293.003 232.009 292.594 232.116 292.177 232.123C291.76 232.131 291.347 232.04 290.971 231.858C290.323 231.493 290.36 230.866 291.046 230.471Z" fill="#E0E0E0"/>
<path d="M293.29 235.891L290.196 237.673L293.29 239.462L296.391 237.673L293.29 235.891Z" fill="#7FE389"/>
<path opacity="0.88" d="M293.29 235.891L290.196 237.673L293.29 239.462L296.391 237.673L293.29 235.891Z" fill="white"/>
<path d="M296.391 237.673V239.462L293.29 241.251V239.462L296.391 237.673Z" fill="#7FE389"/>
<path opacity="0.75" d="M296.391 237.673V239.462L293.29 241.251V239.462L296.391 237.673Z" fill="white"/>
<path d="M293.29 239.462V241.251L290.196 239.462V237.673L293.29 239.462Z" fill="#7FE389"/>
<path opacity="0.6" d="M293.29 239.462V241.251L290.196 239.462V237.673L293.29 239.462Z" fill="white"/>
<path d="M298.016 234.505L309.482 227.877C309.852 227.683 310.262 227.577 310.68 227.57C311.098 227.562 311.512 227.652 311.89 227.833C312.531 228.205 312.493 228.824 311.808 229.219L300.342 235.847C299.973 236.042 299.563 236.147 299.146 236.153C298.729 236.16 298.316 236.067 297.942 235.884C297.3 235.519 297.33 234.892 298.016 234.505Z" fill="#E0E0E0"/>
<path d="M300.267 239.91L297.174 241.699L300.267 243.488L303.361 241.699L300.267 239.91Z" fill="#7FE389"/>
<path opacity="0.3" d="M300.267 239.91L297.174 241.699L300.267 243.488L303.361 241.699L300.267 239.91Z" fill="white"/>
<path d="M303.361 241.698V243.488L300.268 245.277V243.488L303.361 241.698Z" fill="#7FE389"/>
<path d="M300.267 243.488V245.277L297.174 243.488V241.698L300.267 243.488Z" fill="#7FE389"/>
<path opacity="0.1" d="M300.267 243.488V245.277L297.174 243.488V241.698L300.267 243.488Z" fill="black"/>
<path d="M304.994 238.53L316.46 231.903C316.829 231.709 317.238 231.603 317.655 231.595C318.071 231.588 318.484 231.678 318.86 231.858C319.501 232.231 319.464 232.85 318.786 233.245L307.313 239.865C306.944 240.06 306.534 240.165 306.117 240.171C305.7 240.178 305.287 240.085 304.912 239.902C304.271 239.544 304.308 238.925 304.994 238.53Z" fill="#E0E0E0"/>
<path d="M307.238 243.935L304.144 245.724L307.238 247.513L310.332 245.724L307.238 243.935Z" fill="#455A64"/>
<path d="M310.331 245.724V247.513L307.238 249.302V247.513L310.331 245.724Z" fill="#37474F"/>
<path d="M307.238 247.513V249.302L304.144 247.513V245.724L307.238 247.513Z" fill="#263238"/>
<path d="M311.964 242.556L323.43 235.929C323.799 235.734 324.208 235.629 324.626 235.622C325.043 235.616 325.456 235.708 325.83 235.891C326.471 236.257 326.442 236.875 325.756 237.271L314.29 243.898C313.921 244.092 313.512 244.198 313.095 244.205C312.678 244.213 312.265 244.123 311.89 243.943C311.249 243.592 311.278 242.951 311.964 242.556Z" fill="#E0E0E0"/>
<g opacity="0.3">
<path opacity="0.3" d="M256.686 223.398C256.626 223.398 256.566 223.382 256.514 223.353L234.433 210.605C234.382 210.574 234.339 210.53 234.309 210.478C234.279 210.426 234.263 210.367 234.261 210.307C234.262 210.247 234.278 210.189 234.308 210.138C234.338 210.087 234.381 210.045 234.433 210.016L262.016 194.078C262.067 194.048 262.125 194.033 262.184 194.033C262.242 194.033 262.3 194.048 262.351 194.078L284.44 206.825C284.492 206.856 284.534 206.9 284.563 206.952C284.592 207.005 284.606 207.064 284.604 207.124C284.605 207.182 284.591 207.24 284.562 207.291C284.533 207.342 284.491 207.385 284.44 207.414L256.857 223.353C256.805 223.382 256.746 223.398 256.686 223.398ZM235.283 210.307L256.686 222.667L283.613 207.124L262.195 194.763L235.283 210.307Z" fill="#7FE389"/>
</g>
<path d="M256.686 219.871V121.146L240.122 111.582V210.306L256.686 219.871Z" fill="#7FE389"/>
<path opacity="0.2" d="M256.686 219.871V121.146L240.122 111.582V210.306L256.686 219.871Z" fill="black"/>
<path d="M256.686 219.871L278.768 207.123L278.775 108.399L256.686 121.146V219.871Z" fill="#7FE389"/>
<path d="M278.775 108.399L262.21 98.834L240.122 111.582L256.686 121.146L278.775 108.399Z" fill="#7FE389"/>
<path opacity="0.25" d="M278.775 108.399L262.21 98.834L240.122 111.582L256.686 121.146L278.775 108.399Z" fill="white"/>
<path opacity="0.3" d="M278.775 108.399L256.463 120.699L249.217 116.651L240.122 111.582L249.067 116.934L256.396 121.303C256.217 123.793 256.172 209.77 256.202 212.252C256.221 214.799 256.385 217.343 256.694 219.871C257 217.343 257.162 214.799 257.178 212.252C257.178 209.844 257.178 123.949 256.999 121.541L278.775 108.399Z" fill="white"/>
<g opacity="0.3">
<path opacity="0.3" d="M215.275 247.32C215.215 247.319 215.156 247.304 215.103 247.275L193.022 234.527C192.971 234.496 192.928 234.452 192.898 234.4C192.868 234.348 192.852 234.289 192.851 234.229C192.851 234.17 192.867 234.112 192.897 234.061C192.927 234.009 192.97 233.967 193.022 233.938L220.605 218C220.658 217.97 220.717 217.955 220.777 217.955C220.837 217.955 220.896 217.97 220.948 218L243.029 230.748C243.082 230.776 243.126 230.819 243.157 230.871C243.188 230.923 243.204 230.982 243.204 231.042C243.204 231.102 243.188 231.161 243.157 231.213C243.126 231.265 243.082 231.308 243.029 231.337L215.446 247.275C215.394 247.305 215.335 247.32 215.275 247.32ZM193.872 234.229L215.275 246.574L242.202 231.031L220.799 218.671L193.872 234.229Z" fill="#7FE389"/>
</g>
<path d="M215.274 243.778V173.651L198.71 164.086V234.214L215.274 243.778Z" fill="#7FE389"/>
<path opacity="0.1" d="M215.274 243.778V173.651L198.71 164.086V234.214L215.274 243.778Z" fill="white"/>
<path d="M215.274 243.779L237.363 231.024V160.903L215.274 173.651V243.779Z" fill="#7FE389"/>
<path opacity="0.3" d="M215.274 243.779L237.363 231.024V160.903L215.274 173.651V243.779Z" fill="white"/>
<path d="M237.363 160.903L220.798 151.339L198.71 164.087L215.274 173.651L237.363 160.903Z" fill="#7FE389"/>
<path opacity="0.55" d="M237.363 160.903L220.798 151.339L198.71 164.087L215.274 173.651L237.363 160.903Z" fill="white"/>
<path opacity="0.3" d="M215.565 174.053L237.363 160.903L215.051 173.204C212.643 171.839 210.227 170.497 207.812 169.156L198.71 164.086L207.656 169.431C210.101 170.922 212.539 172.369 214.991 173.807C214.917 176.387 214.835 195.203 214.812 197.782C214.79 200.362 214.775 225.365 214.812 227.989C214.85 230.613 214.872 233.253 214.954 235.884C215.036 238.516 215.133 241.147 215.297 243.779C215.468 241.147 215.573 238.516 215.64 235.884C215.707 233.253 215.766 230.621 215.781 227.989C215.796 225.358 215.781 200.406 215.781 197.782C215.722 195.285 215.64 176.551 215.565 174.053Z" fill="white"/>
<g opacity="0.3">
<path opacity="0.3" d="M173.87 271.212C173.81 271.213 173.751 271.197 173.699 271.168L151.61 258.42C151.56 258.388 151.518 258.344 151.489 258.292C151.461 258.24 151.446 258.181 151.446 258.122C151.445 258.063 151.459 258.005 151.488 257.954C151.517 257.903 151.559 257.86 151.61 257.831L179.193 241.892C179.244 241.863 179.302 241.847 179.361 241.847C179.42 241.847 179.478 241.863 179.529 241.892L201.617 254.64C201.669 254.671 201.711 254.714 201.74 254.767C201.769 254.819 201.783 254.879 201.781 254.938C201.782 254.997 201.768 255.055 201.739 255.106C201.71 255.157 201.668 255.2 201.617 255.229L174.034 271.168C173.985 271.197 173.928 271.212 173.87 271.212ZM152.46 258.122L173.87 270.482L200.797 254.938L179.387 242.578L152.46 258.122Z" fill="#7FE389"/>
</g>
<path d="M173.87 267.687L173.863 219.871L157.298 210.307L157.306 258.122L173.87 267.687Z" fill="#7FE389"/>
<path opacity="0.45" d="M173.87 267.687L173.863 219.871L157.298 210.307L157.306 258.122L173.87 267.687Z" fill="black"/>
<path d="M173.87 267.686L195.951 254.931L195.959 207.123L173.863 219.871L173.87 267.686Z" fill="#7FE389"/>
<path opacity="0.3" d="M173.87 267.686L195.951 254.931L195.959 207.123L173.863 219.871L173.87 267.686Z" fill="black"/>
<path d="M195.959 207.123L179.394 197.559L157.298 210.306L173.863 219.871L195.959 207.123Z" fill="#7FE389"/>
<path opacity="0.15" d="M195.959 207.123L179.394 197.559L157.298 210.306L173.863 219.871L195.959 207.123Z" fill="black"/>
<path opacity="0.3" d="M195.959 207.123L173.647 219.416L166.4 215.376L157.298 210.306L166.244 215.652L173.572 220.028C173.401 221.519 173.356 261.477 173.386 262.99C173.402 264.567 173.567 266.14 173.878 267.686C174.183 266.139 174.345 264.567 174.362 262.99C174.362 261.551 174.362 221.697 174.198 220.259L195.959 207.123Z" fill="white"/>
<g opacity="0.3">
<path opacity="0.3" d="M298.091 199.489C298.034 199.488 297.977 199.473 297.927 199.444L275.838 186.697C275.787 186.666 275.744 186.622 275.714 186.57C275.683 186.518 275.667 186.459 275.667 186.398C275.667 186.339 275.683 186.281 275.713 186.23C275.744 186.179 275.787 186.137 275.838 186.108L303.421 170.169C303.474 170.14 303.533 170.124 303.593 170.124C303.653 170.124 303.712 170.14 303.764 170.169L325.846 182.917C325.898 182.946 325.943 182.988 325.973 183.04C326.004 183.092 326.02 183.151 326.02 183.211C326.02 183.272 326.004 183.331 325.973 183.383C325.943 183.434 325.898 183.477 325.846 183.506L298.263 199.444C298.21 199.474 298.151 199.49 298.091 199.489ZM276.688 186.398L298.091 198.759L325.018 183.208L303.615 170.848L276.688 186.398Z" fill="#7FE389"/>
</g>
<path d="M298.091 195.963V52.3157L281.526 42.7511L281.533 186.399L298.091 195.963Z" fill="#7FE389"/>
<path opacity="0.3" d="M298.091 195.963V52.3157L281.526 42.7511L281.533 186.399L298.091 195.963Z" fill="white"/>
<path d="M298.091 195.963L320.179 183.215V39.5677L298.091 52.3156V195.963Z" fill="#7FE389"/>
<path opacity="0.55" d="M298.091 195.963L320.179 183.215V39.5677L298.091 52.3156V195.963Z" fill="white"/>
<path d="M320.179 39.5678L303.615 30.0032L281.526 42.751L298.091 52.3156L320.179 39.5678Z" fill="#7FE389"/>
<path opacity="0.75" d="M320.179 39.5678L303.615 30.0032L281.526 42.751L298.091 52.3156L320.179 39.5678Z" fill="white"/>
<path opacity="0.3" d="M298.381 52.7482L320.179 39.5903L297.867 51.8909C295.467 50.5266 293.044 49.1847 290.628 47.8429L281.526 42.7736L290.472 48.1262C292.917 49.6171 295.355 51.0559 297.815 52.4947C297.733 55.417 297.651 58.3393 297.628 61.2616C297.606 64.1839 297.628 175.164 297.628 178.139C297.628 181.113 297.688 184.103 297.778 187.085C297.867 190.067 297.949 193.049 298.12 196.031C298.284 193.049 298.389 190.067 298.456 187.085C298.523 184.103 298.59 181.121 298.605 178.139C298.62 175.157 298.605 64.2361 298.605 61.2616C298.538 58.4064 298.463 55.5661 298.381 52.7482Z" fill="white"/>
<path d="M260.42 69.4762L241.865 80.1888C241.351 80.5238 240.923 80.9751 240.616 81.5061C240.31 82.0371 240.132 82.6329 240.098 83.2453V98.2967C240.098 99.4224 240.888 99.8771 241.865 99.318L248.701 95.3595L250.535 98.5278C250.615 98.6706 250.735 98.787 250.88 98.8629C251.025 98.9387 251.189 98.9707 251.351 98.9549C251.514 98.9391 251.669 98.8762 251.797 98.7738C251.925 98.6715 252.02 98.5342 252.071 98.3787L254.225 92.1762L260.42 88.6054C260.935 88.2712 261.364 87.8203 261.673 87.2892C261.981 86.7582 262.16 86.1619 262.194 85.5489V70.4975C262.194 69.3718 261.397 68.9171 260.42 69.4762Z" fill="#FAFAFA"/>
<path d="M241.075 99.9592C240.844 99.9608 240.617 99.8989 240.419 99.7803C240.17 99.624 239.969 99.4023 239.837 99.1393C239.706 98.8764 239.649 98.5823 239.673 98.2893V83.2454C239.707 82.5637 239.902 81.8998 240.243 81.3086C240.584 80.7174 241.061 80.216 241.634 79.846L260.219 69.1483C260.458 68.9832 260.736 68.8845 261.026 68.8623C261.315 68.84 261.605 68.8949 261.867 69.0215C262.114 69.1796 262.314 69.4016 262.445 69.6641C262.576 69.9267 262.634 70.2198 262.612 70.5125V85.549C262.579 86.2316 262.383 86.8964 262.041 87.4878C261.699 88.0793 261.22 88.5801 260.644 88.9484L254.583 92.4447L252.481 98.513C252.402 98.7397 252.259 98.9389 252.07 99.0869C251.881 99.235 251.654 99.3255 251.415 99.3479C251.177 99.3675 250.938 99.3199 250.726 99.2105C250.514 99.1011 250.337 98.9343 250.215 98.7291L248.589 95.9038L242.096 99.6312C241.791 99.8296 241.439 99.9428 241.075 99.9592ZM261.203 69.6328C260.994 69.6457 260.792 69.7097 260.614 69.8192L242.066 80.5318C241.613 80.8325 241.235 81.2339 240.962 81.7045C240.69 82.1752 240.529 82.7025 240.493 83.2454V98.2968C240.476 98.446 240.496 98.5972 240.552 98.7366C240.608 98.876 240.698 98.9991 240.814 99.0944C240.954 99.1488 241.106 99.1663 241.254 99.1455C241.403 99.1246 241.544 99.066 241.664 98.9752L248.85 94.8228L250.878 98.334C250.921 98.4091 250.984 98.4702 251.061 98.5098C251.138 98.5495 251.224 98.5661 251.31 98.5577C251.398 98.5495 251.481 98.5163 251.549 98.462C251.618 98.4078 251.67 98.3349 251.698 98.252L253.897 91.9005L260.219 88.2625C260.671 87.9614 261.048 87.5599 261.32 87.0891C261.591 86.6184 261.75 86.0913 261.785 85.549V70.4976C261.804 70.349 261.785 70.1979 261.731 70.0584C261.676 69.919 261.587 69.7956 261.471 69.6999C261.39 69.6535 261.297 69.6303 261.203 69.6328Z" fill="#E0E0E0"/>
<path d="M244.243 93.5035C244.183 93.5037 244.123 93.488 244.071 93.4579C244.019 93.4278 243.975 93.3844 243.945 93.3321C243.922 93.2935 243.908 93.2509 243.902 93.2066C243.896 93.1623 243.899 93.1174 243.911 93.0743C243.923 93.0313 243.943 92.991 243.971 92.9559C243.998 92.9208 244.033 92.8916 244.072 92.8699L257.871 84.9006C257.909 84.8718 257.954 84.8515 258.001 84.841C258.048 84.8305 258.097 84.83 258.144 84.8397C258.191 84.8494 258.236 84.869 258.275 84.8971C258.315 84.9253 258.347 84.9614 258.372 85.0031C258.396 85.0449 258.411 85.0913 258.416 85.1393C258.421 85.1873 258.416 85.2358 258.401 85.2818C258.387 85.3277 258.362 85.3699 258.33 85.4057C258.297 85.4415 258.258 85.4701 258.213 85.4896L244.407 93.4588C244.357 93.4872 244.301 93.5026 244.243 93.5035Z" fill="#E0E0E0"/>
<path d="M244.243 90.3128C244.183 90.313 244.123 90.2973 244.071 90.2672C244.019 90.2371 243.975 90.1937 243.945 90.1414C243.922 90.1028 243.908 90.0601 243.902 90.0159C243.896 89.9716 243.899 89.9267 243.911 89.8836C243.923 89.8406 243.943 89.8003 243.971 89.7652C243.998 89.7301 244.033 89.7008 244.072 89.6791L257.871 81.7099C257.95 81.6661 258.043 81.6548 258.131 81.6785C258.219 81.7021 258.294 81.7588 258.34 81.8366C258.384 81.915 258.395 82.0072 258.371 82.0935C258.347 82.1799 258.291 82.2536 258.213 82.2988L244.407 90.2681C244.357 90.2965 244.301 90.3119 244.243 90.3128Z" fill="#E0E0E0"/>
<path d="M244.243 87.1293C244.183 87.1295 244.123 87.1137 244.071 87.0836C244.019 87.0535 243.975 87.0101 243.945 86.9578C243.922 86.9192 243.908 86.8766 243.902 86.8323C243.896 86.7881 243.899 86.7431 243.911 86.7001C243.923 86.657 243.943 86.6168 243.971 86.5817C243.998 86.5465 244.033 86.5173 244.072 86.4956L257.871 78.5264C257.909 78.4975 257.954 78.4772 258.001 78.4667C258.048 78.4562 258.097 78.4558 258.144 78.4655C258.191 78.4751 258.236 78.4947 258.275 78.5229C258.315 78.551 258.347 78.5871 258.372 78.6289C258.396 78.6706 258.411 78.717 258.416 78.765C258.421 78.813 258.416 78.8616 258.401 78.9075C258.387 78.9534 258.362 78.9957 258.33 79.0315C258.297 79.0673 258.258 79.0958 258.213 79.1153L244.407 87.0845C244.357 87.113 244.301 87.1284 244.243 87.1293Z" fill="#E0E0E0"/>
<path d="M244.243 83.9387C244.184 83.9389 244.125 83.924 244.073 83.8953C244.021 83.8666 243.977 83.8251 243.945 83.7747C243.922 83.7355 243.908 83.6923 243.902 83.6475C243.896 83.6027 243.899 83.5571 243.911 83.5135C243.923 83.4698 243.943 83.4289 243.97 83.3931C243.998 83.3574 244.033 83.3274 244.072 83.305L257.871 75.3358C257.95 75.292 258.044 75.2807 258.131 75.3043C258.219 75.328 258.294 75.3847 258.34 75.4625C258.384 75.5408 258.395 75.633 258.371 75.7194C258.348 75.8058 258.291 75.8794 258.214 75.9247L244.407 83.8939C244.357 83.9224 244.301 83.9377 244.243 83.9387Z" fill="#7FE389"/>
<path d="M219.031 121.973L200.476 132.686C199.962 133.02 199.533 133.471 199.226 134.002C198.919 134.533 198.742 135.13 198.71 135.742V150.786C198.71 151.912 199.5 152.374 200.476 151.808L207.312 147.857L209.146 151.025C209.228 151.165 209.349 151.279 209.493 151.352C209.638 151.426 209.8 151.457 209.962 151.441C210.123 151.426 210.277 151.364 210.405 151.264C210.532 151.164 210.629 151.029 210.682 150.876L212.836 144.666L219.031 141.095C219.546 140.761 219.974 140.31 220.281 139.779C220.588 139.247 220.766 138.651 220.798 138.039V122.987C220.798 121.861 220.008 121.407 219.031 121.973Z" fill="#FAFAFA"/>
<path d="M199.686 152.449C199.456 152.45 199.23 152.39 199.03 152.277C198.783 152.119 198.583 151.897 198.452 151.635C198.32 151.372 198.263 151.079 198.285 150.786V135.743C198.318 135.06 198.513 134.395 198.854 133.803C199.195 133.21 199.672 132.707 200.245 132.336L218.8 121.623C219.034 121.452 219.312 121.353 219.601 121.337C219.889 121.321 220.176 121.39 220.427 121.535C220.677 121.679 220.88 121.894 221.011 122.151C221.142 122.409 221.195 122.7 221.164 122.987V138.039C221.131 138.721 220.936 139.386 220.593 139.978C220.251 140.57 219.772 141.07 219.196 141.438L213.135 144.934L211.032 151.003C210.955 151.23 210.813 151.431 210.624 151.579C210.434 151.727 210.206 151.817 209.966 151.838C209.728 151.863 209.487 151.818 209.274 151.708C209.061 151.598 208.884 151.428 208.766 151.219L207.141 148.393L200.648 152.121C200.362 152.313 200.03 152.426 199.686 152.449ZM219.225 122.316L200.678 133.029C200.223 133.328 199.844 133.729 199.571 134.2C199.298 134.671 199.139 135.199 199.105 135.743V150.786C199.058 150.937 199.063 151.098 199.12 151.245C199.177 151.392 199.282 151.515 199.419 151.594C199.555 151.673 199.714 151.703 199.869 151.68C200.025 151.656 200.168 151.58 200.275 151.465L207.462 147.313L209.489 150.824C209.53 150.901 209.593 150.964 209.67 151.004C209.748 151.044 209.835 151.059 209.922 151.047C210.01 151.042 210.094 151.01 210.163 150.955C210.233 150.901 210.284 150.826 210.309 150.742L212.546 144.398L218.868 140.752C219.32 140.452 219.697 140.05 219.969 139.579C220.241 139.109 220.399 138.581 220.433 138.039V122.987C220.452 122.839 220.433 122.688 220.378 122.549C220.324 122.409 220.235 122.286 220.12 122.19C219.978 122.135 219.825 122.118 219.675 122.14C219.524 122.162 219.382 122.223 219.263 122.316H219.225Z" fill="#E0E0E0"/>
<path d="M202.855 145.993C202.794 145.993 202.735 145.978 202.682 145.947C202.63 145.917 202.587 145.874 202.556 145.822C202.534 145.783 202.519 145.74 202.514 145.696C202.508 145.652 202.511 145.607 202.523 145.564C202.534 145.521 202.555 145.481 202.582 145.445C202.61 145.41 202.644 145.381 202.683 145.359L216.482 137.39C216.521 137.361 216.565 137.341 216.612 137.33C216.659 137.32 216.708 137.32 216.756 137.329C216.803 137.339 216.848 137.358 216.887 137.387C216.926 137.415 216.959 137.451 216.983 137.493C217.007 137.534 217.023 137.581 217.028 137.629C217.033 137.677 217.028 137.725 217.013 137.771C216.998 137.817 216.974 137.859 216.941 137.895C216.909 137.931 216.869 137.96 216.825 137.979L203.019 145.933C202.97 145.967 202.913 145.988 202.855 145.993Z" fill="#7FE389"/>
<path d="M202.855 142.81C202.794 142.81 202.735 142.794 202.682 142.764C202.63 142.734 202.587 142.69 202.556 142.638C202.534 142.6 202.519 142.557 202.514 142.513C202.508 142.468 202.511 142.423 202.523 142.38C202.534 142.337 202.555 142.297 202.582 142.262C202.61 142.227 202.644 142.198 202.683 142.176L216.482 134.207C216.521 134.178 216.565 134.157 216.612 134.147C216.659 134.136 216.708 134.136 216.756 134.146C216.803 134.155 216.848 134.175 216.887 134.203C216.926 134.231 216.959 134.267 216.983 134.309C217.007 134.351 217.023 134.397 217.028 134.445C217.033 134.493 217.028 134.542 217.013 134.588C216.998 134.634 216.974 134.676 216.941 134.712C216.909 134.748 216.869 134.776 216.825 134.796L203.019 142.765C202.969 142.793 202.912 142.809 202.855 142.81Z" fill="#E0E0E0"/>
<path d="M202.855 139.619C202.794 139.619 202.735 139.604 202.682 139.574C202.63 139.543 202.587 139.5 202.556 139.448C202.534 139.409 202.519 139.366 202.514 139.322C202.508 139.278 202.511 139.233 202.523 139.19C202.534 139.147 202.555 139.107 202.582 139.072C202.61 139.036 202.644 139.007 202.683 138.985L216.482 131.024C216.521 131.001 216.564 130.986 216.609 130.98C216.654 130.975 216.7 130.978 216.743 130.989C216.787 131.001 216.828 131.021 216.864 131.049C216.899 131.077 216.929 131.111 216.952 131.15C216.995 131.229 217.006 131.321 216.982 131.407C216.959 131.494 216.902 131.567 216.825 131.613L203.019 139.582C202.968 139.608 202.911 139.621 202.855 139.619Z" fill="#E0E0E0"/>
<path d="M202.855 136.436C202.794 136.436 202.735 136.42 202.682 136.39C202.63 136.36 202.587 136.317 202.556 136.264C202.534 136.226 202.519 136.183 202.514 136.139C202.508 136.095 202.511 136.05 202.523 136.007C202.534 135.964 202.555 135.923 202.582 135.888C202.61 135.853 202.644 135.824 202.683 135.802L216.482 127.833C216.521 127.804 216.565 127.784 216.612 127.773C216.659 127.763 216.708 127.762 216.756 127.772C216.803 127.782 216.848 127.801 216.887 127.829C216.926 127.858 216.959 127.894 216.983 127.935C217.007 127.977 217.023 128.024 217.028 128.072C217.033 128.12 217.028 128.168 217.013 128.214C216.998 128.26 216.974 128.302 216.941 128.338C216.909 128.374 216.869 128.402 216.825 128.422L203.019 136.391C202.969 136.419 202.912 136.435 202.855 136.436Z" fill="#E0E0E0"/>
<path d="M177.633 168.186L159.078 178.899C158.564 179.233 158.135 179.684 157.828 180.215C157.521 180.746 157.344 181.343 157.312 181.955V196.999C157.312 198.125 158.102 198.587 159.078 198.021L165.914 194.069L167.748 197.238C167.832 197.377 167.953 197.49 168.098 197.564C168.243 197.637 168.405 197.668 168.567 197.652C168.729 197.636 168.883 197.575 169.011 197.475C169.139 197.376 169.237 197.242 169.291 197.089L171.438 190.879L177.633 187.308C178.148 186.974 178.576 186.523 178.883 185.992C179.19 185.46 179.368 184.864 179.4 184.251V169.2C179.4 168.074 178.61 167.62 177.633 168.186Z" fill="#FAFAFA"/>
<path d="M158.288 198.662C158.058 198.661 157.833 198.602 157.632 198.49C157.385 198.332 157.185 198.11 157.054 197.847C156.922 197.585 156.865 197.292 156.887 196.999V181.955C156.919 181.272 157.115 180.606 157.458 180.013C157.8 179.421 158.279 178.918 158.855 178.548L177.402 167.836C177.636 167.665 177.914 167.565 178.202 167.55C178.491 167.534 178.778 167.603 179.029 167.747C179.279 167.892 179.482 168.106 179.613 168.364C179.744 168.622 179.797 168.912 179.766 169.2V184.251C179.734 184.933 179.539 185.598 179.198 186.189C178.857 186.78 178.379 187.282 177.805 187.651L171.737 191.147L169.634 197.215C169.554 197.436 169.413 197.63 169.227 197.774C169.041 197.918 168.818 198.006 168.584 198.029C168.35 198.051 168.115 198.007 167.905 197.901C167.695 197.796 167.519 197.633 167.398 197.432L165.765 194.606L159.272 198.334C158.979 198.529 158.64 198.642 158.288 198.662ZM177.835 168.529L159.317 179.242C158.863 179.541 158.486 179.943 158.214 180.414C157.942 180.885 157.784 181.412 157.751 181.955V196.999C157.732 197.149 157.751 197.301 157.805 197.442C157.86 197.582 157.949 197.707 158.065 197.804C158.207 197.855 158.359 197.87 158.509 197.848C158.658 197.826 158.8 197.767 158.922 197.678L166.101 193.525L168.129 197.036C168.173 197.111 168.237 197.171 168.315 197.21C168.392 197.249 168.479 197.265 168.565 197.257C168.651 197.248 168.733 197.215 168.801 197.161C168.869 197.108 168.92 197.036 168.949 196.954L171.148 190.61L177.432 186.935C177.886 186.635 178.264 186.234 178.537 185.763C178.81 185.292 178.97 184.765 179.005 184.222V169.2C179.023 169.051 179.003 168.9 178.947 168.76C178.891 168.621 178.801 168.498 178.685 168.402C178.544 168.348 178.392 168.33 178.243 168.353C178.094 168.375 177.953 168.436 177.835 168.529Z" fill="#E0E0E0"/>
<path d="M161.457 192.206C161.38 192.21 161.304 192.188 161.241 192.143C161.179 192.098 161.134 192.033 161.114 191.959C161.094 191.884 161.1 191.805 161.131 191.735C161.162 191.665 161.217 191.607 161.285 191.572L175.092 183.603C175.17 183.559 175.262 183.547 175.349 183.571C175.392 183.582 175.432 183.603 175.467 183.63C175.502 183.657 175.532 183.691 175.554 183.73C175.576 183.768 175.59 183.811 175.595 183.855C175.601 183.899 175.598 183.944 175.586 183.987C175.574 184.03 175.554 184.07 175.527 184.105C175.5 184.14 175.466 184.17 175.427 184.192L161.628 192.154C161.576 192.185 161.517 192.203 161.457 192.206Z" fill="#E0E0E0"/>
<path d="M161.457 189.023C161.396 189.023 161.337 189.007 161.284 188.977C161.232 188.947 161.189 188.904 161.158 188.851C161.115 188.773 161.104 188.681 161.128 188.594C161.151 188.508 161.208 188.434 161.285 188.389L175.092 180.42C175.13 180.397 175.172 180.382 175.216 180.376C175.26 180.369 175.305 180.372 175.348 180.383C175.391 180.394 175.431 180.414 175.466 180.44C175.502 180.467 175.531 180.501 175.554 180.539C175.598 180.619 175.609 180.712 175.585 180.8C175.562 180.887 175.505 180.962 175.427 181.009L161.628 188.978C161.575 189.007 161.517 189.022 161.457 189.023Z" fill="#E0E0E0"/>
<path d="M161.457 185.832C161.38 185.836 161.304 185.814 161.241 185.769C161.179 185.724 161.134 185.659 161.114 185.584C161.094 185.51 161.1 185.431 161.131 185.361C161.162 185.291 161.217 185.233 161.285 185.198L175.092 177.244C175.13 177.222 175.173 177.208 175.217 177.202C175.261 177.196 175.306 177.2 175.349 177.211C175.392 177.223 175.432 177.243 175.467 177.271C175.502 177.298 175.532 177.332 175.554 177.371C175.576 177.409 175.59 177.452 175.595 177.496C175.601 177.54 175.598 177.585 175.586 177.628C175.574 177.671 175.554 177.711 175.527 177.746C175.5 177.781 175.466 177.811 175.427 177.833L161.628 185.787C161.575 185.816 161.517 185.831 161.457 185.832Z" fill="#7FE389"/>
<path d="M161.457 182.649C161.396 182.649 161.337 182.633 161.284 182.603C161.232 182.573 161.189 182.53 161.158 182.477C161.115 182.399 161.104 182.307 161.128 182.22C161.151 182.134 161.208 182.06 161.285 182.015L175.092 174.046C175.169 174.002 175.261 173.99 175.347 174.012C175.433 174.034 175.507 174.089 175.554 174.165C175.598 174.245 175.609 174.338 175.585 174.426C175.562 174.513 175.505 174.588 175.427 174.635L161.628 182.604C161.575 182.633 161.517 182.648 161.457 182.649Z" fill="#E0E0E0"/>
<path d="M301.847 0.638603L283.292 11.3512C282.777 11.6854 282.349 12.1364 282.042 12.6676C281.735 13.1988 281.557 13.7951 281.525 14.4077V29.4591C281.525 30.5848 282.315 31.0395 283.292 30.473L290.128 26.5219L291.962 29.6902C292.043 29.8324 292.163 29.9482 292.309 30.0235C292.454 30.0989 292.618 30.1306 292.781 30.1148C292.944 30.099 293.099 30.0365 293.228 29.9347C293.356 29.833 293.452 29.6963 293.505 29.5411L295.652 23.3312L301.847 19.7603C302.361 19.4262 302.79 18.9752 303.097 18.444C303.404 17.9128 303.581 17.3165 303.614 16.7038V1.65992C303.614 0.564056 302.823 0.0720334 301.847 0.638603Z" fill="#FAFAFA"/>
<path d="M282.501 31.1289C282.272 31.1285 282.046 31.0695 281.845 30.9574C281.597 30.8 281.397 30.578 281.266 30.3153C281.134 30.0527 281.077 29.7592 281.1 29.4664V14.4076C281.131 13.7236 281.326 13.057 281.668 12.4641C282.011 11.8712 282.491 11.3693 283.068 11.0007L301.616 0.288111C301.849 0.11723 302.127 0.0178923 302.416 0.0021977C302.704 -0.0134969 302.992 0.0551292 303.242 0.199717C303.492 0.344305 303.695 0.558613 303.826 0.816532C303.957 1.07445 304.01 1.36485 303.979 1.65235V16.7037C303.946 17.3864 303.75 18.0514 303.41 18.6437C303.069 19.2361 302.592 19.7389 302.018 20.1106L295.95 23.5995L293.877 29.6379C293.801 29.865 293.661 30.065 293.473 30.2133C293.285 30.3616 293.057 30.4518 292.819 30.4728C292.58 30.5 292.339 30.4557 292.125 30.3455C291.911 30.2354 291.735 30.0644 291.619 29.8541L289.986 27.0362L283.493 30.7636C283.202 30.9734 282.859 31.0998 282.501 31.1289ZM302.048 0.996323L283.493 11.694C283.04 11.9947 282.663 12.3962 282.391 12.867C282.12 13.3378 281.961 13.8651 281.927 14.4076V29.459C281.883 29.6086 281.891 29.7688 281.949 29.9136C282.007 30.0584 282.112 30.1794 282.247 30.257C282.383 30.3345 282.54 30.3642 282.695 30.3412C282.849 30.3181 282.991 30.2437 283.098 30.1299L290.277 25.9776L292.304 29.4888C292.345 29.5659 292.408 29.6287 292.485 29.6687C292.563 29.7087 292.651 29.724 292.737 29.7124C292.824 29.7077 292.908 29.6766 292.977 29.6234C293.046 29.5702 293.098 29.4973 293.124 29.4142L295.324 23.0627L301.645 19.4173C302.095 19.1146 302.469 18.7123 302.738 18.2417C303.007 17.7711 303.163 17.2448 303.196 16.7037V1.65981C303.243 1.50959 303.238 1.3478 303.181 1.20106C303.124 1.05432 303.018 0.93136 302.882 0.85241C302.746 0.773459 302.587 0.74322 302.431 0.766666C302.276 0.790112 302.132 0.865848 302.026 0.981413L302.048 0.996323Z" fill="#E0E0E0"/>
<path d="M291.455 21.4378C291.455 20.9868 291.558 20.5418 291.756 20.1363C291.953 19.7308 292.24 19.3755 292.595 19.097C293.199 18.754 293.684 19.261 293.684 20.1481C293.696 20.6024 293.604 21.0535 293.416 21.4669C293.227 21.8804 292.946 22.2452 292.595 22.5337C291.954 22.9288 291.455 22.392 291.455 21.4378ZM291.589 9.91258L293.609 8.76453L293.206 17.3973L291.991 18.098L291.589 9.91258Z" fill="#7FE389"/>
</svg>
