<svg fill="none" xmlns="http://www.w3.org/2000/svg" viewBox="0 0 325 324"><path d="M162.3 324c89.63 0 162.3-41.95 162.3-93.7 0-51.76-72.67-93.72-162.3-93.72C72.66 136.59 0 178.55 0 230.3 0 282.05 72.66 324 162.3 324Z" fill="#F0F4F9"/><path d="m226.17 199.5 54.67 31.56a4.51 4.51 0 0 0 4.54 0l30.4-17.57a1.35 1.35 0 0 0 0-2.34l-54.64-31.48a4.53 4.53 0 0 0-4.52 0l-30.44 17.49a1.36 1.36 0 0 0 0 2.35ZM183.16 187.77l-131.5 76.1a7.08 7.08 0 0 1-7.05.03l-34.16-19.33a2.33 2.33 0 0 1 0-4.03l131.25-75.8a7.13 7.13 0 0 1 7.02-.04l34.4 19.28a2.18 2.18 0 0 1 .04 3.79ZM204.2 264.14c19.93 0 36.09-9.32 36.09-20.83 0-11.5-16.16-20.84-36.09-20.84-19.92 0-36.08 9.33-36.08 20.84 0 11.5 16.16 20.83 36.08 20.83ZM282.25 255.3c6.95 0 12.58-3.26 12.58-7.28 0-4-5.63-7.26-12.58-7.26s-12.58 3.25-12.58 7.27c0 4 5.63 7.26 12.58 7.26Z" fill="#E0E0E0"/><path d="m282.66 133.52.01 95.9 31.06-17.94v-95.82l-31.07 17.86Z" fill="#E6E6E6"/><path d="m229.9 198.96 52.77 30.47V133.6l-52.75-30.38-.02 95.73Z" fill="#EBEBEB"/><path d="m229.9 103.14 52.77 30.47 31.06-17.95-52.75-30.38-31.08 17.86Z" fill="#F5F5F5"/><path d="m236.09 138.21 40.1 23.16a1.15 1.15 0 0 0 1.56-.42c.1-.18.16-.38.16-.58v-20.34a2.85 2.85 0 0 0-1.45-2.46l-40.03-23.07a1.16 1.16 0 0 0-1.73 1v20.25a2.83 2.83 0 0 0 1.39 2.46Z" fill="#FAFAFA"/><path d="M259.82 133.12a.8.8 0 0 1-.39-.11l-7.08-4.07a.8.8 0 0 1 .8-1.38l7.07 4.08a.8.8 0 0 1-.4 1.45v.03Z" fill="#E0E0E0"/><path d="m236.09 166.62 40.1 23.14a1.15 1.15 0 0 0 1.56-.42c.1-.17.16-.37.16-.57v-20.35a2.85 2.85 0 0 0-1.45-2.47l-40.03-23.01a1.17 1.17 0 0 0-1.15 0 1.16 1.16 0 0 0-.58 1v20.24a2.84 2.84 0 0 0 1.39 2.44Z" fill="#FAFAFA"/><path d="M259.82 161.51a.85.85 0 0 1-.39-.1l-7.08-4.08a.8.8 0 0 1 .8-1.38l7.07 4.08a.8.8 0 0 1-.4 1.45v.03Z" fill="#E0E0E0"/><path d="m236.09 195 40.1 23.16a1.16 1.16 0 0 0 1.72-1v-20.35a2.84 2.84 0 0 0-1.45-2.46l-40.03-23.07a1.15 1.15 0 0 0-1.15 0 1.15 1.15 0 0 0-.58 1v20.25a2.83 2.83 0 0 0 1.39 2.48Z" fill="#FAFAFA"/><path d="M259.82 189.9a.76.76 0 0 1-.39-.1l-7.08-4.07a.8.8 0 0 1-.39-.8.8.8 0 0 1 .3-.52.77.77 0 0 1 .6-.15c.1.01.2.05.28.1l7.08 4.07a.8.8 0 0 1 .37.48.78.78 0 0 1-.08.6.77.77 0 0 1-.69.4Z" fill="#E0E0E0"/><path d="M262.89 36.94v25.63l22.2 12.82V49.75l-22.2-12.81Z" fill="#FAFAFA"/><path d="m265.3 38.32 19.82 11.43v22.86l-19.8-11.43V38.32h-.03Zm-1.18-2.08-1.2.73V62.6l22.2 12.79 1.2-.73v-25.6l-22.23-12.82h.03Z" fill="#E0E0E0"/><path d="m264.09 39.01 19.8 11.43V73.3l-19.8-11.43V39Zm-1.2-2.08v25.64l22.23 12.82V49.75l-22.23-12.81Z" fill="#EBEBEB"/><path d="m266.14 56.7 16.8 9.7-4.96-12.9-3.43 4.07-3.52-5-4.88 4.14ZM271.97 48.66a3.4 3.4 0 0 0 1.54 2.65c.84.48 1.53.09 1.53-.89a3.4 3.4 0 0 0-1.53-2.65c-.85-.49-1.54-.1-1.54.89Z" fill="#E0E0E0"/><path d="M291.74 67.97v20.42l17.68 10.2V78.19l-17.68-10.22Z" fill="#FAFAFA"/><path d="m293.65 69.08 15.77 9.1v18.24l-15.77-9.1V69.08Zm-.96-1.6-.95.56v20.42l17.68 10.14.96-.55V77.63L292.7 67.46v.03Z" fill="#E0E0E0"/><path d="m292.7 69.63 15.76 9.1v18.21l-15.77-9.1V69.62Zm-.96-1.66v20.42l17.68 10.21V78.18l-17.68-10.17v-.05Z" fill="#EBEBEB"/><path d="m294.33 83.71 13.38 7.73-3.95-10.28-2.74 3.25-2.8-3.99-3.89 3.3ZM298.97 77.3a2.71 2.71 0 0 0 1.22 2.12c.68.38 1.22.07 1.22-.73a2.69 2.69 0 0 0-1.22-2.11c-.67-.37-1.22-.05-1.22.72Z" fill="#E0E0E0"/><path d="M282.99 229.5s-7.73-7.54-3.33-20.19c2.46-7.09 10.63-12.29 15.26-12.78a21.73 21.73 0 0 0-3.63 6.13l-5.86 3.9 5.39-1.69-1.15 4.6s-5 3.04-5.75 3.7l5.4-1.41s-.4 13.05-6.33 17.75Z" fill="#7FE389"/><path opacity=".4" d="M282.99 229.5s-7.73-7.54-3.33-20.19c2.46-7.09 10.63-12.29 15.26-12.78a21.73 21.73 0 0 0-3.63 6.13l-5.86 3.9 5.39-1.69-1.15 4.6s-5 3.04-5.75 3.7l5.4-1.41s-.4 13.05-6.33 17.75Z" fill="#000"/><path d="M282.99 229.5s-4-15.8 1.92-25c0 0-6.94 8.13-1.92 25Z" fill="#fff"/><path d="m291.83 231.64-9.44-.11h-.1l-9.45.11s-.1 11.63 3.49 16.4c1 1.26 3.31 2.18 6.02 2.18 2.71 0 5.04-.9 6.03-2.18 3.56-4.75 3.45-16.4 3.45-16.4Z" fill="#37474F"/><path d="M291.83 231.64c0 2.82-4.25 5.1-9.5 5.1-5.26 0-9.5-2.3-9.5-5.1s4.25-5.08 9.5-5.08 9.5 2.26 9.5 5.08Z" fill="#455A64"/><path d="M282.33 230.3c3.27 0 6.04 1.04 7.02 2.5.24-.34.37-.74.38-1.16 0-2-3.32-3.63-7.4-3.63s-7.4 1.64-7.4 3.63a2 2 0 0 0 .39 1.15c.97-1.45 3.74-2.5 7-2.5Z" fill="#263238"/><path d="M282.33 230.3c-3.27 0-6.04 1.04-7.01 2.5.97 1.45 3.74 2.5 7 2.5 3.28 0 6.05-1.05 7.03-2.5-.98-1.46-3.75-2.5-7.02-2.5Z" fill="#E0E0E0"/><path d="M282.44 233.43s-3.63-.14-6.8-5.01c-1.3-2-1.92-3.06-1.92-3.06l5.08-.39-5.72-1.45-2.7-4.14 4.75-.35c-1.96-.69-4-1.1-6.06-1.26 0 0-4.37-7.73-5.67-8.84a24.84 24.84 0 0 1 17.36 8.63c7.17 8.51 2.75 16.08 1.69 15.87Z" fill="#7FE389"/><path d="M282.44 233.43s2.3-13.81-12.35-22.11c.02 0 15.2 7.3 12.36 22.1Z" fill="#fff"/><path d="M282.44 233.43s3.33.21 6.62-3.88c1.36-1.7 2.02-2.59 2.02-2.59l-4.57-.82 5.3-.72 2.82-3.48-4.25-.77c1.83-.43 3.71-.62 5.59-.56 0 0 4.68-6.54 5.94-7.44a22.53 22.53 0 0 0-16.42 6.08c-7.3 7.02-4 14.27-3.05 14.18Z" fill="#7FE389"/><path opacity=".2" d="M282.44 233.43s3.33.21 6.62-3.88c1.36-1.7 2.02-2.59 2.02-2.59l-4.57-.82 5.3-.72 2.82-3.48-4.25-.77c1.83-.43 3.71-.62 5.59-.56 0 0 4.68-6.54 5.94-7.44a22.53 22.53 0 0 0-16.42 6.08c-7.3 7.02-4 14.27-3.05 14.18Z" fill="#000"/><path d="M282.44 233.43s-.76-12.67 13.22-18.8c0 0-14.39 5.16-13.22 18.8Z" fill="#fff"/><path d="m138.16 57.07-3.3-1.34-.34-.14h-.03a4.31 4.31 0 0 0-3.64.33l-113.47 65.5a15.65 15.65 0 0 0-7.85 13.57v98.8a5.98 5.98 0 0 0 8.98 5.17l113.58-65.58a10.66 10.66 0 0 0 5.33-9.24V59.72c0-.74-.19-1.48-.55-2.13l1.3-.52Z" fill="#7FE389"/><path opacity=".3" d="m138.16 57.07-3.3-1.34-.34-.14h-.03a4.31 4.31 0 0 0-3.64.33l-113.47 65.5a15.65 15.65 0 0 0-7.85 13.57v98.8a5.98 5.98 0 0 0 8.98 5.17l113.58-65.58a10.66 10.66 0 0 0 5.33-9.24V59.72c0-.74-.19-1.48-.55-2.13l1.3-.52Z" fill="#000"/><path d="M140.43 60.92v104.45a10.64 10.64 0 0 1-5.33 9.23L21.5 240.18a6 6 0 0 1-8.97-5.18v-98.84c0-2.7.7-5.37 2.04-7.72a11.3 11.3 0 0 1 4.24-4.18l117.31-67.74a4.42 4.42 0 0 1 4.29 4.36l.01.04Z" fill="#7FE389"/><path opacity=".1" d="M140.43 60.92v104.45a10.64 10.64 0 0 1-5.33 9.23L21.5 240.18a6 6 0 0 1-8.97-5.18v-98.84c0-2.7.7-5.37 2.04-7.72a11.3 11.3 0 0 1 4.24-4.18l117.31-67.74a4.42 4.42 0 0 1 4.29 4.36l.01.04Z" fill="#000"/><path d="M135.1 174.6 21.5 240.18a5.93 5.93 0 0 1-5.81.1L83.52 138.2l56.91 27.16a10.65 10.65 0 0 1-5.33 9.23Z" fill="#7FE389"/><path opacity=".2" d="M135.1 174.6 21.5 240.18a5.93 5.93 0 0 1-5.81.1L83.52 138.2l56.91 27.16a10.65 10.65 0 0 1-5.33 9.23Z" fill="#000"/><path d="M138.52 57.3 92.2 154.18a15.34 15.34 0 0 1-21.47 6.66l-56.15-32.38a10.9 10.9 0 0 1 4.05-4.1l117.5-67.84c.86.02 1.69.29 2.39.78ZM26.24 97.36 59.5 78.14V54.32L35.33 67.65a17.56 17.56 0 0 0-9.1 15.39v14.31Z" fill="#7FE389"/><path opacity=".5" d="M26.24 97.36 59.5 78.14V54.32L35.33 67.65a17.56 17.56 0 0 0-9.1 15.39v14.31Z" fill="#fff"/><path d="m163.75 5.12-3.04-1.72a25.32 25.32 0 0 0-25.44.05L40.12 58.9a27.94 27.94 0 0 0-13.88 24.15 14.26 14.26 0 0 1 21.46-12.3l3.99 2.33A27.54 27.54 0 0 1 65.3 96.82v141.39l-6.49 16.47 12.2-7.42 97.97-56.84a22.94 22.94 0 0 0 11.43-19.87V34.04a33.42 33.42 0 0 0-16.67-28.92Z" fill="#7FE389"/><path opacity=".7" d="m163.75 5.12-3.04-1.72a25.32 25.32 0 0 0-25.44.05L40.12 58.9a27.94 27.94 0 0 0-13.88 24.15 14.26 14.26 0 0 1 21.46-12.3l3.99 2.33A27.54 27.54 0 0 1 65.3 96.82v141.39l-6.49 16.47 12.2-7.42 97.97-56.84a22.94 22.94 0 0 0 11.43-19.87V34.04a33.42 33.42 0 0 0-16.67-28.92Z" fill="#fff"/><path d="M30.18 241.83s6.83 9.98 17.8 13.29c11.79 3.55 17.33-4.27 17.33-14.64v-18.76l-35.13 20.11Z" fill="#7FE389"/><path opacity=".5" d="M30.18 241.83s6.83 9.98 17.8 13.29c11.79 3.55 17.33-4.27 17.33-14.64v-18.76l-35.13 20.11Z" fill="#fff"/><path d="M86.51 141.48a1.09 1.09 0 0 1-.53-2.01l72.67-41.98a1.08 1.08 0 1 1 1.08 1.87l-72.68 41.98c-.16.1-.35.14-.54.14ZM86.51 157.58a1.07 1.07 0 0 1-.53-2l72.67-41.99a1.08 1.08 0 1 1 1.08 1.87l-72.68 42.01a1.1 1.1 0 0 1-.54.11ZM86.51 173.67a1.07 1.07 0 0 1-.53-2l72.67-41.98a1.07 1.07 0 0 1 1.43.41 1.08 1.08 0 0 1-.35 1.45l-72.68 41.98c-.16.09-.35.14-.54.14ZM86.51 189.76a1.08 1.08 0 0 1-.99-1.48c.1-.22.25-.4.46-.52l72.67-41.98a1.08 1.08 0 0 1 1.08 1.86l-72.68 41.98c-.16.1-.35.14-.54.14ZM86.51 205.85a1.08 1.08 0 0 1-.99-1.48c.1-.22.25-.4.46-.52l72.67-41.98a1.07 1.07 0 0 1 1.43.41 1.08 1.08 0 0 1-.35 1.45L87.05 205.7c-.16.1-.35.14-.54.14ZM134.24 194.38a1.05 1.05 0 0 1-.93-.53 1.08 1.08 0 0 1 .4-1.46l24.95-14.43a1.07 1.07 0 0 1 1.43.41 1.08 1.08 0 0 1-.35 1.45l-24.96 14.43c-.17.09-.35.13-.54.13Z" fill="#fff"/><path d="M137.12 80.9 116.18 93V82.66c0-7.17 4.36-15.5 9.74-18.61l1.46-.84c5.38-3.11 9.74.19 9.74 7.36V80.9Z" fill="#7FE389"/><path d="m142 84.32-30.7 17.73 4.88-11.3 20.94-12.09 4.88 5.66ZM126.69 67.04c-.91.53-1.64.1-1.64-.94v-4.02a3.62 3.62 0 0 1 1.64-2.84c.9-.53 1.63-.1 1.63.94v4.03a3.63 3.63 0 0 1-1.63 2.83ZM123.16 96.72c.09 2.08 1.62 2.9 3.5 1.82a7.76 7.76 0 0 0 3.47-5.81l-6.97 3.99ZM229.9 65.29a15.28 15.28 0 1 0 0-30.57 15.28 15.28 0 0 0 0 30.57Z" fill="#7FE389"/><path d="M227.18 61.89s1.36 4.85-4.17 9.36c0 0 8.52-.86 8.98-8.95l-4.81-.41Z" fill="#7FE389"/><path d="M231.4 51.42h-3.28l-.82-7.89h4.93l-.82 7.89Zm-1.64 5.08a2.25 2.25 0 0 1-2.4-2.18 2.42 2.42 0 0 1 4.8 0 2.25 2.25 0 0 1-2.4 2.17v.01Z" fill="#fff"/><path d="M199.73 109.08a9.6 9.6 0 0 0-8.29 3.64c-3.23 4.26-10.08 14.33-10.08 14.33s-2.86-3.18-4.74-5.4c-1.87-2.24-3.63-4.13-3.63-4.13-.25-1.2-.43-2.41-.55-3.63-.16-1.73-.4-2.9-1.66-4.1-1.27-1.18-2.23-2.29-2.33-3.19-.1-.9-.73-1.8-1.53-.88s-.73 3.76.95 5.65c0 0-3-1.4-4.37-3.02-1.37-1.63-3.14-4.46-3.93-3.68-.78.79-2.29 9.24 0 11.12 2.3 1.88 7.95 5.09 7.95 5.09s7.4 18.11 12.6 18.11c5.2 0 13.81-13.39 13.81-13.39l5.8-16.52ZM190.49 203.64l1.6 24.57s1.46 2.6 4.26 2.6l2.54-2.78a52.3 52.3 0 0 1 .82-9.8c.95-4.97 2.78-12.22 3.3-16.42l-12.52 1.83Z" fill="#FFA8A7"/><path d="M191.94 148.13s-1.28 8.26-1.92 16.3c-.5 6.4-.83 15.3-.94 18.63-.03.87-.01 1.75.06 2.62l1.35 17.95s7.94 3.5 12.54-1.82c0 0 .56-5.14-.24-8.72-.47-2.26-.4-4.6.17-6.82l4.98-20v-18.32l-16 .18Z" fill="#37474F"/><path d="M195.8 154.98a8.25 8.25 0 0 0 5.94 6.14l2.97 18.1 4.36-15.86v-8.38H195.8Z" fill="#263238"/><path d="m211.24 207.3 5.03 27.7h5.42s2.06-23.34 1.95-29.7l-12.4 2Z" fill="#FFA8A7"/><path d="M194.47 147.94s-1.06 10.7 8.5 11.63l4.97 31.84 3.3 15.88s7.75 5.05 12.4-2c0 0 .48-8-1.45-13.5-.5-1.44-.71-2.96-.61-4.47.54-7.8 2.02-30.7 1.3-35.78l-4.79-6.26-23.62 2.66Z" fill="#37474F"/><path d="M211.88 110.23h4.86l3.25 16.22-2.14 6.94c-.45 1.44-.35 3 .3 4.36 1.44 3.17 4.14 9.36 4.73 13.8a7.52 7.52 0 0 1-6.91-3.48s-4.08 5.38-14 5.38c-4.81 0-8.72-3.54-10.03-5.32l1.78-8.03c.14-.66.2-1.33.16-2-.1-1.66-.28-5.08-.24-7.69 0 0-4.6-1.83-3.42-7.5 1.18-5.66 9.5-13.8 9.5-13.8l3.57.14 8.6.98Z" fill="#7FE389"/><path d="M200.18 78.98s-5.89-2.04-7.33 3.99c-1.44 6.02 3 11.87-3.63 13.88 0 0 3.9 3.25 7.35-2.83l2.9 12.35s0 .68-1.02 1.2c0 0 16.71 3.72 19.93-4.63a3.55 3.55 0 0 1 .73 3.64s4.93-2 3.54-8.39c0 0 3.9-.1 4.84-3.28 0 0-6.25.3-6.2-6.6.03-7.95-4.15-6.8-4.15-6.8s-5.13-7.61-16.96-2.53Z" fill="#455A64"/><path d="M203.3 103.91v5.31s-5.5 6.12-.14 6.6c5.36.5 8.72-5.59 8.72-5.59V99l-8.59 4.91Z" fill="#FFA8A7"/><path d="M211.79 97.22v.31c-1.91 7.56-6.89 9.2-8.5 9.58l-.05-11.69 8.3-.04.25 1.84Z" fill="#F28F8F"/><path d="M203.84 80.44c-3.18.26-9.78 2.58-9.87 10.94-.1 8.37 1.18 14.75 5.52 15 4.33.27 14.02-3.63 14.47-14.53.45-10.9-7.03-11.7-10.12-11.41Z" fill="#FFA8A7"/><path d="m199.82 94.7.08 4.92-2.9-.84 2.82-4.08Z" fill="#F28F8F"/><path d="M204.14 94.57a1 1 0 0 1-1.19 1.01 1 1 0 0 1 .18-1.99.99.99 0 0 1 1 .98ZM197.54 93.97a1 1 0 0 1-.98 1.02 1 1 0 0 1-1-1.18 1 1 0 0 1 1.98.16Z" fill="#263238"/><path d="M202.52 101.2c-1.09.28-2.16.62-3.2 1.02 0 0-.3-1.7 1.11-2.1a1.86 1.86 0 0 1 2.1 1.09Z" fill="#F28F8F"/><path d="m197.18 90.27-1.94 1.18s.73.77 1.5.3a1.36 1.36 0 0 0 .44-1.48Z" fill="#263238"/><path d="M208.94 94.54s-.07 3.1 1.96 3.1h3.97v-6.7c0-7.54-5.71-15.4-17.86-9.18 0 0-.72 10.47 11.93 12.78Z" fill="#455A64"/><path d="M195.55 97.47c-1.9 0-3.43-1.3-3.43-2.9 0-1.6 1.54-2.91 3.43-2.91 1.89 0 3.43 1.3 3.43 2.9 0 1.6-1.54 2.91-3.43 2.91Zm0-5.25c-1.57 0-2.84 1.04-2.84 2.32 0 1.28 1.27 2.34 2.84 2.34 1.56 0 2.83-1.05 2.83-2.34 0-1.28-1.27-2.32-2.83-2.32ZM203.98 97.5c-2.11 0-3.84-1.33-3.84-2.96s1.73-2.9 3.84-2.9c2.12 0 3.85 1.32 3.85 2.9 0 1.59-1.72 2.95-3.85 2.95Zm0-5.27c-1.76 0-3.2 1.04-3.2 2.31s1.44 2.32 3.2 2.32c1.76 0 3.22-1.04 3.22-2.32 0-1.28-1.44-2.3-3.22-2.3Z" fill="#7FE389"/><path d="M200.46 94.23h-1.78v.63h1.78v-.63ZM212.1 94.23h-4.58v.63h4.59v-.63Z" fill="#7FE389"/><path d="M210.88 97.23c-.02-.77.13-1.53.44-2.23a2.37 2.37 0 0 1 2.06-1.58c2.37-.04 2.66 2.24 2.62 3.05-.1 2.13-1.85 4.41-5.08 4.46l-.04-3.7Z" fill="#FFA8A7"/><path d="M216.74 110.23s-5.54 13.24 3.25 16.22l1.92-4.12s16.08-14.72 20.01-17.95c3.93-3.22-1.11-8-5.99-12.46-4.88-4.47-9.77-8.8-9.77-8.8l-2.44-4.32a3.85 3.85 0 0 0-2.54-1.86c-2.56-.53-7.38-1.45-9.98-1.3-3.63.2 1.85 4.72 2.78 4.72a4.87 4.87 0 0 1 4.07 2.45c1.1 1.97 1.3 5.51 4.83 5.35l8.17 12.2-14.31 9.87Z" fill="#FFA8A7"/><path d="m231.05 100.36 2.83 3.63-4.42-2.53 1.59-1.1ZM181.36 127.06l2.52 2.91-1.46-4.46-1.06 1.55Z" fill="#F28F8F"/><path opacity=".2" d="M203.14 130.68s7.27.59 9.52-6.32c0 0 .09 8.8-9.52 6.32Z" fill="#000"/><path d="M191.4 229.27s-1-3.17.56-3.34c1.56-.17 4.32.66 4.6 1.5.17.54.23 1.11.2 1.69a8.54 8.54 0 0 0 2.14-1.09v-1.17s1.63.16 1.76 1.38c.12 1.22.14 2.71.2 4.1.09 2.8.5 4.68-2.69 5.51-2.27.57-4.33 1.8-5.9 3.55a9.64 9.64 0 0 1-8.63 2.87c-4.8-.67-4.52-4.73-2.83-6.03a31.06 31.06 0 0 1 5.2-3.1l5.4-5.87Z" fill="#7FE389"/><path d="M189.69 238.23a.38.38 0 0 1-.2-.05.39.39 0 0 1-.15-.16 5.59 5.59 0 0 0-3.42-2.48.4.4 0 0 1-.3-.32.4.4 0 0 1 .47-.46 6.33 6.33 0 0 1 3.95 2.9.39.39 0 0 1-.16.54.39.39 0 0 1-.2.05v-.02ZM191.53 236.27a.37.37 0 0 1-.2-.06.37.37 0 0 1-.15-.15 5.59 5.59 0 0 0-3.42-2.48.4.4 0 0 1 .01-.78h.16a6.29 6.29 0 0 1 3.95 2.9c.05.1.06.2.03.3a.4.4 0 0 1-.2.25.45.45 0 0 1-.18.02ZM193.37 234.3a.4.4 0 0 1-.35-.2 5.64 5.64 0 0 0-3.42-2.48.4.4 0 0 1-.3-.47.38.38 0 0 1 .17-.26.4.4 0 0 1 .3-.05 6.34 6.34 0 0 1 3.95 2.9.4.4 0 0 1-.16.54.43.43 0 0 1-.2.03Z" fill="#FAFAFA"/><path d="M216.27 235a2.05 2.05 0 0 1 2.18-2.43c2.54 0 4.36.07 4.13 1.96v1.35s0 6.74.51 8.92c.5 2.18 1.76 9.08-3.43 10.1-5.19 1-7.08-3.42-6.13-7.62.58-2.36.94-4.77 1.06-7.2.11-1.54-.47-7.15 1.21-7.51l.47 2.43Z" fill="#7FE389"/><path d="M221.02 243.34a.36.36 0 0 1-.19-.06 5.6 5.6 0 0 0-4.22-.25.4.4 0 0 1-.5-.24.38.38 0 0 1-.03-.15c0-.05.01-.1.04-.15.02-.05.05-.1.09-.13a.4.4 0 0 1 .13-.08 6.35 6.35 0 0 1 4.88.31.4.4 0 0 1 .15.54.39.39 0 0 1-.35.2ZM221.3 240.32a.5.5 0 0 1-.2-.05 5.56 5.56 0 0 0-4.37-.21.39.39 0 0 1-.3-.12.39.39 0 0 1 .19-.66 6.29 6.29 0 0 1 4.87.31c.05.03.09.06.12.1l.07.14a.4.4 0 0 1-.03.3.4.4 0 0 1-.35.2ZM221.57 237.35a.51.51 0 0 1-.2-.05 5.62 5.62 0 0 0-4.37-.21c-.06 0-.12 0-.17-.03a.4.4 0 0 1-.23-.23.38.38 0 0 1 .03-.33c.02-.05.06-.09.1-.12a6.26 6.26 0 0 1 5.03.25c.05.02.1.05.13.1a.4.4 0 0 1 .03.43.4.4 0 0 1-.35.19Z" fill="#FAFAFA"/><path d="M184.19 236.08c-1.18.64-2.31 1.37-3.38 2.18-1.7 1.3-1.97 5.35 2.83 6.02 2.03.34 4.1.03 5.94-.88a9.63 9.63 0 0 0-5.4-7.32Z" fill="#fff"/><path d="M198.17 237.23c-2.27.58-4.33 1.8-5.9 3.55a9.63 9.63 0 0 1-8.63 2.87c-2.69-.37-3.78-1.8-3.93-3.23-.14 1.6.85 3.42 3.93 3.85a9.62 9.62 0 0 0 8.63-2.87 11.84 11.84 0 0 1 5.9-3.55c2.52-.65 2.8-1.95 2.75-3.85-.05 1.56-.52 2.69-2.75 3.23Z" fill="#37474F"/><path d="M223.56 247.45a7.13 7.13 0 0 0-10.01-.17c-.95 4.2.94 8.62 6.13 7.61 3.77-.76 4.15-4.55 3.88-7.44Z" fill="#F5F5F5"/><path d="M219.71 254.07c-4.17.82-6.2-1.89-6.36-5.16-.17 3.64 1.84 6.86 6.36 5.98 3.35-.65 4.02-3.75 3.94-6.45-.1 2.48-.96 5.04-3.94 5.63Z" fill="#455A64"/></svg>