<svg width="402" height="325" viewBox="0 0 402 325" fill="none" xmlns="http://www.w3.org/2000/svg">
<path d="M200.875 324.575C311.539 324.575 401.25 276.754 401.25 217.764C401.25 158.773 311.539 110.952 200.875 110.952C90.211 110.952 0.5 158.773 0.5 217.764C0.5 276.754 90.211 324.575 200.875 324.575Z" fill="#F0F4F9"/>
<path d="M120.239 277.5L56.3525 240.355L164.412 177.905L120.239 277.5Z" fill="#E0E0E0"/>
<path d="M28.0224 238.074L54.0544 253.083C54.5955 253.358 55.1937 253.501 55.8004 253.501C56.4071 253.501 57.0052 253.358 57.5463 253.083L93.4526 232.132C93.6639 232.062 93.8477 231.927 93.978 231.746C94.1082 231.566 94.1784 231.349 94.1784 231.126C94.1784 230.904 94.1082 230.687 93.978 230.506C93.8477 230.326 93.6639 230.191 93.4526 230.121L67.4205 215.103C66.8794 214.829 66.2813 214.686 65.6746 214.686C65.0679 214.686 64.4697 214.829 63.9286 215.103L28.0224 236.055C27.8122 236.127 27.6299 236.263 27.5008 236.444C27.3717 236.625 27.3024 236.842 27.3024 237.064C27.3024 237.287 27.3717 237.504 27.5008 237.685C27.6299 237.866 27.8122 238.002 28.0224 238.074Z" fill="#E0E0E0"/>
<path d="M30.8423 235.742C29.047 232.852 23.5085 229.674 16.2374 228.103C8.96642 226.532 1.65949 224.611 3.32913 220.365C5.12445 215.814 11.8928 215.59 18.5085 218.301C25.7347 221.263 31.0757 228.588 31.1745 233.202L30.8423 235.742Z" fill="#7FE389"/>
<g opacity="0.1">
<path opacity="0.1" d="M30.8423 235.739C29.047 232.849 23.5085 229.671 16.2374 228.1C8.96642 226.529 1.65949 224.608 3.32913 220.362C5.12445 215.811 11.8928 215.587 18.5085 218.298C25.7347 221.26 31.0757 228.585 31.1745 233.199L30.8423 235.739Z" fill="black"/>
</g>
<path d="M31.4078 234.43C31.3055 234.429 31.2056 234.399 31.1198 234.344C31.0339 234.288 30.9657 234.209 30.9231 234.116C25.1511 222.177 11.7671 220.247 7.584 220.903C7.44128 220.923 7.29618 220.887 7.18022 220.801C7.06425 220.715 6.98678 220.587 6.96462 220.445C6.95311 220.375 6.95561 220.303 6.97198 220.234C6.98835 220.165 7.01826 220.099 7.05999 220.042C7.10171 219.984 7.15443 219.935 7.2151 219.898C7.27576 219.861 7.34318 219.836 7.41345 219.826C11.8479 219.143 25.8962 221.145 31.9374 233.649C31.9996 233.779 32.008 233.929 31.961 234.065C31.9139 234.201 31.8152 234.313 31.6861 234.377C31.5991 234.417 31.5036 234.435 31.4078 234.43Z" fill="white"/>
<path d="M30.8415 235.741C30.8415 235.741 27.3675 221.98 18.5615 214.584C15.9493 212.384 13.1756 209.629 11.2097 207.735C7.02664 203.659 8.77707 199.216 14.567 199.306C23.1845 199.422 29.486 206.675 32.2149 216.164C34.9438 225.652 30.8415 235.741 30.8415 235.741Z" fill="#7FE389"/>
<path d="M32.2151 230.4C32.0788 230.401 31.9471 230.351 31.8458 230.259C31.7445 230.168 31.681 230.042 31.6675 229.906C30.0518 212.402 16.6946 203.605 13.0591 202.671C12.9198 202.636 12.8005 202.546 12.7272 202.422C12.654 202.299 12.6329 202.151 12.6686 202.012C12.7043 201.872 12.7939 201.753 12.9176 201.68C13.0414 201.607 13.1891 201.586 13.3284 201.621C17.7449 202.752 31.093 211.881 32.7537 229.808C32.7662 229.952 32.7213 230.095 32.6288 230.206C32.5364 230.316 32.4038 230.386 32.26 230.4H32.2151Z" fill="white"/>
<path d="M54.933 250.876L30.409 236.711L30.4001 184.109L54.933 198.274V250.876Z" fill="#263238"/>
<path d="M54.9335 198.273L89.978 178.04V230.643L54.9335 250.876V198.273Z" fill="#37474F"/>
<path d="M89.9776 178.04L54.933 198.273L30.4001 184.108L65.4536 163.875L89.9776 178.04Z" fill="#455A64"/>
<path d="M70.0765 197.627L74.8431 194.871C75.4624 194.512 75.9651 194.674 75.9651 195.239C75.9196 195.583 75.7945 195.911 75.5997 196.198C75.4049 196.485 75.1458 196.722 74.8431 196.891L70.0765 199.647C69.4571 200.006 68.9544 199.844 68.9544 199.279C69 198.935 69.1251 198.607 69.3199 198.32C69.5147 198.033 69.7738 197.796 70.0765 197.627Z" fill="#263238"/>
<path d="M57.7968 224.951L85.8306 208.766L86.477 209.134L85.8306 228.245L86.477 228.622L58.4431 244.807L57.7968 244.43V224.951Z" fill="#263238"/>
<path d="M58.4435 225.32L86.4774 209.135V228.623L58.4435 244.808V225.32Z" fill="#455A64"/>
<path d="M69.4304 222.276L74.197 219.529C74.8163 219.17 75.319 219.332 75.319 219.888C75.2742 220.233 75.1494 220.563 74.9546 220.851C74.7598 221.14 74.5003 221.378 74.197 221.549L69.4304 224.305C68.811 224.664 68.3083 224.493 68.3083 223.937C68.3545 223.592 68.4799 223.263 68.6745 222.975C68.8692 222.687 69.1279 222.447 69.4304 222.276Z" fill="#263238"/>
<path d="M57.7968 200.714L85.8307 184.53L86.477 184.898L85.8307 204.009L86.477 204.386L58.4432 220.57L57.7968 220.193V200.714Z" fill="#263238"/>
<path d="M58.4435 201.083L86.4774 184.898V204.387L58.4435 220.571V201.083Z" fill="#455A64"/>
<path d="M69.4303 198.039L74.1969 195.292C74.8163 194.933 75.319 195.095 75.319 195.651C75.2741 195.996 75.1493 196.326 74.9545 196.614C74.7597 196.903 74.5003 197.141 74.1969 197.312L69.4303 200.068C68.8109 200.427 68.3083 200.256 68.3083 199.7C68.3545 199.355 68.4798 199.026 68.6745 198.738C68.8691 198.45 69.1278 198.21 69.4303 198.039Z" fill="#263238"/>
<path d="M54.933 196.04L30.409 181.875L30.4001 129.263L54.933 143.428V196.04Z" fill="#263238"/>
<path d="M54.9335 143.428L89.978 123.195V175.806L54.9335 196.04V143.428Z" fill="#37474F"/>
<path d="M89.9776 123.195L54.933 143.428L30.4001 129.263L65.4536 109.03L89.9776 123.195Z" fill="#455A64"/>
<path d="M58.4435 145.448L86.4774 129.263L87.1237 129.64V149.12L59.0899 165.313L58.4435 164.936V145.448Z" fill="#263238"/>
<path d="M70.0765 142.781L74.843 140.026C75.4624 139.666 75.9651 139.837 75.9651 140.394C75.9189 140.738 75.7936 141.067 75.5989 141.356C75.4042 141.644 75.1455 141.883 74.843 142.054L70.0765 144.801C69.4571 145.16 68.9544 144.999 68.9544 144.442C68.9993 144.097 69.1241 143.767 69.3189 143.479C69.5137 143.191 69.7731 142.952 70.0765 142.781Z" fill="#263238"/>
<path d="M57.7968 170.105L85.8307 153.921V173.409L86.477 173.777L58.4432 189.962L57.7968 189.594V170.105Z" fill="#263238"/>
<path d="M58.4435 170.483L86.4774 154.29V173.778L58.4435 189.962V170.483Z" fill="#455A64"/>
<path d="M69.4304 167.441L74.197 164.685C74.8163 164.326 75.319 164.487 75.319 165.053C75.2735 165.396 75.1484 165.725 74.9536 166.011C74.7588 166.298 74.4997 166.536 74.197 166.704L69.4304 169.46C68.811 169.819 68.3083 169.658 68.3083 169.092C68.3538 168.749 68.479 168.42 68.6738 168.133C68.8686 167.847 69.1277 167.609 69.4304 167.441Z" fill="#263238"/>
<path d="M58.4435 145.448L86.4774 129.263V148.752L58.4435 164.936V145.448Z" fill="#263238"/>
<path d="M100.499 138.887L85.1487 130.036V147.199L100.499 156.059V138.887Z" fill="#263238"/>
<path d="M68.9544 167.711V143.429L74.9687 139.947L75.9651 141.41L93.4874 131.284V153.546L68.9544 167.711Z" fill="#7FE389"/>
<g opacity="0.2">
<path opacity="0.2" d="M68.9528 167.711V143.429L74.9671 139.946L75.9635 141.409L93.4858 131.284V153.546L68.9528 167.711Z" fill="black"/>
</g>
<path d="M68.9544 167.71L70.7048 146.463L95.2378 132.298L93.4874 153.545L68.9544 167.71Z" fill="#7FE389"/>
<path d="M72.4542 155.08L59.0791 147.361V164.524L72.4542 172.244V155.08Z" fill="#37474F"/>
<path d="M72.4563 153.546L100.499 137.361V156.84L72.4563 173.034V153.546Z" fill="#455A64"/>
<path d="M83.4521 150.502L88.2187 147.746C88.8381 147.387 89.3408 147.557 89.3408 148.114C89.2946 148.458 89.1692 148.788 88.9746 149.076C88.7799 149.364 88.5212 149.603 88.2187 149.774L83.4521 152.521C82.8328 152.88 82.3301 152.719 82.3301 152.162C82.3763 151.818 82.5016 151.488 82.6963 151.2C82.891 150.912 83.1497 150.673 83.4521 150.502Z" fill="#263238"/>
<path d="M72.4553 153.545L71.5217 153.007V172.495L72.4553 173.034V153.545Z" fill="#263238"/>
<path d="M71.5217 153.006L99.5645 136.822L100.498 137.36L72.4553 153.545L71.5217 153.006Z" fill="#37474F"/>
<path d="M306.645 13.0333L303.001 10.9148L117.015 118.275V273.776C116.966 274.257 117.044 274.743 117.243 275.185C117.441 275.626 117.753 276.007 118.146 276.289L121.791 278.408C122.233 278.611 122.721 278.693 123.205 278.646C123.689 278.598 124.152 278.423 124.547 278.138L302.732 175.24C303.863 174.502 304.804 173.508 305.479 172.338C306.154 171.168 306.545 169.856 306.618 168.507L306.645 13.0333Z" fill="#E6E6E6"/>
<path d="M120.659 275.895C120.659 278.372 122.391 279.378 124.546 278.139L302.731 175.24C303.862 174.502 304.803 173.508 305.478 172.338C306.154 171.169 306.544 169.856 306.617 168.508V13.0337L120.659 120.402V275.895Z" fill="#FAFAFA"/>
<path d="M305.747 14.5591V168.525C305.673 169.717 305.324 170.875 304.728 171.909C304.131 172.943 303.303 173.825 302.309 174.486L124.124 277.357C123.735 277.603 123.29 277.745 122.831 277.77C121.7 277.77 121.583 276.459 121.583 275.894V120.913L305.747 14.5591ZM306.644 13.0061L120.659 120.402V275.894C120.659 277.689 121.557 278.668 122.804 278.668C123.421 278.644 124.02 278.461 124.546 278.138L302.731 175.24C303.862 174.502 304.803 173.507 305.478 172.338C306.154 171.168 306.544 169.856 306.617 168.507V13.033L306.644 13.0061Z" fill="#E0E0E0"/>
<path d="M120.659 120.402V137.234L306.617 29.8648V13.0337L120.659 120.402Z" fill="#7FE389"/>
<path d="M237.338 59.6308V63.2214C237.338 63.9575 237.867 64.2627 238.504 63.8946L295.676 30.8788V24.5952L238.504 57.6469C238.171 57.866 237.892 58.1589 237.69 58.5029C237.488 58.8469 237.367 59.2328 237.338 59.6308Z" fill="#FAFAFA"/>
<path d="M301.807 21.0676C302.453 20.6905 302.974 20.9957 302.974 21.7408V25.3314C302.952 25.7363 302.836 26.1304 302.633 26.4815C302.43 26.8325 302.147 27.1306 301.807 27.3512L295.676 30.8879V24.6043L301.807 21.0676Z" fill="#455A64"/>
<path d="M301.358 26.0315L300.667 25.8161C300.743 25.5229 300.782 25.2213 300.784 24.9184C300.815 24.6423 300.773 24.363 300.663 24.108C300.552 23.853 300.378 23.6311 300.155 23.4642C300.005 23.375 299.833 23.3279 299.657 23.3279C299.482 23.3279 299.31 23.375 299.159 23.4642C298.724 23.7981 298.374 24.2297 298.137 24.7241C297.9 25.2184 297.783 25.7617 297.795 26.3098C297.762 26.586 297.803 26.866 297.913 27.1213C298.024 27.3767 298.199 27.5984 298.423 27.764C298.553 27.843 298.702 27.8835 298.854 27.8807C299.05 27.8765 299.242 27.8208 299.41 27.7191C299.933 27.3624 300.322 26.8411 300.515 26.238L301.206 26.4534H301.26C301.313 26.4543 301.365 26.4383 301.409 26.4077C301.452 26.377 301.485 26.3333 301.502 26.2829C301.506 26.2315 301.494 26.1801 301.468 26.1354C301.443 26.0906 301.404 26.0545 301.358 26.0315ZM299.159 27.3421C299.091 27.3944 299.009 27.4264 298.923 27.4343C298.837 27.4422 298.751 27.4258 298.674 27.387C298.535 27.2605 298.429 27.102 298.365 26.9253C298.301 26.7486 298.281 26.5589 298.306 26.3726C298.297 25.9144 298.392 25.46 298.583 25.0434C298.774 24.6269 299.057 24.2589 299.41 23.9669C299.505 23.9081 299.613 23.8742 299.725 23.8682C299.788 23.868 299.851 23.8867 299.904 23.922C300.041 24.0499 300.146 24.2085 300.21 24.3849C300.274 24.5612 300.295 24.7502 300.272 24.9364C300.279 25.3953 300.183 25.8499 299.99 26.2664C299.798 26.6829 299.514 27.0506 299.159 27.3421Z" fill="#FAFAFA"/>
<path d="M301.869 0.278033C301.427 0.0613846 300.933 -0.0297352 300.443 0.0145818C299.952 0.0588987 299.483 0.23696 299.086 0.529383L120.901 103.428C119.769 104.164 118.827 105.158 118.151 106.328C117.476 107.498 117.086 108.811 117.015 110.16V118.302L120.659 120.429L306.645 13.0337V4.892C306.699 4.41229 306.624 3.92671 306.427 3.48611C306.229 3.0455 305.917 2.66607 305.523 2.38753C304.849 1.99256 302.506 0.664025 301.869 0.278033Z" fill="#263238"/>
<path d="M120.659 112.26C120.729 110.911 121.118 109.597 121.793 108.427C122.469 107.257 123.412 106.263 124.546 105.528L302.731 2.6473C304.876 1.40854 306.617 2.41391 306.617 4.89144V13.0332L120.659 120.402V112.26Z" fill="#37474F"/>
<path d="M305.532 2.40542C305.088 2.18396 304.592 2.0894 304.097 2.13216C303.603 2.17493 303.13 2.35337 302.731 2.64779L124.546 105.519C123.398 106.235 122.452 107.234 121.799 108.419L118.137 106.309C118.793 105.121 119.742 104.12 120.893 103.401L299.087 0.520343C299.484 0.229352 299.953 0.0528904 300.444 0.0101578C300.935 -0.0325749 301.428 0.0600539 301.869 0.277971C302.507 0.663964 304.841 2.00148 305.46 2.37849L305.532 2.40542Z" fill="#455A64"/>
<path d="M284.744 17.2529C284.218 17.6022 283.782 18.0701 283.47 18.619C283.158 19.1678 282.979 19.7822 282.948 20.4127C282.948 21.5706 283.765 22.0464 284.744 21.4629C285.27 21.1136 285.706 20.6457 286.018 20.0969C286.33 19.548 286.508 18.9336 286.539 18.3032C286.566 17.1272 285.749 16.6515 284.744 17.2529Z" fill="#7FE389"/>
<path d="M291.124 13.5642C290.599 13.9116 290.162 14.3778 289.851 14.9252C289.539 15.4726 289.36 16.0857 289.329 16.715C289.329 17.8819 290.146 18.3487 291.124 17.7742C291.649 17.4239 292.085 16.9557 292.397 16.4071C292.708 15.8585 292.887 15.2446 292.92 14.6144C292.947 13.4475 292.13 12.9807 291.124 13.5642Z" fill="#7FE389"/>
<path d="M297.498 9.88361C296.973 10.2329 296.536 10.7008 296.224 11.2497C295.913 11.7985 295.734 12.4129 295.703 13.0434C295.703 14.2103 296.52 14.6771 297.498 14.0936C298.026 13.7459 298.463 13.2783 298.775 12.7292C299.087 12.18 299.265 11.5648 299.294 10.9339C299.33 9.77589 298.513 9.30013 297.498 9.88361Z" fill="#7FE389"/>
<path d="M124.546 278.139L157.122 259.333V116.175L120.659 137.234V275.895C120.659 278.372 122.391 279.369 124.546 278.139Z" fill="#F5F5F5"/>
<path d="M156.224 117.728V258.812L124.097 277.358C123.708 277.604 123.263 277.746 122.804 277.771C121.673 277.771 121.557 276.46 121.557 275.895V137.745L156.224 117.728ZM157.122 116.175L120.659 137.234V275.895C120.659 277.69 121.557 278.668 122.804 278.668C123.421 278.644 124.02 278.462 124.546 278.139L157.122 259.333V116.175Z" fill="#E0E0E0"/>
<path d="M132.76 138.66L150.211 128.561C150.848 128.184 151.369 128.49 151.369 129.235V130.752C151.346 131.155 151.23 131.548 151.029 131.899C150.828 132.249 150.548 132.548 150.211 132.771L132.76 142.852C132.114 143.229 131.593 142.924 131.593 142.179V140.68C131.617 140.276 131.735 139.883 131.938 139.532C132.141 139.181 132.422 138.883 132.76 138.66Z" fill="#E0E0E0"/>
<path d="M127.948 142.791V144.308C127.926 144.712 127.809 145.106 127.607 145.457C127.404 145.808 127.121 146.106 126.781 146.327L125.471 147.082C124.824 147.459 124.304 147.153 124.304 146.408V144.891C124.326 144.487 124.443 144.093 124.646 143.742C124.848 143.391 125.131 143.093 125.471 142.871L126.781 142.117C127.428 141.74 127.948 142.028 127.948 142.791Z" fill="#7FE389"/>
<path d="M132.76 147.054L150.211 136.974C150.848 136.597 151.369 136.902 151.369 137.638V139.155C151.346 139.56 151.23 139.954 151.029 140.306C150.828 140.658 150.548 140.958 150.211 141.184L132.76 151.264C132.114 151.632 131.593 151.336 131.593 150.591V149.074C131.616 148.669 131.733 148.276 131.936 147.925C132.139 147.574 132.421 147.276 132.76 147.054Z" fill="#E0E0E0"/>
<path d="M127.948 151.174V152.692C127.927 153.096 127.81 153.49 127.607 153.842C127.405 154.193 127.122 154.491 126.781 154.711L125.471 155.474C124.824 155.842 124.304 155.546 124.304 154.801V153.284C124.325 152.879 124.442 152.485 124.645 152.134C124.848 151.783 125.131 151.485 125.471 151.264L126.781 150.501C127.428 150.106 127.948 150.429 127.948 151.174Z" fill="#7FE389"/>
<path d="M132.76 155.439L150.211 145.358C150.848 144.99 151.369 145.286 151.369 146.032V147.549C151.348 147.952 151.232 148.346 151.031 148.697C150.83 149.048 150.549 149.346 150.211 149.568L132.76 159.649C132.114 160.026 131.593 159.721 131.593 158.985V157.459C131.618 157.055 131.736 156.662 131.939 156.311C132.141 155.961 132.423 155.662 132.76 155.439Z" fill="#E0E0E0"/>
<path d="M127.948 159.567V161.084C127.927 161.489 127.81 161.883 127.607 162.234C127.405 162.585 127.122 162.883 126.781 163.104L125.471 163.867C124.824 164.235 124.304 163.93 124.304 163.193V161.667C124.327 161.263 124.445 160.87 124.648 160.519C124.85 160.168 125.132 159.87 125.471 159.648L126.781 158.894C127.428 158.526 127.948 158.822 127.948 159.567Z" fill="#7FE389"/>
<path d="M132.76 183.266L150.211 173.176C150.848 172.808 151.369 173.104 151.369 173.849V175.366C151.348 175.77 151.232 176.163 151.031 176.514C150.83 176.865 150.549 177.164 150.211 177.386L132.76 187.476C132.114 187.844 131.593 187.547 131.593 186.802V185.285C131.616 184.881 131.733 184.487 131.936 184.136C132.139 183.785 132.421 183.487 132.76 183.266Z" fill="#E0E0E0"/>
<path d="M127.948 187.386V188.903C127.927 189.308 127.81 189.702 127.607 190.053C127.405 190.404 127.122 190.702 126.781 190.923L125.471 191.686C124.824 192.054 124.304 191.758 124.304 191.013V189.496C124.325 189.091 124.442 188.697 124.645 188.346C124.848 187.995 125.131 187.697 125.471 187.476L126.781 186.713C127.428 186.345 127.948 186.641 127.948 187.386Z" fill="#7FE389"/>
<path d="M132.76 190.688L150.211 180.625C150.848 180.257 151.369 180.554 151.369 181.299V182.816C151.348 183.22 151.232 183.613 151.031 183.964C150.83 184.315 150.549 184.613 150.211 184.835L132.76 194.898C132.114 195.275 131.593 194.97 131.593 194.225V192.708C131.618 192.304 131.736 191.911 131.939 191.56C132.141 191.21 132.423 190.911 132.76 190.688Z" fill="#E0E0E0"/>
<path d="M127.948 194.819V196.336C127.927 196.741 127.81 197.135 127.607 197.486C127.405 197.837 127.122 198.135 126.781 198.356L125.471 199.11C124.824 199.487 124.304 199.181 124.304 198.436V196.919C124.327 196.515 124.445 196.122 124.648 195.771C124.85 195.42 125.132 195.122 125.471 194.9L126.781 194.146C127.428 193.778 127.948 194.092 127.948 194.819Z" fill="#7FE389"/>
<path d="M132.76 198.122L150.211 188.041C150.848 187.664 151.369 187.969 151.369 188.714V190.231C151.346 190.635 151.23 191.028 151.029 191.378C150.828 191.729 150.548 192.028 150.211 192.251L132.76 202.332C132.114 202.709 131.593 202.403 131.593 201.658V200.141C131.617 199.737 131.735 199.344 131.938 198.993C132.141 198.643 132.422 198.344 132.76 198.122Z" fill="#E0E0E0"/>
<path d="M127.948 202.252V203.769C127.926 204.173 127.809 204.567 127.607 204.918C127.404 205.269 127.121 205.567 126.781 205.788L125.471 206.542C124.824 206.919 124.304 206.614 124.304 205.869V204.352C124.326 203.947 124.443 203.554 124.646 203.203C124.848 202.852 125.131 202.553 125.471 202.332L126.781 201.578C127.428 201.201 127.948 201.506 127.948 202.252Z" fill="#7FE389"/>
<path d="M131.593 164.603V167.215L133.864 164.603H131.593Z" fill="#7FE389"/>
<path d="M135.248 164.056C135.248 164.549 135.589 164.738 136.02 164.487L150.598 156.103C150.824 155.955 151.011 155.756 151.145 155.522C151.279 155.288 151.356 155.025 151.37 154.756C151.37 154.262 151.029 154.065 150.598 154.316L136.02 162.727C135.796 162.872 135.609 163.068 135.475 163.299C135.341 163.53 135.263 163.789 135.248 164.056Z" fill="#E0E0E0"/>
<path d="M131.593 168.804V171.426L133.864 168.804H131.593Z" fill="#7FE389"/>
<path d="M135.248 168.266C135.248 168.751 135.589 168.948 136.02 168.697L150.598 160.304C150.824 160.158 151.012 159.961 151.146 159.729C151.28 159.496 151.357 159.235 151.37 158.966C151.37 158.473 151.029 158.275 150.598 158.526L136.02 166.937C135.796 167.083 135.609 167.278 135.475 167.509C135.341 167.74 135.263 167.999 135.248 168.266Z" fill="#E0E0E0"/>
<path d="M131.593 173.015V175.636L133.864 173.015H131.593Z" fill="#7FE389"/>
<path d="M135.248 172.476C135.248 172.961 135.589 173.158 136.02 172.907L150.598 164.514C150.824 164.368 151.012 164.171 151.146 163.938C151.28 163.706 151.357 163.445 151.37 163.176C151.37 162.683 151.029 162.485 150.598 162.736L136.02 171.147C135.796 171.292 135.609 171.488 135.475 171.719C135.341 171.95 135.263 172.209 135.248 172.476Z" fill="#E0E0E0"/>
<path d="M131.593 177.225V179.846L133.864 177.225H131.593Z" fill="#7FE389"/>
<path d="M135.248 176.686C135.248 177.171 135.589 177.368 136.02 177.117L150.598 168.724C150.824 168.578 151.012 168.381 151.146 168.148C151.28 167.916 151.357 167.654 151.37 167.386C151.37 166.892 151.029 166.695 150.598 166.946L136.02 175.357C135.796 175.502 135.609 175.698 135.475 175.929C135.341 176.16 135.263 176.419 135.248 176.686Z" fill="#E0E0E0"/>
<path d="M168.057 121.193V143.131C168.057 144.029 168.703 144.424 169.502 143.966L193.622 130.034C194.043 129.763 194.394 129.394 194.645 128.961C194.896 128.527 195.041 128.04 195.067 127.539V109.505C195.067 108.607 194.421 108.212 193.622 108.67L179.628 116.749C178.829 117.207 178.182 116.839 178.182 115.923V115.349C178.182 114.451 177.545 114.056 176.746 114.514L169.502 118.688C169.081 118.963 168.731 119.332 168.48 119.768C168.229 120.203 168.084 120.691 168.057 121.193Z" fill="#7FE389"/>
<path d="M172.805 147.27V148.679C172.805 149.361 173.29 149.64 173.882 149.298L191.979 138.85C192.293 138.645 192.554 138.37 192.741 138.045C192.928 137.721 193.036 137.357 193.056 136.983V135.573C193.056 134.891 192.571 134.613 191.979 134.954L173.882 145.403C173.568 145.607 173.307 145.883 173.12 146.207C172.933 146.532 172.825 146.896 172.805 147.27Z" fill="#E0E0E0"/>
<path d="M201.618 101.937V123.876C201.618 124.774 202.264 125.16 203.054 124.702L227.174 110.779C227.594 110.505 227.943 110.137 228.194 109.704C228.446 109.27 228.591 108.784 228.62 108.284V90.2407C228.62 89.343 227.973 88.948 227.174 89.4058L213.18 97.4848C212.381 97.9426 211.744 97.5655 211.744 96.6499V96.0754C211.744 95.1778 211.097 94.7918 210.298 95.2496L203.054 99.4327C202.635 99.7076 202.286 100.078 202.036 100.513C201.787 100.948 201.643 101.436 201.618 101.937Z" fill="#7FE389"/>
<path d="M206.34 128.015V129.46C206.34 130.151 206.825 130.429 207.417 130.088L225.514 119.586C225.828 119.379 226.089 119.101 226.276 118.776C226.463 118.45 226.571 118.085 226.591 117.71V116.309C226.591 115.618 226.107 115.34 225.514 115.69L207.417 126.139C207.104 126.346 206.843 126.623 206.656 126.949C206.469 127.275 206.361 127.64 206.34 128.015Z" fill="#E0E0E0"/>
<path d="M168.057 165.268V187.207C168.057 188.105 168.703 188.5 169.502 188.042L193.622 174.11C194.037 173.841 194.384 173.478 194.635 173.051C194.886 172.624 195.034 172.145 195.067 171.651V153.608C195.067 152.71 194.421 152.324 193.622 152.782L179.628 160.861C178.829 161.319 178.182 160.951 178.182 160.035V159.46C178.182 158.563 177.545 158.168 176.746 158.626L169.502 162.809C169.087 163.078 168.74 163.441 168.489 163.868C168.238 164.295 168.09 164.774 168.057 165.268Z" fill="#7FE389"/>
<path d="M172.805 191.345V192.754C172.805 193.436 173.29 193.715 173.882 193.374L191.979 182.925C192.292 182.719 192.552 182.443 192.739 182.119C192.926 181.795 193.035 181.431 193.056 181.058V179.648C193.056 178.966 192.571 178.688 191.979 179.029L173.882 189.478C173.568 189.682 173.307 189.958 173.12 190.282C172.933 190.607 172.825 190.971 172.805 191.345Z" fill="#E0E0E0"/>
<path d="M201.618 146.005V167.944C201.618 168.841 202.264 169.236 203.054 168.778L227.174 154.847C227.594 154.576 227.944 154.209 228.195 153.777C228.447 153.345 228.592 152.859 228.62 152.36V134.317C228.62 133.42 227.973 133.025 227.174 133.482L213.18 141.561C212.381 142.019 211.744 141.642 211.744 140.727V140.152C211.744 139.254 211.097 138.859 210.298 139.326L203.054 143.509C202.635 143.783 202.287 144.151 202.037 144.585C201.788 145.019 201.644 145.505 201.618 146.005Z" fill="#7FE389"/>
<path d="M206.34 172.091V173.491C206.34 174.182 206.825 174.461 207.417 174.11L225.514 163.671C225.828 163.464 226.089 163.186 226.276 162.861C226.463 162.535 226.571 162.17 226.591 161.795V160.394C226.591 159.703 226.107 159.425 225.514 159.766L207.417 170.215C207.104 170.422 206.843 170.699 206.656 171.025C206.469 171.351 206.361 171.716 206.34 172.091Z" fill="#E0E0E0"/>
<path d="M235.534 81.6137V103.552C235.534 104.45 236.18 104.845 236.97 104.387L261.099 90.4556C261.517 90.1816 261.865 89.8129 262.115 89.3793C262.364 88.9458 262.508 88.4596 262.535 87.9601V69.9262C262.535 69.0285 261.889 68.6336 261.099 69.0914L247.095 77.1703C246.305 77.6371 245.659 77.2601 245.659 76.3445V75.77C245.659 74.8723 245.013 74.4773 244.214 74.9351L236.97 79.1272C236.552 79.3998 236.204 79.767 235.955 80.199C235.705 80.6309 235.561 81.1156 235.534 81.6137Z" fill="#7FE389"/>
<path d="M239.878 108.751V110.16C239.878 110.842 240.363 111.121 240.964 110.78L259.07 100.331C259.386 100.128 259.649 99.8529 259.838 99.5283C260.027 99.2037 260.136 98.8388 260.156 98.4638V97.0634C260.156 96.3722 259.671 96.094 259.07 96.4351L240.982 106.884C240.663 107.085 240.396 107.359 240.204 107.684C240.012 108.008 239.9 108.374 239.878 108.751Z" fill="#E0E0E0"/>
<path d="M268.675 63.4183V85.3571C268.675 86.2547 269.322 86.6407 270.12 86.1829L294.24 72.2603C294.659 71.9862 295.007 71.6175 295.257 71.184C295.506 70.7504 295.65 70.2643 295.677 69.7648V51.7219C295.677 50.8242 295.039 50.4292 294.24 50.887L280.246 58.966C279.447 59.4238 278.801 59.0467 278.801 58.1311V57.5566C278.801 56.659 278.163 56.273 277.365 56.7308L270.12 60.9139C269.698 61.1867 269.347 61.5562 269.096 61.9916C268.844 62.4271 268.7 62.9162 268.675 63.4183Z" fill="#7FE389"/>
<path d="M273.431 89.4953V90.8597C273.431 91.5509 273.907 91.8292 274.509 91.4881L292.605 81.0393C292.918 80.8333 293.178 80.5573 293.365 80.2332C293.552 79.909 293.661 79.5458 293.683 79.1722V77.7629C293.683 77.0717 293.198 76.7934 292.605 77.1435L274.509 87.5833C274.189 87.7926 273.925 88.0755 273.737 88.4082C273.55 88.7409 273.445 89.1136 273.431 89.4953Z" fill="#E0E0E0"/>
<path d="M239.878 152.799V154.209C239.878 154.891 240.363 155.169 240.964 154.828L259.07 144.388C259.386 144.185 259.649 143.91 259.838 143.586C260.027 143.261 260.136 142.896 260.156 142.521V141.13C260.156 140.448 259.671 140.169 259.07 140.51L240.982 150.959C240.666 151.157 240.402 151.427 240.21 151.747C240.018 152.067 239.904 152.427 239.878 152.799Z" fill="#E0E0E0"/>
<path d="M240.336 121.974L259.07 111.139C259.923 110.645 260.623 111.049 260.623 112.037V133.706C260.594 134.246 260.438 134.77 260.169 135.238C259.899 135.706 259.523 136.104 259.07 136.399L240.336 147.234C239.439 147.728 238.783 147.333 238.783 146.336V124.667C238.813 124.128 238.969 123.603 239.239 123.135C239.509 122.668 239.885 122.27 240.336 121.974Z" fill="#FAFAFA"/>
<path d="M239.636 147.897C239.416 147.899 239.199 147.844 239.008 147.736C238.78 147.584 238.598 147.374 238.48 147.128C238.361 146.881 238.311 146.608 238.335 146.336V124.666C238.366 124.047 238.545 123.444 238.858 122.908C239.17 122.372 239.606 121.919 240.13 121.587L258.9 110.752C259.123 110.597 259.385 110.504 259.657 110.485C259.929 110.466 260.201 110.521 260.444 110.645C260.671 110.795 260.854 111.003 260.973 111.248C261.093 111.492 261.146 111.764 261.126 112.036V133.705C261.095 134.325 260.915 134.928 260.603 135.463C260.291 135.999 259.854 136.452 259.331 136.784L240.561 147.628C240.281 147.797 239.963 147.89 239.636 147.897ZM259.798 111.381C259.631 111.387 259.469 111.44 259.331 111.533L240.561 122.368C240.176 122.621 239.855 122.961 239.625 123.36C239.394 123.759 239.26 124.206 239.232 124.666V146.336C239.232 146.65 239.313 146.874 239.457 146.955C239.566 146.991 239.683 147 239.797 146.981C239.912 146.963 240.019 146.917 240.112 146.847L258.882 136.012C259.266 135.756 259.585 135.414 259.815 135.014C260.046 134.614 260.181 134.166 260.21 133.705V112.036C260.224 111.922 260.21 111.806 260.169 111.698C260.129 111.59 260.063 111.494 259.977 111.417C259.921 111.39 259.859 111.378 259.798 111.381Z" fill="#EBEBEB"/>
<path d="M261.314 114.064L257.131 116.479C256.677 116.774 256.299 117.171 256.028 117.639C255.756 118.107 255.599 118.632 255.569 119.172V124.002C255.569 124.998 256.269 125.402 257.131 124.899L261.314 122.484C261.766 122.189 262.142 121.791 262.412 121.324C262.682 120.856 262.838 120.331 262.867 119.792V114.962C262.867 113.975 262.167 113.571 261.314 114.064Z" fill="#7FE389"/>
<path d="M241.763 124.317L251.17 118.931C251.592 118.689 251.942 118.886 251.942 119.389V119.685C251.927 119.954 251.849 120.215 251.715 120.449C251.581 120.683 251.394 120.882 251.17 121.032L241.763 126.418C241.332 126.669 240.982 126.471 240.991 125.969V125.663C241.005 125.394 241.082 125.132 241.216 124.898C241.35 124.664 241.537 124.465 241.763 124.317Z" fill="#EBEBEB"/>
<path d="M241.763 128.562L251.17 123.176C251.592 122.925 251.942 123.132 251.942 123.625V123.921C251.929 124.191 251.852 124.453 251.717 124.687C251.583 124.921 251.396 125.12 251.17 125.268L241.763 130.654C241.332 130.905 240.982 130.654 240.991 130.205V129.891C241.007 129.625 241.086 129.366 241.22 129.135C241.354 128.905 241.54 128.708 241.763 128.562Z" fill="#EBEBEB"/>
<path d="M241.763 132.727L251.17 127.341C251.592 127.099 251.942 127.296 251.942 127.79V128.095C251.927 128.364 251.849 128.625 251.715 128.859C251.581 129.093 251.394 129.292 251.17 129.441L241.763 134.827C241.332 135.079 240.982 134.881 240.991 134.379V134.073C241.004 133.804 241.081 133.541 241.215 133.307C241.349 133.073 241.537 132.874 241.763 132.727Z" fill="#EBEBEB"/>
<path d="M241.763 136.929L257.382 127.952C257.813 127.71 258.163 127.952 258.163 128.401V128.707C258.148 128.976 258.069 129.239 257.933 129.473C257.798 129.707 257.609 129.906 257.382 130.053L241.763 139.03C241.332 139.272 240.982 139.074 240.991 138.581V138.267C241.006 137.999 241.084 137.738 241.218 137.506C241.352 137.274 241.539 137.076 241.763 136.929Z" fill="#EBEBEB"/>
<path d="M241.763 141.129L257.382 132.153C257.813 131.902 258.163 132.153 258.163 132.602V132.898C258.148 133.168 258.07 133.431 257.934 133.665C257.799 133.899 257.609 134.098 257.382 134.244L241.763 143.221C241.332 143.472 240.982 143.266 240.991 142.772V142.467C241.004 142.199 241.081 141.937 241.215 141.705C241.349 141.472 241.537 141.275 241.763 141.129Z" fill="#EBEBEB"/>
<path d="M272.696 133.867V135.268C272.696 135.959 273.18 136.237 273.773 135.896L291.87 125.447C292.184 125.241 292.446 124.964 292.633 124.638C292.82 124.312 292.928 123.947 292.947 123.571V122.171C292.947 121.48 292.471 121.201 291.87 121.543L273.773 131.991C273.459 132.198 273.198 132.476 273.011 132.801C272.824 133.127 272.716 133.492 272.696 133.867Z" fill="#E0E0E0"/>
<path d="M273.154 103.034L291.915 92.1989C292.812 91.6962 293.477 92.1002 293.477 93.0966V114.766C293.445 115.306 293.287 115.831 293.016 116.298C292.745 116.766 292.368 117.164 291.915 117.459L273.154 128.294C272.256 128.787 271.592 128.383 271.592 127.396V105.727C271.621 105.186 271.778 104.661 272.05 104.193C272.321 103.725 272.699 103.327 273.154 103.034Z" fill="#FAFAFA"/>
<path d="M272.454 128.948C272.234 128.95 272.017 128.894 271.825 128.786C271.598 128.636 271.416 128.427 271.296 128.183C271.176 127.938 271.123 127.666 271.143 127.395V105.725C271.173 105.104 271.352 104.5 271.664 103.962C271.977 103.425 272.414 102.971 272.938 102.637L291.699 91.8027C291.918 91.6315 292.183 91.5297 292.46 91.5102C292.737 91.4908 293.013 91.5547 293.254 91.6937C293.494 91.8328 293.688 92.0405 293.809 92.2903C293.93 92.5401 293.974 92.8205 293.935 93.0954V114.765C293.904 115.384 293.725 115.987 293.413 116.523C293.1 117.059 292.663 117.512 292.139 117.844L273.378 128.679C273.099 128.847 272.78 128.94 272.454 128.948ZM273.351 103.418C272.965 103.673 272.642 104.014 272.41 104.414C272.178 104.814 272.042 105.263 272.014 105.725V127.395C272 127.509 272.014 127.625 272.055 127.733C272.096 127.841 272.161 127.937 272.247 128.014C272.358 128.051 272.475 128.059 272.59 128.039C272.704 128.018 272.812 127.97 272.903 127.898L291.664 117.063C292.05 116.81 292.372 116.471 292.604 116.072C292.836 115.673 292.972 115.225 293.001 114.765V93.0954C293.05 92.9782 293.054 92.8472 293.013 92.7272C292.972 92.6071 292.888 92.5062 292.778 92.4433C292.668 92.3805 292.538 92.3601 292.414 92.3859C292.29 92.4118 292.179 92.4821 292.103 92.5837L273.351 103.418Z" fill="#EBEBEB"/>
<path d="M294.122 95.125L289.939 97.5397C289.487 97.835 289.111 98.2327 288.841 98.7006C288.571 99.1685 288.415 99.6933 288.386 100.233V105.062C288.386 106.049 289.086 106.453 289.939 105.96L294.122 103.545C294.575 103.25 294.952 102.852 295.224 102.384C295.495 101.917 295.653 101.392 295.684 100.852V96.0226C295.684 95.0262 294.975 94.6223 294.122 95.125Z" fill="#7FE389"/>
<path d="M274.582 105.366L283.98 99.9803C284.411 99.7289 284.761 99.9803 284.761 100.429V100.734C284.748 101.005 284.67 101.268 284.534 101.502C284.398 101.737 284.209 101.935 283.98 102.081L274.582 107.467C274.151 107.718 273.801 107.512 273.801 107.018V106.704C273.818 106.435 273.897 106.175 274.033 105.942C274.168 105.71 274.356 105.513 274.582 105.366Z" fill="#EBEBEB"/>
<path d="M274.582 109.576L283.98 104.19C284.411 103.948 284.761 104.19 284.761 104.639V104.944C284.746 105.214 284.667 105.477 284.531 105.71C284.396 105.944 284.207 106.143 283.98 106.291L274.582 111.676C274.151 111.928 273.801 111.73 273.801 111.228V110.922C273.816 110.652 273.894 110.389 274.03 110.155C274.166 109.921 274.355 109.723 274.582 109.576Z" fill="#EBEBEB"/>
<path d="M274.582 113.778L283.98 108.392C284.411 108.14 284.761 108.392 284.761 108.84V109.137C284.747 109.407 284.668 109.67 284.532 109.904C284.397 110.138 284.208 110.336 283.98 110.483L274.582 115.869C274.151 116.112 273.801 115.914 273.801 115.42V115.097C273.82 114.832 273.901 114.575 274.037 114.346C274.172 114.117 274.359 113.922 274.582 113.778Z" fill="#EBEBEB"/>
<path d="M274.582 117.988L290.201 109.011C290.632 108.76 290.982 108.966 290.982 109.46V109.712C290.967 109.982 290.888 110.244 290.752 110.478C290.617 110.712 290.428 110.911 290.201 111.058L274.582 120.035C274.151 120.286 273.801 120.079 273.801 119.586V119.281C273.822 119.019 273.904 118.767 274.04 118.543C274.175 118.318 274.361 118.128 274.582 117.988Z" fill="#EBEBEB"/>
<path d="M274.582 122.189L290.201 113.213C290.632 112.97 290.982 113.168 290.982 113.661V113.967C290.967 114.237 290.888 114.499 290.752 114.733C290.617 114.967 290.428 115.166 290.201 115.313L274.582 124.29C274.151 124.532 273.801 124.335 273.801 123.841V123.527C273.818 123.258 273.897 122.997 274.033 122.765C274.168 122.533 274.356 122.336 274.582 122.189Z" fill="#EBEBEB"/>
<path d="M239.878 197.529V198.938C239.878 199.62 240.363 199.899 240.964 199.557L259.07 189.109C259.386 188.906 259.649 188.631 259.838 188.306C260.027 187.981 260.136 187.617 260.156 187.242V185.832C260.156 185.15 259.671 184.872 259.07 185.213L240.982 195.662C240.663 195.862 240.396 196.137 240.204 196.461C240.012 196.786 239.9 197.152 239.878 197.529Z" fill="#E0E0E0"/>
<path d="M240.337 166.695L259.071 155.861C259.923 155.367 260.624 155.771 260.624 156.758V178.428C260.593 178.967 260.437 179.491 260.167 179.959C259.897 180.426 259.522 180.824 259.071 181.121L240.301 191.955C239.403 192.449 238.748 192.054 238.748 191.058V169.388C238.78 168.846 238.941 168.318 239.217 167.85C239.494 167.382 239.877 166.986 240.337 166.695Z" fill="#FAFAFA"/>
<path d="M239.635 192.619C239.415 192.622 239.199 192.566 239.007 192.458C238.781 192.305 238.6 192.095 238.481 191.849C238.363 191.603 238.312 191.33 238.334 191.058V169.388C238.365 168.769 238.544 168.166 238.857 167.63C239.169 167.094 239.605 166.641 240.129 166.309L258.881 155.492C259.099 155.325 259.362 155.226 259.637 155.208C259.911 155.19 260.184 155.254 260.423 155.391C260.661 155.529 260.853 155.733 260.975 155.98C261.097 156.226 261.143 156.503 261.107 156.776V178.445C261.076 179.065 260.897 179.668 260.584 180.203C260.272 180.739 259.836 181.192 259.312 181.524L240.542 192.359C240.267 192.521 239.955 192.611 239.635 192.619ZM259.797 156.094C259.631 156.104 259.47 156.157 259.33 156.246L240.56 167.09C240.175 167.343 239.854 167.682 239.623 168.081C239.392 168.48 239.258 168.928 239.231 169.388V191.058C239.183 191.175 239.179 191.306 239.22 191.426C239.261 191.546 239.344 191.647 239.454 191.71C239.565 191.772 239.694 191.793 239.818 191.767C239.942 191.741 240.053 191.671 240.129 191.569L258.899 180.735C259.283 180.478 259.602 180.136 259.833 179.736C260.063 179.336 260.198 178.888 260.228 178.428V156.758C260.241 156.644 260.227 156.528 260.186 156.42C260.146 156.312 260.08 156.216 259.994 156.139C259.934 156.106 259.865 156.09 259.797 156.094Z" fill="#EBEBEB"/>
<path d="M261.314 158.787L257.131 161.201C256.677 161.496 256.299 161.893 256.028 162.361C255.756 162.829 255.599 163.354 255.569 163.894V168.724C255.569 169.72 256.269 170.115 257.131 169.621L261.314 167.207C261.766 166.911 262.142 166.514 262.412 166.046C262.682 165.578 262.838 165.053 262.867 164.514V159.684C262.867 158.697 262.167 158.293 261.314 158.787Z" fill="#7FE389"/>
<path d="M241.763 169.037L251.17 163.651C251.592 163.409 251.942 163.606 251.942 164.1V164.405C251.927 164.674 251.849 164.936 251.715 165.169C251.581 165.403 251.394 165.602 251.17 165.752L241.763 171.138C241.332 171.389 240.982 171.192 240.991 170.689V170.384C241.004 170.114 241.081 169.852 241.215 169.618C241.349 169.383 241.537 169.185 241.763 169.037Z" fill="#EBEBEB"/>
<path d="M241.763 173.237L251.17 167.851C251.592 167.6 251.942 167.807 251.942 168.3V168.597C251.928 168.866 251.851 169.128 251.717 169.362C251.582 169.595 251.395 169.795 251.17 169.943L241.763 175.329C241.332 175.571 240.982 175.374 240.991 174.88V174.566C241.007 174.3 241.086 174.041 241.22 173.81C241.354 173.58 241.54 173.384 241.763 173.237Z" fill="#EBEBEB"/>
<path d="M241.763 177.449L251.17 172.063C251.592 171.82 251.942 172.018 251.942 172.512V172.817C251.927 173.086 251.849 173.347 251.715 173.581C251.581 173.815 251.394 174.014 251.17 174.163L241.763 179.549C241.332 179.801 240.982 179.594 240.991 179.1V178.831C240.997 178.555 241.07 178.285 241.205 178.044C241.339 177.803 241.531 177.599 241.763 177.449Z" fill="#EBEBEB"/>
<path d="M241.763 181.65L257.382 172.673C257.813 172.431 258.163 172.628 258.163 173.122V173.445C258.148 173.715 258.069 173.978 257.933 174.212C257.798 174.446 257.609 174.644 257.382 174.792L241.763 183.768C241.332 184.011 240.982 183.813 240.991 183.319V183.005C241.003 182.734 241.08 182.47 241.214 182.235C241.348 181.999 241.536 181.799 241.763 181.65Z" fill="#EBEBEB"/>
<path d="M241.763 185.858L257.382 176.882C257.813 176.631 258.163 176.828 258.163 177.331V177.627C258.148 177.897 258.069 178.159 257.933 178.393C257.798 178.627 257.609 178.826 257.382 178.973L241.763 187.95C241.332 188.201 240.982 187.995 240.991 187.501V187.196C241.004 186.928 241.081 186.666 241.215 186.434C241.349 186.201 241.537 186.004 241.763 185.858Z" fill="#EBEBEB"/>
<path d="M272.696 178.58V179.989C272.696 180.68 273.18 180.959 273.773 180.609L291.87 170.169C292.184 169.963 292.446 169.686 292.633 169.36C292.82 169.034 292.928 168.668 292.947 168.293V166.892C292.947 166.201 292.471 165.923 291.87 166.264L273.773 176.713C273.46 176.919 273.2 177.195 273.013 177.519C272.826 177.843 272.718 178.206 272.696 178.58Z" fill="#E0E0E0"/>
<path d="M273.154 147.754L291.915 136.919C292.812 136.416 293.477 136.82 293.477 137.817V159.477C293.447 160.017 293.29 160.543 293.019 161.011C292.748 161.479 292.369 161.876 291.915 162.17L273.154 173.014C272.256 173.507 271.592 173.103 271.592 172.116V150.447C271.621 149.906 271.778 149.381 272.05 148.913C272.321 148.445 272.699 148.047 273.154 147.754Z" fill="#FAFAFA"/>
<path d="M272.454 173.67C272.234 173.672 272.017 173.616 271.825 173.508C271.598 173.358 271.416 173.15 271.296 172.905C271.176 172.661 271.123 172.389 271.143 172.117V150.448C271.172 149.826 271.351 149.222 271.663 148.684C271.976 148.146 272.413 147.692 272.938 147.36L291.699 136.525C291.918 136.354 292.183 136.252 292.46 136.232C292.737 136.213 293.013 136.277 293.254 136.416C293.494 136.555 293.688 136.763 293.809 137.012C293.93 137.262 293.974 137.543 293.935 137.818V159.478C293.906 160.099 293.727 160.704 293.415 161.242C293.102 161.779 292.665 162.233 292.139 162.566L273.378 173.446C273.094 173.599 272.776 173.676 272.454 173.67ZM273.351 148.141C272.965 148.395 272.642 148.736 272.41 149.136C272.178 149.537 272.042 149.986 272.014 150.448V172.117C271.999 172.23 272.012 172.345 272.053 172.452C272.093 172.559 272.16 172.653 272.247 172.727C272.357 172.766 272.474 172.776 272.589 172.757C272.703 172.739 272.811 172.691 272.903 172.62L291.69 161.776C292.077 161.522 292.4 161.181 292.632 160.78C292.864 160.38 293 159.931 293.028 159.469V137.818C293.077 137.7 293.081 137.569 293.04 137.449C292.999 137.329 292.915 137.228 292.805 137.165C292.695 137.103 292.565 137.082 292.441 137.108C292.317 137.134 292.206 137.204 292.13 137.306L273.351 148.141Z" fill="#EBEBEB"/>
<path d="M294.122 139.845L289.939 142.26C289.487 142.555 289.111 142.953 288.841 143.421C288.571 143.889 288.415 144.414 288.386 144.953V149.782C288.386 150.77 289.086 151.174 289.939 150.68L294.122 148.265C294.575 147.97 294.952 147.572 295.224 147.105C295.495 146.637 295.653 146.112 295.684 145.572V140.743C295.684 139.746 294.975 139.334 294.122 139.845Z" fill="#7FE389"/>
<path d="M274.582 150.106L283.98 144.72C284.411 144.469 284.761 144.675 284.761 145.169V145.465C284.747 145.735 284.668 145.998 284.532 146.232C284.397 146.466 284.208 146.665 283.98 146.812L274.582 152.198C274.151 152.44 273.801 152.198 273.801 151.749V151.435C273.819 151.168 273.899 150.909 274.035 150.678C274.17 150.448 274.358 150.252 274.582 150.106Z" fill="#EBEBEB"/>
<path d="M274.582 154.298L283.98 148.912C284.411 148.669 284.761 148.912 284.761 149.361V149.666C284.746 149.936 284.667 150.198 284.531 150.432C284.396 150.666 284.207 150.865 283.98 151.012L274.582 156.398C274.151 156.65 273.801 156.443 273.801 155.949V155.644C273.814 155.374 273.892 155.11 274.028 154.876C274.164 154.642 274.354 154.443 274.582 154.298Z" fill="#EBEBEB"/>
<path d="M274.582 158.499L283.98 153.113C284.411 152.862 284.761 153.059 284.761 153.562V153.858C284.746 154.128 284.667 154.39 284.531 154.624C284.396 154.858 284.207 155.057 283.98 155.204L274.582 160.59C274.151 160.833 273.801 160.635 273.801 160.141V159.827C273.819 159.56 273.899 159.302 274.035 159.071C274.17 158.84 274.358 158.644 274.582 158.499Z" fill="#EBEBEB"/>
<path d="M274.582 162.673L290.201 153.697C290.632 153.445 290.982 153.643 290.982 154.146V154.442C290.967 154.712 290.888 154.974 290.752 155.208C290.617 155.442 290.428 155.641 290.201 155.788L274.582 164.765C274.151 165.016 273.801 164.81 273.801 164.316V164.011C273.816 163.742 273.894 163.48 274.03 163.248C274.166 163.015 274.355 162.818 274.582 162.673Z" fill="#EBEBEB"/>
<path d="M274.582 166.912L290.201 157.935C290.632 157.684 290.982 157.89 290.982 158.384V158.68C290.969 158.95 290.891 159.214 290.755 159.448C290.619 159.682 290.429 159.881 290.201 160.027L274.582 169.003C274.151 169.245 273.801 169.048 273.801 168.554V168.24C273.819 167.973 273.899 167.714 274.035 167.484C274.17 167.253 274.358 167.057 274.582 166.912Z" fill="#EBEBEB"/>
<path d="M172.805 236.281V237.682C172.805 238.373 173.29 238.651 173.891 238.31L191.979 227.861C192.294 227.658 192.557 227.383 192.746 227.058C192.935 226.734 193.044 226.369 193.065 225.994V224.612C193.065 223.921 192.58 223.642 191.979 223.992L173.891 234.432C173.579 234.635 173.318 234.907 173.13 235.228C172.941 235.549 172.83 235.91 172.805 236.281Z" fill="#E0E0E0"/>
<path d="M173.263 205.447L192.033 194.612C192.931 194.118 193.586 194.513 193.586 195.51V217.179C193.555 217.718 193.398 218.242 193.128 218.71C192.859 219.177 192.484 219.575 192.033 219.872L173.263 230.707C172.365 231.201 171.71 230.797 171.71 229.809V208.14C171.738 207.6 171.893 207.075 172.163 206.607C172.433 206.138 172.81 205.741 173.263 205.447Z" fill="#FAFAFA"/>
<path d="M172.563 231.362C172.343 231.364 172.126 231.308 171.935 231.2C171.709 231.049 171.527 230.84 171.409 230.596C171.29 230.351 171.239 230.08 171.261 229.809V208.139C171.293 207.52 171.472 206.917 171.784 206.381C172.097 205.846 172.533 205.393 173.057 205.06L191.827 194.226C192.044 194.054 192.307 193.951 192.584 193.93C192.86 193.91 193.136 193.973 193.375 194.112C193.615 194.25 193.808 194.457 193.929 194.706C194.05 194.955 194.093 195.235 194.053 195.509V217.179C194.022 217.798 193.842 218.401 193.53 218.937C193.217 219.472 192.781 219.925 192.257 220.258L173.487 231.092C173.208 231.261 172.889 231.354 172.563 231.362ZM173.263 205.446L173.487 205.832C173.102 206.087 172.782 206.429 172.551 206.829C172.321 207.23 172.186 207.678 172.159 208.139V229.809C172.11 229.926 172.106 230.057 172.147 230.177C172.188 230.297 172.272 230.398 172.382 230.461C172.492 230.524 172.622 230.544 172.746 230.518C172.87 230.492 172.981 230.422 173.057 230.32L191.827 219.477C192.21 219.222 192.529 218.882 192.76 218.483C192.99 218.085 193.126 217.638 193.155 217.179V195.509C193.204 195.392 193.208 195.261 193.167 195.141C193.126 195.021 193.042 194.92 192.932 194.857C192.822 194.794 192.693 194.774 192.568 194.8C192.444 194.826 192.334 194.896 192.257 194.998L173.487 205.832L173.263 205.446Z" fill="#EBEBEB"/>
<path d="M194.24 197.539L190.057 199.954C189.602 200.248 189.224 200.645 188.952 201.113C188.681 201.581 188.524 202.107 188.495 202.647V207.476C188.495 208.464 189.195 208.868 190.057 208.374L194.24 205.959C194.691 205.663 195.066 205.265 195.336 204.797C195.606 204.33 195.762 203.805 195.793 203.266V198.437C195.793 197.44 195.092 197.046 194.24 197.539Z" fill="#7FE389"/>
<path d="M174.69 207.789L184.098 202.403C184.52 202.151 184.87 202.358 184.87 202.852V203.148C184.856 203.417 184.779 203.679 184.645 203.913C184.511 204.147 184.323 204.346 184.098 204.494L174.69 209.88C174.259 210.132 173.918 209.88 173.918 209.431V209.126C173.931 208.858 174.008 208.597 174.142 208.364C174.277 208.131 174.465 207.934 174.69 207.789Z" fill="#EBEBEB"/>
<path d="M174.69 211.991L184.098 206.605C184.52 206.363 184.87 206.56 184.87 207.063V207.359C184.854 207.628 184.776 207.89 184.642 208.123C184.508 208.357 184.322 208.556 184.098 208.706L174.69 214.092C174.259 214.334 173.918 214.092 173.918 213.643V213.329C173.933 213.061 174.011 212.801 174.145 212.568C174.279 212.336 174.466 212.138 174.69 211.991Z" fill="#EBEBEB"/>
<path d="M174.69 216.201L184.098 210.815C184.52 210.563 184.87 210.77 184.87 211.263V211.56C184.856 211.829 184.779 212.091 184.645 212.325C184.511 212.559 184.323 212.758 184.098 212.906L174.69 218.328C174.259 218.579 173.918 218.328 173.918 217.879V217.565C173.927 217.292 174.002 217.025 174.136 216.788C174.271 216.55 174.461 216.349 174.69 216.201Z" fill="#EBEBEB"/>
<path d="M174.69 220.401L190.309 211.424C190.74 211.173 191.09 211.424 191.09 211.873V212.169C191.077 212.44 190.999 212.703 190.864 212.937C190.728 213.172 190.538 213.37 190.309 213.516L174.69 222.492C174.259 222.744 173.918 222.546 173.918 222.043V221.738C173.933 221.47 174.011 221.21 174.145 220.978C174.279 220.745 174.466 220.548 174.69 220.401Z" fill="#EBEBEB"/>
<path d="M174.69 224.61L190.309 215.634C190.74 215.392 191.09 215.634 191.09 216.083V216.388C191.075 216.658 190.996 216.92 190.861 217.154C190.725 217.388 190.536 217.587 190.309 217.734L174.69 226.711C174.259 226.953 173.918 226.756 173.918 226.262V225.948C173.933 225.68 174.011 225.42 174.145 225.187C174.279 224.955 174.466 224.757 174.69 224.61Z" fill="#EBEBEB"/>
<path d="M205.623 217.333V218.742C205.623 219.424 206.108 219.712 206.7 219.362L224.797 208.913C225.112 208.71 225.375 208.435 225.562 208.11C225.749 207.785 225.856 207.42 225.874 207.046V205.645C225.874 204.954 225.398 204.676 224.797 205.017L206.7 215.466C206.387 215.671 206.127 215.947 205.94 216.271C205.753 216.596 205.644 216.959 205.623 217.333Z" fill="#E0E0E0"/>
<path d="M206.108 186.496L224.869 175.661C225.766 175.168 226.431 175.572 226.431 176.559V198.228C226.401 198.769 226.244 199.294 225.973 199.762C225.702 200.23 225.323 200.628 224.869 200.921L206.108 211.756C205.21 212.259 204.546 211.855 204.546 210.859V189.189C204.577 188.649 204.735 188.124 205.006 187.657C205.278 187.189 205.655 186.792 206.108 186.496Z" fill="#FAFAFA"/>
<path d="M205.381 212.421C205.161 212.423 204.945 212.367 204.753 212.259C204.526 212.107 204.343 211.897 204.223 211.651C204.104 211.405 204.051 211.132 204.071 210.859V189.19C204.103 188.571 204.282 187.968 204.595 187.432C204.907 186.897 205.343 186.444 205.866 186.111L224.618 175.24C224.836 175.07 225.1 174.968 225.376 174.949C225.652 174.929 225.927 174.992 226.167 175.13C226.407 175.268 226.601 175.474 226.723 175.722C226.845 175.971 226.89 176.25 226.853 176.524V198.193C226.824 198.813 226.646 199.417 226.333 199.953C226.021 200.489 225.583 200.942 225.058 201.272L206.297 212.116C206.023 212.296 205.708 212.401 205.381 212.421ZM225.543 175.904C225.373 175.909 225.208 175.962 225.067 176.057L206.306 186.91C205.92 187.163 205.598 187.502 205.366 187.901C205.133 188.3 204.997 188.747 204.968 189.208V210.877C204.952 210.992 204.965 211.108 205.006 211.217C205.047 211.325 205.114 211.421 205.202 211.496C205.312 211.533 205.428 211.542 205.543 211.523C205.657 211.504 205.764 211.458 205.857 211.389L224.618 200.554C225.004 200.299 225.326 199.958 225.558 199.558C225.79 199.158 225.926 198.709 225.955 198.247V176.56C225.969 176.445 225.955 176.329 225.914 176.221C225.874 176.114 225.808 176.017 225.722 175.94C225.666 175.915 225.604 175.902 225.543 175.904Z" fill="#EBEBEB"/>
<path d="M227.05 178.589L222.867 181.003C222.416 181.3 222.041 181.698 221.771 182.166C221.502 182.633 221.345 183.158 221.314 183.696V188.526C221.314 189.522 222.014 189.926 222.867 189.423L227.05 187.009C227.504 186.715 227.882 186.318 228.154 185.85C228.425 185.382 228.582 184.856 228.612 184.316V179.486C228.612 178.499 227.911 178.095 227.05 178.589Z" fill="#7FE389"/>
<path d="M207.508 188.841L216.906 183.455C217.337 183.213 217.687 183.41 217.687 183.913V184.218C217.672 184.488 217.593 184.751 217.457 184.984C217.322 185.218 217.133 185.417 216.906 185.564L207.508 190.95C207.077 191.193 206.727 190.995 206.727 190.493V190.187C206.742 189.917 206.821 189.655 206.957 189.421C207.092 189.187 207.281 188.988 207.508 188.841Z" fill="#EBEBEB"/>
<path d="M207.508 193.05L216.906 187.664C217.337 187.413 217.687 187.619 217.687 188.113V188.409C217.674 188.68 217.596 188.943 217.46 189.177C217.324 189.412 217.134 189.61 216.906 189.756L207.508 195.142C207.077 195.393 206.727 195.187 206.727 194.693V194.379C206.743 194.111 206.822 193.852 206.958 193.621C207.093 193.39 207.282 193.194 207.508 193.05Z" fill="#EBEBEB"/>
<path d="M207.508 197.251L216.906 191.865C217.337 191.622 217.687 191.82 217.687 192.314V192.619C217.672 192.889 217.593 193.151 217.457 193.385C217.322 193.619 217.133 193.818 216.906 193.965L207.508 199.351C207.077 199.603 206.727 199.405 206.727 198.902V198.579C206.745 198.312 206.825 198.054 206.961 197.823C207.096 197.592 207.283 197.396 207.508 197.251Z" fill="#EBEBEB"/>
<path d="M207.508 201.452L223.127 192.475C223.558 192.233 223.908 192.43 223.908 192.924V193.193C223.893 193.463 223.814 193.726 223.678 193.96C223.542 194.194 223.354 194.392 223.127 194.54L207.508 203.516C207.077 203.759 206.727 203.561 206.727 203.068V202.753C206.749 202.491 206.831 202.238 206.966 202.012C207.102 201.786 207.287 201.595 207.508 201.452Z" fill="#EBEBEB"/>
<path d="M207.508 205.663L223.127 196.686C223.558 196.435 223.908 196.641 223.908 197.135V197.431C223.893 197.701 223.815 197.964 223.679 198.198C223.543 198.432 223.354 198.631 223.127 198.778L207.508 207.754C207.077 208.006 206.727 207.754 206.727 207.305V207C206.741 206.731 206.82 206.47 206.956 206.237C207.092 206.005 207.281 205.808 207.508 205.663Z" fill="#EBEBEB"/>
<path d="M120.659 120.402L117.015 118.274V135.123L120.659 137.233V120.402Z" fill="#7FE389"/>
<path opacity="0.1" d="M120.659 120.402L117.015 118.274V135.123L120.659 137.233V120.402Z" fill="black"/>
<path d="M336.026 190.025C335.611 189.837 335.154 189.761 334.7 189.805C334.246 189.849 333.812 190.012 333.441 190.276C332.382 190.964 331.499 191.891 330.863 192.982C330.227 194.074 329.855 195.299 329.779 196.56C329.731 197.013 329.803 197.471 329.989 197.887C330.175 198.303 330.468 198.663 330.838 198.93L376.277 227.655C377.175 228.283 378.53 228.247 380.012 227.394C381.5 226.431 382.74 225.129 383.631 223.596C384.521 222.063 385.037 220.341 385.137 218.57C385.137 216.865 384.509 215.689 383.503 215.195L336.026 190.025Z" fill="#7FE389"/>
<path opacity="0.15" d="M329.78 196.595C329.78 198.92 331.404 199.872 333.424 198.714C334.483 198.026 335.366 197.099 336.002 196.007C336.638 194.916 337.01 193.691 337.087 192.43C337.087 190.105 335.462 189.154 333.442 190.312C332.383 191 331.5 191.927 330.864 193.018C330.228 194.109 329.856 195.335 329.78 196.595Z" fill="black"/>
<path d="M319.724 183.983C319.08 184.401 318.543 184.965 318.157 185.63C317.772 186.294 317.549 187.04 317.507 187.807C317.479 188.08 317.523 188.356 317.634 188.607C317.746 188.857 317.922 189.074 318.144 189.235L331.861 197.197C332.11 197.313 332.385 197.36 332.658 197.333C332.931 197.306 333.192 197.206 333.414 197.044C334.065 196.627 334.607 196.059 334.995 195.389C335.382 194.719 335.603 193.966 335.64 193.193C335.672 192.919 335.63 192.641 335.518 192.388C335.405 192.135 335.228 191.918 335.002 191.757L321.286 183.795C321.033 183.684 320.754 183.644 320.48 183.677C320.205 183.71 319.944 183.816 319.724 183.983Z" fill="#263238"/>
<path opacity="0.1" d="M335.138 197.223L381.888 225.948C381.334 226.523 380.706 227.021 380.021 227.43C378.539 228.282 377.211 228.327 376.277 227.69L330.847 198.965C331.26 199.156 331.716 199.233 332.169 199.189C332.622 199.145 333.055 198.981 333.423 198.714C334.076 198.319 334.656 197.815 335.138 197.223Z" fill="black"/>
<path d="M342.983 156.326C342.983 155.94 342.983 155.572 342.929 155.195C342.875 154.818 342.884 154.45 342.84 154.082C342.795 153.714 342.795 153.597 342.768 153.355C342.705 152.709 342.606 152.08 342.507 151.479C342.454 151.209 342.409 150.922 342.355 150.653C342.301 150.384 342.247 150.141 342.193 149.881C342.032 149.19 341.87 148.508 341.673 147.861C341.565 147.556 341.475 147.242 341.367 146.964C341.35 146.917 341.335 146.869 341.322 146.82C341.206 146.515 341.107 146.227 340.99 145.922C340.869 145.592 340.731 145.269 340.577 144.953C340.479 144.716 340.369 144.486 340.245 144.262C340.181 144.092 340.1 143.93 340.003 143.777C339.913 143.579 339.805 143.382 339.698 143.193L339.617 143.059C339.527 142.888 339.419 142.727 339.321 142.556C339.222 142.386 339.177 142.341 339.114 142.233C338.63 141.475 338.09 140.755 337.498 140.079C337.391 139.971 337.292 139.854 337.193 139.746C337.095 139.639 337.023 139.567 336.942 139.477L336.61 139.154C336.304 138.833 335.977 138.533 335.631 138.256C335.475 138.118 335.31 137.989 335.138 137.87C334.967 137.736 334.797 137.61 334.617 137.493C334.35 137.294 334.071 137.111 333.782 136.946L333.558 136.802H333.513L323.639 131.066L323.567 131.021C321.011 129.596 318.127 128.866 315.201 128.903C310.838 128.903 305.919 130.339 300.703 133.346C282.75 143.687 268.262 168.839 268.262 189.539C268.262 199.854 271.853 207.107 277.706 210.509H277.759L287.634 216.236H287.687L287.849 216.326C288.109 216.469 288.361 216.604 288.621 216.729C288.881 216.855 289.267 217.026 289.599 217.16C289.932 217.295 290.192 217.394 290.497 217.483C290.655 217.544 290.817 217.592 290.982 217.627C291.147 217.694 291.318 217.745 291.494 217.78L292.023 217.914C292.15 217.95 292.279 217.977 292.409 217.995L293.109 218.121H293.271L294.115 218.229C298.953 218.74 304.572 217.376 310.587 213.911C328.54 203.561 343.028 178.4 343.028 157.717C343.01 157.287 343.001 156.82 342.983 156.326ZM321.251 141.694C321.953 144.268 322.298 146.926 322.274 149.594C322.274 167.843 308.917 190.967 293.118 200.087C290.812 201.46 288.321 202.497 285.722 203.166C285.019 200.589 284.674 197.928 284.698 195.258C284.698 177.008 298.046 153.885 313.854 144.764C316.16 143.392 318.651 142.358 321.251 141.694Z" fill="#7FE389"/>
<path opacity="0.1" d="M287.167 216.012L277.652 210.501C271.817 207.089 268.209 199.827 268.209 189.531C268.209 180.303 271.099 170.196 275.884 160.905L285.758 166.641C280.964 175.923 278.074 186.039 278.074 195.267C278.11 205.357 281.512 212.511 287.167 216.012Z" fill="black"/>
<path opacity="0.4" d="M342.984 156.327C342.984 155.941 342.984 155.572 342.93 155.195C342.876 154.818 342.885 154.45 342.84 154.082C342.795 153.714 342.795 153.598 342.768 153.355C342.706 152.709 342.607 152.081 342.508 151.479C342.454 151.21 342.409 150.923 342.355 150.653C342.302 150.384 342.248 150.142 342.194 149.881C342.032 149.19 341.871 148.508 341.673 147.862C341.566 147.556 341.476 147.242 341.368 146.964C341.35 146.917 341.335 146.869 341.323 146.82C341.207 146.515 341.108 146.228 340.991 145.923C340.87 145.593 340.732 145.269 340.578 144.953C340.48 144.717 340.369 144.486 340.246 144.262C340.182 144.093 340.101 143.93 340.004 143.777C339.914 143.58 339.806 143.382 339.698 143.194L339.618 143.059C339.528 142.889 339.42 142.727 339.321 142.556C339.223 142.386 339.178 142.341 339.115 142.233C338.631 141.476 338.091 140.756 337.499 140.079C337.391 139.971 337.293 139.855 337.194 139.747C337.095 139.639 337.023 139.567 336.943 139.477L336.61 139.154C336.305 138.834 335.978 138.534 335.632 138.257C335.475 138.118 335.311 137.989 335.138 137.871C334.968 137.736 334.797 137.61 334.618 137.494C334.351 137.295 334.072 137.112 333.783 136.946C327.894 133.355 319.42 133.445 310.569 139.038C292.787 150.24 278.209 175.079 278.119 195.231C278.074 205.716 281.835 213.032 287.841 216.362C288.101 216.505 288.352 216.64 288.613 216.766C288.873 216.891 289.259 217.062 289.591 217.197C289.923 217.331 290.184 217.43 290.489 217.52C290.647 217.58 290.809 217.628 290.974 217.663C291.139 217.731 291.31 217.782 291.485 217.816L292.015 217.951C292.142 217.986 292.271 218.013 292.401 218.031L293.101 218.157H293.263L294.106 218.265C298.945 218.777 304.564 217.412 310.578 213.947C328.532 203.597 343.02 178.436 343.02 157.754C343.011 157.287 343.002 156.82 342.984 156.327ZM307.275 208.301C303.254 210.626 299.385 211.847 296.072 211.847C289.861 211.847 287.006 207.61 285.722 203.166C285.019 200.59 284.675 197.929 284.699 195.258C284.699 177.009 298.047 153.885 313.855 144.765C316.161 143.393 318.652 142.359 321.252 141.695C322.498 141.39 323.775 141.23 325.058 141.219C335.327 141.219 336.422 152.817 336.422 157.808C336.422 176.057 323.083 199.181 307.275 208.301Z" fill="white"/>
<path opacity="0.1" d="M336.421 157.808C336.421 176.049 323.082 199.181 307.274 208.302C303.252 210.627 299.383 211.847 296.08 211.847C294.636 211.905 293.198 211.634 291.875 211.054C290.551 210.474 289.377 209.6 288.441 208.499C288.279 208.311 288.127 208.113 287.974 207.916C287.822 207.718 287.678 207.512 287.552 207.296C287.451 207.149 287.358 206.996 287.274 206.838C287.211 206.74 287.148 206.641 287.095 206.542C287.041 206.443 286.969 206.291 286.897 206.165C286.825 206.04 286.78 205.932 286.727 205.815C286.673 205.698 286.61 205.582 286.556 205.456L286.287 204.81C286.179 204.54 286.08 204.271 285.99 203.993C285.901 203.715 285.802 203.445 285.73 203.167C288.33 202.498 290.82 201.461 293.127 200.088C308.926 190.968 322.283 167.844 322.283 149.595C322.306 146.927 321.962 144.269 321.259 141.695C322.505 141.39 323.783 141.231 325.065 141.22C325.566 141.221 326.067 141.251 326.565 141.309L327.031 141.381C335.46 142.782 336.421 153.159 336.421 157.808Z" fill="black"/>
<path opacity="0.7" d="M330.75 154.594C330.75 172.843 317.411 195.967 301.603 205.087C297.582 207.412 293.713 208.678 290.4 208.678C289.742 208.68 289.084 208.626 288.434 208.516C288.273 208.328 288.12 208.13 287.968 207.933C287.815 207.735 287.671 207.529 287.546 207.313C287.445 207.166 287.352 207.013 287.268 206.856C287.205 206.757 287.142 206.658 287.088 206.559C287.034 206.461 286.962 206.308 286.89 206.182C286.819 206.057 286.774 205.949 286.72 205.832C286.666 205.716 286.603 205.599 286.549 205.473L286.28 204.827C286.172 204.558 286.074 204.288 285.984 204.01C285.894 203.732 285.795 203.462 285.724 203.184C288.323 202.515 290.814 201.478 293.12 200.105C308.919 190.985 322.276 167.861 322.276 149.612C322.3 146.944 321.955 144.286 321.253 141.713C322.499 141.407 323.776 141.248 325.059 141.237C325.56 141.239 326.06 141.269 326.558 141.327L327.025 141.398C330.274 145.204 330.75 151.335 330.75 154.594Z" fill="white"/>
</svg>
