<svg fill="none" xmlns="http://www.w3.org/2000/svg" viewBox="0 0 402 325"><path d="M200.88 324.57c110.66 0 200.37-47.82 200.37-106.8 0-59-89.71-106.82-200.38-106.82C90.22 110.95.5 158.77.5 217.76c0 59 89.71 106.81 200.38 106.81Z" fill="#F0F4F9"/><path d="m120.24 277.5-63.89-37.15 108.06-62.44-44.17 99.59Z" fill="#E0E0E0"/><path d="m28.02 238.07 26.03 15.01a3.85 3.85 0 0 0 3.5 0l35.9-20.95a1.06 1.06 0 0 0 0-2L67.42 215.1a3.86 3.86 0 0 0-3.5 0l-35.9 20.96a1.06 1.06 0 0 0 0 2.01Z" fill="#E0E0E0"/><path d="M30.84 235.74c-1.8-2.89-7.33-6.07-14.6-7.64-7.27-1.57-14.58-3.49-12.91-7.73 1.8-4.56 8.56-4.78 15.18-2.07 7.22 2.96 12.57 10.29 12.66 14.9l-.33 2.54Z" fill="#7FE389"/><path opacity=".1" d="M30.84 235.74c-1.8-2.9-7.33-6.07-14.6-7.64-7.27-1.57-14.58-3.5-12.91-7.74 1.8-4.55 8.56-4.77 15.18-2.06 7.22 2.96 12.57 10.28 12.66 14.9l-.33 2.54Z" fill="#000"/><path d="M31.4 234.43a.54.54 0 0 1-.48-.31c-5.77-11.94-19.15-13.87-23.34-13.22a.55.55 0 0 1-.52-.86.53.53 0 0 1 .35-.21c4.44-.69 18.49 1.31 24.53 13.82a.55.55 0 0 1-.25.73.6.6 0 0 1-.28.05Z" fill="#fff"/><path d="M30.84 235.74s-3.47-13.76-12.28-21.16c-2.61-2.2-5.38-4.95-7.35-6.84-4.18-4.08-2.43-8.52 3.36-8.43 8.61.11 14.92 7.37 17.64 16.85 2.73 9.5-1.37 19.58-1.37 19.58Z" fill="#7FE389"/><path d="M32.22 230.4a.54.54 0 0 1-.55-.5c-1.62-17.5-14.98-26.3-18.61-27.23a.54.54 0 0 1-.4-.66.54.54 0 0 1 .67-.39c4.41 1.13 17.76 10.26 19.42 28.19a.55.55 0 0 1-.49.59h-.04Z" fill="#fff"/><path d="M54.93 250.88 30.41 236.7l-.01-52.6 24.53 14.16v52.6Z" fill="#263238"/><path d="m54.93 198.27 35.05-20.23v52.6l-35.05 20.24v-52.6Z" fill="#37474F"/><path d="m89.98 178.04-35.05 20.23-24.53-14.16 35.05-20.24 24.53 14.17Z" fill="#455A64"/><path d="m70.08 197.63 4.76-2.76c.62-.36 1.13-.2 1.13.37a2.23 2.23 0 0 1-1.13 1.65l-4.76 2.76c-.62.36-1.13.2-1.13-.37a2.23 2.23 0 0 1 1.13-1.65ZM57.8 224.95l28.03-16.18.65.36-.65 19.12.65.37-28.04 16.19-.64-.38v-19.48Z" fill="#263238"/><path d="m58.44 225.32 28.04-16.19v19.5L58.44 244.8v-19.49Z" fill="#455A64"/><path d="m69.43 222.28 4.77-2.75c.62-.36 1.12-.2 1.12.36a2.23 2.23 0 0 1-1.12 1.66l-4.77 2.75c-.62.36-1.12.2-1.12-.36a2.25 2.25 0 0 1 1.12-1.66ZM57.8 200.71l28.03-16.18.65.37-.65 19.1.65.39-28.04 16.18-.64-.38v-19.48Z" fill="#263238"/><path d="m58.44 201.08 28.04-16.18v19.49l-28.04 16.18v-19.49Z" fill="#455A64"/><path d="m69.43 198.04 4.77-2.75c.62-.36 1.12-.2 1.12.36a2.23 2.23 0 0 1-1.12 1.66l-4.77 2.76c-.62.36-1.12.19-1.12-.37a2.25 2.25 0 0 1 1.12-1.66ZM54.93 196.04l-24.52-14.16-.01-52.62 24.53 14.17v52.61Z" fill="#263238"/><path d="m54.93 143.43 35.05-20.24v52.62l-35.05 20.23v-52.61Z" fill="#37474F"/><path d="m89.98 123.2-35.05 20.23-24.53-14.17 35.05-20.23 24.53 14.16Z" fill="#455A64"/><path d="m58.44 145.45 28.04-16.19.64.38v19.48l-28.03 16.2-.65-.38v-19.5Z" fill="#263238"/><path d="m70.08 142.78 4.76-2.75c.62-.36 1.13-.2 1.13.36a2.26 2.26 0 0 1-1.13 1.66l-4.76 2.75c-.62.36-1.13.2-1.13-.36a2.23 2.23 0 0 1 1.13-1.66ZM57.8 170.1l28.03-16.18v19.49l.65.37-28.04 16.18-.64-.37V170.1Z" fill="#263238"/><path d="m58.44 170.48 28.04-16.19v19.49l-28.04 16.18v-19.48Z" fill="#455A64"/><path d="m69.43 167.44 4.77-2.75c.62-.36 1.12-.2 1.12.36a2.22 2.22 0 0 1-1.12 1.65l-4.77 2.76c-.62.36-1.12.2-1.12-.37a2.23 2.23 0 0 1 1.12-1.65ZM58.44 145.45l28.04-16.19v19.5l-28.04 16.18v-19.5Z" fill="#263238"/><path d="m100.5 138.89-15.35-8.85v17.16l15.35 8.86v-17.17Z" fill="#263238"/><path d="M68.95 167.71v-24.28l6.02-3.48 1 1.46 17.52-10.13v22.27L68.95 167.7Z" fill="#7FE389"/><path opacity=".2" d="M68.95 167.71v-24.28l6.02-3.48 1 1.46 17.52-10.13v22.27L68.95 167.7Z" fill="#000"/><path d="m68.95 167.71 1.75-21.25 24.54-14.16-1.75 21.24-24.54 14.17Z" fill="#7FE389"/><path d="m72.45 155.08-13.37-7.72v17.16l13.37 7.72v-17.16Z" fill="#37474F"/><path d="m72.46 153.55 28.04-16.19v19.48l-28.04 16.2v-19.5Z" fill="#455A64"/><path d="m83.45 150.5 4.77-2.75c.62-.36 1.12-.2 1.12.36a2.26 2.26 0 0 1-1.12 1.66l-4.77 2.75c-.62.36-1.12.2-1.12-.36a2.26 2.26 0 0 1 1.12-1.66ZM72.46 153.54l-.94-.53v19.49l.94.53v-19.49Z" fill="#263238"/><path d="m71.52 153 28.04-16.18.94.54-28.04 16.18-.94-.53Z" fill="#37474F"/><path d="M306.64 13.03 303 10.91 117.01 118.28v155.5a2.75 2.75 0 0 0 1.14 2.5l3.64 2.13a2.75 2.75 0 0 0 2.76-.27l178.18-102.9a8.6 8.6 0 0 0 3.89-6.73l.02-155.48Z" fill="#E6E6E6"/><path d="M120.66 275.9c0 2.47 1.73 3.48 3.89 2.24l178.18-102.9a8.6 8.6 0 0 0 3.89-6.73V13.03L120.66 120.4v155.5Z" fill="#FAFAFA"/><path d="M305.75 14.56v153.97a7.74 7.74 0 0 1-3.44 5.96L124.12 277.36a2.7 2.7 0 0 1-1.29.41c-1.13 0-1.25-1.31-1.25-1.88V120.91L305.75 14.56Zm.9-1.55-186 107.4v155.48c0 1.8.9 2.78 2.15 2.78a3.6 3.6 0 0 0 1.75-.53l178.18-102.9a8.6 8.6 0 0 0 3.89-6.73V13.03l.02-.02Z" fill="#E0E0E0"/><path d="M120.66 120.4v16.83L306.62 29.86V13.03L120.66 120.4Z" fill="#7FE389"/><path d="M237.34 59.63v3.6c0 .73.53 1.03 1.16.66l57.18-33.01V24.6L238.5 57.65a2.6 2.6 0 0 0-1.16 1.98Z" fill="#FAFAFA"/><path d="M301.8 21.07c.65-.38 1.17-.07 1.17.67v3.6a2.58 2.58 0 0 1-1.16 2.01l-6.13 3.54V24.6l6.13-3.53Z" fill="#455A64"/><path d="m301.36 26.03-.7-.21c.08-.3.12-.6.12-.9a1.6 1.6 0 0 0-.63-1.46.97.97 0 0 0-1 0 3.49 3.49 0 0 0-1.35 2.85 1.58 1.58 0 0 0 .62 1.45.8.8 0 0 0 .43.12c.2 0 .4-.06.56-.16.52-.36.91-.88 1.1-1.48l.7.21h.05a.25.25 0 0 0 .24-.17c0-.05 0-.1-.03-.14a.26.26 0 0 0-.11-.1Zm-2.2 1.31a.46.46 0 0 1-.49.05 1.16 1.16 0 0 1-.36-1.02 3.05 3.05 0 0 1 1.1-2.4c.1-.06.2-.1.31-.1.07 0 .13.02.18.05a1.19 1.19 0 0 1 .37 1.02 3.05 3.05 0 0 1-1.11 2.4Z" fill="#FAFAFA"/><path d="M301.87.28a2.7 2.7 0 0 0-2.78.25L120.9 103.43a8.58 8.58 0 0 0-3.89 6.73v8.14l3.65 2.13 185.99-107.4V4.9a2.7 2.7 0 0 0-1.13-2.5c-.67-.4-3.01-1.73-3.65-2.11Z" fill="#263238"/><path d="M120.66 112.26a8.56 8.56 0 0 1 3.89-6.73L302.73 2.65c2.15-1.24 3.89-.24 3.89 2.24v8.14L120.66 120.4v-8.14Z" fill="#37474F"/><path d="M305.53 2.4a2.7 2.7 0 0 0-2.8.25L124.55 105.52a7.93 7.93 0 0 0-2.75 2.9l-3.66-2.11a7.97 7.97 0 0 1 2.75-2.9L299.1.51a2.69 2.69 0 0 1 2.78-.24c.64.38 2.97 1.72 3.59 2.1l.07.03Z" fill="#455A64"/><path d="M284.74 17.25a4.03 4.03 0 0 0-1.8 3.16c0 1.16.82 1.64 1.8 1.05a4.03 4.03 0 0 0 1.8-3.16c.03-1.17-.8-1.65-1.8-1.05ZM291.12 13.56a4 4 0 0 0-1.8 3.15c0 1.17.83 1.64 1.8 1.06a4.05 4.05 0 0 0 1.8-3.16c.03-1.16-.79-1.63-1.8-1.05ZM297.5 9.88a4.04 4.04 0 0 0-1.8 3.16c0 1.17.82 1.64 1.8 1.05a4 4 0 0 0 1.8-3.16c.03-1.15-.79-1.63-1.8-1.05Z" fill="#7FE389"/><path d="m124.55 278.14 32.57-18.8V116.17l-36.46 21.05V275.9c0 2.48 1.73 3.48 3.89 2.25Z" fill="#F5F5F5"/><path d="M156.22 117.73V258.8l-32.12 18.55a2.7 2.7 0 0 1-1.3.41c-1.13 0-1.24-1.31-1.24-1.88V137.75l34.66-20.02Zm.9-1.56-36.46 21.06V275.9c0 1.8.9 2.78 2.14 2.78a3.6 3.6 0 0 0 1.75-.53l32.57-18.8V116.17Z" fill="#E0E0E0"/><path d="m132.76 138.66 17.45-10.1c.64-.38 1.16-.07 1.16.68v1.51a2.6 2.6 0 0 1-1.16 2.02l-17.45 10.08c-.65.38-1.17.07-1.17-.67v-1.5a2.6 2.6 0 0 1 1.17-2.02Z" fill="#E0E0E0"/><path d="M127.95 142.8v1.5a2.59 2.59 0 0 1-1.17 2.03l-1.3.75c-.66.38-1.18.07-1.18-.67v-1.52a2.58 2.58 0 0 1 1.17-2.02l1.31-.75c.65-.38 1.17-.1 1.17.67Z" fill="#7FE389"/><path d="m132.76 147.05 17.45-10.08c.64-.37 1.16-.07 1.16.67v1.52a2.62 2.62 0 0 1-1.16 2.02l-17.45 10.08c-.65.37-1.17.08-1.17-.67v-1.52a2.59 2.59 0 0 1 1.17-2.02Z" fill="#E0E0E0"/><path d="M127.95 151.17v1.52a2.57 2.57 0 0 1-1.17 2.02l-1.3.76c-.66.37-1.18.08-1.18-.67v-1.52a2.56 2.56 0 0 1 1.17-2.02l1.31-.76c.65-.4 1.17-.07 1.17.67Z" fill="#7FE389"/><path d="m132.76 155.44 17.45-10.08c.64-.37 1.16-.07 1.16.67v1.52a2.58 2.58 0 0 1-1.16 2.02l-17.45 10.08c-.65.38-1.17.07-1.17-.66v-1.53a2.62 2.62 0 0 1 1.17-2.02Z" fill="#E0E0E0"/><path d="M127.95 159.57v1.51a2.56 2.56 0 0 1-1.17 2.02l-1.3.77c-.66.37-1.18.06-1.18-.68v-1.52a2.59 2.59 0 0 1 1.17-2.02l1.31-.76c.65-.36 1.17-.07 1.17.68Z" fill="#7FE389"/><path d="m132.76 183.27 17.45-10.1c.64-.36 1.16-.07 1.16.68v1.52a2.58 2.58 0 0 1-1.16 2.02l-17.45 10.09c-.65.36-1.17.07-1.17-.68v-1.52a2.59 2.59 0 0 1 1.17-2.01Z" fill="#E0E0E0"/><path d="M127.95 187.39v1.51a2.56 2.56 0 0 1-1.17 2.02l-1.3.77c-.66.36-1.18.07-1.18-.68v-1.51a2.56 2.56 0 0 1 1.17-2.02l1.31-.77c.65-.37 1.17-.07 1.17.68Z" fill="#7FE389"/><path d="m132.76 190.69 17.45-10.06c.64-.37 1.16-.08 1.16.67v1.52a2.58 2.58 0 0 1-1.16 2.02l-17.45 10.06c-.65.38-1.17.07-1.17-.68v-1.51a2.62 2.62 0 0 1 1.17-2.02Z" fill="#E0E0E0"/><path d="M127.95 194.82v1.52a2.56 2.56 0 0 1-1.17 2.02l-1.3.75c-.66.38-1.18.07-1.18-.67v-1.52a2.59 2.59 0 0 1 1.17-2.02l1.31-.75c.65-.37 1.17-.06 1.17.67Z" fill="#7FE389"/><path d="m132.76 198.12 17.45-10.08c.64-.38 1.16-.07 1.16.67v1.52a2.6 2.6 0 0 1-1.16 2.02l-17.45 10.08c-.65.38-1.17.07-1.17-.67v-1.52a2.6 2.6 0 0 1 1.17-2.02Z" fill="#E0E0E0"/><path d="M127.95 202.25v1.52a2.59 2.59 0 0 1-1.17 2.02l-1.3.75c-.66.38-1.18.07-1.18-.67v-1.52a2.57 2.57 0 0 1 1.17-2.02l1.31-.75c.65-.38 1.17-.07 1.17.67ZM131.6 164.6v2.62l2.26-2.62h-2.27Z" fill="#7FE389"/><path d="M135.25 164.06c0 .49.34.68.77.43l14.58-8.39a1.7 1.7 0 0 0 .77-1.34c0-.5-.34-.7-.77-.44l-14.58 8.4a1.7 1.7 0 0 0-.77 1.34Z" fill="#E0E0E0"/><path d="M131.6 168.8v2.63l2.26-2.63h-2.27Z" fill="#7FE389"/><path d="M135.25 168.27c0 .48.34.68.77.43l14.58-8.4a1.7 1.7 0 0 0 .77-1.33c0-.5-.34-.7-.77-.44l-14.58 8.4a1.7 1.7 0 0 0-.77 1.34Z" fill="#E0E0E0"/><path d="M131.6 173.01v2.63l2.26-2.63h-2.27Z" fill="#7FE389"/><path d="M135.25 172.48c0 .48.34.68.77.43l14.58-8.4a1.69 1.69 0 0 0 .77-1.33c0-.5-.34-.7-.77-.44l-14.58 8.4a1.7 1.7 0 0 0-.77 1.34Z" fill="#E0E0E0"/><path d="M131.6 177.22v2.63l2.26-2.63h-2.27Z" fill="#7FE389"/><path d="M135.25 176.69c0 .48.34.68.77.43l14.58-8.4a1.69 1.69 0 0 0 .77-1.33c0-.5-.34-.7-.77-.44l-14.58 8.4a1.7 1.7 0 0 0-.77 1.34Z" fill="#E0E0E0"/><path d="M168.06 121.2v21.93c0 .9.64 1.3 1.44.84l24.12-13.94a3.16 3.16 0 0 0 1.45-2.5V109.5c0-.9-.65-1.29-1.45-.83l-14 8.08c-.8.46-1.44.09-1.44-.83v-.57c0-.9-.64-1.3-1.43-.84l-7.25 4.18a3.2 3.2 0 0 0-1.44 2.5Z" fill="#7FE389"/><path d="M172.8 147.27v1.4c0 .7.49.97 1.08.63l18.1-10.45a2.38 2.38 0 0 0 1.08-1.87v-1.4c0-.69-.49-.97-1.08-.63l-18.1 10.45a2.37 2.37 0 0 0-1.07 1.87Z" fill="#E0E0E0"/><path d="M201.62 101.94v21.94c0 .9.64 1.28 1.43.82l24.12-13.92a3.2 3.2 0 0 0 1.45-2.5V90.24c0-.9-.65-1.3-1.45-.83l-13.99 8.07c-.8.46-1.44.09-1.44-.83v-.57c0-.9-.64-1.29-1.44-.83l-7.25 4.18a3.2 3.2 0 0 0-1.43 2.5Z" fill="#7FE389"/><path d="M206.34 128.01v1.45c0 .7.48.97 1.08.63l18.1-10.5a2.41 2.41 0 0 0 1.07-1.88v-1.4c0-.7-.48-.97-1.08-.62l-18.1 10.45a2.4 2.4 0 0 0-1.07 1.87Z" fill="#E0E0E0"/><path d="M168.06 165.27v21.94c0 .9.64 1.29 1.44.83l24.12-13.93a3.19 3.19 0 0 0 1.45-2.46v-18.04c0-.9-.65-1.29-1.45-.83l-14 8.08c-.8.46-1.44.1-1.44-.83v-.57c0-.9-.64-1.3-1.43-.83l-7.25 4.18a3.19 3.19 0 0 0-1.44 2.46Z" fill="#7FE389"/><path d="M172.8 191.34v1.41c0 .69.49.97 1.08.62l18.1-10.44a2.4 2.4 0 0 0 1.08-1.87v-1.41c0-.68-.49-.96-1.08-.62l-18.1 10.45a2.37 2.37 0 0 0-1.07 1.87Z" fill="#E0E0E0"/><path d="M201.62 146v21.94c0 .9.64 1.3 1.43.84l24.12-13.93a3.17 3.17 0 0 0 1.45-2.49v-18.04c0-.9-.65-1.3-1.45-.84l-13.99 8.08c-.8.46-1.44.08-1.44-.83v-.58c0-.9-.64-1.3-1.44-.82l-7.25 4.18a3.18 3.18 0 0 0-1.43 2.5Z" fill="#7FE389"/><path d="M206.34 172.1v1.4c0 .68.48.96 1.08.61l18.1-10.44a2.41 2.41 0 0 0 1.07-1.88v-1.4c0-.69-.48-.96-1.08-.62l-18.1 10.44a2.4 2.4 0 0 0-1.07 1.88Z" fill="#E0E0E0"/><path d="M235.53 81.61v21.94c0 .9.65 1.3 1.44.84l24.13-13.93a3.2 3.2 0 0 0 1.44-2.5V69.93c0-.9-.65-1.3-1.44-.84l-14 8.08c-.8.47-1.44.09-1.44-.83v-.57c0-.9-.65-1.3-1.45-.83l-7.24 4.19a3.17 3.17 0 0 0-1.44 2.48Z" fill="#7FE389"/><path d="M239.88 108.75v1.41c0 .68.48.96 1.08.62l18.11-10.45a2.37 2.37 0 0 0 1.09-1.87v-1.4c0-.69-.49-.97-1.09-.62l-18.09 10.44a2.37 2.37 0 0 0-1.1 1.87Z" fill="#E0E0E0"/><path d="M268.68 63.42v21.94c0 .9.64 1.28 1.44.82l24.12-13.92a3.19 3.19 0 0 0 1.44-2.5V51.72c0-.9-.64-1.3-1.44-.83l-14 8.08c-.8.45-1.44.08-1.44-.84v-.57c0-.9-.64-1.29-1.44-.83l-7.24 4.18a3.17 3.17 0 0 0-1.44 2.5Z" fill="#7FE389"/><path d="M273.43 89.5v1.36c0 .7.48.97 1.08.63l18.1-10.45a2.4 2.4 0 0 0 1.07-1.87v-1.4c0-.7-.48-.98-1.07-.63l-18.1 10.44a2.39 2.39 0 0 0-1.08 1.92ZM239.88 152.8v1.4c0 .7.48.97 1.08.63l18.11-10.44a2.38 2.38 0 0 0 1.09-1.87v-1.39c0-.68-.49-.96-1.09-.62l-18.09 10.45a2.36 2.36 0 0 0-1.1 1.84Z" fill="#E0E0E0"/><path d="m240.34 121.97 18.73-10.83c.85-.5 1.55-.1 1.55.9v21.67a3.44 3.44 0 0 1-1.55 2.69l-18.73 10.83c-.9.5-1.56.1-1.56-.9v-21.66a3.45 3.45 0 0 1 1.56-2.7Z" fill="#FAFAFA"/><path d="M239.64 147.9c-.22 0-.44-.06-.63-.16a1.52 1.52 0 0 1-.67-1.4v-21.67a3.87 3.87 0 0 1 1.79-3.08l18.77-10.84a1.51 1.51 0 0 1 1.54-.1 1.52 1.52 0 0 1 .69 1.39v21.67a3.87 3.87 0 0 1-1.8 3.07l-18.77 10.85c-.28.17-.6.26-.92.27Zm20.16-36.52a.9.9 0 0 0-.47.15l-18.77 10.84a2.95 2.95 0 0 0-1.33 2.3v21.67c0 .31.08.53.23.62a.71.71 0 0 0 .65-.11L258.88 136a2.99 2.99 0 0 0 1.33-2.3v-21.67a.7.7 0 0 0-.23-.62.37.37 0 0 0-.18-.04Z" fill="#EBEBEB"/><path d="m261.31 114.06-4.18 2.42a3.44 3.44 0 0 0-1.56 2.7V124c0 1 .7 1.4 1.56.9l4.18-2.42a3.44 3.44 0 0 0 1.56-2.69v-4.83c0-.98-.7-1.39-1.56-.9Z" fill="#7FE389"/><path d="m241.76 124.32 9.41-5.39c.42-.24.77-.04.77.46v.3a1.73 1.73 0 0 1-.77 1.34l-9.4 5.39c-.44.25-.79.05-.78-.45v-.3a1.72 1.72 0 0 1 .77-1.35ZM241.76 128.56l9.41-5.38c.42-.26.77-.05.77.44v.3a1.7 1.7 0 0 1-.77 1.35l-9.4 5.38c-.44.25-.79 0-.78-.44v-.32a1.71 1.71 0 0 1 .77-1.33ZM241.76 132.73l9.41-5.39c.42-.24.77-.04.77.45v.3a1.73 1.73 0 0 1-.77 1.35l-9.4 5.39c-.44.25-.79.05-.78-.45v-.3a1.7 1.7 0 0 1 .77-1.35ZM241.76 136.93l15.62-8.98c.43-.24.78 0 .78.45v.3a1.72 1.72 0 0 1-.78 1.35l-15.62 8.98c-.43.24-.78.04-.77-.45v-.31a1.71 1.71 0 0 1 .77-1.34ZM241.76 141.13l15.62-8.98c.43-.25.78 0 .78.45v.3a1.72 1.72 0 0 1-.78 1.34l-15.62 8.98c-.43.25-.78.05-.77-.45v-.3a1.69 1.69 0 0 1 .77-1.34Z" fill="#EBEBEB"/><path d="M272.7 133.87v1.4c0 .69.48.97 1.07.63l18.1-10.45a2.4 2.4 0 0 0 1.08-1.88v-1.4c0-.69-.48-.97-1.08-.63L273.77 132a2.41 2.41 0 0 0-1.07 1.88Z" fill="#E0E0E0"/><path d="m273.15 103.03 18.77-10.83c.9-.5 1.56-.1 1.56.9v21.67a3.46 3.46 0 0 1-1.56 2.69l-18.77 10.83c-.9.5-1.56.1-1.56-.9v-21.66a3.41 3.41 0 0 1 1.56-2.7Z" fill="#FAFAFA"/><path d="M272.45 128.95c-.22 0-.43-.06-.63-.16a1.53 1.53 0 0 1-.68-1.4v-21.67a3.89 3.89 0 0 1 1.8-3.08L291.7 91.8a1.4 1.4 0 0 1 2.24 1.3v21.67a3.88 3.88 0 0 1-1.8 3.07l-18.76 10.84c-.28.17-.6.26-.93.27Zm.9-25.53a3 3 0 0 0-1.34 2.3v21.67a.7.7 0 0 0 .24.62.7.7 0 0 0 .65-.11l18.76-10.84a2.97 2.97 0 0 0 1.34-2.3V93.1a.52.52 0 0 0-.59-.71.52.52 0 0 0-.3.2l-18.76 10.83Z" fill="#EBEBEB"/><path d="m294.12 95.13-4.18 2.41a3.44 3.44 0 0 0-1.55 2.7v4.82c0 .99.7 1.4 1.55.9l4.18-2.41a3.46 3.46 0 0 0 1.56-2.7v-4.83c0-1-.7-1.4-1.56-.9Z" fill="#7FE389"/><path d="m274.58 105.37 9.4-5.39c.43-.25.78 0 .78.45v.3a1.69 1.69 0 0 1-.78 1.35l-9.4 5.39c-.43.25-.78.04-.78-.45v-.32a1.72 1.72 0 0 1 .78-1.33ZM274.58 109.58l9.4-5.39c.43-.24.78 0 .78.45v.3a1.7 1.7 0 0 1-.78 1.35l-9.4 5.39c-.43.25-.78.05-.78-.45v-.3a1.72 1.72 0 0 1 .78-1.35ZM274.58 113.78l9.4-5.39c.43-.25.78 0 .78.45v.3a1.7 1.7 0 0 1-.78 1.34l-9.4 5.39c-.43.24-.78.04-.78-.45v-.32a1.71 1.71 0 0 1 .78-1.32ZM274.58 117.99 290.2 109c.43-.25.78-.04.78.45v.25a1.71 1.71 0 0 1-.78 1.35l-15.62 8.97c-.43.26-.78.05-.78-.44v-.3a1.68 1.68 0 0 1 .78-1.3ZM274.58 122.19l15.62-8.98c.43-.24.78-.04.78.45v.3a1.71 1.71 0 0 1-.78 1.35l-15.62 8.98c-.43.24-.78.04-.78-.45v-.31a1.72 1.72 0 0 1 .78-1.34Z" fill="#EBEBEB"/><path d="M239.88 197.53v1.4c0 .69.48.97 1.08.63l18.11-10.45a2.37 2.37 0 0 0 1.09-1.87v-1.4c0-.69-.49-.97-1.09-.63l-18.09 10.45a2.37 2.37 0 0 0-1.1 1.87Z" fill="#E0E0E0"/><path d="m240.34 166.7 18.73-10.84c.85-.5 1.55-.09 1.55.9v21.67a3.46 3.46 0 0 1-1.55 2.7l-18.77 10.83c-.9.49-1.55.1-1.55-.9v-21.67a3.43 3.43 0 0 1 1.59-2.7Z" fill="#FAFAFA"/><path d="M239.63 192.62c-.22 0-.43-.05-.62-.16a1.55 1.55 0 0 1-.68-1.4v-21.67a3.87 3.87 0 0 1 1.8-3.08l18.75-10.82a1.4 1.4 0 0 1 2.23 1.29v21.66a3.86 3.86 0 0 1-1.8 3.08l-18.77 10.84c-.27.16-.58.25-.9.26Zm20.17-36.53a.98.98 0 0 0-.47.16l-18.77 10.84a2.96 2.96 0 0 0-1.33 2.3v21.67a.52.52 0 0 0 .22.65.53.53 0 0 0 .68-.14l18.77-10.83a3.02 3.02 0 0 0 1.33-2.31v-21.67a.72.72 0 0 0-.24-.62.37.37 0 0 0-.2-.05Z" fill="#EBEBEB"/><path d="m261.31 158.79-4.18 2.41a3.44 3.44 0 0 0-1.56 2.7v4.82c0 1 .7 1.4 1.56.9l4.18-2.41a3.45 3.45 0 0 0 1.56-2.7v-4.83c0-.98-.7-1.39-1.56-.9Z" fill="#7FE389"/><path d="m241.76 169.04 9.41-5.39c.42-.24.77-.04.77.45v.3a1.73 1.73 0 0 1-.77 1.35l-9.4 5.39c-.44.25-.79.05-.78-.45v-.3a1.7 1.7 0 0 1 .77-1.35ZM241.76 173.24l9.41-5.39c.42-.25.77-.04.77.45v.3a1.72 1.72 0 0 1-.77 1.34l-9.4 5.39c-.44.24-.79.04-.78-.45v-.31a1.71 1.71 0 0 1 .77-1.33ZM241.76 177.45l9.41-5.39c.42-.24.77-.04.77.45v.3a1.73 1.73 0 0 1-.77 1.35l-9.4 5.39c-.44.25-.79.04-.78-.45v-.27a1.68 1.68 0 0 1 .77-1.38ZM241.76 181.65l15.62-8.98c.43-.24.78-.04.78.45v.32a1.72 1.72 0 0 1-.78 1.35l-15.62 8.98c-.43.24-.78.04-.77-.45V183a1.7 1.7 0 0 1 .77-1.36ZM241.76 185.86l15.62-8.98c.43-.25.78-.05.78.45v.3a1.71 1.71 0 0 1-.78 1.34l-15.62 8.98c-.43.25-.78.05-.77-.45v-.3a1.69 1.69 0 0 1 .77-1.34Z" fill="#EBEBEB"/><path d="M272.7 178.58v1.4c0 .7.48.98 1.07.63l18.1-10.44a2.4 2.4 0 0 0 1.08-1.88v-1.4c0-.69-.48-.97-1.08-.63l-18.1 10.45a2.4 2.4 0 0 0-1.07 1.87Z" fill="#E0E0E0"/><path d="m273.15 147.75 18.77-10.83c.9-.5 1.56-.1 1.56.9v21.66a3.44 3.44 0 0 1-1.56 2.69l-18.77 10.84c-.9.5-1.56.1-1.56-.9v-21.66a3.41 3.41 0 0 1 1.56-2.7Z" fill="#FAFAFA"/><path d="M272.45 173.67c-.22 0-.43-.05-.63-.16a1.53 1.53 0 0 1-.68-1.4v-21.66a3.87 3.87 0 0 1 1.8-3.09l18.76-10.84a1.4 1.4 0 0 1 1.55-.1 1.4 1.4 0 0 1 .69 1.4v21.66a3.88 3.88 0 0 1-1.8 3.09l-18.76 10.88c-.29.15-.6.23-.93.22Zm.9-25.53a2.99 2.99 0 0 0-1.34 2.3v21.68a.68.68 0 0 0 .24.6.69.69 0 0 0 .65-.1l18.79-10.84a2.97 2.97 0 0 0 1.34-2.31v-21.65a.52.52 0 0 0-.9-.51l-18.78 10.83Z" fill="#EBEBEB"/><path d="m294.12 139.84-4.18 2.42a3.44 3.44 0 0 0-1.55 2.7v4.82c0 .99.7 1.4 1.55.9l4.18-2.42a3.46 3.46 0 0 0 1.56-2.69v-4.83c0-1-.7-1.4-1.56-.9Z" fill="#7FE389"/><path d="m274.58 150.1 9.4-5.38c.43-.25.78-.04.78.45v.3a1.7 1.7 0 0 1-.78 1.34l-9.4 5.39c-.43.24-.78 0-.78-.45v-.31a1.72 1.72 0 0 1 .78-1.33ZM274.58 154.3l9.4-5.39c.43-.24.78 0 .78.45v.3a1.71 1.71 0 0 1-.78 1.35l-9.4 5.39c-.43.25-.78.04-.78-.45v-.3a1.7 1.7 0 0 1 .78-1.35ZM274.58 158.5l9.4-5.39c.43-.25.78-.05.78.45v.3a1.71 1.71 0 0 1-.78 1.34l-9.4 5.39c-.43.24-.78.04-.78-.45v-.31a1.72 1.72 0 0 1 .78-1.33ZM274.58 162.67l15.62-8.97c.43-.25.78-.06.78.45v.3a1.71 1.71 0 0 1-.78 1.34l-15.62 8.97c-.43.26-.78.05-.78-.44v-.3a1.7 1.7 0 0 1 .78-1.35ZM274.58 166.91l15.62-8.97c.43-.26.78-.05.78.44v.3a1.7 1.7 0 0 1-.78 1.35L274.58 169c-.43.25-.78.05-.78-.45v-.31a1.71 1.71 0 0 1 .78-1.33Z" fill="#EBEBEB"/><path d="M172.8 236.28v1.4c0 .7.49.97 1.1.63l18.08-10.45a2.38 2.38 0 0 0 1.09-1.87v-1.38c0-.69-.49-.97-1.1-.62l-18.08 10.44a2.4 2.4 0 0 0-1.08 1.85Z" fill="#E0E0E0"/><path d="m173.26 205.45 18.77-10.84c.9-.5 1.56-.1 1.56.9v21.67a3.46 3.46 0 0 1-1.56 2.7l-18.77 10.83c-.9.5-1.55.09-1.55-.9v-21.67a3.42 3.42 0 0 1 1.55-2.7Z" fill="#FAFAFA"/><path d="M172.56 231.36c-.22 0-.43-.05-.63-.16a1.53 1.53 0 0 1-.67-1.4v-21.66a3.9 3.9 0 0 1 1.8-3.08l18.77-10.83a1.39 1.39 0 0 1 2.22 1.28v21.67a3.88 3.88 0 0 1-1.8 3.08l-18.76 10.83c-.28.17-.6.26-.93.27Zm.7-25.91.23.38a2.99 2.99 0 0 0-1.33 2.3v21.68a.52.52 0 0 0 .59.7c.12-.02.23-.09.3-.19l18.78-10.84a3 3 0 0 0 1.32-2.3V195.5a.52.52 0 0 0-.58-.71.52.52 0 0 0-.31.2l-18.77 10.83-.23-.38Z" fill="#EBEBEB"/><path d="m194.24 197.54-4.18 2.41a3.43 3.43 0 0 0-1.56 2.7v4.83c0 .98.7 1.39 1.56.9l4.18-2.42a3.45 3.45 0 0 0 1.55-2.7v-4.82c0-1-.7-1.4-1.55-.9Z" fill="#7FE389"/><path d="m174.69 207.79 9.4-5.39c.43-.25.78-.04.78.45v.3a1.72 1.72 0 0 1-.77 1.34l-9.41 5.39c-.43.25-.77 0-.77-.45v-.3a1.7 1.7 0 0 1 .77-1.34ZM174.69 212l9.4-5.4c.43-.24.78-.04.78.46v.3a1.74 1.74 0 0 1-.77 1.35l-9.41 5.38c-.43.24-.77 0-.77-.45v-.31a1.72 1.72 0 0 1 .77-1.34ZM174.69 216.2l9.4-5.38c.43-.26.78-.05.78.44v.3a1.72 1.72 0 0 1-.77 1.35l-9.41 5.42c-.43.25-.77 0-.77-.45v-.31a1.7 1.7 0 0 1 .77-1.37ZM174.69 220.4l15.62-8.98c.43-.25.78 0 .78.45v.3a1.7 1.7 0 0 1-.78 1.35l-15.62 8.97c-.43.25-.77.06-.77-.45v-.3a1.71 1.71 0 0 1 .77-1.34ZM174.69 224.61l15.62-8.98c.43-.24.78 0 .78.45v.3a1.72 1.72 0 0 1-.78 1.35l-15.62 8.98c-.43.24-.77.05-.77-.45v-.31a1.72 1.72 0 0 1 .77-1.34Z" fill="#EBEBEB"/><path d="M205.62 217.33v1.41c0 .68.49.97 1.08.62l18.1-10.45a2.35 2.35 0 0 0 1.07-1.86v-1.4c0-.7-.47-.97-1.07-.63l-18.1 10.45a2.39 2.39 0 0 0-1.08 1.86Z" fill="#E0E0E0"/><path d="m206.1 186.5 18.77-10.84c.9-.5 1.56-.09 1.56.9v21.67a3.44 3.44 0 0 1-1.56 2.7l-18.76 10.83c-.9.5-1.56.1-1.56-.9v-21.67a3.45 3.45 0 0 1 1.56-2.7Z" fill="#FAFAFA"/><path d="M205.38 212.42c-.22 0-.44-.05-.63-.16a1.55 1.55 0 0 1-.68-1.4v-21.67a3.88 3.88 0 0 1 1.8-3.08l18.75-10.87a1.39 1.39 0 0 1 2.23 1.28v21.67a3.85 3.85 0 0 1-1.8 3.08l-18.75 10.85c-.28.18-.6.28-.92.3Zm20.16-36.52a.9.9 0 0 0-.47.16L206.3 186.9a2.97 2.97 0 0 0-1.34 2.3v21.67a.7.7 0 0 0 .23.62.7.7 0 0 0 .66-.11l18.76-10.84a3 3 0 0 0 1.34-2.3v-21.69a.71.71 0 0 0-.24-.62.41.41 0 0 0-.18-.04Z" fill="#EBEBEB"/><path d="m227.05 178.59-4.18 2.41a3.47 3.47 0 0 0-1.56 2.7v4.83c0 1 .7 1.4 1.56.9l4.18-2.42a3.44 3.44 0 0 0 1.56-2.7v-4.82c0-1-.7-1.4-1.56-.9Z" fill="#7FE389"/><path d="m207.5 188.84 9.4-5.38c.44-.25.79-.05.79.45v.3a1.7 1.7 0 0 1-.78 1.35l-9.4 5.39c-.43.24-.78.05-.78-.46v-.3a1.71 1.71 0 0 1 .78-1.35ZM207.5 193.05l9.4-5.39c.44-.25.79-.04.79.45v.3a1.69 1.69 0 0 1-.78 1.35l-9.4 5.38c-.43.25-.78.05-.78-.45v-.31a1.69 1.69 0 0 1 .78-1.33ZM207.5 197.25l9.4-5.38c.44-.25.79-.05.79.44v.3a1.71 1.71 0 0 1-.78 1.35l-9.4 5.4c-.43.24-.78.04-.78-.46v-.32a1.72 1.72 0 0 1 .78-1.33ZM207.5 201.45l15.63-8.97c.43-.25.78-.05.78.44v.27a1.72 1.72 0 0 1-.78 1.35l-15.62 8.98c-.43.24-.78.04-.78-.45v-.32a1.73 1.73 0 0 1 .78-1.3ZM207.5 205.66l15.63-8.97c.43-.25.78-.05.78.44v.3a1.72 1.72 0 0 1-.78 1.35l-15.62 8.97c-.43.26-.78 0-.78-.44V207a1.69 1.69 0 0 1 .78-1.34Z" fill="#EBEBEB"/><path d="m120.66 120.4-3.64-2.13v16.85l3.64 2.11V120.4Z" fill="#7FE389"/><path opacity=".1" d="m120.66 120.4-3.64-2.13v16.85l3.64 2.11V120.4Z" fill="#000"/><path d="M336.03 190.03a2.6 2.6 0 0 0-2.59.25 8.08 8.08 0 0 0-3.66 6.28 2.58 2.58 0 0 0 1.06 2.37l45.44 28.72c.9.63 2.25.6 3.73-.26a11.27 11.27 0 0 0 5.13-8.82c0-1.7-.63-2.88-1.64-3.38l-47.47-25.16Z" fill="#7FE389"/><path opacity=".15" d="M329.78 196.6c0 2.32 1.62 3.27 3.64 2.11a8.07 8.07 0 0 0 3.67-6.28c0-2.33-1.63-3.28-3.65-2.12a8.08 8.08 0 0 0-3.66 6.28Z" fill="#000"/><path d="M319.72 183.98a4.89 4.89 0 0 0-2.21 3.83 1.58 1.58 0 0 0 .63 1.43l13.72 7.96a1.53 1.53 0 0 0 1.55-.16 4.85 4.85 0 0 0 2.23-3.85 1.55 1.55 0 0 0-.64-1.43l-13.71-7.97a1.55 1.55 0 0 0-1.57.2Z" fill="#263238"/><path opacity=".1" d="m335.14 197.22 46.75 28.73a9 9 0 0 1-1.87 1.48c-1.48.85-2.8.9-3.74.26l-45.43-28.72a2.56 2.56 0 0 0 2.57-.26c.66-.4 1.24-.9 1.72-1.49Z" fill="#000"/><path d="M342.98 156.33c0-.39 0-.76-.05-1.14-.06-.37-.05-.74-.09-1.1l-.07-.74c-.06-.64-.16-1.27-.26-1.87-.06-.27-.1-.56-.15-.83l-.17-.77c-.16-.69-.32-1.37-.52-2.02l-.3-.9-.05-.14-.33-.9c-.12-.33-.26-.65-.41-.97l-.33-.69a2.65 2.65 0 0 0-.25-.48c-.09-.2-.2-.4-.3-.59l-.08-.13-.3-.5-.2-.33a17.85 17.85 0 0 0-1.62-2.15l-.3-.33-.26-.27-.33-.33a9.9 9.9 0 0 0-1.47-1.28 7.24 7.24 0 0 0-.52-.38 8.2 8.2 0 0 0-.84-.54l-.22-.15h-.05l-9.87-5.73-.07-.05a16.74 16.74 0 0 0-8.37-2.12c-4.36 0-9.28 1.44-14.5 4.45-17.95 10.34-32.44 35.49-32.44 56.19 0 10.31 3.6 17.57 9.45 20.97h.05l9.87 5.73h.06l.16.09a15.84 15.84 0 0 0 2.65 1.15c.15.06.32.11.48.15.17.06.34.12.51.15l.53.13.39.09.7.12h.16l.85.1c4.83.52 10.45-.84 16.47-4.3 17.95-10.36 32.44-35.52 32.44-56.2l-.05-1.4Zm-21.73-14.64c.7 2.58 1.05 5.24 1.02 7.9 0 18.25-13.35 41.38-29.15 50.5a28.2 28.2 0 0 1-7.4 3.08 29.06 29.06 0 0 1-1.02-7.91c0-18.25 13.35-41.38 29.15-50.5 2.31-1.37 4.8-2.4 7.4-3.07Z" fill="#7FE389"/><path opacity=".1" d="m287.17 216.01-9.52-5.5c-5.83-3.42-9.44-10.68-9.44-20.98 0-9.23 2.89-19.33 7.67-28.63l9.88 5.74c-4.8 9.28-7.69 19.4-7.69 28.63.04 10.09 3.44 17.24 9.1 20.74Z" fill="#000"/><path opacity=".4" d="M342.98 156.33c0-.39 0-.76-.05-1.14-.05-.37-.05-.74-.09-1.1l-.07-.74a28 28 0 0 0-.26-1.87c-.06-.27-.1-.56-.15-.83l-.17-.77c-.16-.69-.32-1.37-.52-2.02l-.3-.9a1.2 1.2 0 0 1-.05-.14l-.33-.9c-.12-.33-.26-.65-.41-.97l-.33-.69a2.68 2.68 0 0 0-.25-.48c-.09-.2-.2-.4-.3-.59l-.08-.13-.3-.5-.2-.33a18 18 0 0 0-1.62-2.15l-.3-.33-.26-.27-.33-.33a9.9 9.9 0 0 0-1.47-1.28 6.66 6.66 0 0 0-.52-.38 8.4 8.4 0 0 0-.84-.54c-5.89-3.6-14.36-3.5-23.21 2.09-17.78 11.2-32.36 36.04-32.45 56.2-.05 10.48 3.71 17.8 9.72 21.12a16.3 16.3 0 0 0 2.65 1.16c.16.06.32.1.48.14.17.07.34.12.51.16l.53.13a3 3 0 0 0 .4.08l.7.13h.15l.85.1c4.83.52 10.45-.85 16.47-4.31 17.95-10.35 32.44-35.51 32.44-56.2 0-.46-.02-.93-.04-1.42Zm-35.7 51.97c-4.03 2.33-7.9 3.55-11.2 3.55-6.22 0-9.07-4.24-10.36-8.68a29.04 29.04 0 0 1-1.02-7.91c0-18.25 13.35-41.38 29.16-50.5 2.3-1.37 4.8-2.4 7.4-3.06a16.6 16.6 0 0 1 3.8-.48c10.27 0 11.36 11.6 11.36 16.59 0 18.25-13.34 41.37-29.15 50.5Z" fill="#fff"/><path opacity=".1" d="M336.42 157.8c0 18.25-13.34 41.38-29.15 50.5-4.02 2.33-7.89 3.55-11.19 3.55a9.52 9.52 0 0 1-7.64-3.35l-.47-.58c-.15-.2-.3-.4-.42-.62-.1-.15-.2-.3-.28-.46a4.4 4.4 0 0 1-.17-.3l-.2-.38-.17-.34-.17-.36-.27-.65c-.11-.27-.21-.54-.3-.82-.09-.28-.19-.55-.26-.82a28.2 28.2 0 0 0 7.4-3.08c15.8-9.12 29.15-32.25 29.15-50.5.03-2.66-.32-5.32-1.02-7.9 1.25-.3 2.52-.46 3.8-.47.5 0 1 .03 1.5.09l.47.07c8.43 1.4 9.4 11.78 9.4 16.43Z" fill="#000"/><path opacity=".7" d="M330.75 154.6c0 18.24-13.34 41.37-29.15 50.49-4.02 2.32-7.89 3.59-11.2 3.59-.66 0-1.32-.05-1.97-.16a14.68 14.68 0 0 1-.88-1.2c-.1-.15-.2-.3-.28-.46l-.18-.3-.2-.38c-.07-.12-.12-.23-.17-.35-.05-.11-.12-.23-.17-.36l-.27-.64-.3-.82c-.09-.28-.19-.55-.26-.83a28.2 28.2 0 0 0 7.4-3.08c15.8-9.11 29.16-32.24 29.16-50.49.02-2.67-.32-5.32-1.03-7.9 1.25-.3 2.53-.46 3.8-.47.51 0 1.01.03 1.5.09l.47.07c3.25 3.8 3.73 9.94 3.73 13.2Z" fill="#fff"/></svg>