<svg width="18" height="14" viewBox="0 0 18 14" fill="none" xmlns="http://www.w3.org/2000/svg">
<path fill-rule="evenodd" clip-rule="evenodd" d="M18 7C18 7.55228 17.5523 8 17 8L1 8C0.447715 8 -3.30121e-07 7.55228 -3.0598e-07 7C-2.81839e-07 6.44771 0.447715 6 1 6L17 6C17.5523 6 18 6.44771 18 7ZM12 13C12 13.5523 11.5523 14 11 14L0.999999 14C0.447715 14 -5.92389e-07 13.5523 -5.68248e-07 13C-5.44107e-07 12.4477 0.447715 12 0.999999 12L11 12C11.5523 12 12 12.4477 12 13ZM7 2C7.55229 2 8 1.55228 8 1C8 0.447715 7.55229 -4.56684e-07 7 -4.80825e-07L1 -7.43094e-07C0.447716 -7.67235e-07 -1.95703e-08 0.447714 -4.37114e-08 0.999999C-6.78525e-08 1.55228 0.447716 2 1 2L7 2Z" fill="white"/>
</svg>
